<svg xmlns="http://www.w3.org/2000/svg" viewBox="0 0 750 500"><defs><style>.cls-1{fill:#7fc1c3;}.cls-2,.cls-4{fill:#fff;}.cls-3,.cls-7,.cls-8{fill:none;stroke-miterlimit:10;}.cls-3,.cls-4,.cls-7,.cls-8{stroke:#fff;}.cls-3{opacity:0.25;}.cls-4{stroke-linecap:square;stroke-linejoin:round;}.cls-5{opacity:0.51;}.cls-6{fill:#040000;}.cls-7{stroke-width:2.83px;}.cls-8{stroke-width:8.5px;}</style></defs><g id="레이어_12" data-name="레이어 12"><path class="cls-1" d="M677.63,346.51c.74,0,1.45.05,2.15.1V153.39c-.7.05-1.41.1-2.15.1-7.76,0-14-2.93-14-6.54H644.9c0,3.61-6.29,6.54-14,6.54S616.8,150.56,616.8,147H598.11c0,3.61-6.29,6.54-14.05,6.54s-14-2.93-14-6.54H551.33c0,3.61-6.29,6.54-14.05,6.54s-14-2.93-14-6.54H504.54c0,3.61-6.29,6.54-14.05,6.54s-14-2.93-14-6.54H457.76c0,3.61-6.29,6.54-14.05,6.54s-14-2.93-14-6.54H411c0,3.61-6.29,6.54-14,6.54s-14.05-2.93-14.05-6.54H364.19c0,3.61-6.29,6.54-14.05,6.54s-14.05-2.93-14.05-6.54H317.4c0,3.61-6.29,6.54-14,6.54s-14.05-2.93-14.05-6.54H270.62c0,3.61-6.29,6.54-14.05,6.54s-14-2.93-14-6.54H223.84c0,3.61-6.29,6.54-14.05,6.54s-14-2.93-14-6.54H177.05c0,3.61-6.29,6.54-14.05,6.54S149,150.56,149,147H130.27c0,3.61-6.29,6.54-14.05,6.54s-14-2.93-14-6.54H83.48c0,3.61-6.29,6.54-14,6.54v193c7.76,0,14,2.92,14,6.54h18.69c0-3.62,6.29-6.54,14-6.54s14.05,2.92,14.05,6.54H149c0-3.62,6.29-6.54,14.05-6.54s14.05,2.92,14.05,6.54h18.69c0-3.62,6.29-6.54,14-6.54s14.05,2.92,14.05,6.54h18.68c0-3.62,6.29-6.54,14-6.54s14.05,2.92,14.05,6.54h18.69c0-3.62,6.29-6.54,14.05-6.54s14,2.92,14,6.54h18.69c0-3.62,6.29-6.54,14.05-6.54s14.05,2.92,14.05,6.54h18.69c0-3.62,6.29-6.54,14.05-6.54s14,2.92,14,6.54h18.69c0-3.62,6.29-6.54,14-6.54s14.05,2.92,14.05,6.54h18.69c0-3.62,6.29-6.54,14-6.54s14.05,2.92,14.05,6.54h18.69c0-3.62,6.29-6.54,14-6.54s14.05,2.92,14.05,6.54H570c0-3.62,6.29-6.54,14-6.54s14.05,2.92,14.05,6.54H616.8c0-3.62,6.29-6.54,14.05-6.54s14,2.92,14,6.54h18.69C663.59,349.43,669.87,346.51,677.63,346.51Z"/><path class="cls-2" d="M202,224.18a.72.72,0,0,1,.81-.82h1.35l3,8.42L210,224a.93.93,0,0,1,.33-.46.94.94,0,0,1,.57-.17h1.44v9.18a.61.61,0,0,1-.69.69h-.69V224.7c0,.26-.1.51-.15.73a3.13,3.13,0,0,1-.19.61l-2.3,6.37a.94.94,0,0,1-1,.69h-1.07L203.73,226a4,4,0,0,1-.19-.61c0-.22-.1-.47-.15-.73v7.84a.61.61,0,0,1-.7.69H202Z"/><path class="cls-2" d="M215.13,224.91a.9.9,0,0,1-.65-.24.93.93,0,0,1,0-1.25,1,1,0,0,1,1.3,0,.93.93,0,0,1,0,1.25A.9.9,0,0,1,215.13,224.91Zm-.69,1.8c0-.4.19-.6.58-.6h.79v6.54c0,.39-.2.58-.6.58h-.77Z"/><path class="cls-2" d="M220.25,233.43a4.84,4.84,0,0,1-1.73-.3,4,4,0,0,1-1.4-.89l.38-.5a.47.47,0,0,1,.39-.2.44.44,0,0,1,.28.1,3.75,3.75,0,0,0,.93.5,3.51,3.51,0,0,0,1.15.19,2.29,2.29,0,0,0,1.23-.27.85.85,0,0,0,.42-.73.83.83,0,0,0-.3-.66,2.17,2.17,0,0,0-.95-.41l-.91-.2a7.08,7.08,0,0,1-.87-.2,2.19,2.19,0,0,1-1.16-.74,1.83,1.83,0,0,1-.37-1.2,1.87,1.87,0,0,1,.82-1.55,3.6,3.6,0,0,1,2.1-.56,4.3,4.3,0,0,1,1.6.29,3.32,3.32,0,0,1,1.24.85l-.43.48a.48.48,0,0,1-.36.17.5.5,0,0,1-.29-.11,3.15,3.15,0,0,0-1.8-.57,2,2,0,0,0-1.06.26.84.84,0,0,0-.42.73.71.71,0,0,0,.13.46,1.15,1.15,0,0,0,.56.35,8,8,0,0,0,.88.26c.33.09.63.16.91.22a2.88,2.88,0,0,1,1.6.72,1.75,1.75,0,0,1,.48,1.26,2,2,0,0,1-.23,1,2.06,2.06,0,0,1-.64.71,3.13,3.13,0,0,1-1,.44A4.7,4.7,0,0,1,220.25,233.43Z"/><path class="cls-2" d="M227.09,233.43a4.82,4.82,0,0,1-1.72-.3,4.17,4.17,0,0,1-1.41-.89l.39-.5a.47.47,0,0,1,.39-.2.46.46,0,0,1,.28.1,3.75,3.75,0,0,0,.93.5,3.45,3.45,0,0,0,1.14.19,2.31,2.31,0,0,0,1.24-.27.85.85,0,0,0,.42-.73.83.83,0,0,0-.3-.66,2.16,2.16,0,0,0-1-.41l-.9-.2a7.08,7.08,0,0,1-.87-.2,2.19,2.19,0,0,1-1.16-.74,1.77,1.77,0,0,1-.37-1.2,1.87,1.87,0,0,1,.82-1.55,3.6,3.6,0,0,1,2.1-.56,4.34,4.34,0,0,1,1.6.29,3.2,3.2,0,0,1,1.23.85l-.42.48a.45.45,0,0,1-.65.06,3.15,3.15,0,0,0-1.8-.57,2,2,0,0,0-1.06.26.84.84,0,0,0-.42.73.71.71,0,0,0,.13.46,1.15,1.15,0,0,0,.56.35,8.43,8.43,0,0,0,.87.26l.92.22a2.91,2.91,0,0,1,1.6.72,1.79,1.79,0,0,1,.47,1.26,2,2,0,0,1-.22,1,2.16,2.16,0,0,1-.64.71,3.19,3.19,0,0,1-1,.44A4.65,4.65,0,0,1,227.09,233.43Z"/><path class="cls-2" d="M232.26,224.91a.88.88,0,0,1-.64-.24.91.91,0,0,1,0-1.25.88.88,0,0,1,.64-.24.9.9,0,0,1,.65.24.93.93,0,0,1,0,1.25A.9.9,0,0,1,232.26,224.91Zm-.69,1.8a.52.52,0,0,1,.59-.6h.78v6.54c0,.39-.2.58-.6.58h-.77Z"/><path class="cls-2" d="M238.07,233.43a3.8,3.8,0,0,1-1.49-.28,3.25,3.25,0,0,1-1.17-.78,3.53,3.53,0,0,1-.77-1.21,4.22,4.22,0,0,1-.27-1.54,4.17,4.17,0,0,1,.27-1.53,3.53,3.53,0,0,1,.77-1.21,3.41,3.41,0,0,1,1.17-.79,4.1,4.1,0,0,1,3,0,3.45,3.45,0,0,1,1.18.79,3.66,3.66,0,0,1,.76,1.21,4.17,4.17,0,0,1,.27,1.53,4.22,4.22,0,0,1-.27,1.54,3.66,3.66,0,0,1-.76,1.21,3.29,3.29,0,0,1-1.18.78A3.8,3.8,0,0,1,238.07,233.43Zm0-1.13a2,2,0,0,0,.93-.2,2.16,2.16,0,0,0,.72-.55,2.61,2.61,0,0,0,.48-.85,3.35,3.35,0,0,0,.16-1.08,3.4,3.4,0,0,0-.16-1.08,2.56,2.56,0,0,0-.48-.84,2.13,2.13,0,0,0-1.65-.75,2.07,2.07,0,0,0-.93.2,2.13,2.13,0,0,0-.72.55,2.56,2.56,0,0,0-.48.84,3.14,3.14,0,0,0-.17,1.08,3.1,3.1,0,0,0,.17,1.08,2.61,2.61,0,0,0,.48.85,2.27,2.27,0,0,0,.72.55A2.07,2.07,0,0,0,238.07,232.3Z"/><path class="cls-2" d="M247.88,228.8a2,2,0,0,0-.44-1.34,1.59,1.59,0,0,0-1.24-.5,1.87,1.87,0,0,0-.78.15,1.51,1.51,0,0,0-.57.42,1.76,1.76,0,0,0-.49,1.24v3.88c0,.39-.2.58-.6.58H243v-6.64a.52.52,0,0,1,.58-.59h.79v1a2.5,2.5,0,0,1,1-.9,2.85,2.85,0,0,1,1.34-.32,2.68,2.68,0,0,1,1.09.22,2.29,2.29,0,0,1,.81.59,2.64,2.64,0,0,1,.51.92,4.07,4.07,0,0,1,.17,1.19v3.92c0,.39-.2.58-.6.58h-.78Z"/><path class="cls-2" d="M258.48,233.5a5.18,5.18,0,0,1-2-.37,4.65,4.65,0,0,1-2.64-2.69,6.22,6.22,0,0,1,0-4.28,4.72,4.72,0,0,1,1.05-1.64,4.62,4.62,0,0,1,1.59-1,5.18,5.18,0,0,1,2-.37,4.25,4.25,0,0,1,3.84,2l-.6.4a.65.65,0,0,1-.36.12.47.47,0,0,1-.39-.2,3.06,3.06,0,0,0-1.09-.86,3.24,3.24,0,0,0-1.4-.28,3.53,3.53,0,0,0-1.42.28,3.46,3.46,0,0,0-1.14.82,3.86,3.86,0,0,0-.75,1.28,5.21,5.21,0,0,0,0,3.31,3.86,3.86,0,0,0,.75,1.28,3.46,3.46,0,0,0,1.14.82,3.53,3.53,0,0,0,1.42.28,3.37,3.37,0,0,0,1.44-.3,3.5,3.5,0,0,0,1.14-.91.47.47,0,0,1,.4-.19.68.68,0,0,1,.34.11l.61.39a5.46,5.46,0,0,1-1.7,1.55A4.56,4.56,0,0,1,258.48,233.5Z"/><path class="cls-2" d="M266.3,233.43a3.8,3.8,0,0,1-1.49-.28,3.17,3.17,0,0,1-1.17-.78,3.53,3.53,0,0,1-.77-1.21,4.22,4.22,0,0,1-.27-1.54,4.17,4.17,0,0,1,.27-1.53,3.53,3.53,0,0,1,.77-1.21,3.32,3.32,0,0,1,1.17-.79,4.1,4.1,0,0,1,3,0,3.41,3.41,0,0,1,1.17.79,3.53,3.53,0,0,1,.77,1.21,4.17,4.17,0,0,1,.27,1.53,4.22,4.22,0,0,1-.27,1.54,3.53,3.53,0,0,1-.77,1.21,3.25,3.25,0,0,1-1.17.78A3.8,3.8,0,0,1,266.3,233.43Zm0-1.13a2,2,0,0,0,.92-.2,2.1,2.1,0,0,0,.73-.55,2.42,2.42,0,0,0,.47-.85,3.1,3.1,0,0,0,.17-1.08,3.14,3.14,0,0,0-.17-1.08,2.38,2.38,0,0,0-.47-.84,2.17,2.17,0,0,0-1.65-.75,2.13,2.13,0,0,0-1.65.75,2.4,2.4,0,0,0-.48.84,3.14,3.14,0,0,0-.18,1.08,3.1,3.1,0,0,0,.18,1.08,2.44,2.44,0,0,0,.48.85,2.16,2.16,0,0,0,.72.55A2,2,0,0,0,266.3,232.3Z"/><path class="cls-2" d="M279.83,228.67a2,2,0,0,0-.36-1.26,1.2,1.2,0,0,0-1-.45,1.32,1.32,0,0,0-.62.15,1.68,1.68,0,0,0-.51.4,2,2,0,0,0-.33.56,1.82,1.82,0,0,0-.12.65v3.93c0,.39-.2.58-.6.58h-.77v-4.56a2,2,0,0,0-.36-1.26,1.2,1.2,0,0,0-1-.45,1.39,1.39,0,0,0-.63.15,1.76,1.76,0,0,0-.5.4,1.79,1.79,0,0,0-.34.56,1.82,1.82,0,0,0-.12.65v3.93c0,.39-.2.58-.6.58h-.75v-6.64a.52.52,0,0,1,.58-.59h.77v.89a3.12,3.12,0,0,1,.92-.79,2.31,2.31,0,0,1,1.15-.29,2.1,2.1,0,0,1,1.25.37,2.17,2.17,0,0,1,.76,1,3,3,0,0,1,1-1,2.41,2.41,0,0,1,1.3-.35,2.13,2.13,0,0,1,1,.21,2,2,0,0,1,.71.58,2.47,2.47,0,0,1,.44.89,3.92,3.92,0,0,1,.15,1.11v4.05c0,.39-.2.58-.6.58h-.78Z"/><path class="cls-2" d="M286.68,233.43a2.93,2.93,0,0,1-1.41-.32,3,3,0,0,1-1-.89v3.07c0,.39-.2.58-.6.58h-.77v-9.28a.52.52,0,0,1,.58-.59h.79v1a2.93,2.93,0,0,1,1-.88,3.05,3.05,0,0,1,1.41-.32,3.42,3.42,0,0,1,1.37.28,3.2,3.2,0,0,1,1.07.79,3.72,3.72,0,0,1,.71,1.21,4.63,4.63,0,0,1,.25,1.53,4.69,4.69,0,0,1-.25,1.54,3.72,3.72,0,0,1-.71,1.21,3,3,0,0,1-1.07.78A3.26,3.26,0,0,1,286.68,233.43Zm-.24-1.13a1.92,1.92,0,0,0,.9-.2,2.09,2.09,0,0,0,.7-.55,2.57,2.57,0,0,0,.46-.85,3.35,3.35,0,0,0,.17-1.08,3.4,3.4,0,0,0-.17-1.08,2.52,2.52,0,0,0-.46-.84,2,2,0,0,0-.7-.55,2.13,2.13,0,0,0-1.8,0,2.06,2.06,0,0,0-.7.55,2.7,2.7,0,0,0-.45.84,3.4,3.4,0,0,0-.16,1.08,3.35,3.35,0,0,0,.16,1.08,2.75,2.75,0,0,0,.45.85,2.19,2.19,0,0,0,.7.55A1.92,1.92,0,0,0,286.44,232.3Z"/><path class="cls-2" d="M291.42,224a.52.52,0,0,1,.59-.59h.79v9.29c0,.39-.2.58-.6.58h-.78Z"/><path class="cls-2" d="M297.66,233.43a3.61,3.61,0,0,1-1.45-.28,3.1,3.1,0,0,1-1.13-.78,3.61,3.61,0,0,1-.74-1.21,4.22,4.22,0,0,1-.27-1.54,4.17,4.17,0,0,1,.27-1.53,3.61,3.61,0,0,1,.74-1.21,3.25,3.25,0,0,1,1.13-.79,3.78,3.78,0,0,1,1.45-.28,3.6,3.6,0,0,1,1.44.29,3.26,3.26,0,0,1,1.11.79,3.51,3.51,0,0,1,.71,1.18,4.07,4.07,0,0,1,.24,1.5c0,.35-.19.52-.57.52H295.5a3.14,3.14,0,0,0,.25.9,2.43,2.43,0,0,0,.46.7,1.85,1.85,0,0,0,.65.45,1.94,1.94,0,0,0,.8.16,3.49,3.49,0,0,0,1.16-.18,3.94,3.94,0,0,0,.94-.52.39.39,0,0,1,.28-.1.47.47,0,0,1,.36.16l.41.46a5,5,0,0,1-1.39,1A4.29,4.29,0,0,1,297.66,233.43Zm-2.19-4a1.46,1.46,0,0,1,.44-.29,1.62,1.62,0,0,1,.54-.1h3.25a2,2,0,0,0-.17-.81,2.06,2.06,0,0,0-.44-.66,2,2,0,0,0-1.43-.6,2,2,0,0,0-1.52.69,2.54,2.54,0,0,0-.47.78A3.41,3.41,0,0,0,295.47,229.41Z"/><path class="cls-2" d="M301.69,226.51a.45.45,0,0,1,.51-.51H303v-1.68c0-.39.2-.58.6-.58h.78V226h2.21v.65a.45.45,0,0,1-.5.51h-1.71v4.22a1,1,0,0,0,.22.71.82.82,0,0,0,.61.23,1,1,0,0,0,.41-.1l.39-.2a.56.56,0,0,1,.22-.06.45.45,0,0,1,.39.26l.28.49a3.55,3.55,0,0,1-.87.54,2.58,2.58,0,0,1-1,.18,2.21,2.21,0,0,1-1.5-.48,1.88,1.88,0,0,1-.56-1.51v-4.28h-1.34Z"/><path class="cls-2" d="M310.9,233.43a3.64,3.64,0,0,1-1.45-.28,3.18,3.18,0,0,1-1.13-.78,3.78,3.78,0,0,1-.74-1.21,4.44,4.44,0,0,1-.26-1.54,4.38,4.38,0,0,1,.26-1.53,3.78,3.78,0,0,1,.74-1.21,3.34,3.34,0,0,1,1.13-.79,3.82,3.82,0,0,1,1.45-.28,3.6,3.6,0,0,1,1.44.29,3.26,3.26,0,0,1,1.11.79,3.36,3.36,0,0,1,.71,1.18,4.07,4.07,0,0,1,.24,1.5c0,.35-.19.52-.57.52h-5.09a3.5,3.5,0,0,0,.25.9,2.43,2.43,0,0,0,.46.7,1.85,1.85,0,0,0,.65.45,2,2,0,0,0,.8.16,3.45,3.45,0,0,0,1.16-.18,4,4,0,0,0,.95-.52.36.36,0,0,1,.27-.1.44.44,0,0,1,.36.16l.42.46a5,5,0,0,1-1.4,1A4.29,4.29,0,0,1,310.9,233.43Zm-2.18-4a1.42,1.42,0,0,1,.43-.29,1.62,1.62,0,0,1,.54-.1h3.25a2,2,0,0,0-.17-.81,2.06,2.06,0,0,0-.44-.66,1.79,1.79,0,0,0-.64-.44,1.89,1.89,0,0,0-.79-.16,2,2,0,0,0-.84.18,2.1,2.1,0,0,0-.68.51,2.51,2.51,0,0,0-.46.78A2.86,2.86,0,0,0,308.72,229.41Z"/><path class="cls-2" d="M321.09,232.24a3.07,3.07,0,0,1-1,.87,2.88,2.88,0,0,1-1.41.32,3.2,3.2,0,0,1-1.35-.28,3,3,0,0,1-1.08-.78,3.55,3.55,0,0,1-.71-1.21,4.44,4.44,0,0,1-.25-1.54,4.39,4.39,0,0,1,.25-1.53,3.55,3.55,0,0,1,.71-1.21,3.15,3.15,0,0,1,1.08-.79,3.36,3.36,0,0,1,1.35-.28,3,3,0,0,1,1.41.32,3.22,3.22,0,0,1,1,.88V224a.53.53,0,0,1,.6-.59h.79v9.29c0,.39-.2.58-.6.58h-.79Zm-2.21.06a1.92,1.92,0,0,0,.9-.2,2.19,2.19,0,0,0,.7-.55,2.56,2.56,0,0,0,.45-.85,3.35,3.35,0,0,0,.16-1.08,3.4,3.4,0,0,0-.16-1.08,2.51,2.51,0,0,0-.45-.84,2.06,2.06,0,0,0-.7-.55,2.13,2.13,0,0,0-1.8,0,2.06,2.06,0,0,0-.7.55,2.71,2.71,0,0,0-.46.84,3.4,3.4,0,0,0-.16,1.08,3.35,3.35,0,0,0,.16,1.08,2.77,2.77,0,0,0,.46.85,2.19,2.19,0,0,0,.7.55A1.92,1.92,0,0,0,318.88,232.3Z"/><path class="cls-2" d="M225.31,246c0,.83,0,1.75-.13,2.75s-.21,2-.38,2.95h3.65v1.69a.93.93,0,0,1-1.06,1.06H217.24v3.71h7.81v8.91a1.42,1.42,0,0,1-1.6,1.6H205.9v-8.9a1.43,1.43,0,0,1,1.61-1.61h6.21v-3.71H202.51v-1.7a.93.93,0,0,1,1.06-1.05h7q.19-1.32.3-2.58c.08-.85.12-1.67.12-2.48v-2.73h-6.41v-1.69a1,1,0,0,1,1.09-1.09h8.77V246c0,.83,0,1.75-.12,2.75s-.22,2-.39,2.95h7.49a34.06,34.06,0,0,0,.39-5.06v-2.73H215.7v-1.69a1,1,0,0,1,1.06-1.09h8.55Zm-3.75,14.92H209.39v5h12.17Z"/><path class="cls-2" d="M257.65,254.32a.92.92,0,0,1-1,1H231.71v-1.6a.94.94,0,0,1,1.06-1.06h24.88Zm-3,13.61a.93.93,0,0,1-1.06,1.06H235.24v-5.64a1.42,1.42,0,0,1,1.6-1.6h13.8V259.8h-15.4v-1.6a.93.93,0,0,1,1-1.06h17.84v5.51a1.41,1.41,0,0,1-1.6,1.6h-13.8v2.11h15.88Zm-9.93-28.4a13.62,13.62,0,0,1,3.72.46,8.65,8.65,0,0,1,2.75,1.28,5.67,5.67,0,0,1,1.7,1.88,4.7,4.7,0,0,1,.58,2.27,4.84,4.84,0,0,1-.58,2.29,5.46,5.46,0,0,1-1.7,1.87,8.64,8.64,0,0,1-2.75,1.27,15.23,15.23,0,0,1-7.43,0,8.64,8.64,0,0,1-2.75-1.27,5.46,5.46,0,0,1-1.7-1.87,4.72,4.72,0,0,1-.58-2.29,4.59,4.59,0,0,1,.58-2.27,5.67,5.67,0,0,1,1.7-1.88A8.65,8.65,0,0,1,241,240,13.6,13.6,0,0,1,244.68,239.53Zm5.26,5.89a2.68,2.68,0,0,0-1.38-2.27,8.54,8.54,0,0,0-7.75,0,2.56,2.56,0,0,0,0,4.54,8.54,8.54,0,0,0,7.75,0A2.69,2.69,0,0,0,249.94,245.42Z"/><path class="cls-2" d="M287.43,254.07a1.2,1.2,0,0,1-1.08,1.31c-1.16.19-2.37.35-3.65.48s-2.59.21-3.91.26v2.43a1.29,1.29,0,0,1-.39.94,1.59,1.59,0,0,1-1.21.4h-1.92v-3.74h-7v-1.73a.94.94,0,0,1,1.06-1.06h8.52c1.54,0,3.11-.06,4.72-.19a37.08,37.08,0,0,0,4.85-.71ZM277.89,240a10.12,10.12,0,0,1,2.88.4,7.62,7.62,0,0,1,2.45,1.17,5.86,5.86,0,0,1,1.72,1.89,5.06,5.06,0,0,1,.64,2.53,5,5,0,0,1-.64,2.51,5.9,5.9,0,0,1-1.72,1.87,7.62,7.62,0,0,1-2.45,1.17,10.5,10.5,0,0,1-5.74,0,7.62,7.62,0,0,1-2.47-1.17,5.75,5.75,0,0,1-1.71-1.87,4.88,4.88,0,0,1-.64-2.51,5,5,0,0,1,.64-2.53,5.72,5.72,0,0,1,1.71-1.89,7.62,7.62,0,0,1,2.47-1.17A10.13,10.13,0,0,1,277.89,240Zm14.83,27.6a.93.93,0,0,1-1.06,1.06h-18v-6a1.42,1.42,0,0,1,1.6-1.6h1.89v4.83h15.6Zm-14.83-24.85a5.84,5.84,0,0,0-1.66.23,4.11,4.11,0,0,0-1.35.64,3,3,0,0,0-.9,1,2.89,2.89,0,0,0-.32,1.35,2.74,2.74,0,0,0,.32,1.32,3.27,3.27,0,0,0,.9,1,4.15,4.15,0,0,0,1.35.66,5.85,5.85,0,0,0,1.66.22,6,6,0,0,0,1.67-.22,4.09,4.09,0,0,0,1.34-.66,3,3,0,0,0,.9-1,2.74,2.74,0,0,0,.32-1.32,2.89,2.89,0,0,0-.32-1.35,2.83,2.83,0,0,0-.9-1,4.06,4.06,0,0,0-1.34-.64A6,6,0,0,0,277.89,242.76Zm14.35,18.8a1.4,1.4,0,0,1-1.6,1.57h-1.89v-2.82H282.5v-1.73a.94.94,0,0,1,1.06-1.06h5.19V242.41a1.41,1.41,0,0,1,1.6-1.6h1.89Z"/><path class="cls-2" d="M310.71,259.38a1.18,1.18,0,0,1-1.08,1.31,26.53,26.53,0,0,1-3.32.47c-1.18.09-2.32.14-3.41.14h-4.23V243.5a1.4,1.4,0,0,1,1.6-1.57h9.32v1.66a.93.93,0,0,1-1,1.06H302v13.9h1.82a31.83,31.83,0,0,0,3.3-.18,35.89,35.89,0,0,0,3.55-.53Zm11.05,7.69a1.42,1.42,0,0,1-1.6,1.6H318.4V252.56h-3.2v14.19a1.41,1.41,0,0,1-1.57,1.6h-1.79V242.41a1.41,1.41,0,0,1,1.6-1.6h1.76v9h3.2v-7.4a1.4,1.4,0,0,1,1.57-1.6h1.79Z"/><path class="cls-2" d="M343.12,245.13a.94.94,0,0,1-1.06,1.06H326.41v-1.7a.94.94,0,0,1,1-1.06h5.7v-2.24a1.19,1.19,0,0,1,1.35-1.34h2.17v3.58h6.44Zm-8.2,2.18a8.48,8.48,0,0,1,2.89.49,7.75,7.75,0,0,1,2.46,1.46,7,7,0,0,1,1.73,2.36,8.25,8.25,0,0,1,0,6.37,6.94,6.94,0,0,1-1.73,2.35,7.57,7.57,0,0,1-2.46,1.46,8.68,8.68,0,0,1-5.75,0,7.46,7.46,0,0,1-2.48-1.46,6.81,6.81,0,0,1-1.73-2.35,8.25,8.25,0,0,1,0-6.37,6.85,6.85,0,0,1,1.73-2.36,7.63,7.63,0,0,1,2.48-1.46A8.47,8.47,0,0,1,334.92,247.31Zm4.23,7.49a6,6,0,0,0-.32-2,4,4,0,0,0-.9-1.48,4.13,4.13,0,0,0-1.34-.91,4.49,4.49,0,0,0-3.33,0,4.29,4.29,0,0,0-1.35.91,4.12,4.12,0,0,0-.89,1.48,5.77,5.77,0,0,0-.32,2,5.92,5.92,0,0,0,.32,2.05,3.86,3.86,0,0,0,2.24,2.4,4.49,4.49,0,0,0,3.33,0,3.84,3.84,0,0,0,1.34-.91,3.89,3.89,0,0,0,.9-1.49A6.17,6.17,0,0,0,339.15,254.8ZM354,252.88a.92.92,0,0,1-1.05,1h-3.62v13.16a1.42,1.42,0,0,1-1.61,1.6h-1.88V242.41a1.41,1.41,0,0,1,1.6-1.6h1.89v10.34H354Z"/><path class="cls-2" d="M374.38,266.75a1.41,1.41,0,0,1-1.57,1.6H371V253.94h-4.8a21.16,21.16,0,0,1-2.91,4.62,21.56,21.56,0,0,1-4.17,3.83,1.75,1.75,0,0,1-1,.35,1.68,1.68,0,0,1-1.19-.54l-1-1a18.87,18.87,0,0,0,6.6-7.11,20.65,20.65,0,0,0,2.34-9.42h-8V243a1,1,0,0,1,1.09-1.09h10.34v1.76a25.1,25.1,0,0,1-1.08,7.46H371v-8.74a1.42,1.42,0,0,1,1.61-1.6h1.76Zm5.79.32a1.42,1.42,0,0,1-1.6,1.6h-1.76V242.41a1.4,1.4,0,0,1,1.57-1.6h1.79Z"/><line class="cls-3" x1="110.5" y1="298.17" x2="640.29" y2="298.17"/><path class="cls-4" d="M134,260.2l-16.48-1.1a1.11,1.11,0,0,1-.56-2l54.41-37.55a1.12,1.12,0,0,1,1.76.92l-.1,50.32a1.11,1.11,0,0,1-1.48,1.05l-15.67-5.38a1.13,1.13,0,0,0-1.23.35l-8.28,10.06a1.12,1.12,0,0,1-2-.71V263.35a1.08,1.08,0,0,1,.18-.6L159.93,239a1.12,1.12,0,0,0-1.71-1.42l-23.4,22.29A1.09,1.09,0,0,1,134,260.2Z"/><path class="cls-2" d="M116.88,197.21a1.28,1.28,0,0,1-1.46,1.44h-9.87v-1a1.9,1.9,0,0,1,.19-.83,3.37,3.37,0,0,1,.51-.76l4.91-5.23a9.74,9.74,0,0,0,1.48-2,3.8,3.8,0,0,0,.53-1.9,2.25,2.25,0,0,0-.52-1.55,1.88,1.88,0,0,0-1.49-.59,2.38,2.38,0,0,0-1.64.61,2.92,2.92,0,0,0-.9,1.63,1.2,1.2,0,0,1-.52.81,1.36,1.36,0,0,1-.9.23l-1.54-.11a7.35,7.35,0,0,1,.53-2.59,5.41,5.41,0,0,1,1.2-1.79,4.59,4.59,0,0,1,1.71-1,6.31,6.31,0,0,1,2.06-.33,6.11,6.11,0,0,1,2.11.34,4.7,4.7,0,0,1,1.61.95,4.2,4.2,0,0,1,1,1.48,4.81,4.81,0,0,1,.37,1.93,5.71,5.71,0,0,1-.67,2.67,11.1,11.1,0,0,1-2,2.6l-4.11,4.21a1.9,1.9,0,0,1,.71-.23,4.43,4.43,0,0,1,.8-.09h5.82Z"/><path class="cls-2" d="M130.32,190.71a14.36,14.36,0,0,1-.42,3.65,8.32,8.32,0,0,1-1.2,2.65,5.11,5.11,0,0,1-1.86,1.62,5.29,5.29,0,0,1-2.43.55,5.18,5.18,0,0,1-2.41-.55,5,5,0,0,1-1.85-1.62,7.9,7.9,0,0,1-1.2-2.65,16.07,16.07,0,0,1,0-7.3,7.85,7.85,0,0,1,1.2-2.64,5,5,0,0,1,4.26-2.17,5.07,5.07,0,0,1,4.29,2.17,8.26,8.26,0,0,1,1.2,2.64A14.31,14.31,0,0,1,130.32,190.71Zm-3.18,0a10.39,10.39,0,0,0-.73-4.39,2.07,2.07,0,0,0-4,0,13.66,13.66,0,0,0,0,8.81,2.07,2.07,0,0,0,4,0A10.45,10.45,0,0,0,127.14,190.71Z"/><path class="cls-2" d="M143.08,197.21a1.28,1.28,0,0,1-1.46,1.44h-9.86v-1a1.9,1.9,0,0,1,.19-.83,3.07,3.07,0,0,1,.51-.76l4.91-5.23a10.13,10.13,0,0,0,1.48-2,3.91,3.91,0,0,0,.53-1.9,2.25,2.25,0,0,0-.52-1.55,1.89,1.89,0,0,0-1.49-.59,2.35,2.35,0,0,0-1.64.61,2.92,2.92,0,0,0-.9,1.63,1.24,1.24,0,0,1-.52.81,1.39,1.39,0,0,1-.9.23l-1.55-.11a7.57,7.57,0,0,1,.53-2.59,5.28,5.28,0,0,1,1.21-1.79,4.55,4.55,0,0,1,1.7-1,6.37,6.37,0,0,1,2.07-.33,6,6,0,0,1,2.1.34,4.52,4.52,0,0,1,1.61.95,4.22,4.22,0,0,1,1,1.48,4.81,4.81,0,0,1,.37,1.93,5.73,5.73,0,0,1-.68,2.67,11,11,0,0,1-1.94,2.6l-4.11,4.21a1.84,1.84,0,0,1,.71-.23,4.42,4.42,0,0,1,.79-.09h5.82Z"/><path class="cls-2" d="M156.4,193.72a5.23,5.23,0,0,1-.46,2.23,5.13,5.13,0,0,1-1.24,1.73,5.42,5.42,0,0,1-1.84,1.11,6.74,6.74,0,0,1-4.52,0,5.55,5.55,0,0,1-1.82-1.09,5,5,0,0,1-1.21-1.67,5,5,0,0,1-.45-2.14,7.67,7.67,0,0,1,.44-2.51,14.87,14.87,0,0,1,1-2.32l3.13-5.73a1.25,1.25,0,0,1,.58-.58,2,2,0,0,1,1-.18h2.22l-3.24,6a2.87,2.87,0,0,1,1.23-.24,5.56,5.56,0,0,1,2.07.38,5.07,5.07,0,0,1,1.66,1.08,5,5,0,0,1,1.09,1.71A6.18,6.18,0,0,1,156.4,193.72Zm-3.24,0a3.6,3.6,0,0,0-.18-1.15,2.79,2.79,0,0,0-.51-.93,2.43,2.43,0,0,0-.8-.62,2.5,2.5,0,0,0-1.07-.22,2.36,2.36,0,0,0-1,.22,2.43,2.43,0,0,0-.8.62,2.64,2.64,0,0,0-.52.93,3.6,3.6,0,0,0-.18,1.15,3.49,3.49,0,0,0,.18,1.14,2.78,2.78,0,0,0,.52.94,2.43,2.43,0,0,0,.8.62,2.36,2.36,0,0,0,1,.22,2.5,2.5,0,0,0,1.07-.22,2.43,2.43,0,0,0,.8-.62,2.94,2.94,0,0,0,.51-.94A3.49,3.49,0,0,0,153.16,193.72Z"/><path class="cls-2" d="M170.62,199.08a8.44,8.44,0,0,1-3.23-.61,7.59,7.59,0,0,1-2.61-1.69,7.74,7.74,0,0,1-1.72-2.64,9.63,9.63,0,0,1,0-6.85,7.78,7.78,0,0,1,1.72-2.65,7.45,7.45,0,0,1,2.61-1.69,9,9,0,0,1,6.48,0,7.56,7.56,0,0,1,4.34,4.34,9.63,9.63,0,0,1,0,6.85,7.62,7.62,0,0,1-1.73,2.64,7.78,7.78,0,0,1-2.61,1.69A8.43,8.43,0,0,1,170.62,199.08Zm0-2.54a4.75,4.75,0,0,0,2-.42,4.39,4.39,0,0,0,1.59-1.17,5.43,5.43,0,0,0,1-1.84,7.74,7.74,0,0,0,0-4.79,5.43,5.43,0,0,0-1-1.84,4.39,4.39,0,0,0-1.59-1.17,4.95,4.95,0,0,0-4,0,4.62,4.62,0,0,0-1.58,1.17,5.29,5.29,0,0,0-1.06,1.84,7.74,7.74,0,0,0,0,4.79,5.29,5.29,0,0,0,1.06,1.84,4.62,4.62,0,0,0,1.58,1.17A4.7,4.7,0,0,0,170.62,196.54Z"/><path class="cls-2" d="M181,184.64a1.65,1.65,0,0,1,1.87-1.86h1.73l6.37,10a4.64,4.64,0,0,1,.48,1.06c.12.38.22.77.31,1.16V184.45a1.48,1.48,0,0,1,1.69-1.67h1.46v14a1.63,1.63,0,0,1-1.86,1.84h-1.74l-6.37-10a4.54,4.54,0,0,1-.47-1q-.18-.56-.33-1.17V197a1.47,1.47,0,0,1-1.68,1.65H181Z"/><path class="cls-2" d="M198,184.45a1.47,1.47,0,0,1,1.67-1.67h1.47v13.76a2.27,2.27,0,0,1,1.39-.43h5.95v1.1a1.28,1.28,0,0,1-1.46,1.44h-9Z"/><path class="cls-2" d="M211.73,192.6l-5.18-8.51a1.45,1.45,0,0,1-.24-.72,1.49,1.49,0,0,1,0-.21c.07-.26.33-.38.77-.38h2.26l3.94,6.92,3.47-6.1a1.52,1.52,0,0,1,.61-.62,2.1,2.1,0,0,1,1-.2h2.48l-6,9.82V197a1.47,1.47,0,0,1-1.68,1.65h-1.46Z"/><path class="cls-2" d="M228.9,199.08a8.46,8.46,0,0,1-3.24-.61,7.64,7.64,0,0,1-2.6-1.69,7.76,7.76,0,0,1-1.73-2.64,9.77,9.77,0,0,1,0-6.85,7.81,7.81,0,0,1,1.73-2.65,7.5,7.5,0,0,1,2.6-1.69,9.08,9.08,0,0,1,6.49,0,7.69,7.69,0,0,1,2.6,1.69,7.83,7.83,0,0,1,1.74,2.65,9.77,9.77,0,0,1,0,6.85,7.66,7.66,0,0,1-4.34,4.33A8.47,8.47,0,0,1,228.9,199.08Zm0-2.54a4.75,4.75,0,0,0,2-.42,4.56,4.56,0,0,0,1.59-1.17,5.79,5.79,0,0,0,1-1.84,7.74,7.74,0,0,0,0-4.79,5.79,5.79,0,0,0-1-1.84,4.56,4.56,0,0,0-1.59-1.17,4.95,4.95,0,0,0-4,0,4.56,4.56,0,0,0-1.59,1.17,5.62,5.62,0,0,0-1.06,1.84,7.74,7.74,0,0,0,0,4.79,5.62,5.62,0,0,0,1.06,1.84,4.56,4.56,0,0,0,1.59,1.17A4.7,4.7,0,0,0,228.9,196.54Z"/><path class="cls-2" d="M239.25,184.64a1.64,1.64,0,0,1,1.86-1.86h1.74l6.37,10a4.64,4.64,0,0,1,.48,1.06A11.61,11.61,0,0,1,250,195V184.45a1.49,1.49,0,0,1,1.7-1.67h1.46v14a1.63,1.63,0,0,1-1.86,1.84h-1.74l-6.37-10a4.56,4.56,0,0,1-.48-1q-.18-.56-.33-1.17V197a1.46,1.46,0,0,1-1.67,1.65h-1.46Z"/><path class="cls-2" d="M256.25,184.64a1.64,1.64,0,0,1,1.86-1.86h9.08v1a1.28,1.28,0,0,1-1.46,1.44h-6.35v4.55a2.37,2.37,0,0,1,1.4-.42h6v1a1.28,1.28,0,0,1-1.46,1.43h-5.93v4.83a2.37,2.37,0,0,1,1.4-.42h6.62v1a1.28,1.28,0,0,1-1.46,1.44h-9.69Z"/><path class="cls-2" d="M274.24,184.64a1.64,1.64,0,0,1,1.86-1.86h8.66v1.1a1.28,1.28,0,0,1-1.46,1.44h-5.92v4.53a2.22,2.22,0,0,1,1.39-.43h5.36v1.1a1.27,1.27,0,0,1-1.46,1.42h-5.29V197a1.47,1.47,0,0,1-1.68,1.65h-1.46Z"/><path class="cls-2" d="M289.44,184.32a2.66,2.66,0,0,1,.76-1.14,2,2,0,0,1,1.29-.4h2.23l5.37,14.35a1.45,1.45,0,0,1,.13.57.75.75,0,0,1-.19.53,1.37,1.37,0,0,1-1.1.42h-1.44l-1.55-4.23a2.73,2.73,0,0,1-1.54.49h-3.83l.55-1.61a1.48,1.48,0,0,1,1.5-1h2.58l-2.47-6.77c-.05.34-.11.69-.18,1a7.74,7.74,0,0,1-.31,1l-3.62,9.84a1.6,1.6,0,0,1-1.63,1.16h-1.93Z"/><path class="cls-2" d="M301.27,184.45a1.48,1.48,0,0,1,1.68-1.67h1.46V197a1.47,1.47,0,0,1-1.68,1.65h-1.46Z"/><path class="cls-2" d="M307.6,184.64a1.65,1.65,0,0,1,1.87-1.86H314a6.71,6.71,0,0,1,2.22.35,5.32,5.32,0,0,1,1.78,1,4.69,4.69,0,0,1,1.21,1.57,4.61,4.61,0,0,1,.44,2.06,4.51,4.51,0,0,1-.81,2.71,5,5,0,0,1-2.15,1.69l3.09,5.25a1.33,1.33,0,0,1,.24.66.56.56,0,0,1-.05.23c-.11.24-.38.36-.8.36H317l-3.43-6h-2.81V197a1.47,1.47,0,0,1-1.68,1.65H307.6Zm3.14,6a2.21,2.21,0,0,1,1.39-.42h1.27a5.79,5.79,0,0,0,1.19-.12,2.93,2.93,0,0,0,1-.4,2.21,2.21,0,0,0,.72-.74,2.17,2.17,0,0,0,.28-1.16,2.19,2.19,0,0,0-.28-1.16,2.16,2.16,0,0,0-.72-.75,2.94,2.94,0,0,0-1-.41,6.58,6.58,0,0,0-1.19-.11h-2.66Z"/><rect class="cls-2" x="498.89" y="223.05" width="135" height="47" rx="23.5"/><path class="cls-1" d="M524.08,239.84a.7.7,0,0,1,.79-.79h8.34v1.18a10.35,10.35,0,0,1-.6,3.53,12.77,12.77,0,0,1-1.62,3.08,15.22,15.22,0,0,1-2.36,2.59,20.73,20.73,0,0,1-2.86,2.09,1.16,1.16,0,0,1-1.63-.27l-.65-.79a12.72,12.72,0,0,0,1.59-.91,16.73,16.73,0,0,0,1.52-1.14,11.81,11.81,0,0,0,1.39-1.35,13.53,13.53,0,0,0,1.18-1.53h-5.09v-1.06a.69.69,0,0,1,.79-.78h5.26a8.59,8.59,0,0,0,.57-2.75h-6.62Zm11.35-.28a1,1,0,0,1,1.18-1.17h1.26v15.9a1,1,0,0,1-1.18,1.18h-1.26Z"/><path class="cls-1" d="M540.71,239.56a.69.69,0,0,1,.79-.78h6.6v.78a8.11,8.11,0,0,1-.4,2.52,8,8,0,0,1-1.14,2.23,8.84,8.84,0,0,1-1.82,1.85,10.87,10.87,0,0,1-2.46,1.4,1.72,1.72,0,0,1-.66.13,1.11,1.11,0,0,1-1-.47l-.53-.71a13.64,13.64,0,0,0,2.43-1.28,8.37,8.37,0,0,0,1.64-1.43h-3.48v-1.06a.69.69,0,0,1,.79-.78h3.81a5.77,5.77,0,0,0,.33-1.3h-4.93Zm2.85,9.65a1,1,0,0,1,1.18-1.18H546v2h7v-1a.86.86,0,0,1,1-1h1.45v5.87a1.39,1.39,0,0,1-1.57,1.57H543.56Zm9.39,4.41v-1.8h-7v1.8Zm2.43-7.38a1,1,0,0,1-1.18,1.18H553v-3.77h-1.65v2.59a1,1,0,0,1-1.17,1.18H549v-7.86a1,1,0,0,1,1.18-1.17h1.17v3.33H553v-2.16a1,1,0,0,1,1.18-1.17h1.18Z"/><path class="cls-1" d="M576.63,252.33a.7.7,0,0,1-.79.78H560.68V252a.69.69,0,0,1,.79-.78h2.73v-4.36a1,1,0,0,1,1.17-1.18h1.26v5.54h1.55v-4.36a1,1,0,0,1,1.18-1.18h1.26v5.54h6Zm-2.24-8.92c0,.83,0,1.66-.08,2.5s-.12,1.54-.2,2.12a1.07,1.07,0,0,1-1.22,1h-1.31c.12-.91.21-1.8.27-2.68s.1-1.72.1-2.51v-2.9h-9.23v-1.14a.7.7,0,0,1,.79-.79h10.88Z"/><path class="cls-1" d="M594.24,244.43a.7.7,0,0,1-.79.79h-1.67v5.26a1,1,0,0,1-1.17,1.18h-1.26v-2.59a31,31,0,0,1-3.47.56,38,38,0,0,1-3.8.18h-4.87v-1.14a.7.7,0,0,1,.79-.78h3.89v-1.28a5.9,5.9,0,0,1-1.31-.41,3.62,3.62,0,0,1-1-.71,3.18,3.18,0,0,1-.7-1,3,3,0,0,1-.25-1.26,2.76,2.76,0,0,1,.25-1.23,2.57,2.57,0,0,1,.71-.89h-1.81v-1.07a.7.7,0,0,1,.79-.78h3.36v-.69a.87.87,0,0,1,1-1h1.49v1.67h4v1.06a.7.7,0,0,1-.79.79h-.92a2.69,2.69,0,0,1,.71.89,2.76,2.76,0,0,1,.25,1.23,3,3,0,0,1-.25,1.26,3.35,3.35,0,0,1-.7,1,3.62,3.62,0,0,1-1,.71,5.9,5.9,0,0,1-1.31.41v1.26q1.3-.06,2.55-.21a14,14,0,0,0,2.44-.48v-7.62a1,1,0,0,1,1.18-1.17h1.25v4.9h2.46Zm-2.16,9.11v1.14a.7.7,0,0,1-.79.79h-11v-3.63a1,1,0,0,1,1.18-1.18h1.25v2.88ZM585.23,243a1.69,1.69,0,0,0-.59-1.38,2.63,2.63,0,0,0-3,0,1.91,1.91,0,0,0,0,2.76,2.59,2.59,0,0,0,3,0A1.69,1.69,0,0,0,585.23,243Z"/><path class="cls-1" d="M594.53,245.61a.69.69,0,0,1,.79-.78h5.83c.25,0,.5,0,.77,0a11,11,0,0,0,.18-1.34c0-.43,0-.88,0-1.33v-1.61h-6.44v-1.14a.7.7,0,0,1,.79-.79h8.09v3.34c0,.47,0,.92-.06,1.34a10,10,0,0,1-.22,1.35c.32,0,.63-.08.93-.14l.92-.17v1.06a.86.86,0,0,1-.79,1c-.63.1-1.29.19-2,.25s-1.43.11-2.18.14v1.91a.91.91,0,0,1-.3.68,1.17,1.17,0,0,1-.88.3h-1.29v-2.85h-4.19Zm15.06,7.93v1.14a.69.69,0,0,1-.78.79h-11v-3.93a1,1,0,0,1,1.18-1.18h1.26v3.18Zm-2.73-14a1,1,0,0,1,1.18-1.17h1.26v12.09a1,1,0,0,1-1.18,1.18h-1.26v-2.08h-3.67v-1.14a.7.7,0,0,1,.79-.79h2.88Z"/><path class="cls-2" d="M111,312.06a.61.61,0,0,1,.69-.7h.72v9a1.42,1.42,0,0,1,.9-.27h4v.56c0,.39-.2.58-.6.58H111Z"/><path class="cls-2" d="M121,321.43a3.59,3.59,0,0,1-1.44-.28,3.1,3.1,0,0,1-1.13-.78,3.46,3.46,0,0,1-.74-1.21,4.22,4.22,0,0,1-.27-1.54,4.17,4.17,0,0,1,.27-1.53,3.46,3.46,0,0,1,.74-1.21,3.25,3.25,0,0,1,1.13-.79,3.77,3.77,0,0,1,1.44-.28,3.53,3.53,0,0,1,1.44.29,3.08,3.08,0,0,1,1.11.79,3.53,3.53,0,0,1,.72,1.18,4.07,4.07,0,0,1,.24,1.5c0,.35-.19.52-.58.52h-5.09a3.5,3.5,0,0,0,.25.9,2.43,2.43,0,0,0,.46.7,2.05,2.05,0,0,0,.65.45,2,2,0,0,0,.8.16,3.45,3.45,0,0,0,1.16-.18,3.82,3.82,0,0,0,1-.52.37.37,0,0,1,.28-.1.47.47,0,0,1,.36.16l.41.46a4.88,4.88,0,0,1-1.4,1A4.25,4.25,0,0,1,121,321.43Zm-2.18-4a1.35,1.35,0,0,1,.44-.29,1.56,1.56,0,0,1,.53-.1h3.25a2,2,0,0,0-.16-.81,2.24,2.24,0,0,0-.44-.66,2,2,0,0,0-.64-.44,1.94,1.94,0,0,0-.8-.16,2,2,0,0,0-.84.18,2.21,2.21,0,0,0-.68.51,2.51,2.51,0,0,0-.46.78A3.11,3.11,0,0,0,118.83,317.41Z"/><path class="cls-2" d="M131.34,320.26a3,3,0,0,1-1,.87,3.18,3.18,0,0,1-1.41.3,3.39,3.39,0,0,1-1.39-.28,3.14,3.14,0,0,1-1.12-.78,3.64,3.64,0,0,1-.75-1.21,4.22,4.22,0,0,1-.27-1.54,4.17,4.17,0,0,1,.27-1.53,3.64,3.64,0,0,1,.75-1.21,3.3,3.3,0,0,1,1.12-.79,3.56,3.56,0,0,1,1.39-.28,3.18,3.18,0,0,1,1.41.31,2.87,2.87,0,0,1,1,.87v-.4a.53.53,0,0,1,.6-.59h.78v6.65c0,.39-.2.58-.6.58h-.78Zm-2.28,0a2,2,0,0,0,.93-.2,2.12,2.12,0,0,0,.71-.55,2.59,2.59,0,0,0,.47-.85,3.35,3.35,0,0,0,.17-1.08,3.4,3.4,0,0,0-.17-1.08,2.54,2.54,0,0,0-.47-.84,2,2,0,0,0-.71-.55,2.17,2.17,0,0,0-2.58.55,2.56,2.56,0,0,0-.48.84,3.4,3.4,0,0,0-.16,1.08,3.35,3.35,0,0,0,.16,1.08,2.61,2.61,0,0,0,.48.85,2.16,2.16,0,0,0,.72.55A2,2,0,0,0,129.06,320.3Z"/><path class="cls-2" d="M134.31,314.59a.52.52,0,0,1,.58-.59h.79v1.19a2.19,2.19,0,0,1,.38-.6,2.44,2.44,0,0,1,.53-.43,2.49,2.49,0,0,1,1.25-.35,3.1,3.1,0,0,1,.64.06,3,3,0,0,1,.44.1l-.2.84a.45.45,0,0,1-.17.27.55.55,0,0,1-.29.08l-.19,0-.24-.05a1.2,1.2,0,0,0-.28,0,2.19,2.19,0,0,0-.73.12,1.74,1.74,0,0,0-.59.35,1.59,1.59,0,0,0-.4.55,1.66,1.66,0,0,0-.15.72v3.86c0,.39-.2.58-.6.58h-.77Z"/><path class="cls-2" d="M144.46,316.8a2,2,0,0,0-.44-1.34,1.58,1.58,0,0,0-1.24-.5,1.94,1.94,0,0,0-.78.15,1.51,1.51,0,0,0-.57.42,1.89,1.89,0,0,0-.49,1.24v3.88c0,.39-.2.58-.6.58h-.77v-6.64a.52.52,0,0,1,.59-.59h.78v1a2.57,2.57,0,0,1,1-.9,2.88,2.88,0,0,1,1.34-.32,2.68,2.68,0,0,1,1.09.22,2.42,2.42,0,0,1,.82.59,2.48,2.48,0,0,1,.5.92,3.76,3.76,0,0,1,.18,1.19v3.92a.52.52,0,0,1-.6.58h-.79Z"/><path class="cls-2" d="M148.32,312.91a.88.88,0,0,1-.64-.24.91.91,0,0,1,0-1.25.88.88,0,0,1,.64-.24.9.9,0,0,1,.65.24.91.91,0,0,1,0,1.25A.9.9,0,0,1,148.32,312.91Zm-.69,1.8a.53.53,0,0,1,.59-.6H149v6.54c0,.39-.2.58-.6.58h-.77Z"/><path class="cls-2" d="M155.69,316.8a2,2,0,0,0-.44-1.34A1.58,1.58,0,0,0,154,315a1.94,1.94,0,0,0-.78.15,1.6,1.6,0,0,0-.57.42,1.66,1.66,0,0,0-.36.58,1.85,1.85,0,0,0-.13.66v3.88c0,.39-.2.58-.6.58h-.77v-6.64a.52.52,0,0,1,.59-.59h.78v1a2.57,2.57,0,0,1,1-.9,2.88,2.88,0,0,1,1.34-.32,2.68,2.68,0,0,1,1.09.22,2.42,2.42,0,0,1,.82.59,2.48,2.48,0,0,1,.5.92,3.76,3.76,0,0,1,.18,1.19v3.92c0,.39-.2.58-.6.58h-.79Z"/><path class="cls-2" d="M161.62,321.17a3.25,3.25,0,0,1-1.36-.28,3.18,3.18,0,0,1-1.08-.75,3.63,3.63,0,0,1-.71-1.17,4.42,4.42,0,0,1-.25-1.48,4.33,4.33,0,0,1,.25-1.48,3.48,3.48,0,0,1,.71-1.16,3.07,3.07,0,0,1,1.08-.76,3.41,3.41,0,0,1,1.36-.28,3.1,3.1,0,0,1,1.4.31,3.17,3.17,0,0,1,1,.85v-.38a.53.53,0,0,1,.6-.59h.78v7.17a3.13,3.13,0,0,1-.25,1.29,2.63,2.63,0,0,1-.7,1,3.12,3.12,0,0,1-1.12.62,4.83,4.83,0,0,1-1.47.21,4.43,4.43,0,0,1-1.92-.41,5.24,5.24,0,0,1-1.53-1.13l.41-.44a.54.54,0,0,1,.4-.19.38.38,0,0,1,.29.12,3.74,3.74,0,0,0,1,.66,3.24,3.24,0,0,0,1.3.26,2.3,2.3,0,0,0,1.57-.51,1.81,1.81,0,0,0,.59-1.46V320a3,3,0,0,1-1,.86A3.1,3.1,0,0,1,161.62,321.17Zm.22-1.13a2.2,2.2,0,0,0,.9-.19,2,2,0,0,0,.7-.53,2.33,2.33,0,0,0,.46-.8,3.37,3.37,0,0,0,.16-1,3.42,3.42,0,0,0-.16-1,2.43,2.43,0,0,0-.46-.8,2,2,0,0,0-.7-.53,2.32,2.32,0,0,0-1.79,0,1.94,1.94,0,0,0-.7.53,2.43,2.43,0,0,0-.46.8,3.13,3.13,0,0,0-.17,1,3.09,3.09,0,0,0,.17,1,2.33,2.33,0,0,0,.46.8,1.94,1.94,0,0,0,.7.53A2.18,2.18,0,0,0,161.84,320Z"/><path class="cls-2" d="M174.73,321.5a5.23,5.23,0,0,1-2-.37,4.67,4.67,0,0,1-2.63-2.69,6.22,6.22,0,0,1,0-4.28,4.61,4.61,0,0,1,2.63-2.68,5.23,5.23,0,0,1,2-.37,4.24,4.24,0,0,1,3.83,2l-.6.4a.6.6,0,0,1-.36.12.44.44,0,0,1-.38-.2,3.06,3.06,0,0,0-1.09-.86,3.24,3.24,0,0,0-1.4-.28,3.53,3.53,0,0,0-1.42.28,3.46,3.46,0,0,0-1.14.82,3.86,3.86,0,0,0-.75,1.28,5,5,0,0,0,0,3.31,3.86,3.86,0,0,0,.75,1.28,3.46,3.46,0,0,0,1.14.82,3.53,3.53,0,0,0,1.42.28,3.37,3.37,0,0,0,1.44-.3,3.61,3.61,0,0,0,1.14-.91.47.47,0,0,1,.4-.19.62.62,0,0,1,.33.11l.62.39A5.57,5.57,0,0,1,177,321,4.56,4.56,0,0,1,174.73,321.5Z"/><path class="cls-2" d="M182.43,321.43a3.61,3.61,0,0,1-1.45-.28,3.1,3.1,0,0,1-1.13-.78,3.61,3.61,0,0,1-.74-1.21,4.22,4.22,0,0,1-.27-1.54,4.17,4.17,0,0,1,.27-1.53,3.61,3.61,0,0,1,.74-1.21,3.25,3.25,0,0,1,1.13-.79,3.78,3.78,0,0,1,1.45-.28,3.6,3.6,0,0,1,1.44.29,3.26,3.26,0,0,1,1.11.79,3.68,3.68,0,0,1,.71,1.18,4.07,4.07,0,0,1,.24,1.5c0,.35-.19.52-.57.52h-5.09a3.13,3.13,0,0,0,.24.9,2.93,2.93,0,0,0,.46.7,2,2,0,0,0,.66.45,1.94,1.94,0,0,0,.8.16,3.49,3.49,0,0,0,1.16-.18,3.94,3.94,0,0,0,.94-.52.39.39,0,0,1,.28-.1.47.47,0,0,1,.36.16l.41.46a4.88,4.88,0,0,1-1.4,1A4.2,4.2,0,0,1,182.43,321.43Zm-2.19-4a1.46,1.46,0,0,1,.44-.29,1.61,1.61,0,0,1,.53-.1h3.26a2,2,0,0,0-.17-.81,2.06,2.06,0,0,0-.44-.66,1.88,1.88,0,0,0-.64-.44,1.92,1.92,0,0,0-.79-.16,2,2,0,0,0-.84.18,2,2,0,0,0-.68.51,2.54,2.54,0,0,0-.47.78A3.41,3.41,0,0,0,180.24,317.41Z"/><path class="cls-2" d="M192,316.8a1.92,1.92,0,0,0-.44-1.34,1.55,1.55,0,0,0-1.23-.5,1.87,1.87,0,0,0-.78.15,1.63,1.63,0,0,0-.58.42,2,2,0,0,0-.36.58,1.84,1.84,0,0,0-.12.66v3.88c0,.39-.2.58-.6.58h-.77v-6.64a.52.52,0,0,1,.58-.59h.79v1a2.5,2.5,0,0,1,1-.9,2.85,2.85,0,0,1,1.34-.32,2.72,2.72,0,0,1,1.09.22,2.29,2.29,0,0,1,.81.59,2.64,2.64,0,0,1,.51.92,4.07,4.07,0,0,1,.17,1.19v3.92c0,.39-.2.58-.6.58H192Z"/><path class="cls-2" d="M194.12,314.51a.45.45,0,0,1,.51-.51h.83v-1.68c0-.39.2-.58.6-.58h.78V314h2.21v.65a.45.45,0,0,1-.5.51h-1.71v4.22a1,1,0,0,0,.22.71.82.82,0,0,0,.61.23,1,1,0,0,0,.41-.1l.39-.2a.56.56,0,0,1,.22-.06.45.45,0,0,1,.39.26l.28.49a3.75,3.75,0,0,1-.87.54,2.58,2.58,0,0,1-1,.18A2.26,2.26,0,0,1,196,321a1.91,1.91,0,0,1-.55-1.51v-4.28h-1.34Z"/><path class="cls-2" d="M203.33,321.43a3.61,3.61,0,0,1-1.45-.28,3.1,3.1,0,0,1-1.13-.78,3.61,3.61,0,0,1-.74-1.21,4.22,4.22,0,0,1-.27-1.54,4.17,4.17,0,0,1,.27-1.53,3.61,3.61,0,0,1,.74-1.21,3.25,3.25,0,0,1,1.13-.79,3.78,3.78,0,0,1,1.45-.28,3.6,3.6,0,0,1,1.44.29,3.26,3.26,0,0,1,1.11.79,3.51,3.51,0,0,1,.71,1.18,4.07,4.07,0,0,1,.24,1.5c0,.35-.19.52-.57.52h-5.09a3.14,3.14,0,0,0,.25.9,2.43,2.43,0,0,0,.46.7,1.85,1.85,0,0,0,.65.45,1.94,1.94,0,0,0,.8.16,3.49,3.49,0,0,0,1.16-.18,3.94,3.94,0,0,0,.94-.52.39.39,0,0,1,.28-.1.47.47,0,0,1,.36.16l.41.46a5,5,0,0,1-1.39,1A4.29,4.29,0,0,1,203.33,321.43Zm-2.19-4a1.46,1.46,0,0,1,.44-.29,1.62,1.62,0,0,1,.54-.1h3.25a2,2,0,0,0-.17-.81,2.06,2.06,0,0,0-.44-.66,2,2,0,0,0-1.43-.6,2,2,0,0,0-1.52.69,2.54,2.54,0,0,0-.47.78A3.41,3.41,0,0,0,201.14,317.41Z"/><path class="cls-2" d="M208.06,314.59a.52.52,0,0,1,.58-.59h.79v1.19a2.19,2.19,0,0,1,.38-.6,2.44,2.44,0,0,1,.53-.43,2.49,2.49,0,0,1,1.25-.35,3.1,3.1,0,0,1,.64.06,3,3,0,0,1,.44.1l-.2.84a.46.46,0,0,1-.18.27.51.51,0,0,1-.28.08l-.2,0-.24-.05a1.12,1.12,0,0,0-.27,0,2.19,2.19,0,0,0-.73.12,1.65,1.65,0,0,0-.59.35,1.48,1.48,0,0,0-.4.55,1.66,1.66,0,0,0-.15.72v3.86c0,.39-.2.58-.6.58h-.77Z"/><path class="cls-2" d="M222.83,320.65c0,.39-.2.58-.6.58H216.1v-.49a1.14,1.14,0,0,1,.32-.76l3.21-3.41a6.88,6.88,0,0,0,1.05-1.37,2.72,2.72,0,0,0,.37-1.32,1.71,1.71,0,0,0-.44-1.22,1.57,1.57,0,0,0-1.19-.46,1.72,1.72,0,0,0-.68.13,1.87,1.87,0,0,0-.57.35,2,2,0,0,0-.43.55,2.63,2.63,0,0,0-.24.7.46.46,0,0,1-.2.34.62.62,0,0,1-.37.09l-.76-.05a4.12,4.12,0,0,1,.31-1.43,2.86,2.86,0,0,1,1.71-1.63,3.61,3.61,0,0,1,1.23-.21,3.52,3.52,0,0,1,1.25.21,2.71,2.71,0,0,1,1,.58,2.64,2.64,0,0,1,.62.89,3.07,3.07,0,0,1,.21,1.16,3.46,3.46,0,0,1-.45,1.67,7.76,7.76,0,0,1-1.28,1.71l-2.81,2.94a.35.35,0,0,1,.18-.05,2.91,2.91,0,0,1,.32,0l.31,0h4.1Z"/><path class="cls-2" d="M230.58,316.31a9.08,9.08,0,0,1-.25,2.26,5,5,0,0,1-.71,1.65,3.14,3.14,0,0,1-4,1,3,3,0,0,1-1.1-1,4.81,4.81,0,0,1-.71-1.65,10.43,10.43,0,0,1,0-4.54,4.84,4.84,0,0,1,.71-1.64,3,3,0,0,1,1.1-1,3.07,3.07,0,0,1,4,1,5,5,0,0,1,.71,1.64A9.14,9.14,0,0,1,230.58,316.31Zm-1.44,0a6.75,6.75,0,0,0-.55-3.06,1.62,1.62,0,0,0-3,0,8.47,8.47,0,0,0,0,6.11,1.62,1.62,0,0,0,3,0A6.73,6.73,0,0,0,229.14,316.31Z"/><path class="cls-2" d="M237.64,320.65a.52.52,0,0,1-.59.58h-6.13v-.49a1.09,1.09,0,0,1,.32-.76l3.21-3.41a7.18,7.18,0,0,0,1-1.37,2.62,2.62,0,0,0,.37-1.32,1.7,1.7,0,0,0-.43-1.22,1.6,1.6,0,0,0-1.2-.46,1.67,1.67,0,0,0-.67.13,1.83,1.83,0,0,0-1,.9,2.08,2.08,0,0,0-.24.7.5.5,0,0,1-.21.34.59.59,0,0,1-.37.09l-.76-.05a4.12,4.12,0,0,1,.31-1.43,3,3,0,0,1,.7-1,3,3,0,0,1,1-.61,3.8,3.8,0,0,1,2.49,0,2.9,2.9,0,0,1,1,.58,2.62,2.62,0,0,1,.61.89,3.07,3.07,0,0,1,.21,1.16,3.56,3.56,0,0,1-.44,1.67,7.83,7.83,0,0,1-1.29,1.71l-2.81,2.94a.44.44,0,0,1,.19-.05,2.72,2.72,0,0,1,.31,0l.31,0h4.1Z"/><path class="cls-2" d="M240.48,320.79a2.14,2.14,0,0,1-.25,1l-.55,1.08a.43.43,0,0,1-.2.22.57.57,0,0,1-.29.08h-.59l.71-1.46a.91.91,0,0,1-.59-.28.86.86,0,0,1-.22-.6.93.93,0,0,1,.27-.69,1,1,0,0,1,.73-.28,1,1,0,0,1,.71.26A.89.89,0,0,1,240.48,320.79Z"/><path class="cls-2" d="M250.07,320.65c0,.39-.2.58-.6.58h-6.12v-.49a1.09,1.09,0,0,1,.32-.76l3.21-3.41a7.18,7.18,0,0,0,1-1.37,2.62,2.62,0,0,0,.37-1.32,1.74,1.74,0,0,0-.43-1.22,1.6,1.6,0,0,0-1.2-.46,1.75,1.75,0,0,0-.68.13,1.87,1.87,0,0,0-.57.35,2,2,0,0,0-.43.55,2.63,2.63,0,0,0-.24.7.46.46,0,0,1-.2.34.59.59,0,0,1-.37.09l-.76-.05a4.12,4.12,0,0,1,.31-1.43,3,3,0,0,1,.7-1,2.88,2.88,0,0,1,1-.61,3.8,3.8,0,0,1,2.49,0,2.76,2.76,0,0,1,1,.58,2.51,2.51,0,0,1,.62.89,3.07,3.07,0,0,1,.21,1.16,3.46,3.46,0,0,1-.45,1.67,7.46,7.46,0,0,1-1.28,1.71l-2.81,2.94a.39.39,0,0,1,.18-.05,3.16,3.16,0,0,1,.32,0l.31,0h4.1Z"/><path class="cls-2" d="M257.83,316.31a9.06,9.06,0,0,1-.26,2.26,4.81,4.81,0,0,1-.71,1.65,3,3,0,0,1-1.1,1,3.26,3.26,0,0,1-2.9,0,3.1,3.1,0,0,1-1.1-1,5,5,0,0,1-.71-1.65,10.86,10.86,0,0,1,0-4.54,5,5,0,0,1,.71-1.64,3.1,3.1,0,0,1,1.1-1,3.26,3.26,0,0,1,2.9,0,3,3,0,0,1,1.1,1,4.84,4.84,0,0,1,.71,1.64A9.11,9.11,0,0,1,257.83,316.31Zm-1.44,0a6.73,6.73,0,0,0-.56-3.06,1.62,1.62,0,0,0-3,0,8.47,8.47,0,0,0,0,6.11,1.62,1.62,0,0,0,3,0A6.71,6.71,0,0,0,256.39,316.31Z"/><path class="cls-2" d="M265.15,318.48a3.12,3.12,0,0,1-.24,1.22,2.75,2.75,0,0,1-.68,1,3.08,3.08,0,0,1-1.06.66,3.93,3.93,0,0,1-1.41.24,3.34,3.34,0,0,1-2.09-.65,4.24,4.24,0,0,1-1.32-1.68l.66-.3a.76.76,0,0,1,.27-.05.47.47,0,0,1,.44.24,2.81,2.81,0,0,0,.84.94,2,2,0,0,0,1.2.37,2.17,2.17,0,0,0,.84-.16,1.88,1.88,0,0,0,.62-.44,2,2,0,0,0,.37-.62,2.35,2.35,0,0,0,.13-.74,1.85,1.85,0,0,0-.19-.83,1.76,1.76,0,0,0-.47-.61,2.14,2.14,0,0,0-.68-.37,2.23,2.23,0,0,0-.77-.14h-.92v-.6a.48.48,0,0,1,.55-.54h.34a2,2,0,0,0,.7-.13,1.89,1.89,0,0,0,.56-.35,1.64,1.64,0,0,0,.5-1.2,1.47,1.47,0,0,0-.43-1.13,1.73,1.73,0,0,0-1.22-.4,1.68,1.68,0,0,0-1,.31,2.52,2.52,0,0,0-.75.88.46.46,0,0,1-.19.22.51.51,0,0,1-.25.06.83.83,0,0,1-.27-.06l-.66-.31a3.83,3.83,0,0,1,1.29-1.68,3.2,3.2,0,0,1,1.87-.56,3.79,3.79,0,0,1,1.31.21,2.83,2.83,0,0,1,1,.56,2.22,2.22,0,0,1,.59.83,2.7,2.7,0,0,1,.2,1,2.5,2.5,0,0,1-.09.66,2.44,2.44,0,0,1-.28.64,2.35,2.35,0,0,1-.49.56,2.61,2.61,0,0,1-.71.42,2.36,2.36,0,0,1,.8.38,2.85,2.85,0,0,1,.61.59,2.77,2.77,0,0,1,.39.74A2.32,2.32,0,0,1,265.15,318.48Z"/><path class="cls-2" d="M267.72,320.79a2.14,2.14,0,0,1-.25,1l-.54,1.08a.54.54,0,0,1-.2.22.61.61,0,0,1-.3.08h-.58l.7-1.46a.87.87,0,0,1-.81-.88.93.93,0,0,1,.27-.69,1,1,0,0,1,.73-.28,1,1,0,0,1,.71.26A.89.89,0,0,1,267.72,320.79Z"/><path class="cls-2" d="M277.32,320.65c0,.39-.2.58-.6.58h-6.13v-.49a1.14,1.14,0,0,1,.32-.76l3.21-3.41a7.73,7.73,0,0,0,1.05-1.37,2.71,2.71,0,0,0,.36-1.32,1.7,1.7,0,0,0-.43-1.22,1.59,1.59,0,0,0-1.19-.46,1.72,1.72,0,0,0-.68.13,1.8,1.8,0,0,0-.58.35,2,2,0,0,0-.42.55,2.08,2.08,0,0,0-.24.7.5.5,0,0,1-.21.34.57.57,0,0,1-.36.09l-.76-.05a3.91,3.91,0,0,1,.3-1.43,3,3,0,0,1,.7-1,3,3,0,0,1,1-.61,3.63,3.63,0,0,1,1.24-.21,3.52,3.52,0,0,1,1.25.21,2.9,2.9,0,0,1,1,.58,2.62,2.62,0,0,1,.61.89,3.07,3.07,0,0,1,.21,1.16,3.45,3.45,0,0,1-.44,1.67,7.83,7.83,0,0,1-1.29,1.71l-2.81,2.94a.44.44,0,0,1,.19-.05,2.72,2.72,0,0,1,.31,0l.31,0h4.11Z"/><path class="cls-2" d="M285.07,316.31a9.58,9.58,0,0,1-.25,2.26,5,5,0,0,1-.72,1.65,3,3,0,0,1-1.1,1,3.07,3.07,0,0,1-4-1,4.81,4.81,0,0,1-.7-1.65,10.43,10.43,0,0,1,0-4.54,4.84,4.84,0,0,1,.7-1.64,3.14,3.14,0,0,1,4-1,3,3,0,0,1,1.1,1,5.05,5.05,0,0,1,.72,1.64A9.64,9.64,0,0,1,285.07,316.31Zm-1.44,0a6.73,6.73,0,0,0-.56-3.06,1.62,1.62,0,0,0-3,0,8.47,8.47,0,0,0,0,6.11,1.62,1.62,0,0,0,3,0A6.71,6.71,0,0,0,283.63,316.31Z"/><path class="cls-2" d="M292.8,318.68q0,.57-.6.57h-.87v1.42a.61.61,0,0,1-.69.7h-.71v-2.12h-4.79v-.37a.68.68,0,0,1,0-.2.64.64,0,0,1,.08-.2l3.91-6.69a1,1,0,0,1,.36-.41.94.94,0,0,1,.52-.14h1.3v6.86h1.47Zm-2.87-.58v-5.23l-3.1,5.23Z"/><path class="cls-2" d="M298.4,313a5.15,5.15,0,0,1,1.54.22,3.4,3.4,0,0,1,1.14.58,2.54,2.54,0,0,1,.69.85,2.29,2.29,0,0,1,.24,1,2.31,2.31,0,0,1-.74,1.73,3.12,3.12,0,0,1-.9.59,4.43,4.43,0,0,1-1.23.33v1.32h4.66v.72a.39.39,0,0,1-.44.44H293v-.72a.39.39,0,0,1,.44-.44h4.22v-1.32a4.43,4.43,0,0,1-1.23-.33,3.32,3.32,0,0,1-.91-.59,2.39,2.39,0,0,1-.55-.8,2.41,2.41,0,0,1-.19-.93,2.29,2.29,0,0,1,.24-1,2.57,2.57,0,0,1,.7-.85,3.4,3.4,0,0,1,1.14-.58A5.09,5.09,0,0,1,298.4,313Zm4.31-.79c0,.28-.15.42-.44.42H294.1V312a.39.39,0,0,1,.44-.44h3.13v-.81a.49.49,0,0,1,.56-.56h.91v1.37h3.57Zm-4.31,1.93a2.53,2.53,0,0,0-1.59.44,1.35,1.35,0,0,0-.56,1.1,1.33,1.33,0,0,0,.56,1.11,3.05,3.05,0,0,0,3.19,0,1.33,1.33,0,0,0,.56-1.11,1.35,1.35,0,0,0-.56-1.1A2.54,2.54,0,0,0,298.4,314.15Z"/><path class="cls-2" d="M312.51,321.39a.59.59,0,0,1-.66.67h-.75v-6.89h-.93a4.18,4.18,0,0,1-.34,1.35,3.23,3.23,0,0,1-.68,1,2.77,2.77,0,0,1-.91.6,2.74,2.74,0,0,1-1.06.2,2.78,2.78,0,0,1-1.14-.24,2.7,2.7,0,0,1-1-.7,3.23,3.23,0,0,1-.67-1.13,4.35,4.35,0,0,1-.25-1.55,4.4,4.4,0,0,1,.25-1.56,3.37,3.37,0,0,1,.67-1.14,2.8,2.8,0,0,1,1-.69,2.77,2.77,0,0,1,1.14-.23,2.86,2.86,0,0,1,1,.19,2.71,2.71,0,0,1,.89.57,2.94,2.94,0,0,1,.68.92,4,4,0,0,1,.36,1.27h1v-2.74a.6.6,0,0,1,.68-.67h.73Zm-3.73-6.71a3.28,3.28,0,0,0-.44-1.85,1.37,1.37,0,0,0-1.16-.63,1.36,1.36,0,0,0-1.15.63,4,4,0,0,0,0,3.71,1.36,1.36,0,0,0,1.15.63,1.37,1.37,0,0,0,1.16-.63A3.27,3.27,0,0,0,308.78,314.68Zm5.94,6.85a.58.58,0,0,1-.66.66h-.74V311.27a.59.59,0,0,1,.66-.67h.74Z"/><path class="cls-2" d="M322.82,318.94a.6.6,0,0,1-.46.24.69.69,0,0,1-.43-.17,11.85,11.85,0,0,1-1.41-1.34,8.92,8.92,0,0,1-1.12-1.51,10.41,10.41,0,0,1-1.17,1.72,9.92,9.92,0,0,1-1.43,1.4.69.69,0,0,1-.42.17.68.68,0,0,1-.47-.23l-.44-.42a9.21,9.21,0,0,0,2.32-2.59,6.11,6.11,0,0,0,.82-3.09v-1.58a.58.58,0,0,1,.66-.66h.81v2.24a5.45,5.45,0,0,0,.81,2.89,7.21,7.21,0,0,0,1,1.26,14.78,14.78,0,0,0,1.34,1.22Zm3,2.59a.59.59,0,0,1-.67.66h-.79v-7.42h-2.62v-.72c0-.28.15-.42.44-.42h2.18v-2.36a.6.6,0,0,1,.67-.67h.79Z"/><path class="cls-2" d="M336.69,318.89a.62.62,0,0,1-.47.24.69.69,0,0,1-.42-.17,11.85,11.85,0,0,1-1.41-1.34,9.33,9.33,0,0,1-1.12-1.51,10.85,10.85,0,0,1-1.17,1.72,9.84,9.84,0,0,1-1.43,1.39.66.66,0,0,1-.43.19.69.69,0,0,1-.48-.24l-.42-.43a8.9,8.9,0,0,0,2.31-2.59,6,6,0,0,0,.83-3.08v-1.53a.58.58,0,0,1,.65-.66H334v2.19a5.32,5.32,0,0,0,.2,1.52,5.58,5.58,0,0,0,.61,1.37,8,8,0,0,0,1,1.26,16.63,16.63,0,0,0,1.35,1.22Zm4.54-3.89a.38.38,0,0,1-.44.43h-1.5v6.1a.59.59,0,0,1-.67.66h-.78V311.27a.59.59,0,0,1,.66-.67h.79v3.68h1.94Z"/><path class="cls-2" d="M346.74,310.14a5.58,5.58,0,0,1,1.54.2,3.85,3.85,0,0,1,1.15.56,2.28,2.28,0,0,1,.7.82,2.17,2.17,0,0,1,.24,1,2.26,2.26,0,0,1-.25,1,2.3,2.3,0,0,1-.76.83v1.63h2.77v.69a.39.39,0,0,1-.44.44H341.34v-.69a.39.39,0,0,1,.44-.44h2.33V314.6a2.3,2.3,0,0,1-.76-.83,2.26,2.26,0,0,1-.25-1,2.17,2.17,0,0,1,.24-1,2.28,2.28,0,0,1,.7-.82,3.85,3.85,0,0,1,1.15-.56A5.6,5.6,0,0,1,346.74,310.14Zm3.63,10.28a2.14,2.14,0,0,1-.24,1,2.46,2.46,0,0,1-.7.82,3.42,3.42,0,0,1-1.15.55,6.07,6.07,0,0,1-3.09,0,3.42,3.42,0,0,1-1.15-.55,2.46,2.46,0,0,1-.7-.82,2.14,2.14,0,0,1-.24-1,2.17,2.17,0,0,1,.24-1,2.46,2.46,0,0,1,.7-.82,3.62,3.62,0,0,1,1.15-.55,6.07,6.07,0,0,1,3.09,0,3.62,3.62,0,0,1,1.15.55,2.46,2.46,0,0,1,.7.82A2.17,2.17,0,0,1,350.37,320.42Zm-1.45-7.7a1.24,1.24,0,0,0-.57-1,2.68,2.68,0,0,0-1.61-.42,2.71,2.71,0,0,0-1.62.42,1.21,1.21,0,0,0,0,2.05,2.71,2.71,0,0,0,1.62.42,2.68,2.68,0,0,0,1.61-.42A1.24,1.24,0,0,0,348.92,312.72Zm0,7.7a1.24,1.24,0,0,0-.57-1,2.68,2.68,0,0,0-1.61-.42,2.71,2.71,0,0,0-1.62.42,1.24,1.24,0,0,0-.57,1,1.21,1.21,0,0,0,.57,1,2.71,2.71,0,0,0,1.62.42,2.68,2.68,0,0,0,1.61-.42A1.21,1.21,0,0,0,348.92,320.42Zm-1-4.19v-1a4.54,4.54,0,0,1-.55.08,6.12,6.12,0,0,1-1.21,0,4.54,4.54,0,0,1-.55-.08v1Z"/><path class="cls-2" d="M361.72,311.8a6.94,6.94,0,0,1-.4,2.37,8.39,8.39,0,0,1-1.09,2.1,10.19,10.19,0,0,1-1.63,1.79,13.41,13.41,0,0,1-2,1.46.8.8,0,0,1-.4.12.7.7,0,0,1-.52-.28l-.42-.5a10.67,10.67,0,0,0,1.86-1.16,9.49,9.49,0,0,0,1.58-1.52,7.8,7.8,0,0,0,1.1-1.84,6,6,0,0,0,.46-2.11h-4.59v-.71a.4.4,0,0,1,.45-.45h5.63Zm4.88,3.75c0,.28-.15.42-.44.42h-1.51v5.56a.58.58,0,0,1-.66.66h-.79V311.27a.59.59,0,0,1,.67-.67h.78v4.23h2Z"/><path class="cls-2" d="M377.5,316.58a.39.39,0,0,1-.44.44H366.71v-.7a.38.38,0,0,1,.43-.44H377.5Zm-1.3-2.18a.39.39,0,0,1-.44.44H368.2v-3.49a.59.59,0,0,1,.66-.67h.79v3h6.55Zm-.46,6a2.17,2.17,0,0,1-.24,1,2.31,2.31,0,0,1-.71.82,3.79,3.79,0,0,1-1.14.56,5.66,5.66,0,0,1-1.55.2,5.53,5.53,0,0,1-1.54-.2,3.74,3.74,0,0,1-1.15-.56,2.31,2.31,0,0,1-.71-.82,2.22,2.22,0,0,1,0-2,2.31,2.31,0,0,1,.71-.82,3.52,3.52,0,0,1,1.15-.56,5.53,5.53,0,0,1,1.54-.2,5.66,5.66,0,0,1,1.55.2,3.57,3.57,0,0,1,1.14.56,2.31,2.31,0,0,1,.71.82A2.15,2.15,0,0,1,375.74,320.41Zm-1.45,0a1.13,1.13,0,0,0-.15-.57,1.55,1.55,0,0,0-.43-.46,2.25,2.25,0,0,0-.68-.31,3.3,3.3,0,0,0-.93-.11,3.34,3.34,0,0,0-.93.11,2.37,2.37,0,0,0-.68.31,1.55,1.55,0,0,0-.43.46,1.12,1.12,0,0,0-.14.57,1.24,1.24,0,0,0,.57,1,3.3,3.3,0,0,0,3.22,0A1.25,1.25,0,0,0,374.29,320.41Z"/></g><g id="깬_사용완료" data-name="깬 사용완료"><g class="cls-5"><path class="cls-6" d="M678,346.51c.73,0,1.44.05,2.14.1V153.39c-.7.05-1.41.1-2.14.1-7.76,0-14-2.93-14-6.54H645.29c0,3.61-6.29,6.54-14,6.54s-14-2.93-14-6.54H598.51c0,3.61-6.29,6.54-14,6.54s-14.05-2.93-14.05-6.54H551.72c0,3.61-6.29,6.54-14.05,6.54s-14-2.93-14-6.54H504.94c0,3.61-6.29,6.54-14.05,6.54s-14.05-2.93-14.05-6.54H458.15c0,3.61-6.29,6.54-14,6.54s-14-2.93-14-6.54H411.37c0,3.61-6.29,6.54-14.05,6.54s-14.05-2.93-14.05-6.54H364.58c0,3.61-6.29,6.54-14.05,6.54s-14-2.93-14-6.54H317.8c0,3.61-6.29,6.54-14.05,6.54S289.7,150.56,289.7,147H271c0,3.61-6.29,6.54-14.05,6.54s-14-2.93-14-6.54H224.23c0,3.61-6.29,6.54-14,6.54s-14.05-2.93-14.05-6.54H177.44c0,3.61-6.29,6.54-14,6.54s-14.05-2.93-14.05-6.54H130.66c0,3.61-6.29,6.54-14,6.54s-14-2.93-14-6.54H83.87c0,3.61-6.29,6.54-14,6.54v193c7.75,0,14,2.92,14,6.54h18.69c0-3.62,6.29-6.54,14-6.54s14,2.92,14,6.54h18.69c0-3.62,6.29-6.54,14.05-6.54s14,2.92,14,6.54h18.69c0-3.62,6.29-6.54,14.05-6.54s14,2.92,14,6.54h18.69c0-3.62,6.29-6.54,14-6.54S271,349.43,271,353.05H289.7c0-3.62,6.29-6.54,14.05-6.54s14.05,2.92,14.05,6.54h18.69c0-3.62,6.29-6.54,14-6.54s14.05,2.92,14.05,6.54h18.69c0-3.62,6.29-6.54,14.05-6.54s14.05,2.92,14.05,6.54h18.69c0-3.62,6.29-6.54,14-6.54s14,2.92,14,6.54h18.69c0-3.62,6.29-6.54,14.05-6.54s14.05,2.92,14.05,6.54h18.68c0-3.62,6.29-6.54,14-6.54s14.05,2.92,14.05,6.54h18.69c0-3.62,6.29-6.54,14.05-6.54s14,2.92,14,6.54h18.68c0-3.62,6.29-6.54,14-6.54s14,2.92,14,6.54H664C664,349.43,670.27,346.51,678,346.51Z"/></g><rect class="cls-7" x="246.45" y="213.01" width="257.1" height="73.98" rx="9.92" transform="translate(-31.45 55.26) rotate(-8.09)"/><rect class="cls-8" x="237.38" y="203.65" width="275.24" height="92.69" rx="9.92" transform="matrix(0.99, -0.14, 0.14, 0.99, -31.45, 55.26)"/><path class="cls-2" d="M275.93,274.74,272,291.26l-11.65,1.66,6.39-25.56a33.45,33.45,0,0,0,.95-6.71,49.72,49.72,0,0,0-.57-9.37l-1.69-11.92,10.8-1.53L277.81,249l.19,1.31a50.53,50.53,0,0,0,2.06,8.83,28.73,28.73,0,0,0,2.71,5.92L296,287.85l-11.65,1.65ZM313.4,261.6l-6.94,1,3.41,24-10.81,1.53L291.52,235l10.8-1.53,2.88,20.3,6.94-1Z"/><path class="cls-2" d="M362.16,236.23a13.62,13.62,0,0,1,.09,3.63,8.56,8.56,0,0,1-.81,2.78,7.32,7.32,0,0,1-1.51,2.06,8.12,8.12,0,0,1-2.1,1.43l.53,3.73,9-1.27,1.16,8.18-54.87,7.8-1.16-8.18,8.9-1.27-.54-3.8a8.28,8.28,0,0,1-4.44-2.34c-1.22-1.23-2-3.19-2.41-5.9a11.76,11.76,0,0,1,.2-5,7.7,7.7,0,0,1,1.93-3.32,9.28,9.28,0,0,1,3.19-2,19.39,19.39,0,0,1,4-1L350.1,228a18.84,18.84,0,0,1,4.09-.15,9.17,9.17,0,0,1,3.62,1,7.59,7.59,0,0,1,2.78,2.64A11.49,11.49,0,0,1,362.16,236.23Zm4.74,32.86a10,10,0,0,1-.31,4.89,7.61,7.61,0,0,1-2.09,3.13,9,9,0,0,1-3.25,1.8,22.63,22.63,0,0,1-3.72.86l-26.84,3.82a22.43,22.43,0,0,1-3.85.21,9.12,9.12,0,0,1-3.59-.82,7.7,7.7,0,0,1-2.88-2.43,12.07,12.07,0,0,1-1.35-9.5,7.54,7.54,0,0,1,2.09-3.13,9.07,9.07,0,0,1,3.22-1.8,23.14,23.14,0,0,1,3.75-.86l26.85-3.82a23.68,23.68,0,0,1,3.81-.21,9.15,9.15,0,0,1,3.62.82,7.61,7.61,0,0,1,2.88,2.43A10,10,0,0,1,366.9,269.09Zm-15.54-31.32a1.28,1.28,0,0,0-.8-1.16,6,6,0,0,0-2.43,0l-20.56,2.92a6.11,6.11,0,0,0-2.35.67,1.28,1.28,0,0,0-.44,1.33,1.27,1.27,0,0,0,.8,1.16,5.77,5.77,0,0,0,2.43,0l20.56-2.92a5.93,5.93,0,0,0,2.35-.67A1.28,1.28,0,0,0,351.36,237.77Zm4.74,32.85c-.11-.74-.41-1.16-.92-1.27a9,9,0,0,0-2.65.11l-19.91,2.83a8.68,8.68,0,0,0-2.58.64c-.46.24-.63.73-.52,1.47s.41,1.17.91,1.28a9.12,9.12,0,0,0,2.66-.11l19.9-2.83a8.5,8.5,0,0,0,2.58-.64C356,271.86,356.2,271.37,356.1,270.62Zm-23.93-17,15.39-2.19-.44-3.08-15.39,2.19Z"/><path class="cls-2" d="M414.5,228.46a16.41,16.41,0,0,1,.1,4.23,7.76,7.76,0,0,1-1.19,3.4,7.57,7.57,0,0,1-2.72,2.46,13.26,13.26,0,0,1-4.58,1.39l-.72.1.44,3.08,12.57-1.79,1.16,8.18-35.88,5.11-1.16-8.19,12.5-1.78-.43-3.07-.72.1a13.37,13.37,0,0,1-4.76-.06,7.4,7.4,0,0,1-3.3-1.6,8,8,0,0,1-2.05-3,16,16,0,0,1-1.08-4.09,16.42,16.42,0,0,1-.1-4.23,8.34,8.34,0,0,1,1.14-3.43,7.24,7.24,0,0,1,2.72-2.49,13.35,13.35,0,0,1,4.55-1.38l12.24-1.74a13.29,13.29,0,0,1,4.79,0,7.43,7.43,0,0,1,3.3,1.63,8.2,8.2,0,0,1,2.1,3A16.84,16.84,0,0,1,414.5,228.46Zm22.18,39.06q-3.68.86-7.82,1.61c-2.75.51-5.54,1-8.37,1.49s-5.62.95-8.39,1.36-5.4.8-7.88,1.16l-14.87,2.11-2.61-18.4,10.8-1.53,1.36,9.56,4.26-.61c2.61-.37,5.34-.78,8.17-1.23s5.65-.91,8.45-1.4,5.54-1,8.21-1.5,5.14-1,7.44-1.46ZM403.89,230a2.29,2.29,0,0,0-.63-1.38,2,2,0,0,0-1.68-.29l-6.55.93c-.83.12-1.35.37-1.56.76a2.41,2.41,0,0,0-.19,1.49,2.25,2.25,0,0,0,.59,1.32,2,2,0,0,0,1.71.29l6.55-.93a2,2,0,0,0,1.53-.75A2.17,2.17,0,0,0,403.89,230Zm34.85,6.47-6.94,1,2.67,18.72-10.81,1.54L417.88,217l10.81-1.53,1.86,13.09,6.94-1Z"/><path class="cls-2" d="M491.31,242.52l-5,.71,1,7.07,9-1.28,1.26,8.84-54.87,7.8-1.26-8.84,8.91-1.26-1-7.07-4.91.7-3-21.35,36.07-5.13-.53-3.73-36.08,5.13-1.25-8.84,46.88-6.67,3,21.42-36.07,5.12.52,3.67,36.07-5.13ZM461.15,254l15.39-2.19-1-7.07L460.14,247Z"/></g></svg>