<svg xmlns="http://www.w3.org/2000/svg" viewBox="0 0 750 500"><defs><style>.cls-1{opacity:0.36;}.cls-2{fill:#ba6fa9;}.cls-3{fill:#fff;}.cls-4{fill:none;stroke:#fff;stroke-miterlimit:10;opacity:0.25;}</style></defs><g id="레이어_13" data-name="레이어 13"><path class="cls-2" d="M678.81,346.51c.74,0,1.45.05,2.15.1V153.39c-.7.05-1.41.1-2.15.1-7.75,0-14-2.93-14-6.54H646.08c0,3.61-6.29,6.54-14.05,6.54s-14-2.93-14-6.54H599.29c0,3.61-6.29,6.54-14,6.54s-14-2.93-14-6.54H552.51c0,3.61-6.29,6.54-14,6.54s-14.05-2.93-14.05-6.54H505.72c0,3.61-6.29,6.54-14,6.54s-14.05-2.93-14.05-6.54H458.94c0,3.61-6.29,6.54-14.05,6.54s-14.05-2.93-14.05-6.54H412.15c0,3.61-6.29,6.54-14,6.54s-14.05-2.93-14.05-6.54H365.37c0,3.61-6.29,6.54-14.05,6.54s-14.05-2.93-14.05-6.54H318.59c0,3.61-6.29,6.54-14,6.54s-14.05-2.93-14.05-6.54H271.8c0,3.61-6.29,6.54-14.05,6.54S243.7,150.56,243.7,147H225c0,3.61-6.29,6.54-14.05,6.54s-14.05-2.93-14.05-6.54H178.23c0,3.61-6.29,6.54-14,6.54s-14.05-2.93-14.05-6.54H131.45c0,3.61-6.29,6.54-14,6.54s-14.05-2.93-14.05-6.54H84.66c0,3.61-6.29,6.54-14,6.54v193c7.76,0,14,2.92,14,6.54h18.69c0-3.62,6.29-6.54,14.05-6.54s14,2.92,14,6.54h18.68c0-3.62,6.29-6.54,14.05-6.54s14,2.92,14,6.54h18.69c0-3.62,6.29-6.54,14.05-6.54S225,349.43,225,353.05H243.7c0-3.62,6.29-6.54,14.05-6.54s14.05,2.92,14.05,6.54h18.69c0-3.62,6.29-6.54,14.05-6.54s14,2.92,14,6.54h18.68c0-3.62,6.29-6.54,14.05-6.54s14.05,2.92,14.05,6.54h18.69c0-3.62,6.29-6.54,14.05-6.54s14,2.92,14,6.54h18.69c0-3.62,6.29-6.54,14.05-6.54s14.05,2.92,14.05,6.54h18.69c0-3.62,6.29-6.54,14.05-6.54s14,2.92,14,6.54h18.69c0-3.62,6.29-6.54,14.05-6.54s14,2.92,14,6.54H571.2c0-3.62,6.29-6.54,14-6.54s14,2.92,14,6.54H618c0-3.62,6.29-6.54,14-6.54s14.05,2.92,14.05,6.54h18.69C664.77,349.43,671.06,346.51,678.81,346.51Z"/><path class="cls-3" d="M114.33,185.66a1.91,1.91,0,0,1-1.14.72,1.47,1.47,0,0,1-1.31-.49l-.66-.61a6.29,6.29,0,0,1,3.65-3.18,5.39,5.39,0,0,1,1.69-.28,6.41,6.41,0,0,1,4.18,1.25,4.85,4.85,0,0,1,1.66,3.58,6.11,6.11,0,0,1-.59,2.94,15.82,15.82,0,0,1-1.87,2.95l-3.49,4.63h6.88v1a1.83,1.83,0,0,1-.55,1.33,1.88,1.88,0,0,1-1.4.55h-9.82v-.65a2.63,2.63,0,0,1,.33-1.31,9.38,9.38,0,0,1,.69-1l5-6.69a7.37,7.37,0,0,0,1.08-2,3.92,3.92,0,0,0,.3-1.79,2.28,2.28,0,0,0-.73-1.49,2.25,2.25,0,0,0-1.6-.6,3.07,3.07,0,0,0-1.21.26A2.85,2.85,0,0,0,114.33,185.66Z"/><path class="cls-3" d="M131.29,181.82a5.36,5.36,0,0,1,4.68,2.34q1.6,2.34,1.6,7.11c0,3.19-.53,5.56-1.59,7.13a5.86,5.86,0,0,1-9.39,0c-1.06-1.57-1.59-3.94-1.59-7.13s.53-5.55,1.6-7.11A5.33,5.33,0,0,1,131.29,181.82Zm0,16.22a2.11,2.11,0,0,0,1.4-.48,3.39,3.39,0,0,0,1-1.36,8.72,8.72,0,0,0,.53-2.13,23.42,23.42,0,0,0,.15-2.8,23.66,23.66,0,0,0-.15-2.8,8.72,8.72,0,0,0-.53-2.13,3.38,3.38,0,0,0-1-1.34,2.15,2.15,0,0,0-1.4-.46,2.11,2.11,0,0,0-1.38.46,3.22,3.22,0,0,0-.92,1.34,9.22,9.22,0,0,0-.52,2.13,21.48,21.48,0,0,0-.17,2.8,21.26,21.26,0,0,0,.17,2.8,9.22,9.22,0,0,0,.52,2.13,3.24,3.24,0,0,0,.92,1.36A2.07,2.07,0,0,0,131.27,198Z"/><path class="cls-3" d="M142.1,185.66a1.91,1.91,0,0,1-1.14.72,1.47,1.47,0,0,1-1.31-.49l-.66-.61a6.64,6.64,0,0,1,.89-1.34,6.53,6.53,0,0,1,1.25-1.1,6.42,6.42,0,0,1,1.51-.74,5.39,5.39,0,0,1,1.69-.28,6.39,6.39,0,0,1,4.18,1.25,4.82,4.82,0,0,1,1.66,3.58,6,6,0,0,1-.59,2.94,15.32,15.32,0,0,1-1.87,2.95l-3.49,4.63h6.88v1a1.79,1.79,0,0,1-.55,1.33,1.88,1.88,0,0,1-1.4.55h-9.82v-.65a2.63,2.63,0,0,1,.33-1.31,9.38,9.38,0,0,1,.69-1l5.06-6.69a8,8,0,0,0,1.08-2,4,4,0,0,0,.29-1.79,2.28,2.28,0,0,0-2.33-2.09,3.11,3.11,0,0,0-1.21.26A2.92,2.92,0,0,0,142.1,185.66Z"/><path class="cls-3" d="M158.28,189.06a5.32,5.32,0,0,1,1.29-.17,6,6,0,0,1,4.16,1.67,5.72,5.72,0,0,1,1.72,4.16,6,6,0,0,1-.49,2.48,5.88,5.88,0,0,1-1.36,1.91,6,6,0,0,1-2,1.22,7.16,7.16,0,0,1-2.47.42,7,7,0,0,1-2.54-.45,5.62,5.62,0,0,1-3.3-3.15,6.16,6.16,0,0,1-.46-2.43,6.88,6.88,0,0,1,.49-2.63,21.19,21.19,0,0,1,1.14-2.35l3.47-6.39a2.76,2.76,0,0,1,.88-1,2.27,2.27,0,0,1,1.28-.32h2.07ZM156,194.8a3.41,3.41,0,0,0,.26,1.34,3.09,3.09,0,0,0,.66,1,2.75,2.75,0,0,0,1,.65,3.3,3.3,0,0,0,1.22.22,3,3,0,0,0,1.25-.25,3.36,3.36,0,0,0,1-.69,3,3,0,0,0,.67-1,3.54,3.54,0,0,0,.23-1.27,3.48,3.48,0,0,0-.24-1.34,3.12,3.12,0,0,0-.69-1,3,3,0,0,0-1-.64,3.23,3.23,0,0,0-1.22-.23,3.13,3.13,0,0,0-1.29.25,2.73,2.73,0,0,0-1,.69,3,3,0,0,0-.64,1A3.68,3.68,0,0,0,156,194.8Z"/><path class="cls-3" d="M173.79,189.49a9.32,9.32,0,0,1,.48-3.09,6.13,6.13,0,0,1,1.4-2.33,6,6,0,0,1,2.28-1.46,9.77,9.77,0,0,1,6.23,0,6,6,0,0,1,2.28,1.46,6.13,6.13,0,0,1,1.4,2.33,10.19,10.19,0,0,1,0,6.18,6.21,6.21,0,0,1-1.4,2.33,6.09,6.09,0,0,1-2.28,1.46,9.77,9.77,0,0,1-6.23,0,6.09,6.09,0,0,1-2.28-1.46,6.21,6.21,0,0,1-1.4-2.33A9.36,9.36,0,0,1,173.79,189.49Zm11.37,0a7,7,0,0,0-.24-1.91,4.23,4.23,0,0,0-.74-1.45,3.54,3.54,0,0,0-1.27-.94,4.49,4.49,0,0,0-1.83-.34,4.58,4.58,0,0,0-1.86.34,3.58,3.58,0,0,0-1.28.94,3.92,3.92,0,0,0-.75,1.45,7,7,0,0,0-.24,1.91,5.26,5.26,0,0,0,1,3.35,3.78,3.78,0,0,0,3.15,1.24,3.71,3.71,0,0,0,3.1-1.24A5.26,5.26,0,0,0,185.16,189.49Z"/><path class="cls-3" d="M193.69,195.14a1.32,1.32,0,0,1-.44,1.05,1.51,1.51,0,0,1-1,.37h-1.69V183.79a1.35,1.35,0,0,1,.41-1,1.28,1.28,0,0,1,.94-.41H193l6.16,7.83.41.6a3.72,3.72,0,0,1,.31.67v-7.73a1.25,1.25,0,0,1,.45-1,1.43,1.43,0,0,1,1-.39H203v12.76a1.28,1.28,0,0,1-.41,1,1.34,1.34,0,0,1-1,.42h-.87l-6.31-7.94a5.31,5.31,0,0,1-.46-.74,2.92,2.92,0,0,1-.24-.78Z"/><path class="cls-3" d="M205.78,196.56V183.79a1.32,1.32,0,0,1,.42-1,1.34,1.34,0,0,1,1-.41H209v12.19a1.15,1.15,0,0,1,.73-.57,4,4,0,0,1,.95-.13H215v.89a1.73,1.73,0,0,1-.15.73,1.59,1.59,0,0,1-.4.55,2,2,0,0,1-.56.35,1.61,1.61,0,0,1-.65.13Z"/><path class="cls-3" d="M221.23,195.14a1.32,1.32,0,0,1-.43,1,1.49,1.49,0,0,1-1,.39h-1.52v-5.68l-4.38-7.15a.76.76,0,0,1-.15-.45.9.9,0,0,1,.11-.44,1,1,0,0,1,.32-.31,1,1,0,0,1,.46-.11h1.8l2.83,4.61a3.15,3.15,0,0,1,.27.59l.18.62,3-5.08a1.42,1.42,0,0,1,.58-.59,2.08,2.08,0,0,1,.88-.15h2.18l-5.06,8.44Z"/><path class="cls-3" d="M226.06,189.49a9.59,9.59,0,0,1,.47-3.09,6.26,6.26,0,0,1,1.4-2.33,6.09,6.09,0,0,1,2.29-1.46,9.74,9.74,0,0,1,6.22,0,6.09,6.09,0,0,1,2.29,1.46,6.26,6.26,0,0,1,1.4,2.33,10.39,10.39,0,0,1,0,6.18,6.34,6.34,0,0,1-1.4,2.33,6.21,6.21,0,0,1-2.29,1.46,9.74,9.74,0,0,1-6.22,0,6.21,6.21,0,0,1-2.29-1.46,6.34,6.34,0,0,1-1.4-2.33A9.64,9.64,0,0,1,226.06,189.49Zm11.37,0a6.65,6.65,0,0,0-.25-1.91,4.06,4.06,0,0,0-.74-1.45,3.38,3.38,0,0,0-1.27-.94,4.43,4.43,0,0,0-1.83-.34,4.5,4.5,0,0,0-1.85.34,3.5,3.5,0,0,0-1.28.94,3.92,3.92,0,0,0-.75,1.45,6.65,6.65,0,0,0-.25,1.91,5.2,5.2,0,0,0,1,3.35,3.75,3.75,0,0,0,3.14,1.24,3.7,3.7,0,0,0,3.1-1.24A5.2,5.2,0,0,0,237.43,189.49Z"/><path class="cls-3" d="M246,195.14a1.29,1.29,0,0,1-.45,1.05,1.49,1.49,0,0,1-1,.37h-1.7V183.79a1.32,1.32,0,0,1,.42-1,1.27,1.27,0,0,1,.94-.41h1.08l6.16,7.83c.14.2.27.4.4.6a3.76,3.76,0,0,1,.32.67v-7.73a1.27,1.27,0,0,1,.44-1,1.45,1.45,0,0,1,1-.39h1.69v12.76a1.32,1.32,0,0,1-.41,1,1.37,1.37,0,0,1-1,.42H253l-6.31-7.94a4.44,4.44,0,0,1-.45-.74,2.92,2.92,0,0,1-.24-.78Z"/><path class="cls-3" d="M265.45,196.56H258V183.79a1.44,1.44,0,0,1,1.38-1.37H267v1a1.5,1.5,0,0,1-.16.7,1.82,1.82,0,0,1-.95.89,1.72,1.72,0,0,1-.61.13h-4.12v3.62a1.13,1.13,0,0,1,.71-.59,3.38,3.38,0,0,1,.94-.13h3.68v.88a1.77,1.77,0,0,1-.48,1.26,1.62,1.62,0,0,1-1.28.52h-3.57v3.81a1.06,1.06,0,0,1,.71-.56,4.31,4.31,0,0,1,.94-.11h4.42v1a1.71,1.71,0,0,1-.51,1.28A1.78,1.78,0,0,1,265.45,196.56Z"/><path class="cls-3" d="M279.13,195.14a1.29,1.29,0,0,1-.45,1.05,1.46,1.46,0,0,1-1,.37H276V183.79a1.26,1.26,0,0,1,.43-1,1.31,1.31,0,0,1,.91-.39h7.49v1a1.79,1.79,0,0,1-.48,1.22,1.62,1.62,0,0,1-1.28.54h-3.89v3.45a1.26,1.26,0,0,1,.73-.57,3.13,3.13,0,0,1,.94-.15h3.49v1a1.81,1.81,0,0,1-.12.67,1.6,1.6,0,0,1-.38.55,2,2,0,0,1-.55.39,1.45,1.45,0,0,1-.66.15h-3.45Z"/><path class="cls-3" d="M295.83,196.56l-1.23-3.24h-4.55l.53-1.7a1.55,1.55,0,0,1,.5-.69,1.25,1.25,0,0,1,.79-.26h1.78l-1.5-4.31a3.26,3.26,0,0,1-.21-.83,3.64,3.64,0,0,1,0-.74l-3.67,10.46a1.82,1.82,0,0,1-1.86,1.31h-1.8l4.83-12.66a2,2,0,0,1,.84-1.13,2.41,2.41,0,0,1,1.32-.35h2.11L298.56,195a1.15,1.15,0,0,1-.13,1.15,1.12,1.12,0,0,1-.93.46Z"/><path class="cls-3" d="M303.22,195.12a1.43,1.43,0,0,1-1.42,1.44H300V183.79a1.29,1.29,0,0,1,.43-1,1.4,1.4,0,0,1,.95-.39h1.8Z"/><path class="cls-3" d="M314.63,196.56l-4.13-5.08h-1.27v3.62a1.46,1.46,0,0,1-.4,1,1.3,1.3,0,0,1-1,.43h-1.78V183.79a1.26,1.26,0,0,1,.43-1,1.44,1.44,0,0,1,1-.39h3.66a9.38,9.38,0,0,1,2.15.24,5.38,5.38,0,0,1,1.81.77,3.94,3.94,0,0,1,1.25,1.38,4.17,4.17,0,0,1,.47,2,4,4,0,0,1-.26,1.47,3.84,3.84,0,0,1-.72,1.2,4.59,4.59,0,0,1-1.09.91,4.17,4.17,0,0,1-1.38.53l3.77,4.32a.68.68,0,0,1,.16.4.75.75,0,0,1-.07.42.81.81,0,0,1-.31.33.87.87,0,0,1-.48.14Zm-1-9.68a1.62,1.62,0,0,0-.19-.81,1.47,1.47,0,0,0-.52-.56,2.48,2.48,0,0,0-.76-.31,4.43,4.43,0,0,0-.9-.09h-2v4.29a1.29,1.29,0,0,1,.52-.44,1.82,1.82,0,0,1,.68-.11h.92a2.52,2.52,0,0,0,1.71-.52A1.82,1.82,0,0,0,313.65,186.88Z"/><path class="cls-3" d="M213.79,234.14v-9.06a4.32,4.32,0,0,1-.14.7,7,7,0,0,1-.24.79L211,233.05a1.4,1.4,0,0,1-.47.66,1.19,1.19,0,0,1-.77.25h-1.33l-2.6-7.48a4.1,4.1,0,0,1-.19-.66c0-.22-.08-.45-.11-.71v8a.91.91,0,0,1-.32.73,1,1,0,0,1-.72.28h-1.05V224a.93.93,0,0,1,.32-.73,1,1,0,0,1,.69-.28h2.16l3,9a2.76,2.76,0,0,1,.22-1.2l2.39-6.86a1.55,1.55,0,0,1,.52-.77,1.8,1.8,0,0,1,.94-.2h2.14v10a1,1,0,0,1-.3.77,1,1,0,0,1-.74.3Z"/><path class="cls-3" d="M220.14,231a.89.89,0,0,1-.9.91h-1.1v-8a.81.81,0,0,1,.27-.62A.88.88,0,0,1,219,223h1.14Z"/><path class="cls-3" d="M223.57,225.27a.9.9,0,0,0,.12.48,1.47,1.47,0,0,0,.31.35,2.13,2.13,0,0,0,.44.26l.52.21,1,.44a7.53,7.53,0,0,1,.86.4,3,3,0,0,1,.68.52,2.1,2.1,0,0,1,.45.65,1.84,1.84,0,0,1,.17.83,2.44,2.44,0,0,1-1.14,2.11,3.29,3.29,0,0,1-1.12.47,6,6,0,0,1-1.27.13,4.45,4.45,0,0,1-.85-.12,7.06,7.06,0,0,1-.89-.28,4.65,4.65,0,0,1-.83-.43,3,3,0,0,1-.65-.55l.4-.69a.58.58,0,0,1,.5-.41.9.9,0,0,1,.67.2,4.23,4.23,0,0,0,.82.44,3,3,0,0,0,.84.21c1,0,1.51-.28,1.51-1a.75.75,0,0,0-.09-.37,1.32,1.32,0,0,0-.25-.28,1.71,1.71,0,0,0-.35-.21l-.4-.18-1.22-.49a5.28,5.28,0,0,1-.86-.42,3.14,3.14,0,0,1-.7-.53,2.38,2.38,0,0,1-.48-.69,2,2,0,0,1-.18-.87,2.62,2.62,0,0,1,.26-1.2,2.32,2.32,0,0,1,.7-.82,2.86,2.86,0,0,1,1-.48,4.29,4.29,0,0,1,1.2-.14,5.41,5.41,0,0,1,1.6.26,3.74,3.74,0,0,1,1.36.8l-.39.63a1,1,0,0,1-.49.43.85.85,0,0,1-.75-.08,2.11,2.11,0,0,0-.3-.16l-.36-.13a2.62,2.62,0,0,0-.38-.09,1.63,1.63,0,0,0-1.18.18A.73.73,0,0,0,223.57,225.27Z"/><path class="cls-3" d="M230.81,225.27a.9.9,0,0,0,.12.48,1.28,1.28,0,0,0,.31.35,1.89,1.89,0,0,0,.44.26l.51.21,1,.44a7.38,7.38,0,0,1,.85.4,3,3,0,0,1,.69.52,2.1,2.1,0,0,1,.45.65,2,2,0,0,1,.16.83,2.42,2.42,0,0,1-.32,1.27,2.71,2.71,0,0,1-.81.84,3.34,3.34,0,0,1-1.13.47,6,6,0,0,1-1.27.13A4.57,4.57,0,0,1,231,232a7.06,7.06,0,0,1-.89-.28,5,5,0,0,1-.83-.43,3.56,3.56,0,0,1-.65-.55l.4-.69a.61.61,0,0,1,.51-.41.88.88,0,0,1,.66.2,4.55,4.55,0,0,0,.82.44,3,3,0,0,0,.85.21q1.5.07,1.5-1a.75.75,0,0,0-.09-.37.94.94,0,0,0-.25-.28,1.63,1.63,0,0,0-.34-.21l-.41-.18-1.21-.49a5.83,5.83,0,0,1-.87-.42,3.39,3.39,0,0,1-.7-.53,2.38,2.38,0,0,1-.48-.69,2,2,0,0,1-.18-.87,2.62,2.62,0,0,1,.26-1.2,2.43,2.43,0,0,1,.7-.82,2.91,2.91,0,0,1,1-.48,4.27,4.27,0,0,1,1.19-.14,5.36,5.36,0,0,1,1.6.26,3.66,3.66,0,0,1,1.36.8l-.39.63a.91.91,0,0,1-.49.43.83.83,0,0,1-.74-.08,2.25,2.25,0,0,0-.31-.16l-.36-.13a2.49,2.49,0,0,0-.37-.09,1.48,1.48,0,0,0-.34,0,1.36,1.36,0,0,0-.85.22A.74.74,0,0,0,230.81,225.27Z"/><path class="cls-3" d="M238.45,231a.91.91,0,0,1-.26.65.86.86,0,0,1-.63.26h-1.11v-8a.79.79,0,0,1,.28-.62.88.88,0,0,1,.59-.24h1.13Z"/><path class="cls-3" d="M239.94,227.47a6,6,0,0,1,.3-1.95,4,4,0,0,1,.88-1.46,3.83,3.83,0,0,1,1.44-.92,5.47,5.47,0,0,1,2-.32,5.39,5.39,0,0,1,1.95.32,3.83,3.83,0,0,1,1.44.92,4,4,0,0,1,.88,1.46,6,6,0,0,1,.3,1.95,5.9,5.9,0,0,1-.3,1.94,4,4,0,0,1-.88,1.47,4,4,0,0,1-1.44.92,5.61,5.61,0,0,1-1.95.32,5.69,5.69,0,0,1-2-.32,4,4,0,0,1-1.44-.92,4,4,0,0,1-.88-1.47A5.9,5.9,0,0,1,239.94,227.47Zm7.16,0a4,4,0,0,0-.16-1.2,2.37,2.37,0,0,0-.46-.91,2.09,2.09,0,0,0-.8-.6,3.31,3.31,0,0,0-2.32,0,2.09,2.09,0,0,0-.8.6,2.27,2.27,0,0,0-.48.91,4.38,4.38,0,0,0-.15,1.2,3.31,3.31,0,0,0,.62,2.11,2.37,2.37,0,0,0,2,.78,2.34,2.34,0,0,0,1.95-.78A3.31,3.31,0,0,0,247.1,227.47Z"/><path class="cls-3" d="M252.53,231a.79.79,0,0,1-.28.66.91.91,0,0,1-.62.24h-1.07v-8a.83.83,0,0,1,.26-.6.78.78,0,0,1,.59-.26h.68L256,228c.09.12.17.25.25.38a1.81,1.81,0,0,1,.2.42v-4.87a.82.82,0,0,1,.28-.62.92.92,0,0,1,.61-.24h1.07v8a.89.89,0,0,1-.89.87h-.55l-4-5a2.53,2.53,0,0,1-.28-.47,1.76,1.76,0,0,1-.16-.49Z"/><path class="cls-3" d="M264.34,228.61a6.24,6.24,0,0,1,.44-2.39,6.13,6.13,0,0,1,1.22-1.9,5.63,5.63,0,0,1,4.1-1.68,5.32,5.32,0,0,1,1.18.16,5.77,5.77,0,0,1,1.15.39,5.2,5.2,0,0,1,1,.61,4.72,4.72,0,0,1,.85.82l-.6.64a1,1,0,0,1-.72.34,1.09,1.09,0,0,1-.78-.25,5.38,5.38,0,0,0-1-.53,2.87,2.87,0,0,0-1.1-.2,3.52,3.52,0,0,0-1.51.32,3.16,3.16,0,0,0-1.13.84,3.55,3.55,0,0,0-.7,1.25,5,5,0,0,0-.24,1.58,4.44,4.44,0,0,0,.28,1.64,3.66,3.66,0,0,0,.76,1.22,3.33,3.33,0,0,0,1.14.77,3.9,3.9,0,0,0,1.42.26,3.56,3.56,0,0,0,1.18-.19,2.75,2.75,0,0,0,.95-.54,1.19,1.19,0,0,1,.81-.39,1,1,0,0,1,.73.28l.58.6a4.58,4.58,0,0,1-.85,1,4.76,4.76,0,0,1-1,.69,4.81,4.81,0,0,1-1.17.42,5.46,5.46,0,0,1-1.2.14,6,6,0,0,1-2.35-.45,5.32,5.32,0,0,1-1.82-1.25,5.81,5.81,0,0,1-1.19-1.86A6.25,6.25,0,0,1,264.34,228.61Z"/><path class="cls-3" d="M275.19,227.47a6,6,0,0,1,.3-1.95,4,4,0,0,1,.88-1.46,3.83,3.83,0,0,1,1.44-.92,6.16,6.16,0,0,1,3.92,0,3.83,3.83,0,0,1,1.44.92,4,4,0,0,1,.88,1.46,6,6,0,0,1,.3,1.95,5.9,5.9,0,0,1-.3,1.94,4,4,0,0,1-.88,1.47,4,4,0,0,1-1.44.92,6.16,6.16,0,0,1-3.92,0,4,4,0,0,1-1.44-.92,4,4,0,0,1-.88-1.47A5.9,5.9,0,0,1,275.19,227.47Zm7.16,0a4,4,0,0,0-.16-1.2,2.37,2.37,0,0,0-.46-.91,2.09,2.09,0,0,0-.8-.6,3.31,3.31,0,0,0-2.32,0,2.2,2.2,0,0,0-.81.6,2.38,2.38,0,0,0-.47.91,4.38,4.38,0,0,0-.15,1.2,3.25,3.25,0,0,0,.62,2.11,2.87,2.87,0,0,0,3.93,0A3.31,3.31,0,0,0,282.35,227.47Z"/><path class="cls-3" d="M296,231a.86.86,0,0,1-.27.67.9.9,0,0,1-.61.25h-1v-6.27q-.06.18-.12.39a2.37,2.37,0,0,1-.15.4L292,231.1a1.12,1.12,0,0,1-.4.54,1,1,0,0,1-.58.16h-.94L288,226.63a2.48,2.48,0,0,1-.17-.48c0-.16-.07-.3-.1-.43V231a.79.79,0,0,1-.28.63,1,1,0,0,1-.65.25h-1v-8a.84.84,0,0,1,.26-.62.85.85,0,0,1,.61-.24h1.66l2.64,6.85a1.89,1.89,0,0,1,.06-.66,5.39,5.39,0,0,1,.18-.59l1.92-4.88a1,1,0,0,1,1.06-.72H296Z"/><path class="cls-3" d="M301,223a5.43,5.43,0,0,1,1.35.16,3,3,0,0,1,1.12.5,2.41,2.41,0,0,1,.77.9,2.77,2.77,0,0,1,.29,1.3,3.22,3.22,0,0,1-.26,1.35,2.57,2.57,0,0,1-.71.94,3.13,3.13,0,0,1-1.08.54,4.68,4.68,0,0,1-1.32.18h-1.31V231a.87.87,0,0,1-.26.62.92.92,0,0,1-.64.26h-1.1v-8a.81.81,0,0,1,.27-.62.88.88,0,0,1,.6-.24Zm1.54,2.93a1.26,1.26,0,0,0-.12-.57,1,1,0,0,0-.32-.39,1.3,1.3,0,0,0-.48-.21,2.25,2.25,0,0,0-.58-.07h-1.19v2.9a1,1,0,0,1,.43-.33,1.54,1.54,0,0,1,.52-.09h.41a1.47,1.47,0,0,0,1-.31A1.14,1.14,0,0,0,302.54,226Z"/><path class="cls-3" d="M305.62,231.92v-8a.8.8,0,0,1,.27-.6.81.81,0,0,1,.61-.26h1.12v7.67a.69.69,0,0,1,.46-.36,2.39,2.39,0,0,1,.59-.08h2.75v.56a1.15,1.15,0,0,1-.1.46,1,1,0,0,1-.25.35,1.86,1.86,0,0,1-.35.22,1.15,1.15,0,0,1-.41.08Z"/><path class="cls-3" d="M317.21,231.92h-4.66v-8a.89.89,0,0,1,.86-.86h4.79v.61a1.05,1.05,0,0,1-.1.44,1.28,1.28,0,0,1-.26.34,1.24,1.24,0,0,1-.34.22,1.08,1.08,0,0,1-.38.08h-2.6V227a.72.72,0,0,1,.45-.37,2,2,0,0,1,.59-.09h2.32v.56a1.15,1.15,0,0,1-.3.8,1.07,1.07,0,0,1-.81.32h-2.25v2.4a.66.66,0,0,1,.45-.35,2.33,2.33,0,0,1,.59-.08h2.78v.62a1.06,1.06,0,0,1-.32.8A1.1,1.1,0,0,1,317.21,231.92Z"/><path class="cls-3" d="M323.56,231a.83.83,0,0,1-.26.64.86.86,0,0,1-.63.26h-1.1v-7.16h-2.69v-.65a1.14,1.14,0,0,1,.07-.41,1,1,0,0,1,.23-.35,1,1,0,0,1,.34-.25A1.18,1.18,0,0,1,320,223h6.31v.62a1.16,1.16,0,0,1-.31.8,1.08,1.08,0,0,1-.8.32h-1.59Z"/><path class="cls-3" d="M332,231.92h-4.66v-8a.8.8,0,0,1,.27-.6.79.79,0,0,1,.6-.26H333v.61a1.05,1.05,0,0,1-.1.44,1.25,1.25,0,0,1-.25.34,1.29,1.29,0,0,1-.35.22,1.08,1.08,0,0,1-.38.08h-2.6V227a.72.72,0,0,1,.45-.37,2.06,2.06,0,0,1,.59-.09h2.32v.56a1.15,1.15,0,0,1-.3.8,1.07,1.07,0,0,1-.81.32h-2.25v2.4a.66.66,0,0,1,.45-.35,2.46,2.46,0,0,1,.59-.08h2.79v.62a1.09,1.09,0,0,1-.32.8A1.14,1.14,0,0,1,332,231.92Z"/><path class="cls-3" d="M334.26,231.92v-8a.79.79,0,0,1,.28-.62,1,1,0,0,1,.63-.24h2.18a6.18,6.18,0,0,1,1.95.3,4.74,4.74,0,0,1,1.58.86,4,4,0,0,1,1.05,1.39,4.42,4.42,0,0,1,.39,1.9,4.52,4.52,0,0,1-.39,1.93,3.86,3.86,0,0,1-1.05,1.4,4.51,4.51,0,0,1-1.56.84,6.44,6.44,0,0,1-1.89.28Zm3.24-7.21h-1.24v6a.78.78,0,0,1,.44-.41,1.76,1.76,0,0,1,.59-.08h.29a2.83,2.83,0,0,0,1.12-.21,2.49,2.49,0,0,0,1.43-1.44,3.1,3.1,0,0,0,.19-1.12,2.71,2.71,0,0,0-.74-2.06A2.88,2.88,0,0,0,337.5,224.71Z"/><path class="cls-3" d="M223.74,268.51l-2.92-7.11a3,3,0,0,1-.91.34,6.17,6.17,0,0,1-1,.08h-7.14l.93-2.82a2.54,2.54,0,0,1,.95-1.38,2.87,2.87,0,0,1,1.64-.41h3.94l-2.91-8.49a11.17,11.17,0,0,1-.4-1.38,3.79,3.79,0,0,1-.05-1.34L208,266.65a3.67,3.67,0,0,1-.86,1.38,2.47,2.47,0,0,1-1.7.48h-3.33l9.57-24.12a4.24,4.24,0,0,1,1.33-1.9,3.66,3.66,0,0,1,2.32-.69h3.24l9.67,24.34a1.74,1.74,0,0,1,.1,1,2,2,0,0,1-.36.74,1.74,1.74,0,0,1-.64.49,1.76,1.76,0,0,1-.76.18Z"/><path class="cls-3" d="M229.21,268.54V244.2a2.12,2.12,0,0,1,.21-.94,3,3,0,0,1,.53-.77,2,2,0,0,1,.75-.51,2.2,2.2,0,0,1,.85-.18h2.69v24.37a2.11,2.11,0,0,1-.22,1,2.43,2.43,0,0,1-.6.75,2.62,2.62,0,0,1-.8.48,2.33,2.33,0,0,1-.85.16Z"/><path class="cls-3" d="M261.59,257.36v5.45h12.26v1.47a1.43,1.43,0,0,1-.46,1.14,1.67,1.67,0,0,1-1.14.4H244.84v-1.47a1.41,1.41,0,0,1,.46-1.14,1.67,1.67,0,0,1,1.14-.4H257v-5.45h-9.39v-1.44a1.4,1.4,0,0,1,.47-1.13,1.66,1.66,0,0,1,1.13-.4h2.6v-10h-3.62v-1.44a1.44,1.44,0,0,1,.48-1.15,1.64,1.64,0,0,1,1.12-.42h20.78v1.44a1.45,1.45,0,0,1-.48,1.16,1.68,1.68,0,0,1-1.12.41H266.9v10h4.17v1.44a1.4,1.4,0,0,1-.47,1.13,1.66,1.66,0,0,1-1.13.4Zm.48-13h-5.83v10h5.83Z"/><path class="cls-3" d="M291,257.4v5.41h11.88v1.47a1.43,1.43,0,0,1-.46,1.14,1.67,1.67,0,0,1-1.14.4H273.82v-1.47a1.41,1.41,0,0,1,.46-1.14,1.67,1.67,0,0,1,1.14-.4h10.92V257.4h-8.61V244.11a2.52,2.52,0,0,1,.86-2,3.12,3.12,0,0,1,2.15-.76h18.35v1.41a1.53,1.53,0,0,1-.47,1.17,1.6,1.6,0,0,1-1.14.43H282.34v3.4h16.43v1.41a1.53,1.53,0,0,1-.47,1.17,1.64,1.64,0,0,1-1.13.43H282.34v3.62h17.07v1.4a1.5,1.5,0,0,1-.47,1.17,1.6,1.6,0,0,1-1.13.44Z"/><path class="cls-3" d="M312.89,243.91a3.38,3.38,0,0,1,.67-2.24,2.5,2.5,0,0,1,2-.8h1.85v17.84h2c.92,0,2-.06,3.19-.18a37.27,37.27,0,0,0,4.11-.65v1.76a1.09,1.09,0,0,1-.89,1.18,16.35,16.35,0,0,1-1.83.42c-.64.11-1.28.19-1.92.26s-1.26.11-1.86.14-1.13.05-1.6.05h-5.73Zm15.27,4.2V243c0-2,.9-2.94,2.69-2.94h1.64v26.26a3.17,3.17,0,0,1-.71,2.21,2.52,2.52,0,0,1-1.95.76h-1.67V251.09h-5.7v-1.44a1.44,1.44,0,0,1,.45-1.12,1.53,1.53,0,0,1,1.09-.42Zm6.6-5.16c0-2,.9-2.94,2.69-2.94h1.7v27a3.2,3.2,0,0,1-.69,2.21,2.45,2.45,0,0,1-1.91.77h-1.79Z"/><path class="cls-3" d="M342.13,247.69a1.58,1.58,0,0,1,.43-1.15,1.45,1.45,0,0,1,1.1-.45h8.65a8.85,8.85,0,0,0,.38-1.2,9,9,0,0,0,.23-1.3H341.84v-1.44a1.45,1.45,0,0,1,.45-1.12,1.55,1.55,0,0,1,1.08-.41H357.5a15.19,15.19,0,0,1-.84,5.82,16,16,0,0,1-2.7,4.82,17.27,17.27,0,0,1-4.15,3.64,19.71,19.71,0,0,1-5.12,2.27,4,4,0,0,1-1.56.15,2.23,2.23,0,0,1-1.39-.69l-1-1.19a24.06,24.06,0,0,0,5.72-2.64,16.45,16.45,0,0,0,4.14-3.73h-8.48Zm5,22.55a3.37,3.37,0,0,1-1.37,0,2.08,2.08,0,0,1-1.06-.71l-1-1.27a27.2,27.2,0,0,0,3.33-1.16,20.88,20.88,0,0,0,3.23-1.68,11.29,11.29,0,0,0,2.45-2.07,3.48,3.48,0,0,0,1-2.3V261a3.32,3.32,0,0,1,.7-2.27,2.61,2.61,0,0,1,2.05-.8h1.83v2.88a3.66,3.66,0,0,0,1.05,2.48,11.55,11.55,0,0,0,2.61,2.1,22.84,22.84,0,0,0,3.29,1.62,27.21,27.21,0,0,0,3.07,1l-1,1.41a2,2,0,0,1-2.44.67,18.85,18.85,0,0,1-2.27-.72,21.47,21.47,0,0,1-2.4-1.1,21.74,21.74,0,0,1-2.24-1.4,9.15,9.15,0,0,1-1.76-1.58,8.6,8.6,0,0,1-1.8,1.66,20.22,20.22,0,0,1-2.38,1.47,19.39,19.39,0,0,1-2.57,1.14A15.27,15.27,0,0,1,347.15,270.24Zm15.44-11.44V250H357v-1.54a1.45,1.45,0,0,1,.45-1.12,1.53,1.53,0,0,1,1.09-.42h4.07V243a3.41,3.41,0,0,1,.67-2.25,2.5,2.5,0,0,1,2-.8h2v15.82a3.37,3.37,0,0,1-.67,2.24,2.47,2.47,0,0,1-2,.8Z"/><line class="cls-4" x1="111.68" y1="298.17" x2="641.47" y2="298.17"/><path class="cls-3" d="M147.05,240.23a9.65,9.65,0,1,0,9.65,9.65A9.65,9.65,0,0,0,147.05,240.23Z"/><path class="cls-3" d="M174.76,227.93H157.67l-3.62-6a1.32,1.32,0,0,0-1.13-.64H141.19a1.32,1.32,0,0,0-1.14.64l-3.62,6h-5.85v-1.31a2,2,0,0,0-2-2H122a2,2,0,0,0-2,2v1.31h-.81a4.71,4.71,0,0,0-4.71,4.71v34.47a4.7,4.7,0,0,0,4.71,4.71h55.51a4.71,4.71,0,0,0,4.71-4.71V232.64A4.71,4.71,0,0,0,174.76,227.93Zm-27.71,35.35a13.4,13.4,0,1,1,13.4-13.4A13.41,13.41,0,0,1,147.05,263.28Zm24.78-25.68h-6.11a1.78,1.78,0,1,1,0-3.55h6.11a1.78,1.78,0,1,1,0,3.55Z"/><path class="cls-3" d="M112.44,322.14V312a.93.93,0,0,1,.09-.42,1,1,0,0,1,.23-.32,1.16,1.16,0,0,1,.32-.2,1,1,0,0,1,.35-.06h1.1v9.82a.86.86,0,0,1,.51-.43,2.25,2.25,0,0,1,.68-.11h4.06V321a1.14,1.14,0,0,1-.32.79,1.08,1.08,0,0,1-.82.34Z"/><path class="cls-3" d="M120.68,322.14V312a.79.79,0,0,1,.08-.38,1.4,1.4,0,0,1,.22-.32,1,1,0,0,1,.31-.21,1,1,0,0,1,.37-.07h6.16v.82a1,1,0,0,1-.1.41,1.16,1.16,0,0,1-.24.34,1.41,1.41,0,0,1-.36.24,1,1,0,0,1-.41.09h-3.94V316a.85.85,0,0,1,.52-.41,2.61,2.61,0,0,1,.66-.09h3.47v.8a.94.94,0,0,1-.1.38,1.31,1.31,0,0,1-.24.34,1.88,1.88,0,0,1-.36.24,1,1,0,0,1-.42.09h-3.53v3.38a.91.91,0,0,1,.49-.42,2.27,2.27,0,0,1,.65-.1H128V321a1.08,1.08,0,0,1-.09.44,1.13,1.13,0,0,1-.24.36,1.37,1.37,0,0,1-.37.26,1.14,1.14,0,0,1-.46.09Z"/><path class="cls-3" d="M136.79,322.13l-1.21-3a1.09,1.09,0,0,1-.38.14,2.6,2.6,0,0,1-.4,0h-3l.38-1.17a1,1,0,0,1,.39-.57,1.22,1.22,0,0,1,.69-.17h1.64l-1.21-3.54a4.11,4.11,0,0,1-.17-.57,1.51,1.51,0,0,1,0-.56l-3.29,8.6a1.74,1.74,0,0,1-.36.57,1,1,0,0,1-.71.2h-1.38l4-10a1.76,1.76,0,0,1,.56-.8,1.5,1.5,0,0,1,1-.28h1.35l4,10.12a.72.72,0,0,1,0,.4.81.81,0,0,1-.15.31.63.63,0,0,1-.26.2.79.79,0,0,1-.32.08Z"/><path class="cls-3" d="M146.16,322.14l-3.3-4.29H141.5v3.24a1,1,0,0,1-1.07,1.05h-1V312a.9.9,0,0,1,.08-.4,1.4,1.4,0,0,1,.22-.32,1,1,0,0,1,.31-.21.92.92,0,0,1,.36-.07h2.82a7.32,7.32,0,0,1,1.65.18,4.27,4.27,0,0,1,1.39.6,3.15,3.15,0,0,1,1,1.06,3,3,0,0,1,.36,1.53,3.44,3.44,0,0,1-.19,1.18,2.71,2.71,0,0,1-.53.92,3.13,3.13,0,0,1-.82.67,4.62,4.62,0,0,1-1,.44l2.94,3.52a.58.58,0,0,1,.16.32.65.65,0,0,1-.06.33.52.52,0,0,1-.23.26.6.6,0,0,1-.37.11Zm-4.66-9.31v3.79a1,1,0,0,1,.52-.39,2.39,2.39,0,0,1,.66-.1h.66a2.59,2.59,0,0,0,1.57-.42,1.55,1.55,0,0,0,.57-1.27,1.35,1.35,0,0,0-.57-1.19,2.91,2.91,0,0,0-1.72-.42Z"/><path class="cls-3" d="M148.94,322.14V312a1,1,0,0,1,1-1h.85l5.05,6.87a3.41,3.41,0,0,1,.57,1.2V312a1,1,0,0,1,.3-.71,1,1,0,0,1,.68-.29h1.1v10.12a.86.86,0,0,1-.07.36,1.1,1.1,0,0,1-.2.31,1.12,1.12,0,0,1-.32.24,1,1,0,0,1-.41.09h-.84l-4.93-6.63a3.44,3.44,0,0,1-.68-1.39v7a.92.92,0,0,1-.3.7,1,1,0,0,1-.71.29Z"/><path class="cls-3" d="M160.59,322.14V312a1.06,1.06,0,0,1,.08-.4,1.4,1.4,0,0,1,.22-.32,1,1,0,0,1,.32-.21.87.87,0,0,1,.35-.07h1.12v10.13a.88.88,0,0,1-.09.41,1.31,1.31,0,0,1-.25.32,1.09,1.09,0,0,1-.33.19.92.92,0,0,1-.36.07Z"/><path class="cls-3" d="M164.78,322.14V312a1,1,0,0,1,1-1h.85l5,6.87a3.41,3.41,0,0,1,.57,1.2V312a1,1,0,0,1,.3-.71,1,1,0,0,1,.68-.29h1.1v10.12a.86.86,0,0,1-.07.36,1.1,1.1,0,0,1-.2.31,1.12,1.12,0,0,1-.32.24,1,1,0,0,1-.41.09h-.84l-4.93-6.63a3.44,3.44,0,0,1-.68-1.39v7a.92.92,0,0,1-.3.7,1,1,0,0,1-.71.29Z"/><path class="cls-3" d="M181.38,312.62a3.34,3.34,0,0,0-1.42.29,3.16,3.16,0,0,0-1.12.82,4,4,0,0,0-.73,1.25,4.76,4.76,0,0,0,0,3.16,3.82,3.82,0,0,0,.75,1.25,3.32,3.32,0,0,0,1.13.82,3.81,3.81,0,0,0,3.78-.5,3.36,3.36,0,0,0,1.09-2.25,1,1,0,0,1-.42.26,1.9,1.9,0,0,1-.46.07h-2v-.68a1.13,1.13,0,0,1,.33-.83,1.15,1.15,0,0,1,.85-.33H187c0,.15,0,.3,0,.45s0,.3,0,.45a5.24,5.24,0,0,1-.44,2.15,5.78,5.78,0,0,1-1.19,1.79,5.51,5.51,0,0,1-3.95,1.67,5.92,5.92,0,0,1-2.27-.43,5.44,5.44,0,0,1-3.08-3,6.18,6.18,0,0,1-.46-2.4,6.25,6.25,0,0,1,.45-2.4,5.66,5.66,0,0,1,3-3.13,5.49,5.49,0,0,1,2.21-.45,6.32,6.32,0,0,1,2.53.51,5.66,5.66,0,0,1,2,1.44l-.49.55a1.09,1.09,0,0,1-.73.49,1.12,1.12,0,0,1-.85-.27,5.2,5.2,0,0,0-1.23-.56A4.84,4.84,0,0,0,181.38,312.62Z"/><path class="cls-3" d="M191.27,316.61a6.43,6.43,0,0,1,.44-2.39,6.13,6.13,0,0,1,1.22-1.9,5.64,5.64,0,0,1,1.83-1.24,5.55,5.55,0,0,1,2.28-.44,5.4,5.4,0,0,1,1.18.16,5.9,5.9,0,0,1,1.14.39,5.59,5.59,0,0,1,1,.61,5,5,0,0,1,.84.82l-.6.64a1,1,0,0,1-.72.34,1.09,1.09,0,0,1-.78-.25,5.08,5.08,0,0,0-1-.53,2.82,2.82,0,0,0-1.09-.2,3.56,3.56,0,0,0-1.52.32,3.25,3.25,0,0,0-1.13.84,3.72,3.72,0,0,0-.7,1.25,5,5,0,0,0-.24,1.58,4.66,4.66,0,0,0,.28,1.64,3.66,3.66,0,0,0,.76,1.22,3.33,3.33,0,0,0,1.14.77,3.9,3.9,0,0,0,1.42.26,3.52,3.52,0,0,0,1.18-.19,2.75,2.75,0,0,0,1-.54,1.19,1.19,0,0,1,.81-.39,1.07,1.07,0,0,1,.74.28l.57.6a4.58,4.58,0,0,1-.85.95,4.76,4.76,0,0,1-1,.69,4.89,4.89,0,0,1-1.16.42,5.62,5.62,0,0,1-1.21.14,6,6,0,0,1-2.35-.45,5.42,5.42,0,0,1-1.82-1.25,5.81,5.81,0,0,1-1.19-1.86A6.25,6.25,0,0,1,191.27,316.61Z"/><path class="cls-3" d="M202.32,322.14V312a.79.79,0,0,1,.09-.38,1.4,1.4,0,0,1,.22-.32,1,1,0,0,1,.31-.21,1,1,0,0,1,.37-.07h6.16v.82a1,1,0,0,1-.1.41,1.16,1.16,0,0,1-.24.34,1.41,1.41,0,0,1-.36.24,1,1,0,0,1-.41.09h-3.94V316a.85.85,0,0,1,.52-.41,2.61,2.61,0,0,1,.66-.09h3.46v.8a.92.92,0,0,1-.09.38,1.31,1.31,0,0,1-.24.34,1.88,1.88,0,0,1-.36.24,1,1,0,0,1-.42.09h-3.53v3.38a.87.87,0,0,1,.49-.42,2.27,2.27,0,0,1,.65-.1h4.12V321a1.08,1.08,0,0,1-.09.44,1.13,1.13,0,0,1-.24.36,1.37,1.37,0,0,1-.37.26,1.14,1.14,0,0,1-.46.09Z"/><path class="cls-3" d="M210.68,322.14V312a1,1,0,0,1,.3-.74,1,1,0,0,1,.68-.28h.86l5,6.87a3.28,3.28,0,0,1,.58,1.2V312a1,1,0,0,1,1-1h1.11v10.12a.86.86,0,0,1-.08.36.92.92,0,0,1-.2.31,1,1,0,0,1-.32.24.93.93,0,0,1-.4.09h-.84l-4.93-6.63a3.32,3.32,0,0,1-.68-1.39v7a.9.9,0,0,1-.31.7,1,1,0,0,1-.7.29Z"/><path class="cls-3" d="M221.15,312.83v-.68a1.33,1.33,0,0,1,.08-.45,1.11,1.11,0,0,1,.25-.36,1.1,1.1,0,0,1,.35-.24,1,1,0,0,1,.42-.08h8.29v.7a1.15,1.15,0,0,1-.33.78,2.25,2.25,0,0,1-.36.24.93.93,0,0,1-.4.09h-2.59v8.31a1,1,0,0,1-.08.38,1.21,1.21,0,0,1-.22.32,1,1,0,0,1-.32.22.94.94,0,0,1-.36.08h-1.1v-9.31Z"/><path class="cls-3" d="M231.45,322.14V312a.79.79,0,0,1,.08-.38,1.4,1.4,0,0,1,.22-.32,1,1,0,0,1,.31-.21,1,1,0,0,1,.37-.07h6.16v.82a.86.86,0,0,1-.1.41,1.16,1.16,0,0,1-.24.34,1.41,1.41,0,0,1-.36.24,1,1,0,0,1-.41.09h-3.94V316a.85.85,0,0,1,.52-.41,2.61,2.61,0,0,1,.66-.09h3.47v.8a.94.94,0,0,1-.1.38,1.31,1.31,0,0,1-.24.34,1.88,1.88,0,0,1-.36.24,1,1,0,0,1-.42.09h-3.53v3.38a.91.91,0,0,1,.49-.42,2.27,2.27,0,0,1,.65-.1h4.12V321a1.08,1.08,0,0,1-.09.44,1.13,1.13,0,0,1-.24.36,1.37,1.37,0,0,1-.37.26,1.14,1.14,0,0,1-.46.09Z"/><path class="cls-3" d="M246.55,322.14l-3.3-4.29h-1.36v3.24a1,1,0,0,1-1.07,1.05h-1V312a1.06,1.06,0,0,1,.08-.4,1.81,1.81,0,0,1,.22-.32,1,1,0,0,1,.32-.21.87.87,0,0,1,.35-.07h2.83a7.45,7.45,0,0,1,1.65.18,4.31,4.31,0,0,1,1.38.6,3.15,3.15,0,0,1,1,1.06,3,3,0,0,1,.36,1.53,3.44,3.44,0,0,1-.19,1.18,2.71,2.71,0,0,1-.53.92,3,3,0,0,1-.82.67,4.25,4.25,0,0,1-1,.44l3,3.52a.5.5,0,0,1,.15.32.64.64,0,0,1-.05.33.6.6,0,0,1-.24.26.58.58,0,0,1-.37.11Zm-4.66-9.31v3.79a1.07,1.07,0,0,1,.53-.39,2.28,2.28,0,0,1,.66-.1h.65a2.57,2.57,0,0,0,1.57-.42,1.55,1.55,0,0,0,.57-1.27,1.36,1.36,0,0,0-.56-1.19,2.94,2.94,0,0,0-1.73-.42Z"/><path class="cls-3" d="M254.09,320a2.92,2.92,0,0,0,.72.53,2.28,2.28,0,0,0,1.08.3,1.82,1.82,0,0,0,1.41-.56,1.73,1.73,0,0,0,.39-.6,1.85,1.85,0,0,0,.13-.7,1.82,1.82,0,0,0-.55-1.43,2.12,2.12,0,0,0-1.46-.5h-1.28v-.77a.85.85,0,0,1,.34-.73,1.25,1.25,0,0,1,.73-.24h.24a1.54,1.54,0,0,0,.6-.13,1.74,1.74,0,0,0,.5-.33,1.71,1.71,0,0,0,.32-.5,1.56,1.56,0,0,0,.12-.62,1.31,1.31,0,0,0-.4-1,1.48,1.48,0,0,0-1.08-.36,1.72,1.72,0,0,0-.83.2,2.22,2.22,0,0,0-.59.48,1.55,1.55,0,0,1-.87.46.94.94,0,0,1-.86-.35l-.3-.29A3.86,3.86,0,0,1,253,312a3.75,3.75,0,0,1,.78-.7,3.9,3.9,0,0,1,2.2-.66,4,4,0,0,1,1.51.24,3.35,3.35,0,0,1,1.12.66,2.63,2.63,0,0,1,.68,1,2.91,2.91,0,0,1,.23,1.17,3.06,3.06,0,0,1-.09.74,2.75,2.75,0,0,1-.27.69,3.06,3.06,0,0,1-.44.58,2.44,2.44,0,0,1-.57.43,3.18,3.18,0,0,1,.7.47,3,3,0,0,1,.57.66,3.76,3.76,0,0,1,.38.81,3,3,0,0,1,.14.91,3.66,3.66,0,0,1-.28,1.44,3.28,3.28,0,0,1-.79,1.16,3.46,3.46,0,0,1-1.26.76,4.37,4.37,0,0,1-1.66.22,4.72,4.72,0,0,1-2.37-.7,4.38,4.38,0,0,1-1.52-1.6l.28-.31a1.14,1.14,0,0,1,.44-.27,1.25,1.25,0,0,1,.93.06A1.21,1.21,0,0,1,254.09,320Z"/><path class="cls-3" d="M272.58,316.12v.59a.58.58,0,0,1-.65.65H260.51v-.59a.58.58,0,0,1,.66-.65Zm-6.9-5.16v-.13a.94.94,0,0,1,1-1h.9V311h3.74v.6a.59.59,0,0,1-.19.48.66.66,0,0,1-.46.16h-3a2.18,2.18,0,0,0,.65.85,6.4,6.4,0,0,0,1.1.74,9.23,9.23,0,0,0,1.27.6,8.84,8.84,0,0,0,1.23.38l-.27.47a.64.64,0,0,1-.4.34,1.22,1.22,0,0,1-.57,0,8.11,8.11,0,0,1-1-.3,9.42,9.42,0,0,1-1.1-.48,8.75,8.75,0,0,1-1.07-.62,5.12,5.12,0,0,1-.85-.7,3.67,3.67,0,0,1-.87.78,8.18,8.18,0,0,1-1.08.62,8.86,8.86,0,0,1-1.13.45,9,9,0,0,1-1,.27q-.8.15-1.05-.3l-.33-.55a12.86,12.86,0,0,0,1.24-.38,9.77,9.77,0,0,0,1.32-.58,6.31,6.31,0,0,0,1.13-.74,2.31,2.31,0,0,0,.68-.86H262v-.6a.58.58,0,0,1,.19-.46.61.61,0,0,1,.45-.18Zm-3.05,9.78a2.58,2.58,0,0,1,.25-1.08,2.61,2.61,0,0,1,.76-.91,3.9,3.9,0,0,1,1.24-.63,6.51,6.51,0,0,1,3.43,0,3.9,3.9,0,0,1,1.24.63,2.78,2.78,0,0,1,.74.91,2.44,2.44,0,0,1,.25,1.08,2.5,2.5,0,0,1-.25,1.11,2.92,2.92,0,0,1-.74.92,3.9,3.9,0,0,1-1.24.63,6.51,6.51,0,0,1-3.43,0,3.9,3.9,0,0,1-1.24-.63,2.73,2.73,0,0,1-.76-.92A2.65,2.65,0,0,1,262.63,320.74Zm1.92,0a1.63,1.63,0,0,0,.55,1.21,2,2,0,0,0,.64.38,2.54,2.54,0,0,0,.86.14,2.48,2.48,0,0,0,.85-.14,1.77,1.77,0,0,0,.64-.37,1.81,1.81,0,0,0,.4-.55,1.7,1.7,0,0,0,0-1.35,1.65,1.65,0,0,0-.4-.54,2.13,2.13,0,0,0-.64-.38,2.48,2.48,0,0,0-.85-.14,2.54,2.54,0,0,0-.86.14,2,2,0,0,0-.64.38,1.44,1.44,0,0,0-.41.54A1.72,1.72,0,0,0,264.55,320.76Z"/><path class="cls-3" d="M273.29,314.48a4.54,4.54,0,0,1,.24-1.5,3.47,3.47,0,0,1,.69-1.18,3,3,0,0,1,1.1-.78,4,4,0,0,1,2.82,0,3,3,0,0,1,1.05.65,3.34,3.34,0,0,1,.71,1,4.38,4.38,0,0,1,.36,1.29H281V311.5c0-.82.37-1.23,1.12-1.23h.68V321.2a1.28,1.28,0,0,1-.3.91,1,1,0,0,1-.81.32H281v-7.27h-.79a4,4,0,0,1-.37,1.25,3.31,3.31,0,0,1-.72,1,3.17,3.17,0,0,1-1,.63,4.13,4.13,0,0,1-2.8-.05,3.13,3.13,0,0,1-1.1-.79,3.37,3.37,0,0,1-.69-1.18A4.54,4.54,0,0,1,273.29,314.48Zm5.14,0a3.6,3.6,0,0,0-.44-1.91,1.34,1.34,0,0,0-1.2-.7,1.36,1.36,0,0,0-1.2.7,4.37,4.37,0,0,0,0,3.82,1.36,1.36,0,0,0,1.2.7,1.34,1.34,0,0,0,1.2-.7A3.58,3.58,0,0,0,278.43,314.48Zm5.3-3c0-.82.38-1.23,1.12-1.23h.71v11.22a1.35,1.35,0,0,1-.29.92,1,1,0,0,1-.79.32h-.75Z"/><path class="cls-3" d="M294,319a.85.85,0,0,1-.57.27,1,1,0,0,1-.64-.18,10.86,10.86,0,0,1-1.43-1.19,7.23,7.23,0,0,1-1.18-1.49,5.92,5.92,0,0,1-.52.83,7.48,7.48,0,0,1-.68.83c-.25.26-.51.51-.77.74a6.16,6.16,0,0,1-.78.59,1,1,0,0,1-.62.15,1,1,0,0,1-.59-.28l-.45-.43a12.47,12.47,0,0,0,1.36-1.12,7.15,7.15,0,0,0,1.1-1.31,7,7,0,0,0,.72-1.54,5.76,5.76,0,0,0,.27-1.8v-1.13a1.38,1.38,0,0,1,.29-.93,1.09,1.09,0,0,1,.85-.34h.78v2.3a6.07,6.07,0,0,0,.2,1.63A5.08,5.08,0,0,0,292,316a6.78,6.78,0,0,0,1,1.29,10.76,10.76,0,0,0,1.46,1.2Zm3.11,2.47a1.42,1.42,0,0,1-.29.93,1,1,0,0,1-.83.33h-.8v-7.9H292.7v-.59a.58.58,0,0,1,.19-.47.69.69,0,0,1,.46-.17h1.87v-2.06a1.38,1.38,0,0,1,.28-.93,1,1,0,0,1,.84-.34h.8Z"/><path class="cls-3" d="M310.08,319a.85.85,0,0,1-.57.27,1,1,0,0,1-.64-.18,10.8,10.8,0,0,1-1.42-1.19,7,7,0,0,1-1.19-1.49,5,5,0,0,1-.51.83,8.93,8.93,0,0,1-.69.83c-.25.26-.5.51-.77.74a6.1,6.1,0,0,1-.77.59,1.05,1.05,0,0,1-.63.15,1,1,0,0,1-.59-.28l-.45-.43a13.62,13.62,0,0,0,1.37-1.12,7.51,7.51,0,0,0,1.09-1.31,6.19,6.19,0,0,0,.72-1.54,5.76,5.76,0,0,0,.27-1.8v-1.13a1.38,1.38,0,0,1,.29-.93,1.1,1.1,0,0,1,.86-.34h.77v2.3a6.5,6.5,0,0,0,.2,1.63A5.39,5.39,0,0,0,308,316a7.2,7.2,0,0,0,1,1.29,11.41,11.41,0,0,0,1.46,1.2Zm3-3.52v6.21a1,1,0,0,1-.29.77,1.11,1.11,0,0,1-.79.27h-.84V311.3a1.05,1.05,0,0,1,.28-.78,1.13,1.13,0,0,1,.8-.28h.84v4h2v.59a.58.58,0,0,1-.66.65Z"/><path class="cls-3" d="M326.8,316.11v.58a.58.58,0,0,1-.65.66H314.73v-.59a.58.58,0,0,1,.66-.65h2.22v-1.87a2.5,2.5,0,0,1-.71-1.77,2.55,2.55,0,0,1,.29-1.19,2.84,2.84,0,0,1,.8-.93,3.93,3.93,0,0,1,1.23-.61,5.83,5.83,0,0,1,3.1,0,4.16,4.16,0,0,1,1.23.61,2.8,2.8,0,0,1,.79.93,2.44,2.44,0,0,1,.29,1.19,2.51,2.51,0,0,1-.18.95,2.64,2.64,0,0,1-.51.81v1.88Zm-10,4.63a2.57,2.57,0,0,1,.24-1.08,2.63,2.63,0,0,1,.73-.92,4,4,0,0,1,1.23-.64,5.22,5.22,0,0,1,1.73-.25,5.41,5.41,0,0,1,1.74.25,3.8,3.8,0,0,1,1.22.64,2.63,2.63,0,0,1,.73.92,2.57,2.57,0,0,1,0,2.17,2.64,2.64,0,0,1-.73.95,3.63,3.63,0,0,1-1.22.66,5.7,5.7,0,0,1-1.74.25,5.61,5.61,0,0,1-1.74-.25,3.79,3.79,0,0,1-1.23-.66,2.73,2.73,0,0,1-.72-.95A2.58,2.58,0,0,1,316.84,320.74Zm1.92,0a1.67,1.67,0,0,0,.52,1.27,2.06,2.06,0,0,0,1.49.51,2,2,0,0,0,1.48-.51,1.68,1.68,0,0,0,.53-1.27,1.7,1.7,0,0,0-.53-1.28,2.07,2.07,0,0,0-1.48-.5,2.1,2.1,0,0,0-1.49.5A1.7,1.7,0,0,0,318.76,320.76Zm4-8.29a1.73,1.73,0,0,0-.54-1.31,2.27,2.27,0,0,0-2.84,0,1.73,1.73,0,0,0-.54,1.31,1.9,1.9,0,0,0,.14.73,1.56,1.56,0,0,0,.4.55,1.83,1.83,0,0,0,.62.37,2.24,2.24,0,0,0,.8.13,2.28,2.28,0,0,0,.8-.13,1.93,1.93,0,0,0,.62-.37,1.69,1.69,0,0,0,.4-.55A1.9,1.9,0,0,0,322.73,312.47Zm-2,2.92a4.79,4.79,0,0,1-1.27-.14v.86h2.55v-.86A4.88,4.88,0,0,1,320.77,315.39Z"/><path class="cls-3" d="M338.17,310.7l0,1.12a7,7,0,0,1-.44,2.38,8.73,8.73,0,0,1-1.16,2.17,10.52,10.52,0,0,1-1.76,1.84,11.09,11.09,0,0,1-2.22,1.4,1.19,1.19,0,0,1-.6.11.8.8,0,0,1-.52-.22l-.56-.57a16.39,16.39,0,0,0,2-1.24,9.29,9.29,0,0,0,1.66-1.52,6.82,6.82,0,0,0,1.11-1.9,6.16,6.16,0,0,0,.41-2.33h-4.62v-.59a.62.62,0,0,1,.19-.48.71.71,0,0,1,.47-.17Zm1.61,12V311.51a1.38,1.38,0,0,1,.28-.93,1,1,0,0,1,.84-.34h.8v4.15h2V315a.62.62,0,0,1-.19.48.7.7,0,0,1-.46.16H341.7v5.83a1.47,1.47,0,0,1-.28.93,1,1,0,0,1-.84.33Z"/><path class="cls-3" d="M343.38,317v-.59a.57.57,0,0,1,.65-.65h11.41v.58a.58.58,0,0,1-.65.66Zm1.53-2.26V311.4a1.38,1.38,0,0,1,.28-.93,1.07,1.07,0,0,1,.85-.33h.77v3.32h7.37V314a.59.59,0,0,1-.19.48.6.6,0,0,1-.45.17Zm.54,6a2.49,2.49,0,0,1,.26-1.09,2.82,2.82,0,0,1,.75-.95,4,4,0,0,1,1.24-.66,6,6,0,0,1,3.5,0,4,4,0,0,1,1.25.66,2.73,2.73,0,0,1,.76.95,2.48,2.48,0,0,1,.25,1.09,2.53,2.53,0,0,1-.25,1.11,2.76,2.76,0,0,1-.76,1,3.82,3.82,0,0,1-1.25.68,6.25,6.25,0,0,1-3.5,0,3.82,3.82,0,0,1-1.25-.68,2.62,2.62,0,0,1-.75-1A2.68,2.68,0,0,1,345.45,320.7Zm1.92,0a1.8,1.8,0,0,0,.15.73,1.84,1.84,0,0,0,1.07,1,2.32,2.32,0,0,0,.86.14,2.41,2.41,0,0,0,.87-.14A1.85,1.85,0,0,0,351,322a1.57,1.57,0,0,0,.42-.58,1.8,1.8,0,0,0,.15-.73,1.71,1.71,0,0,0-.15-.71,1.53,1.53,0,0,0-.42-.59,1.85,1.85,0,0,0-.65-.39,2.41,2.41,0,0,0-.87-.14,2.32,2.32,0,0,0-.86.14,1.85,1.85,0,0,0-.65.39,1.77,1.77,0,0,0-.42.59A1.71,1.71,0,0,0,347.37,320.71Z"/><rect class="cls-3" x="488.62" y="223.05" width="150.36" height="47" rx="23.5"/><path class="cls-2" d="M506.41,250.07v-.9a.86.86,0,0,1,.28-.7,1,1,0,0,1,.7-.25H524.2v.91a.85.85,0,0,1-.29.69,1,1,0,0,1-.69.25H516.8v4.4a1.71,1.71,0,0,1-.45,1.28,1.62,1.62,0,0,1-1.22.45H514v-6.13Zm15.51-6a1.91,1.91,0,0,1-.2.91,2.13,2.13,0,0,1-.53.7,2.21,2.21,0,0,1-.75.45,2.35,2.35,0,0,1-.87.16H508.65v-5.95a2,2,0,0,1,.66-1.61,2.39,2.39,0,0,1,1.66-.59h10.95Zm-10.44.39h7.61V240h-7.61Z"/><path class="cls-2" d="M532.21,250.46a15,15,0,0,1-1.45-1.5,9.89,9.89,0,0,1-1.3-2,10,10,0,0,1-1.23,2,10.33,10.33,0,0,1-1.67,1.75,1.55,1.55,0,0,1-1,.4,1.06,1.06,0,0,1-.81-.28l-.55-.55a12.38,12.38,0,0,0,2.91-3.55,9,9,0,0,0,1-4.18v-2.14l-2.95,0v-.93a.87.87,0,0,1,.28-.68.93.93,0,0,1,.66-.26l7.78,0v.92a.9.9,0,0,1-.27.69,1,1,0,0,1-.67.26h-2v2.06a8.91,8.91,0,0,0,.95,4.09,9.46,9.46,0,0,0,2.8,3.31l-.59.61a.9.9,0,0,1-.36.21,1.36,1.36,0,0,1-.46,0,1.51,1.51,0,0,1-.5-.09A1.47,1.47,0,0,1,532.21,250.46Zm2.87-7.34V239.7c0-1.2.55-1.81,1.65-1.81h1V254a2,2,0,0,1-.43,1.35,1.53,1.53,0,0,1-1.2.47h-1V244.94h-2.65v-.88a.9.9,0,0,1,.27-.69,1,1,0,0,1,.67-.25Zm4-3.42c0-1.2.55-1.81,1.65-1.81h1v16.54a2,2,0,0,1-.42,1.35,1.47,1.47,0,0,1-1.17.47h-1.1Z"/><path class="cls-2" d="M552.14,240.8a2.28,2.28,0,0,1,.59.54,3.42,3.42,0,0,1,.46.76,4.85,4.85,0,0,1,.3.86,3.9,3.9,0,0,1,.1.88,4.25,4.25,0,0,1-.4,1.88,4.15,4.15,0,0,1-1.1,1.42,5,5,0,0,1-1.64.92,6.41,6.41,0,0,1-4,0,5,5,0,0,1-1.64-.92,4.15,4.15,0,0,1-1.1-1.42,4.25,4.25,0,0,1-.4-1.88,4.59,4.59,0,0,1,.09-.87,4.06,4.06,0,0,1,.3-.87,3.84,3.84,0,0,1,.46-.76,2.17,2.17,0,0,1,.6-.54H542.6V240a.93.93,0,0,1,1-1h3.55v-.47a1.54,1.54,0,0,1,.31-1,1.14,1.14,0,0,1,.93-.36h1.59V239h4.36v.85a1,1,0,0,1-.27.72,1,1,0,0,1-.69.26Zm-6,3a3.46,3.46,0,0,0,.18,1.12,3.39,3.39,0,0,0,.48,1,2.34,2.34,0,0,0,.73.64,2,2,0,0,0,1.85,0,2.27,2.27,0,0,0,.74-.64,3.39,3.39,0,0,0,.48-1,3.46,3.46,0,0,0,.18-1.12,3.58,3.58,0,0,0-.18-1.14,3.32,3.32,0,0,0-.48-1,2.22,2.22,0,0,0-.74-.66,1.84,1.84,0,0,0-1.85,0,2.29,2.29,0,0,0-.73.66,3.32,3.32,0,0,0-.48,1A3.58,3.58,0,0,0,546.13,243.77Zm13.06,10.62v.86a.94.94,0,0,1-.27.7.93.93,0,0,1-.67.26H546.17V251.4a2.05,2.05,0,0,1,.39-1.35,1.49,1.49,0,0,1,1.22-.47H549v4.81Zm-.29-9.94v5a2,2,0,0,1-.42,1.36,1.55,1.55,0,0,1-1.23.47h-1.18V239.72a2.07,2.07,0,0,1,.41-1.37,1.53,1.53,0,0,1,1.24-.49h1.18v4.77h2.63v.88a.94.94,0,0,1-1,.94Z"/><path class="cls-2" d="M566.67,244.2a6.51,6.51,0,0,1,.39-2.26,5.69,5.69,0,0,1,1.15-1.87,5.54,5.54,0,0,1,1.85-1.27,6.88,6.88,0,0,1,5,0,5.44,5.44,0,0,1,1.85,1.27,5.53,5.53,0,0,1,1.15,1.87,6.74,6.74,0,0,1,0,4.52,5.58,5.58,0,0,1-1.15,1.86,5.47,5.47,0,0,1-1.85,1.28,6.88,6.88,0,0,1-5,0,5.57,5.57,0,0,1-1.85-1.28,5.75,5.75,0,0,1-1.15-1.86A6.51,6.51,0,0,1,566.67,244.2Zm9,0a6.11,6.11,0,0,0-.22-1.63,4.46,4.46,0,0,0-.61-1.34,2.94,2.94,0,0,0-1-.9,2.52,2.52,0,0,0-1.28-.33,2.48,2.48,0,0,0-1.27.33,3.07,3.07,0,0,0-1,.9,4.72,4.72,0,0,0-.61,1.34,6.43,6.43,0,0,0,0,3.26,4.65,4.65,0,0,0,.61,1.33,3.23,3.23,0,0,0,1,.91,2.48,2.48,0,0,0,1.27.33,2.52,2.52,0,0,0,1.28-.33,3.08,3.08,0,0,0,1-.91,4.4,4.4,0,0,0,.61-1.33A6.17,6.17,0,0,0,575.63,244.2Zm4.75,12V239.72a2,2,0,0,1,.41-1.37,1.51,1.51,0,0,1,1.24-.49h1.17v16.55c0,1.2-.55,1.8-1.64,1.8Z"/><path class="cls-2" d="M602.94,246.5v.86a.85.85,0,0,1-1,1H585.15v-.86a.85.85,0,0,1,1-1h3.28v-2.75a3.82,3.82,0,0,1-.62-4.36A4,4,0,0,1,590,238a5.67,5.67,0,0,1,1.81-.89,8.08,8.08,0,0,1,4.57,0,5.77,5.77,0,0,1,1.81.89,4.07,4.07,0,0,1,1.17,1.38,3.59,3.59,0,0,1,.43,1.74,3.69,3.69,0,0,1-.27,1.41,3.92,3.92,0,0,1-.75,1.19v2.77Zm-14.69,6.83a3.83,3.83,0,0,1,.35-1.59,4,4,0,0,1,1.08-1.36,5.84,5.84,0,0,1,1.81-.95,9.25,9.25,0,0,1,5.11,0,5.62,5.62,0,0,1,1.81.95,3.82,3.82,0,0,1,1.07,1.36,3.69,3.69,0,0,1,.36,1.59,3.93,3.93,0,0,1-1.43,3,5.28,5.28,0,0,1-1.81,1,9,9,0,0,1-5.12,0,5.28,5.28,0,0,1-1.81-1,4.06,4.06,0,0,1-1.07-1.39A4,4,0,0,1,588.25,253.33Zm2.83,0a2.5,2.5,0,0,0,.77,1.88A3,3,0,0,0,594,256a3,3,0,0,0,2.19-.75,2.66,2.66,0,0,0,0-3.76,3,3,0,0,0-2.19-.73,3.07,3.07,0,0,0-2.19.73A2.5,2.5,0,0,0,591.08,253.35Zm5.85-12.22a2.53,2.53,0,0,0-.8-1.92,3.29,3.29,0,0,0-4.18,0,2.52,2.52,0,0,0-.79,1.92,2.62,2.62,0,0,0,.2,1.07,2.37,2.37,0,0,0,.59.83,2.85,2.85,0,0,0,.91.54,3.44,3.44,0,0,0,1.18.2,3.4,3.4,0,0,0,1.18-.2,2.75,2.75,0,0,0,.91-.54,2.14,2.14,0,0,0,.59-.83A2.62,2.62,0,0,0,596.93,241.13Zm-2.89,4.3a7.23,7.23,0,0,1-1.86-.19v1.26h3.75v-1.26A7.38,7.38,0,0,1,594,245.43Z"/><path class="cls-2" d="M616.53,244.65a.91.91,0,0,1-.25.67,1.28,1.28,0,0,1-.64.31c-.18,0-.46.08-.82.12l-1.21.1-1.35.08L611,246v1.77c0,1.23-.52,1.85-1.57,1.85H608.2v-3.54h-4.75v-.86a.9.9,0,0,1,.27-.69,1,1,0,0,1,.67-.25h6.45l.95,0a16,16,0,0,0,.18-2c0-.6,0-1.09,0-1.46v-.82h-7.21V239a.82.82,0,0,1,.29-.68,1,1,0,0,1,.7-.24h9v2.32c0,.36,0,.7,0,1s0,.6-.07.89-.07.58-.11.87-.08.59-.14.92c.35,0,.69-.06,1-.11s.69-.1,1-.17Zm3.82,9.74v.86a.94.94,0,0,1-.27.7.91.91,0,0,1-.67.26H606.69v-3.43a2.1,2.1,0,0,1,.39-1.36,1.51,1.51,0,0,1,1.22-.47h1.22v3.44Zm-3-14.73c0-1.2.54-1.8,1.61-1.8h1.22v12.4a2,2,0,0,1-.43,1.36,1.57,1.57,0,0,1-1.2.47h-1.2v-3.18h-4.1v-.84a.92.92,0,0,1,.94-1h3.16Z"/><path class="cls-2" d="M678,346.51c.73,0,1.44.05,2.14.1V153.39c-.7.05-1.41.1-2.14.1-7.76,0-14-2.93-14-6.54H645.29c0,3.61-6.29,6.54-14,6.54s-14-2.93-14-6.54H598.51c0,3.61-6.29,6.54-14,6.54s-14.05-2.93-14.05-6.54H551.72c0,3.61-6.29,6.54-14.05,6.54s-14-2.93-14-6.54H504.94c0,3.61-6.29,6.54-14.05,6.54s-14.05-2.93-14.05-6.54H458.15c0,3.61-6.29,6.54-14,6.54s-14-2.93-14-6.54H411.37c0,3.61-6.29,6.54-14.05,6.54s-14.05-2.93-14.05-6.54H364.58c0,3.61-6.29,6.54-14.05,6.54s-14-2.93-14-6.54H317.8c0,3.61-6.29,6.54-14.05,6.54S289.7,150.56,289.7,147H271c0,3.61-6.29,6.54-14.05,6.54s-14-2.93-14-6.54H224.23c0,3.61-6.29,6.54-14,6.54s-14.05-2.93-14.05-6.54H177.44c0,3.61-6.29,6.54-14,6.54s-14.05-2.93-14.05-6.54H130.66c0,3.61-6.29,6.54-14,6.54s-14-2.93-14-6.54H83.87c0,3.61-6.29,6.54-14,6.54v193c7.75,0,14,2.92,14,6.54h18.69c0-3.62,6.29-6.54,14-6.54s14,2.92,14,6.54h18.69c0-3.62,6.29-6.54,14.05-6.54s14,2.92,14,6.54h18.69c0-3.62,6.29-6.54,14.05-6.54s14,2.92,14,6.54h18.69c0-3.62,6.29-6.54,14-6.54S271,349.43,271,353.05H289.7c0-3.62,6.29-6.54,14.05-6.54s14.05,2.92,14.05,6.54h18.69c0-3.62,6.29-6.54,14-6.54s14.05,2.92,14.05,6.54h18.69c0-3.62,6.29-6.54,14.05-6.54s14.05,2.92,14.05,6.54h18.69c0-3.62,6.29-6.54,14-6.54s14,2.92,14,6.54h18.69c0-3.62,6.29-6.54,14.05-6.54s14.05,2.92,14.05,6.54h18.68c0-3.62,6.29-6.54,14-6.54s14.05,2.92,14.05,6.54h18.69c0-3.62,6.29-6.54,14.05-6.54s14,2.92,14,6.54h18.68c0-3.62,6.29-6.54,14-6.54s14,2.92,14,6.54H664C664,349.43,670.27,346.51,678,346.51Z"/><path class="cls-3" d="M202.4,224.18a.72.72,0,0,1,.82-.82h1.34l3,8.42,2.8-7.79a.89.89,0,0,1,.34-.46.94.94,0,0,1,.57-.17h1.44v9.18a.61.61,0,0,1-.7.69h-.69V224.7a7.43,7.43,0,0,1-.15.74,4.27,4.27,0,0,1-.18.6l-2.31,6.37a.94.94,0,0,1-.94.69h-1.08L204.12,226a6.1,6.1,0,0,1-.19-.6c-.05-.23-.1-.48-.14-.74v7.84a.62.62,0,0,1-.71.69h-.69Z"/><path class="cls-3" d="M215.52,224.91a.88.88,0,0,1-.64-.24.91.91,0,0,1,0-1.25,1,1,0,0,1,1.29,0,.91.91,0,0,1,0,1.25A.88.88,0,0,1,215.52,224.91Zm-.69,1.8a.53.53,0,0,1,.59-.6h.78v6.54c0,.39-.2.58-.6.58h-.77Z"/><path class="cls-3" d="M220.64,233.44a4.88,4.88,0,0,1-1.73-.31,4.07,4.07,0,0,1-1.4-.89l.39-.5a.44.44,0,0,1,.38-.2.44.44,0,0,1,.28.1,4.14,4.14,0,0,0,.93.5,3.27,3.27,0,0,0,1.15.19,2.29,2.29,0,0,0,1.23-.27.87.87,0,0,0,.13-1.39,2.28,2.28,0,0,0-1-.41l-.91-.2c-.32-.06-.61-.12-.86-.19a2.25,2.25,0,0,1-1.17-.75,2,2,0,0,1,.46-2.74,3.47,3.47,0,0,1,2.09-.57,4.3,4.3,0,0,1,1.6.29,3.32,3.32,0,0,1,1.24.85l-.43.48a.45.45,0,0,1-.36.17.53.53,0,0,1-.29-.11,3.15,3.15,0,0,0-1.8-.57,2,2,0,0,0-1.06.26.86.86,0,0,0-.42.73.84.84,0,0,0,.13.46,1.14,1.14,0,0,0,.57.35,8.43,8.43,0,0,0,.87.26c.33.09.64.16.91.22a2.88,2.88,0,0,1,1.6.72,1.77,1.77,0,0,1,.48,1.26,2,2,0,0,1-.23,1,2.06,2.06,0,0,1-.64.71,3,3,0,0,1-1,.44A4.69,4.69,0,0,1,220.64,233.44Z"/><path class="cls-3" d="M227.49,233.44a4.88,4.88,0,0,1-1.73-.31,4,4,0,0,1-1.4-.89l.38-.5a.47.47,0,0,1,.39-.2.44.44,0,0,1,.28.1,3.94,3.94,0,0,0,.93.5,3.27,3.27,0,0,0,1.15.19,2.29,2.29,0,0,0,1.23-.27.87.87,0,0,0,.13-1.39,2.28,2.28,0,0,0-1-.41l-.91-.2c-.33-.06-.62-.12-.86-.19a2.25,2.25,0,0,1-1.17-.75,1.88,1.88,0,0,1-.37-1.2,1.84,1.84,0,0,1,.82-1.54,3.53,3.53,0,0,1,2.1-.57,4.3,4.3,0,0,1,1.6.29,3.32,3.32,0,0,1,1.24.85l-.43.48a.48.48,0,0,1-.36.17.5.5,0,0,1-.29-.11,3.15,3.15,0,0,0-1.8-.57,2,2,0,0,0-1.06.26.86.86,0,0,0-.42.73.77.77,0,0,0,.13.46,1.14,1.14,0,0,0,.57.35,7.16,7.16,0,0,0,.87.26c.33.09.63.16.91.22a2.88,2.88,0,0,1,1.6.72,1.77,1.77,0,0,1,.48,1.26,2,2,0,0,1-.23,1,2.06,2.06,0,0,1-.64.71,3.13,3.13,0,0,1-1,.44A4.69,4.69,0,0,1,227.49,233.44Z"/><path class="cls-3" d="M232.66,224.91a.88.88,0,0,1-.65-.24.91.91,0,0,1,0-1.25,1,1,0,0,1,1.29,0,.91.91,0,0,1,0,1.25A.88.88,0,0,1,232.66,224.91Zm-.7,1.8a.53.53,0,0,1,.59-.6h.79v6.54c0,.39-.2.58-.6.58H232Z"/><path class="cls-3" d="M238.46,233.44a3.84,3.84,0,0,1-1.49-.29,3.34,3.34,0,0,1-1.17-.78,3.68,3.68,0,0,1-.77-1.21,4.22,4.22,0,0,1-.27-1.54,4.17,4.17,0,0,1,.27-1.53,3.68,3.68,0,0,1,.77-1.21,3.51,3.51,0,0,1,1.17-.79,4.13,4.13,0,0,1,3,0,3.44,3.44,0,0,1,1.93,2,4,4,0,0,1,.28,1.53,4,4,0,0,1-.28,1.54,3.51,3.51,0,0,1-.76,1.21,3.34,3.34,0,0,1-1.17.78A3.86,3.86,0,0,1,238.46,233.44Zm0-1.14a2,2,0,0,0,.93-.2,2.17,2.17,0,0,0,.73-.55,2.59,2.59,0,0,0,.47-.85,3.31,3.31,0,0,0,.17-1.08,3.44,3.44,0,0,0-.17-1.08,2.65,2.65,0,0,0-.47-.84,2.17,2.17,0,0,0-.73-.55,2.24,2.24,0,0,0-1.85,0,2.17,2.17,0,0,0-.73.55,2.88,2.88,0,0,0-.48.84,3.44,3.44,0,0,0-.17,1.08,3.31,3.31,0,0,0,.17,1.08,2.81,2.81,0,0,0,.48.85,2.17,2.17,0,0,0,.73.55A2,2,0,0,0,238.46,232.3Z"/><path class="cls-3" d="M248.27,228.8a2,2,0,0,0-.44-1.34,1.58,1.58,0,0,0-1.24-.5,1.94,1.94,0,0,0-.78.15,1.51,1.51,0,0,0-.57.42,1.89,1.89,0,0,0-.49,1.24v3.88c0,.39-.2.58-.6.58h-.77v-6.64A.52.52,0,0,1,244,226h.78v1a2.57,2.57,0,0,1,1-.9,2.88,2.88,0,0,1,1.34-.32,2.68,2.68,0,0,1,1.09.22,2.29,2.29,0,0,1,.81.59,2.36,2.36,0,0,1,.51.92,3.76,3.76,0,0,1,.17,1.19v3.92a.52.52,0,0,1-.59.58h-.79Z"/><path class="cls-3" d="M258.87,233.5a5.18,5.18,0,0,1-2-.37,4.65,4.65,0,0,1-1.58-1,5,5,0,0,1-1.06-1.64,5.81,5.81,0,0,1-.38-2.13,5.88,5.88,0,0,1,.38-2.15,4.89,4.89,0,0,1,1.06-1.64,4.49,4.49,0,0,1,1.58-1,5.18,5.18,0,0,1,2-.37,4.23,4.23,0,0,1,3.84,2l-.6.39a.66.66,0,0,1-.36.13.49.49,0,0,1-.39-.21,3.12,3.12,0,0,0-1.08-.86,3.29,3.29,0,0,0-1.41-.28,3.74,3.74,0,0,0-1.42.28,3.35,3.35,0,0,0-1.14.83,3.88,3.88,0,0,0-.75,1.27,5.21,5.21,0,0,0,0,3.31,4,4,0,0,0,.75,1.28,3.32,3.32,0,0,0,1.14.82,3.56,3.56,0,0,0,1.42.28,3.31,3.31,0,0,0,1.44-.3,3.54,3.54,0,0,0,1.15-.91.5.5,0,0,1,.4-.19.68.68,0,0,1,.33.11l.61.39a5.35,5.35,0,0,1-1.7,1.55A4.54,4.54,0,0,1,258.87,233.5Z"/><path class="cls-3" d="M266.69,233.44a3.81,3.81,0,0,1-1.49-.29,3.34,3.34,0,0,1-1.17-.78,3.53,3.53,0,0,1-.77-1.21,4.22,4.22,0,0,1-.27-1.54,4.17,4.17,0,0,1,.27-1.53,3.49,3.49,0,0,1,1.94-2,4.1,4.1,0,0,1,3,0,3.45,3.45,0,0,1,1.18.79,3.51,3.51,0,0,1,.76,1.21,4,4,0,0,1,.28,1.53,4,4,0,0,1-.28,1.54,3.51,3.51,0,0,1-.76,1.21,3.29,3.29,0,0,1-1.18.78A3.81,3.81,0,0,1,266.69,233.44Zm0-1.14a2,2,0,0,0,.93-.2,2.17,2.17,0,0,0,.73-.55,2.59,2.59,0,0,0,.47-.85,3.31,3.31,0,0,0,.16-1.08,3.44,3.44,0,0,0-.16-1.08,2.65,2.65,0,0,0-.47-.84,2.17,2.17,0,0,0-.73-.55,2,2,0,0,0-.93-.2,2,2,0,0,0-.92.2,2.17,2.17,0,0,0-.73.55,2.88,2.88,0,0,0-.48.84,3.44,3.44,0,0,0-.17,1.08,3.31,3.31,0,0,0,.17,1.08,2.81,2.81,0,0,0,.48.85,2.17,2.17,0,0,0,.73.55A2,2,0,0,0,266.69,232.3Z"/><path class="cls-3" d="M280.23,228.67a2,2,0,0,0-.36-1.26,1.2,1.2,0,0,0-1-.45,1.39,1.39,0,0,0-.63.15,1.76,1.76,0,0,0-.5.4,1.79,1.79,0,0,0-.34.56,1.82,1.82,0,0,0-.12.65v3.93c0,.39-.2.58-.6.58h-.77v-4.56a2,2,0,0,0-.36-1.26,1.2,1.2,0,0,0-1-.45,1.32,1.32,0,0,0-.62.15,1.68,1.68,0,0,0-.51.4,2,2,0,0,0-.33.56,1.82,1.82,0,0,0-.12.65v3.93c0,.39-.2.58-.6.58h-.76v-6.64a.52.52,0,0,1,.58-.59H273v.89a3.09,3.09,0,0,1,.91-.79,2.34,2.34,0,0,1,1.15-.29,2.08,2.08,0,0,1,1.25.37,2.16,2.16,0,0,1,.76,1,3.16,3.16,0,0,1,1-1,2.44,2.44,0,0,1,1.31-.35,2.12,2.12,0,0,1,1,.21,2,2,0,0,1,.71.58,2.32,2.32,0,0,1,.44.89,3.92,3.92,0,0,1,.15,1.11v4.05c0,.39-.2.58-.6.58h-.77Z"/><path class="cls-3" d="M287.07,233.44a3.05,3.05,0,0,1-1.41-.32,3.2,3.2,0,0,1-1-.9v3.07c0,.39-.2.58-.6.58h-.77v-9.28a.52.52,0,0,1,.59-.59h.78v1a3,3,0,0,1,2.45-1.2,3.39,3.39,0,0,1,1.37.28,3.2,3.2,0,0,1,1.07.79,3.72,3.72,0,0,1,.71,1.21,4.39,4.39,0,0,1,.25,1.53,4.44,4.44,0,0,1-.25,1.54,3.72,3.72,0,0,1-.71,1.21,3,3,0,0,1-1.07.78A3.23,3.23,0,0,1,287.07,233.44Zm-.23-1.14a1.91,1.91,0,0,0,.89-.2,1.89,1.89,0,0,0,.7-.55,2.57,2.57,0,0,0,.46-.85,3.31,3.31,0,0,0,.17-1.08,3.44,3.44,0,0,0-.17-1.08,2.63,2.63,0,0,0-.46-.84,1.89,1.89,0,0,0-.7-.55,2.1,2.1,0,0,0-1.79,0,1.89,1.89,0,0,0-.7.55,2.63,2.63,0,0,0-.46.84,3.76,3.76,0,0,0-.16,1.08,3.6,3.6,0,0,0,.16,1.08,2.57,2.57,0,0,0,.46.85,1.89,1.89,0,0,0,.7.55A1.92,1.92,0,0,0,286.84,232.3Z"/><path class="cls-3" d="M291.82,224a.52.52,0,0,1,.58-.59h.79v9.29c0,.39-.2.58-.6.58h-.77Z"/><path class="cls-3" d="M298.05,233.44a3.6,3.6,0,0,1-1.44-.29,3.22,3.22,0,0,1-1.14-.78,3.78,3.78,0,0,1-.74-1.21,4.44,4.44,0,0,1-.26-1.54,4.38,4.38,0,0,1,.26-1.53,3.78,3.78,0,0,1,.74-1.21,3.38,3.38,0,0,1,1.14-.79,3.77,3.77,0,0,1,1.44-.28,3.53,3.53,0,0,1,1.44.29,3.08,3.08,0,0,1,1.11.79,3.53,3.53,0,0,1,.72,1.18,4.54,4.54,0,0,1,.24,1.5c0,.35-.2.52-.58.52h-5.09a3.5,3.5,0,0,0,.25.9,2.43,2.43,0,0,0,.46.7,2,2,0,0,0,.65.45,2,2,0,0,0,.8.16,3.45,3.45,0,0,0,1.16-.18,4,4,0,0,0,1-.52.41.41,0,0,1,.28-.1.47.47,0,0,1,.36.16l.41.46a4.88,4.88,0,0,1-1.4,1A4.25,4.25,0,0,1,298.05,233.44Zm-2.18-4a1.35,1.35,0,0,1,.44-.29,1.51,1.51,0,0,1,.53-.09h3.25a2,2,0,0,0-.17-.82,1.91,1.91,0,0,0-.44-.66,1.79,1.79,0,0,0-.64-.44,1.86,1.86,0,0,0-.79-.16,2,2,0,0,0-.84.18,2.1,2.1,0,0,0-.68.51,2.51,2.51,0,0,0-.46.78A2.86,2.86,0,0,0,295.87,229.41Z"/><path class="cls-3" d="M302.09,226.51a.45.45,0,0,1,.5-.51h.83v-1.68c0-.39.2-.58.6-.58h.79V226H307v.65a.45.45,0,0,1-.51.51h-1.7v4.22a1,1,0,0,0,.22.71.78.78,0,0,0,.6.23.86.86,0,0,0,.41-.1,3.55,3.55,0,0,0,.39-.2.6.6,0,0,1,.23-.06.43.43,0,0,1,.38.26l.28.49a3.38,3.38,0,0,1-.87.54,2.58,2.58,0,0,1-1,.19A2.22,2.22,0,0,1,304,233a1.92,1.92,0,0,1-.56-1.51v-4.28h-1.33Z"/><path class="cls-3" d="M311.29,233.44a3.6,3.6,0,0,1-1.44-.29,3.1,3.1,0,0,1-1.13-.78,3.46,3.46,0,0,1-.74-1.21,4.22,4.22,0,0,1-.27-1.54,4.17,4.17,0,0,1,.27-1.53,3.46,3.46,0,0,1,.74-1.21,3.25,3.25,0,0,1,1.13-.79,3.77,3.77,0,0,1,1.44-.28,3.53,3.53,0,0,1,1.44.29,3.21,3.21,0,0,1,1.12.79,3.68,3.68,0,0,1,.71,1.18,4.07,4.07,0,0,1,.24,1.5c0,.35-.19.52-.58.52h-5.08a3.13,3.13,0,0,0,.24.9,2.43,2.43,0,0,0,.46.7,2.05,2.05,0,0,0,.65.45,2,2,0,0,0,.8.16,3.45,3.45,0,0,0,1.16-.18,3.82,3.82,0,0,0,.95-.52.41.41,0,0,1,.28-.1.47.47,0,0,1,.36.16l.41.46a4.88,4.88,0,0,1-1.4,1A4.25,4.25,0,0,1,311.29,233.44Zm-2.18-4a1.35,1.35,0,0,1,.44-.29,1.55,1.55,0,0,1,.53-.09h3.25a2,2,0,0,0-.16-.82,2.24,2.24,0,0,0-.44-.66,2,2,0,0,0-.64-.44,1.94,1.94,0,0,0-.8-.16,2,2,0,0,0-.84.18,2.21,2.21,0,0,0-.68.51,2.51,2.51,0,0,0-.46.78A3.11,3.11,0,0,0,309.11,229.41Z"/><path class="cls-3" d="M321.49,232.24a3.26,3.26,0,0,1-1,.88,3,3,0,0,1-1.4.32,3.25,3.25,0,0,1-1.36-.29,3,3,0,0,1-1.08-.78,3.72,3.72,0,0,1-.71-1.21,4.44,4.44,0,0,1-.25-1.54,4.39,4.39,0,0,1,.25-1.53,3.72,3.72,0,0,1,.71-1.21,3.15,3.15,0,0,1,1.08-.79,3.41,3.41,0,0,1,1.36-.28,3,3,0,0,1,1.4.32,3.26,3.26,0,0,1,1,.88V224a.52.52,0,0,1,.6-.59h.78v9.29c0,.39-.2.58-.6.58h-.78Zm-2.22.06a1.92,1.92,0,0,0,.9-.2,2,2,0,0,0,.7-.55,2.57,2.57,0,0,0,.46-.85,3.6,3.6,0,0,0,.16-1.08,3.76,3.76,0,0,0-.16-1.08,2.63,2.63,0,0,0-.46-.84,2,2,0,0,0-.7-.55,2.1,2.1,0,0,0-1.79,0,1.89,1.89,0,0,0-.7.55,2.63,2.63,0,0,0-.46.84,3.18,3.18,0,0,0-.17,1.08,3.06,3.06,0,0,0,.17,1.08,2.57,2.57,0,0,0,.46.85,1.89,1.89,0,0,0,.7.55A1.91,1.91,0,0,0,319.27,232.3Z"/><path class="cls-3" d="M117.27,197.21a1.28,1.28,0,0,1-1.46,1.44h-9.87v-1a1.91,1.91,0,0,1,.2-.83,3,3,0,0,1,.5-.76l4.92-5.23a10.55,10.55,0,0,0,1.48-2,3.91,3.91,0,0,0,.53-1.9,2.3,2.3,0,0,0-.52-1.55,1.91,1.91,0,0,0-1.49-.59,2.39,2.39,0,0,0-1.65.61,3,3,0,0,0-.89,1.63,1.27,1.27,0,0,1-.52.81,1.39,1.39,0,0,1-.9.23l-1.55-.11a7.35,7.35,0,0,1,.53-2.59,5.28,5.28,0,0,1,1.21-1.79,4.55,4.55,0,0,1,1.7-1,6.33,6.33,0,0,1,2.07-.33,6.09,6.09,0,0,1,2.1.34,4.52,4.52,0,0,1,1.61.95,4.35,4.35,0,0,1,1,1.48,5,5,0,0,1,.37,1.93,5.73,5.73,0,0,1-.68,2.67,10.83,10.83,0,0,1-2,2.6l-4.1,4.21a1.84,1.84,0,0,1,.7-.23,4.52,4.52,0,0,1,.8-.09h5.82Z"/><path class="cls-3" d="M130.71,190.71a14.36,14.36,0,0,1-.42,3.65,7.9,7.9,0,0,1-1.2,2.65,5,5,0,0,1-1.86,1.62,5.6,5.6,0,0,1-4.84,0,5.08,5.08,0,0,1-1.85-1.62,8.1,8.1,0,0,1-1.19-2.65,15.71,15.71,0,0,1,0-7.3,8,8,0,0,1,1.19-2.64,5.38,5.38,0,0,1,6.69-1.62,5.13,5.13,0,0,1,1.86,1.62,7.85,7.85,0,0,1,1.2,2.64A14.31,14.31,0,0,1,130.71,190.71Zm-3.17,0a10.55,10.55,0,0,0-.73-4.39,2.23,2.23,0,0,0-2-1.51,2.2,2.2,0,0,0-2,1.51,13.66,13.66,0,0,0,0,8.81,2.2,2.2,0,0,0,2,1.51,2.23,2.23,0,0,0,2-1.51A10.61,10.61,0,0,0,127.54,190.71Z"/><path class="cls-3" d="M143.48,197.21a1.28,1.28,0,0,1-1.46,1.44h-9.87v-1a1.9,1.9,0,0,1,.19-.83,3.37,3.37,0,0,1,.51-.76l4.91-5.23a9.74,9.74,0,0,0,1.48-2,3.8,3.8,0,0,0,.53-1.9,2.25,2.25,0,0,0-.52-1.55,1.88,1.88,0,0,0-1.49-.59,2.38,2.38,0,0,0-1.64.61,2.92,2.92,0,0,0-.9,1.63,1.2,1.2,0,0,1-.52.81,1.36,1.36,0,0,1-.9.23l-1.54-.11a7.35,7.35,0,0,1,.53-2.59,5.41,5.41,0,0,1,1.2-1.79,4.59,4.59,0,0,1,1.71-1,6.31,6.31,0,0,1,2.06-.33,6.11,6.11,0,0,1,2.11.34,4.7,4.7,0,0,1,1.61.95,4.2,4.2,0,0,1,1,1.48,4.81,4.81,0,0,1,.37,1.93,5.71,5.71,0,0,1-.67,2.67,11.1,11.1,0,0,1-2,2.6l-4.11,4.21a1.9,1.9,0,0,1,.71-.23,4.42,4.42,0,0,1,.79-.09h5.83Z"/><path class="cls-3" d="M156.79,193.72a5.25,5.25,0,0,1-1.69,4,5.52,5.52,0,0,1-1.84,1.11,6.52,6.52,0,0,1-2.27.39,6.41,6.41,0,0,1-2.25-.39,5.45,5.45,0,0,1-1.82-1.09A5,5,0,0,1,145.7,196a5,5,0,0,1-.45-2.14,7.67,7.67,0,0,1,.44-2.51,15.88,15.88,0,0,1,1-2.32l3.14-5.73a1.28,1.28,0,0,1,.57-.58,2,2,0,0,1,1-.18h2.23l-3.24,6a2.79,2.79,0,0,1,1.22-.24,5.66,5.66,0,0,1,2.08.38,5.13,5.13,0,0,1,1.65,1.08,4.87,4.87,0,0,1,1.09,1.71A6.18,6.18,0,0,1,156.79,193.72Zm-3.24,0a3.6,3.6,0,0,0-.18-1.15,2.79,2.79,0,0,0-.51-.93,2.24,2.24,0,0,0-.8-.62,2.47,2.47,0,0,0-1.07-.22,2.36,2.36,0,0,0-1,.22,2.54,2.54,0,0,0-.8.62,2.64,2.64,0,0,0-.52.93,3.6,3.6,0,0,0-.18,1.15,3.49,3.49,0,0,0,.18,1.14,2.78,2.78,0,0,0,.52.94,2.54,2.54,0,0,0,.8.62,2.36,2.36,0,0,0,1,.22,2.47,2.47,0,0,0,1.07-.22,2.24,2.24,0,0,0,.8-.62,2.94,2.94,0,0,0,.51-.94A3.49,3.49,0,0,0,153.55,193.72Z"/><path class="cls-3" d="M171,199.08a8.46,8.46,0,0,1-3.24-.61,7.78,7.78,0,0,1-2.61-1.69,7.89,7.89,0,0,1-1.72-2.64,9.63,9.63,0,0,1,0-6.85,7.93,7.93,0,0,1,1.72-2.65,7.63,7.63,0,0,1,2.61-1.69,9.08,9.08,0,0,1,6.49,0,7.69,7.69,0,0,1,2.6,1.69,7.83,7.83,0,0,1,1.74,2.65,9.77,9.77,0,0,1,0,6.85,7.66,7.66,0,0,1-4.34,4.33A8.47,8.47,0,0,1,171,199.08Zm0-2.54a4.78,4.78,0,0,0,2-.42A4.44,4.44,0,0,0,174.6,195a5.43,5.43,0,0,0,1.05-1.84,7.74,7.74,0,0,0,0-4.79,5.43,5.43,0,0,0-1.05-1.84,4.44,4.44,0,0,0-1.58-1.17,4.78,4.78,0,0,0-2-.42,4.67,4.67,0,0,0-2,.42,4.56,4.56,0,0,0-1.59,1.17,5.62,5.62,0,0,0-1.06,1.84,7.74,7.74,0,0,0,0,4.79,5.62,5.62,0,0,0,1.06,1.84,4.56,4.56,0,0,0,1.59,1.17A4.67,4.67,0,0,0,171,196.54Z"/><path class="cls-3" d="M181.37,184.64a1.64,1.64,0,0,1,1.86-1.86H185l6.37,10a4.62,4.62,0,0,1,.47,1.06,11.66,11.66,0,0,1,.31,1.16V184.45a1.49,1.49,0,0,1,1.7-1.67h1.46v14a1.64,1.64,0,0,1-1.87,1.84h-1.73l-6.37-10a4.56,4.56,0,0,1-.48-1q-.18-.56-.33-1.17V197a1.47,1.47,0,0,1-1.67,1.65h-1.46Z"/><path class="cls-3" d="M198.37,184.45a1.47,1.47,0,0,1,1.67-1.67h1.46v13.76a2.28,2.28,0,0,1,1.4-.43h5.95v1.1a1.29,1.29,0,0,1-1.47,1.44h-9Z"/><path class="cls-3" d="M212.13,192.6l-5.19-8.51a1.43,1.43,0,0,1-.23-.72.75.75,0,0,1,0-.21c.07-.26.32-.38.76-.38h2.27l3.93,6.92,3.47-6.1a1.48,1.48,0,0,1,.62-.62,2,2,0,0,1,1-.2h2.48l-6,9.82V197a1.47,1.47,0,0,1-1.67,1.65h-1.46Z"/><path class="cls-3" d="M229.29,199.08a8.44,8.44,0,0,1-3.23-.61,7.59,7.59,0,0,1-2.61-1.69,7.74,7.74,0,0,1-1.72-2.64,9.63,9.63,0,0,1,0-6.85,7.78,7.78,0,0,1,1.72-2.65,7.45,7.45,0,0,1,2.61-1.69,9,9,0,0,1,6.48,0,7.56,7.56,0,0,1,4.34,4.34,9.63,9.63,0,0,1,0,6.85,7.62,7.62,0,0,1-1.73,2.64,7.78,7.78,0,0,1-2.61,1.69A8.43,8.43,0,0,1,229.29,199.08Zm0-2.54a4.75,4.75,0,0,0,2-.42,4.39,4.39,0,0,0,1.59-1.17,5.43,5.43,0,0,0,1.05-1.84,7.74,7.74,0,0,0,0-4.79,5.43,5.43,0,0,0-1.05-1.84,4.39,4.39,0,0,0-1.59-1.17,4.95,4.95,0,0,0-4,0,4.62,4.62,0,0,0-1.58,1.17,5.29,5.29,0,0,0-1.06,1.84,7.74,7.74,0,0,0,0,4.79,5.29,5.29,0,0,0,1.06,1.84,4.62,4.62,0,0,0,1.58,1.17A4.7,4.7,0,0,0,229.29,196.54Z"/><path class="cls-3" d="M239.64,184.64a1.65,1.65,0,0,1,1.87-1.86h1.73l6.37,10a4.64,4.64,0,0,1,.48,1.06c.12.38.22.77.31,1.16V184.45a1.48,1.48,0,0,1,1.69-1.67h1.46v14a1.63,1.63,0,0,1-1.86,1.84H250l-6.37-10a4.16,4.16,0,0,1-.47-1q-.18-.56-.33-1.17V197a1.47,1.47,0,0,1-1.68,1.65h-1.46Z"/><path class="cls-3" d="M256.64,184.64a1.65,1.65,0,0,1,1.87-1.86h9.08v1a1.28,1.28,0,0,1-1.46,1.44h-6.35v4.55a2.33,2.33,0,0,1,1.39-.42h6v1a1.27,1.27,0,0,1-1.46,1.43h-5.92v4.83a2.33,2.33,0,0,1,1.39-.42h6.63v1a1.28,1.28,0,0,1-1.46,1.44h-9.7Z"/><path class="cls-3" d="M274.64,184.64a1.64,1.64,0,0,1,1.86-1.86h8.66v1.1a1.28,1.28,0,0,1-1.46,1.44h-5.93v4.53a2.25,2.25,0,0,1,1.4-.43h5.35v1.1a1.27,1.27,0,0,1-1.46,1.42h-5.29V197a1.47,1.47,0,0,1-1.67,1.65h-1.46Z"/><path class="cls-3" d="M289.83,184.32a2.67,2.67,0,0,1,.77-1.14,1.93,1.93,0,0,1,1.29-.4h2.22l5.38,14.35a1.62,1.62,0,0,1,.12.57.75.75,0,0,1-.19.53,1.36,1.36,0,0,1-1.1.42h-1.44l-1.54-4.23a2.76,2.76,0,0,1-1.55.49H290l.55-1.61a1.48,1.48,0,0,1,1.5-1h2.59l-2.48-6.77a9.85,9.85,0,0,1-.18,1,7.74,7.74,0,0,1-.31,1L288,197.49a1.59,1.59,0,0,1-1.63,1.16h-1.92Z"/><path class="cls-3" d="M301.67,184.45a1.47,1.47,0,0,1,1.67-1.67h1.46V197a1.47,1.47,0,0,1-1.67,1.65h-1.46Z"/><path class="cls-3" d="M308,184.64a1.64,1.64,0,0,1,1.86-1.86h4.49a6.65,6.65,0,0,1,2.21.35,5.47,5.47,0,0,1,1.79,1,4.54,4.54,0,0,1,1.2,1.57,4.62,4.62,0,0,1,.45,2.06,4.45,4.45,0,0,1-.82,2.71,5,5,0,0,1-2.14,1.69l3.09,5.25a1.41,1.41,0,0,1,.23.66.79.79,0,0,1,0,.23q-.18.36-.81.36h-2.14l-3.43-6h-2.81V197a1.47,1.47,0,0,1-1.67,1.65H308Zm3.13,6a2.24,2.24,0,0,1,1.4-.42h1.27a5.69,5.69,0,0,0,1.18-.12,3.06,3.06,0,0,0,1-.4,2.42,2.42,0,0,0,.72-.74,2.26,2.26,0,0,0,.27-1.16,2.29,2.29,0,0,0-.27-1.16,2.35,2.35,0,0,0-.72-.75,3.08,3.08,0,0,0-1-.41,6.47,6.47,0,0,0-1.18-.11h-2.67Z"/><path class="cls-3" d="M223.21,243.47a.94.94,0,0,1-1.06,1.05h-2.4V254h3.78v1.7a.94.94,0,0,1-1.06,1.06h-7.62V262h11.21v1.73a.94.94,0,0,1-1.06,1.05H200.12V263a.93.93,0,0,1,1-1h10.16v-5.22h-8.68v-1.7a.93.93,0,0,1,1-1.06h2.73v-9.48H203v-1.69a.93.93,0,0,1,1.05-1.06h19.19Zm-7,10.53v-9.48h-6.34V254Z"/><path class="cls-3" d="M252.2,256.66a.94.94,0,0,1-1,1.06H244.1v4.57h11.21V264a.93.93,0,0,1-1.06,1.05H229.37v-1.73a.94.94,0,0,1,1.06-1.06h10.15v-4.57H233V243.24a1.41,1.41,0,0,1,1.6-1.6h17.16v1.7a.93.93,0,0,1-1.05,1H236.45v3.91h15.11v1.57a.93.93,0,0,1-1.05,1.06H236.45v4H252.2Z"/><path class="cls-3" d="M271.93,259.19a1.18,1.18,0,0,1-1.06,1.31,26.37,26.37,0,0,1-3.31.47c-1.19.09-2.32.14-3.41.14h-4V243.37a1.4,1.4,0,0,1,1.6-1.57h1.83v16.52h1.57a35,35,0,0,0,6.82-.73Zm4.9,7.56a1.41,1.41,0,0,1-1.57,1.6h-1.79V251.41h-5.83v-1.73a.93.93,0,0,1,1.05-1.06h4.78v-6.21a1.41,1.41,0,0,1,1.6-1.6h1.76Zm6.24.32a1.42,1.42,0,0,1-1.6,1.6h-1.76V242.41a1.4,1.4,0,0,1,1.57-1.6h1.79Z"/><path class="cls-3" d="M303.58,242.73a12.36,12.36,0,0,1-.85,4.51,14.71,14.71,0,0,1-2.43,4.15,18,18,0,0,1-3.86,3.48,21.17,21.17,0,0,1-5.12,2.49,2.69,2.69,0,0,1-.87.16,1.47,1.47,0,0,1-1.34-.73l-.87-1.28a21.43,21.43,0,0,0,5.26-2.28,15.58,15.58,0,0,0,3.55-3H289.2v-1.61a1,1,0,0,1,1.09-1.09h8.55a14.07,14.07,0,0,0,1.09-3.36H289.2v-1.63a1,1,0,0,1,1.09-1.09h13.29Zm9.19,25.68a1.56,1.56,0,0,1-1.4.9,2,2,0,0,1-.74-.13,16.81,16.81,0,0,1-2.18-.82,20.61,20.61,0,0,1-2.19-1.13,18.37,18.37,0,0,1-2-1.4,15.54,15.54,0,0,1-1.73-1.58,14.59,14.59,0,0,1-1.72,1.58,17.79,17.79,0,0,1-2,1.38,22.74,22.74,0,0,1-2.19,1.14,16.92,16.92,0,0,1-2.18.83,2,2,0,0,1-.74.13,1.58,1.58,0,0,1-1.41-.9l-.67-1.25a24.83,24.83,0,0,0,3.75-1.47,16.61,16.61,0,0,0,2.9-1.78,8.36,8.36,0,0,0,1.87-2,3.72,3.72,0,0,0,.67-2.08v-1.12a1.39,1.39,0,0,1,1.57-1.57h2v2.69a3.72,3.72,0,0,0,.67,2.08,8.36,8.36,0,0,0,1.87,2,16.61,16.61,0,0,0,2.9,1.78,24.83,24.83,0,0,0,3.75,1.47ZM312,257.72a1.41,1.41,0,0,1-1.61,1.57h-1.89V251H303v-1.73a.92.92,0,0,1,1.05-1h4.45v-5.83a1.42,1.42,0,0,1,1.61-1.6H312Z"/><path class="cls-3" d="M147.05,240.23a9.65,9.65,0,1,0,9.65,9.65A9.65,9.65,0,0,0,147.05,240.23Z"/><path class="cls-3" d="M174.76,227.93H157.67l-3.62-6a1.32,1.32,0,0,0-1.13-.64H141.19a1.32,1.32,0,0,0-1.14.64l-3.62,6h-5.85v-1.31a2,2,0,0,0-2-2H122a2,2,0,0,0-2,2v1.31h-.81a4.71,4.71,0,0,0-4.71,4.71v34.47a4.7,4.7,0,0,0,4.71,4.71h55.51a4.71,4.71,0,0,0,4.71-4.71V232.64A4.71,4.71,0,0,0,174.76,227.93Zm-27.71,35.35a13.4,13.4,0,1,1,13.4-13.4A13.41,13.41,0,0,1,147.05,263.28Zm24.78-25.68h-6.11a1.78,1.78,0,1,1,0-3.55h6.11a1.78,1.78,0,1,1,0,3.55Z"/><line class="cls-4" x1="110.89" y1="298.17" x2="640.68" y2="298.17"/><path class="cls-3" d="M343.17,240.93c0,.42-.21.62-.64.62h-6v-.68a.57.57,0,0,1,.65-.64h6Z"/><path class="cls-3" d="M350.05,236.22a1.26,1.26,0,0,1,.35-.52.94.94,0,0,1,.62-.19h1.11l3.92,10.09a.65.65,0,0,1,.06.26.33.33,0,0,1-.07.23.57.57,0,0,1-.48.19h-.82l-1.17-3.08a1.81,1.81,0,0,1-1,.29h-3l.27-.83a.67.67,0,0,1,.24-.31.69.69,0,0,1,.45-.13h2.63l-2-5.33c0,.19-.07.39-.12.59a4.69,4.69,0,0,1-.2.6l-2.93,7.68a.77.77,0,0,1-.76.52h-1Z"/><path class="cls-3" d="M357,236.26a.66.66,0,0,1,.75-.75h.79v10a.68.68,0,0,1-.77.76H357Z"/><path class="cls-3" d="M372.91,235.89a.42.42,0,0,1-.48.48h-1.09v4.3h1.72v.77a.42.42,0,0,1-.48.48h-3.46v2.37h5.09v.78a.42.42,0,0,1-.48.48h-11.3v-.78a.42.42,0,0,1,.48-.48h4.61v-2.37h-3.94v-.77a.42.42,0,0,1,.48-.48h1.24v-4.3h-1.57v-.78a.42.42,0,0,1,.48-.47h8.7Zm-3.15,4.78v-4.3h-2.88v4.3Z"/><path class="cls-3" d="M385.33,241.87a.42.42,0,0,1-.48.48h-3.2v2.08h5.09v.79a.42.42,0,0,1-.48.48H375v-.79a.42.42,0,0,1,.48-.48h4.61v-2.08h-3.46v-6.57a.64.64,0,0,1,.73-.72h7.79v.77a.42.42,0,0,1-.48.48h-6.45v1.77H385v.71a.42.42,0,0,1-.48.48h-6.38v1.83h7.15Z"/><path class="cls-3" d="M393.45,243a.54.54,0,0,1-.48.6,10.84,10.84,0,0,1-1.5.21c-.54,0-1.05.07-1.55.07h-1.83v-8.06a.64.64,0,0,1,.73-.71h.82v7.5h.72a16,16,0,0,0,3.09-.33Zm2.23,3.43a.64.64,0,0,1-.71.73h-.82v-7.69h-2.64v-.78a.42.42,0,0,1,.48-.48h2.16v-2.82a.64.64,0,0,1,.73-.73h.8Zm2.83.15a.64.64,0,0,1-.72.73H397V235.41c0-.49.23-.73.71-.73h.81Z"/><path class="cls-3" d="M407.07,235.55a5.81,5.81,0,0,1-.38,2,6.8,6.8,0,0,1-1.11,1.88,7.85,7.85,0,0,1-1.75,1.58,9.44,9.44,0,0,1-2.32,1.13,1.29,1.29,0,0,1-.4.08.66.66,0,0,1-.61-.34l-.39-.58a9.41,9.41,0,0,0,2.38-1,7.35,7.35,0,0,0,1.62-1.35h-3.56v-.73a.43.43,0,0,1,.49-.49h3.88a7,7,0,0,0,.5-1.53h-4.87v-.74a.44.44,0,0,1,.49-.5h6Zm4.17,11.66a.7.7,0,0,1-.64.41,1,1,0,0,1-.33-.06,9.35,9.35,0,0,1-1-.37,7.79,7.79,0,0,1-1-.52,7.58,7.58,0,0,1-.93-.63,6.79,6.79,0,0,1-.78-.72,6.91,6.91,0,0,1-.79.72,6.44,6.44,0,0,1-.92.62,10.41,10.41,0,0,1-1,.52,9.49,9.49,0,0,1-1,.38,1,1,0,0,1-.34.06.72.72,0,0,1-.64-.41l-.3-.57a10.94,10.94,0,0,0,1.7-.67,7.56,7.56,0,0,0,1.31-.8,3.73,3.73,0,0,0,.85-.9,1.65,1.65,0,0,0,.31-.94v-.51a.63.63,0,0,1,.71-.71h.89v1.22a1.71,1.71,0,0,0,.3.94,4.17,4.17,0,0,0,.85.9,8.08,8.08,0,0,0,1.32.8,10.56,10.56,0,0,0,1.7.67Zm-.34-4.86a.64.64,0,0,1-.73.72h-.86V239.3h-2.5v-.78a.42.42,0,0,1,.48-.47h2v-2.64a.64.64,0,0,1,.73-.73h.86Z"/><path class="cls-3" d="M343.17,264.93c0,.42-.21.62-.64.62h-6v-.68a.57.57,0,0,1,.65-.64h6Z"/><path class="cls-3" d="M353.94,260a7.44,7.44,0,0,1-.44,2.58,9.14,9.14,0,0,1-1.21,2.29,11.6,11.6,0,0,1-1.81,2,14.88,14.88,0,0,1-2.22,1.59.86.86,0,0,1-.45.13.69.69,0,0,1-.55-.29l-.45-.54a12.16,12.16,0,0,0,2.46-1.62,9.12,9.12,0,0,0,1.94-2.22h-4v-.72a.44.44,0,0,1,.5-.5h4.1a7.9,7.9,0,0,0,.32-1.08,6.24,6.24,0,0,0,.16-1.16h-5.08v-.74a.44.44,0,0,1,.5-.49h6.2Zm3.43,10.61a.64.64,0,0,1-.72.73h-.86V259.41a.64.64,0,0,1,.73-.73h.85Z"/><path class="cls-3" d="M366.33,267.26a.84.84,0,0,1-.95.95h-5.53v-8.47a.54.54,0,0,1,.61-.61h1v3.36h3.31v-2.75a.54.54,0,0,1,.61-.61h1Zm-1.59-.3v-3.25h-3.31V267Zm5.16,3.64a.64.64,0,0,1-.72.73h-.86V259.41a.64.64,0,0,1,.73-.73h.85Z"/><path class="cls-3" d="M383.48,266.82a.42.42,0,0,1-.48.48h-4.61v3.3a.64.64,0,0,1-.71.73h-.88v-4h-5.09v-.79a.42.42,0,0,1,.48-.47h11.29Zm-1.58-7.08a.42.42,0,0,1-.48.48h-3v.33a2,2,0,0,0,.29,1,3.63,3.63,0,0,0,.81.93,7.67,7.67,0,0,0,1.28.84,10.88,10.88,0,0,0,1.68.69l-.33.53a.76.76,0,0,1-.64.38.87.87,0,0,1-.32-.06,9.61,9.61,0,0,1-3.56-2.17,9.73,9.73,0,0,1-3.57,2.17.87.87,0,0,1-.32.06.76.76,0,0,1-.64-.38l-.33-.53a10.88,10.88,0,0,0,1.68-.69,7.67,7.67,0,0,0,1.28-.84,3.63,3.63,0,0,0,.81-.93,2,2,0,0,0,.29-1v-.33h-3.51v-.77a.42.42,0,0,1,.48-.48h8.13Z"/><path class="cls-3" d="M395.11,264.49a.64.64,0,0,1-.73.73h-.85v-2.86h-1.94a2.89,2.89,0,0,1-.43,1.15,3,3,0,0,1-.81.85,3.76,3.76,0,0,1-1.09.51,4.33,4.33,0,0,1-1.24.18,4.44,4.44,0,0,1-1.36-.21,3.54,3.54,0,0,1-1.15-.62,3.09,3.09,0,0,1-.81-1,2.92,2.92,0,0,1-.3-1.35,3,3,0,0,1,.3-1.35,3.05,3.05,0,0,1,.81-1,3.54,3.54,0,0,1,1.15-.62,4.44,4.44,0,0,1,1.36-.21,4.29,4.29,0,0,1,1.17.16,3.92,3.92,0,0,1,1,.46,3.3,3.3,0,0,1,.82.76,2.87,2.87,0,0,1,.48,1h2v-1.68a.64.64,0,0,1,.72-.73h.86ZM390,261.86a1.94,1.94,0,0,0-.16-.82,1.63,1.63,0,0,0-.42-.6,1.92,1.92,0,0,0-.65-.38,2.3,2.3,0,0,0-.79-.13,2.37,2.37,0,0,0-.81.13,1.81,1.81,0,0,0-1.07,1,1.94,1.94,0,0,0-.16.82,2,2,0,0,0,.16.83,1.82,1.82,0,0,0,.43.61,1.79,1.79,0,0,0,.64.38,2.37,2.37,0,0,0,.81.13,2.3,2.3,0,0,0,.79-.13,1.92,1.92,0,0,0,.65-.38,1.66,1.66,0,0,0,.42-.61A2,2,0,0,0,390,261.86Zm5.29,9.13a.42.42,0,0,1-.48.48h-8.32v-2.7a.65.65,0,0,1,.73-.73h6.27v-1h-7v-.74a.42.42,0,0,1,.48-.48h8.1v2.65a.64.64,0,0,1-.73.71h-6.26v1.06h7.21Z"/><path class="cls-3" d="M409.86,259.89a.42.42,0,0,1-.48.48h-1.09v4.3H410v.77a.42.42,0,0,1-.48.48h-3.46v2.37h5.09v.78a.42.42,0,0,1-.48.48h-11.3v-.78a.42.42,0,0,1,.48-.48h4.61v-2.37h-3.94v-.77a.42.42,0,0,1,.48-.48h1.24v-4.3h-1.57v-.78a.42.42,0,0,1,.48-.47h8.7Zm-3.15,4.78v-4.3h-2.88v4.3Z"/><path class="cls-3" d="M422.28,265.87a.42.42,0,0,1-.48.48h-3.2v2.08h5.09v.79a.42.42,0,0,1-.48.48h-11.3v-.79a.42.42,0,0,1,.48-.48H417v-2.08h-3.46v-6.57a.64.64,0,0,1,.73-.72h7.79v.77a.42.42,0,0,1-.48.48h-6.45v1.77H422v.71a.42.42,0,0,1-.48.48h-6.38v1.83h7.15Z"/><path class="cls-3" d="M430.4,267a.54.54,0,0,1-.48.6,10.84,10.84,0,0,1-1.5.21c-.54,0-1.05.07-1.55.07H425v-8.06a.64.64,0,0,1,.73-.71h.83v7.5h.71a16,16,0,0,0,3.09-.33Zm2.23,3.43a.64.64,0,0,1-.71.73h-.82v-7.69h-2.64v-.78a.42.42,0,0,1,.48-.48h2.16v-2.82a.64.64,0,0,1,.73-.73h.8Zm2.83.15a.64.64,0,0,1-.72.73h-.8V259.41c0-.49.23-.73.71-.73h.81Z"/><path class="cls-3" d="M444,259.55a5.6,5.6,0,0,1-.38,2.05,6.8,6.8,0,0,1-1.11,1.88,7.85,7.85,0,0,1-1.75,1.58,9.44,9.44,0,0,1-2.32,1.13,1.29,1.29,0,0,1-.4.08.66.66,0,0,1-.61-.34l-.39-.58a9.65,9.65,0,0,0,2.39-1,7.52,7.52,0,0,0,1.61-1.35H437.5v-.73a.43.43,0,0,1,.49-.49h3.88a6.53,6.53,0,0,0,.5-1.53H437.5v-.74a.44.44,0,0,1,.49-.5h6Zm4.18,11.66a.72.72,0,0,1-.64.41,1,1,0,0,1-.34-.06,9.35,9.35,0,0,1-1-.37,7.79,7.79,0,0,1-1-.52,8.43,8.43,0,0,1-.93-.63,6.79,6.79,0,0,1-.78-.72,6.79,6.79,0,0,1-.78.72,7.16,7.16,0,0,1-.93.62,9.33,9.33,0,0,1-1,.52,9.49,9.49,0,0,1-1,.38,1,1,0,0,1-.34.06.72.72,0,0,1-.64-.41l-.3-.57a10.56,10.56,0,0,0,1.7-.67,7.56,7.56,0,0,0,1.31-.8,4,4,0,0,0,.86-.9,1.71,1.71,0,0,0,.3-.94v-.51a.63.63,0,0,1,.71-.71h.89v1.22a1.65,1.65,0,0,0,.31.94,3.88,3.88,0,0,0,.84.9,8.08,8.08,0,0,0,1.32.8,10.56,10.56,0,0,0,1.7.67Zm-.35-4.86a.64.64,0,0,1-.73.72h-.86V263.3h-2.5v-.78a.42.42,0,0,1,.48-.47h2v-2.64a.65.65,0,0,1,.73-.73h.86Z"/><path class="cls-3" d="M111.39,312.06a.61.61,0,0,1,.69-.7h.72v9a1.45,1.45,0,0,1,.91-.27h4v.56c0,.39-.2.58-.6.58h-5.73Z"/><path class="cls-3" d="M121.41,321.43a3.61,3.61,0,0,1-1.45-.28,3.1,3.1,0,0,1-1.13-.78,3.78,3.78,0,0,1-.74-1.21,4.22,4.22,0,0,1-.27-1.54,4.17,4.17,0,0,1,.27-1.53,3.78,3.78,0,0,1,.74-1.21,3.25,3.25,0,0,1,1.13-.79,3.78,3.78,0,0,1,1.45-.28,3.6,3.6,0,0,1,1.44.29,3.26,3.26,0,0,1,1.11.79,3.51,3.51,0,0,1,.71,1.18,4.07,4.07,0,0,1,.24,1.5c0,.35-.19.52-.57.52h-5.09a3.14,3.14,0,0,0,.25.9,2.43,2.43,0,0,0,.46.7,1.85,1.85,0,0,0,.65.45,1.94,1.94,0,0,0,.8.16,3.49,3.49,0,0,0,1.16-.18,3.94,3.94,0,0,0,.94-.52.39.39,0,0,1,.28-.1.47.47,0,0,1,.36.16l.41.46a5,5,0,0,1-1.39,1A4.29,4.29,0,0,1,121.41,321.43Zm-2.19-4a1.46,1.46,0,0,1,.44-.29,1.62,1.62,0,0,1,.54-.1h3.25a2,2,0,0,0-.17-.81,2.06,2.06,0,0,0-.44-.66,2,2,0,0,0-1.43-.6,2,2,0,0,0-1.52.69,2.54,2.54,0,0,0-.47.78A3.41,3.41,0,0,0,119.22,317.41Z"/><path class="cls-3" d="M131.73,320.26a3,3,0,0,1-1,.87,3.19,3.19,0,0,1-1.42.3,3.42,3.42,0,0,1-1.39-.28,3.23,3.23,0,0,1-1.12-.78,3.78,3.78,0,0,1-.74-1.21,4,4,0,0,1-.28-1.54,4,4,0,0,1,.28-1.53,3.78,3.78,0,0,1,.74-1.21,3.4,3.4,0,0,1,1.12-.79,3.59,3.59,0,0,1,1.39-.28,3.19,3.19,0,0,1,1.42.31,2.84,2.84,0,0,1,1,.87v-.4a.53.53,0,0,1,.6-.59h.79v6.65c0,.39-.2.58-.6.58h-.79Zm-2.28,0a2,2,0,0,0,.93-.2,2.16,2.16,0,0,0,.72-.55,2.79,2.79,0,0,0,.47-.85,3.73,3.73,0,0,0,0-2.16,2.73,2.73,0,0,0-.47-.84,2.2,2.2,0,0,0-2.57-.55,2.17,2.17,0,0,0-.73.55,2.54,2.54,0,0,0-.47.84,3.52,3.52,0,0,0,0,2.16,2.59,2.59,0,0,0,.47.85,2.31,2.31,0,0,0,.73.55A2,2,0,0,0,129.45,320.3Z"/><path class="cls-3" d="M134.7,314.59a.52.52,0,0,1,.59-.59h.79v1.19a2,2,0,0,1,.38-.6,2.38,2.38,0,0,1,.52-.43,2.49,2.49,0,0,1,.61-.26,2.41,2.41,0,0,1,.64-.09,3.2,3.2,0,0,1,.65.06,2.79,2.79,0,0,1,.43.1l-.2.84a.41.41,0,0,1-.17.27.51.51,0,0,1-.28.08l-.2,0-.24-.05a1.14,1.14,0,0,0-.28,0,2.19,2.19,0,0,0-.73.12,1.85,1.85,0,0,0-.59.35,1.59,1.59,0,0,0-.4.55,1.65,1.65,0,0,0-.14.72v3.86c0,.39-.2.58-.6.58h-.78Z"/><path class="cls-3" d="M144.85,316.8a1.92,1.92,0,0,0-.44-1.34,1.55,1.55,0,0,0-1.23-.5,1.87,1.87,0,0,0-.78.15,1.63,1.63,0,0,0-.58.42,2,2,0,0,0-.36.58,1.84,1.84,0,0,0-.12.66v3.88c0,.39-.2.58-.6.58H140v-6.64a.52.52,0,0,1,.58-.59h.79v1a2.5,2.5,0,0,1,1-.9,2.85,2.85,0,0,1,1.34-.32,2.72,2.72,0,0,1,1.09.22,2.29,2.29,0,0,1,.81.59,2.64,2.64,0,0,1,.51.92,4.07,4.07,0,0,1,.17,1.19v3.92c0,.39-.2.58-.6.58h-.79Z"/><path class="cls-3" d="M148.72,312.91a.9.9,0,0,1-.65-.24.91.91,0,0,1,0-1.25.9.9,0,0,1,.65-.24.88.88,0,0,1,.64.24.91.91,0,0,1,0,1.25A.88.88,0,0,1,148.72,312.91Zm-.7,1.8a.53.53,0,0,1,.59-.6h.79v6.54c0,.39-.2.58-.6.58H148Z"/><path class="cls-3" d="M156.08,316.8a1.92,1.92,0,0,0-.44-1.34,1.55,1.55,0,0,0-1.23-.5,1.87,1.87,0,0,0-.78.15,1.63,1.63,0,0,0-.58.42,2,2,0,0,0-.36.58,1.84,1.84,0,0,0-.12.66v3.88c0,.39-.2.58-.6.58h-.77v-6.64a.52.52,0,0,1,.58-.59h.79v1a2.5,2.5,0,0,1,1-.9,2.85,2.85,0,0,1,1.34-.32A2.72,2.72,0,0,1,156,314a2.29,2.29,0,0,1,.81.59,2.64,2.64,0,0,1,.51.92,4.07,4.07,0,0,1,.17,1.19v3.92c0,.39-.2.58-.6.58h-.79Z"/><path class="cls-3" d="M162,321.17a3.25,3.25,0,0,1-1.36-.28,3.38,3.38,0,0,1-1.08-.75,3.61,3.61,0,0,1-.7-1.17,4.18,4.18,0,0,1-.25-1.48,4.1,4.1,0,0,1,.25-1.48,3.46,3.46,0,0,1,.7-1.16,3.26,3.26,0,0,1,1.08-.76,3.41,3.41,0,0,1,1.36-.28,3,3,0,0,1,2.44,1.16v-.38a.53.53,0,0,1,.6-.59h.79v7.17a3.3,3.3,0,0,1-.25,1.29,2.66,2.66,0,0,1-.71,1,3,3,0,0,1-1.12.62,4.83,4.83,0,0,1-1.47.21,4.43,4.43,0,0,1-1.92-.41,5.51,5.51,0,0,1-1.53-1.13l.42-.44a.52.52,0,0,1,.39-.19.41.41,0,0,1,.3.12,3.84,3.84,0,0,0,1,.66,3.28,3.28,0,0,0,1.3.26,2.3,2.3,0,0,0,1.57-.51,1.78,1.78,0,0,0,.59-1.46V320a2.93,2.93,0,0,1-1,.86A3.15,3.15,0,0,1,162,321.17Zm.23-1.13a2.2,2.2,0,0,0,.9-.19,2.13,2.13,0,0,0,.7-.53,2.49,2.49,0,0,0,.45-.8,3.09,3.09,0,0,0,.16-1,3.13,3.13,0,0,0-.16-1,2.6,2.6,0,0,0-.45-.8,2.13,2.13,0,0,0-.7-.53,2.34,2.34,0,0,0-1.8,0,2.13,2.13,0,0,0-.7.53,2.43,2.43,0,0,0-.46.8,3.13,3.13,0,0,0-.17,1,3.09,3.09,0,0,0,.17,1,2.33,2.33,0,0,0,.46.8,2.13,2.13,0,0,0,.7.53A2.2,2.2,0,0,0,162.24,320Z"/><path class="cls-3" d="M175.12,321.5a5.18,5.18,0,0,1-2-.37,4.79,4.79,0,0,1-1.59-1.05,5,5,0,0,1-1-1.64,6.22,6.22,0,0,1,0-4.28,4.86,4.86,0,0,1,1-1.64,4.62,4.62,0,0,1,1.59-1,5.18,5.18,0,0,1,2-.37,4.77,4.77,0,0,1,2.2.47,4.83,4.83,0,0,1,1.64,1.51l-.6.4a.65.65,0,0,1-.36.12.47.47,0,0,1-.39-.2,3.12,3.12,0,0,0-1.08-.86,3.32,3.32,0,0,0-1.41-.28,3.53,3.53,0,0,0-1.42.28,3.46,3.46,0,0,0-1.14.82,3.86,3.86,0,0,0-.75,1.28,5.21,5.21,0,0,0,0,3.31,3.86,3.86,0,0,0,.75,1.28,3.46,3.46,0,0,0,1.14.82,3.53,3.53,0,0,0,1.42.28,3.37,3.37,0,0,0,1.44-.3,3.54,3.54,0,0,0,1.15-.91.45.45,0,0,1,.39-.19.68.68,0,0,1,.34.11l.61.39a5.35,5.35,0,0,1-1.7,1.55A4.56,4.56,0,0,1,175.12,321.5Z"/><path class="cls-3" d="M182.82,321.43a3.56,3.56,0,0,1-1.44-.28,3.22,3.22,0,0,1-1.14-.78,3.78,3.78,0,0,1-.74-1.21,4.44,4.44,0,0,1-.26-1.54,4.38,4.38,0,0,1,.26-1.53,3.78,3.78,0,0,1,.74-1.21,3.38,3.38,0,0,1,1.14-.79,3.73,3.73,0,0,1,1.44-.28,3.56,3.56,0,0,1,1.44.29,3.17,3.17,0,0,1,1.11.79,3.53,3.53,0,0,1,.72,1.18,4.29,4.29,0,0,1,.23,1.5c0,.35-.19.52-.57.52h-5.09a3.5,3.5,0,0,0,.25.9,2.43,2.43,0,0,0,.46.7,2,2,0,0,0,.65.45,2,2,0,0,0,.8.16,3.45,3.45,0,0,0,1.16-.18,4,4,0,0,0,1-.52.37.37,0,0,1,.28-.1.47.47,0,0,1,.36.16l.41.46a5,5,0,0,1-1.4,1A4.25,4.25,0,0,1,182.82,321.43Zm-2.18-4a1.35,1.35,0,0,1,.44-.29,1.51,1.51,0,0,1,.53-.1h3.25a2,2,0,0,0-.17-.81,2.06,2.06,0,0,0-.44-.66,1.79,1.79,0,0,0-.64-.44,1.89,1.89,0,0,0-.79-.16,2,2,0,0,0-.84.18,2.1,2.1,0,0,0-.68.51,2.51,2.51,0,0,0-.46.78A2.86,2.86,0,0,0,180.64,317.41Z"/><path class="cls-3" d="M192.44,316.8a2,2,0,0,0-.44-1.34,1.58,1.58,0,0,0-1.24-.5,1.94,1.94,0,0,0-.78.15,1.51,1.51,0,0,0-.57.42,1.89,1.89,0,0,0-.49,1.24v3.88c0,.39-.2.58-.6.58h-.77v-6.64a.52.52,0,0,1,.59-.59h.78v1a2.57,2.57,0,0,1,1-.9,2.88,2.88,0,0,1,1.34-.32,2.68,2.68,0,0,1,1.09.22,2.29,2.29,0,0,1,.81.59,2.36,2.36,0,0,1,.51.92,3.76,3.76,0,0,1,.17,1.19v3.92c0,.39-.2.58-.6.58h-.78Z"/><path class="cls-3" d="M194.52,314.51a.45.45,0,0,1,.5-.51h.83v-1.68c0-.39.2-.58.6-.58h.79V314h2.21v.65a.45.45,0,0,1-.51.51h-1.7v4.22a1,1,0,0,0,.22.71.78.78,0,0,0,.6.23,1,1,0,0,0,.41-.1,3.55,3.55,0,0,0,.39-.2.56.56,0,0,1,.23-.06.43.43,0,0,1,.38.26l.28.49a3.38,3.38,0,0,1-.87.54,2.58,2.58,0,0,1-1,.18,2.21,2.21,0,0,1-1.5-.48,1.92,1.92,0,0,1-.56-1.51v-4.28h-1.33Z"/><path class="cls-3" d="M203.72,321.43a3.59,3.59,0,0,1-1.44-.28,3.22,3.22,0,0,1-1.14-.78,3.59,3.59,0,0,1-.73-1.21,4.22,4.22,0,0,1-.27-1.54,4.17,4.17,0,0,1,.27-1.53,3.59,3.59,0,0,1,.73-1.21,3.38,3.38,0,0,1,1.14-.79,3.77,3.77,0,0,1,1.44-.28,3.53,3.53,0,0,1,1.44.29,3.08,3.08,0,0,1,1.11.79,3.53,3.53,0,0,1,.72,1.18,4.54,4.54,0,0,1,.24,1.5c0,.35-.2.52-.58.52h-5.09a3.5,3.5,0,0,0,.25.9,2.43,2.43,0,0,0,.46.7,2,2,0,0,0,.65.45,2,2,0,0,0,.8.16,3.45,3.45,0,0,0,1.16-.18,4,4,0,0,0,1-.52.37.37,0,0,1,.28-.1.47.47,0,0,1,.36.16l.41.46a4.88,4.88,0,0,1-1.4,1A4.25,4.25,0,0,1,203.72,321.43Zm-2.18-4a1.35,1.35,0,0,1,.44-.29,1.56,1.56,0,0,1,.53-.1h3.25a1.84,1.84,0,0,0-.17-.81,1.91,1.91,0,0,0-.44-.66,1.84,1.84,0,0,0-.63-.44,1.94,1.94,0,0,0-.8-.16,2,2,0,0,0-.84.18,2.21,2.21,0,0,0-.68.51,2.51,2.51,0,0,0-.46.78A3.11,3.11,0,0,0,201.54,317.41Z"/><path class="cls-3" d="M208.45,314.59A.52.52,0,0,1,209,314h.78v1.19a2.15,2.15,0,0,1,.91-1,2.49,2.49,0,0,1,.61-.26,2.41,2.41,0,0,1,.64-.09,3.2,3.2,0,0,1,.65.06,3.12,3.12,0,0,1,.43.1l-.2.84a.41.41,0,0,1-.17.27.51.51,0,0,1-.28.08l-.2,0-.24-.05a1.14,1.14,0,0,0-.28,0,2.19,2.19,0,0,0-.73.12,1.85,1.85,0,0,0-.59.35,1.59,1.59,0,0,0-.4.55,1.66,1.66,0,0,0-.15.72v3.86c0,.39-.2.58-.6.58h-.77Z"/><path class="cls-3" d="M223.49,318.48a3.12,3.12,0,0,1-.24,1.22,2.75,2.75,0,0,1-.68,1,3.08,3.08,0,0,1-1.06.66,3.93,3.93,0,0,1-1.41.24,3.39,3.39,0,0,1-2.1-.65,4.33,4.33,0,0,1-1.32-1.68l.67-.3a.76.76,0,0,1,.27-.05.47.47,0,0,1,.44.24,2.81,2.81,0,0,0,.84.94,2,2,0,0,0,1.2.37,2.17,2.17,0,0,0,.84-.16,1.74,1.74,0,0,0,.61-.44,1.89,1.89,0,0,0,.38-.62,2.34,2.34,0,0,0,.12-.74,1.84,1.84,0,0,0-.18-.83,1.91,1.91,0,0,0-.48-.61,2.09,2.09,0,0,0-.67-.37,2.23,2.23,0,0,0-.77-.14H219v-.6a.48.48,0,0,1,.55-.54h.34a1.93,1.93,0,0,0,.69-.13,1.67,1.67,0,0,0,.56-.35,1.6,1.6,0,0,0,.51-1.2,1.47,1.47,0,0,0-.43-1.13,1.73,1.73,0,0,0-1.22-.4,1.68,1.68,0,0,0-1,.31,2.42,2.42,0,0,0-.75.88.46.46,0,0,1-.19.22.54.54,0,0,1-.25.06.83.83,0,0,1-.27-.06l-.66-.31a3.83,3.83,0,0,1,1.29-1.68,3.2,3.2,0,0,1,1.87-.56,3.79,3.79,0,0,1,1.31.21,2.93,2.93,0,0,1,1,.56,2.22,2.22,0,0,1,.59.83,2.7,2.7,0,0,1,.2,1,2.5,2.5,0,0,1-.09.66,2.82,2.82,0,0,1-.28.64,2.35,2.35,0,0,1-.49.56,2.61,2.61,0,0,1-.71.42,2.36,2.36,0,0,1,.8.38,2.85,2.85,0,0,1,.61.59,2.77,2.77,0,0,1,.39.74A2.32,2.32,0,0,1,223.49,318.48Z"/><path class="cls-3" d="M231,316.31a9.58,9.58,0,0,1-.25,2.26,5,5,0,0,1-.72,1.65,3,3,0,0,1-1.1,1,3.16,3.16,0,0,1-1.45.34,3,3,0,0,1-2.55-1.35,5,5,0,0,1-.71-1.65,10.86,10.86,0,0,1,0-4.54,5,5,0,0,1,.71-1.64,3,3,0,0,1,2.55-1.35,3.16,3.16,0,0,1,1.45.34,3,3,0,0,1,1.1,1,5.05,5.05,0,0,1,.72,1.64A9.64,9.64,0,0,1,231,316.31Zm-1.44,0a6.73,6.73,0,0,0-.56-3.06,1.62,1.62,0,0,0-3,0,8.47,8.47,0,0,0,0,6.11,1.62,1.62,0,0,0,3,0A6.71,6.71,0,0,0,229.54,316.31Z"/><path class="cls-3" d="M235.88,320.67a.62.62,0,0,1-.7.7h-.71V313l-1.19.84a.46.46,0,0,1-.29.1.44.44,0,0,1-.37-.2l-.52-.62,2.17-1.57a1,1,0,0,1,.37-.2,1.46,1.46,0,0,1,.44-.06h.8Z"/><path class="cls-3" d="M240.88,320.79a2.31,2.31,0,0,1-.07.5,1.86,1.86,0,0,1-.19.5l-.54,1.08a.48.48,0,0,1-.2.22.6.6,0,0,1-.29.08H239l.71-1.46a.89.89,0,0,1-.59-.28.86.86,0,0,1-.23-.6.9.9,0,0,1,.28-.69.94.94,0,0,1,.72-.28,1,1,0,0,1,.71.26A.86.86,0,0,1,240.88,320.79Z"/><path class="cls-3" d="M250.73,318.48a3.12,3.12,0,0,1-.24,1.22,2.73,2.73,0,0,1-.67,1,3.22,3.22,0,0,1-1.07.66,3.93,3.93,0,0,1-1.41.24,3.34,3.34,0,0,1-2.09-.65,4.24,4.24,0,0,1-1.32-1.68l.66-.3a.76.76,0,0,1,.27-.05.47.47,0,0,1,.44.24,2.81,2.81,0,0,0,.84.94,2.06,2.06,0,0,0,1.2.37,2.17,2.17,0,0,0,.84-.16,1.88,1.88,0,0,0,.62-.44,1.86,1.86,0,0,0,.37-.62,2.35,2.35,0,0,0,.13-.74,1.84,1.84,0,0,0-.18-.83,1.91,1.91,0,0,0-.48-.61,2.14,2.14,0,0,0-.68-.37,2.19,2.19,0,0,0-.77-.14h-.92v-.6a.48.48,0,0,1,.55-.54h.34a2,2,0,0,0,.7-.13,1.89,1.89,0,0,0,.56-.35,1.64,1.64,0,0,0,.5-1.2,1.47,1.47,0,0,0-.43-1.13,1.71,1.71,0,0,0-1.22-.4,1.68,1.68,0,0,0-1,.31,2.63,2.63,0,0,0-.75.88.44.44,0,0,1-.18.22.58.58,0,0,1-.26.06.73.73,0,0,1-.26-.06l-.67-.31a3.83,3.83,0,0,1,1.29-1.68,3.22,3.22,0,0,1,1.87-.56,3.75,3.75,0,0,1,1.31.21,2.83,2.83,0,0,1,1,.56,2.22,2.22,0,0,1,.59.83,2.52,2.52,0,0,1,.2,1,2.5,2.5,0,0,1-.09.66,2.44,2.44,0,0,1-.28.64,2.35,2.35,0,0,1-.49.56,2.61,2.61,0,0,1-.71.42,2.36,2.36,0,0,1,.8.38,2.85,2.85,0,0,1,.61.59,3.12,3.12,0,0,1,.4.74A2.56,2.56,0,0,1,250.73,318.48Z"/><path class="cls-3" d="M258.22,316.31a9.08,9.08,0,0,1-.25,2.26,5.23,5.23,0,0,1-.71,1.65,3.07,3.07,0,0,1-5.11,0,5,5,0,0,1-.7-1.65,10.43,10.43,0,0,1,0-4.54,5,5,0,0,1,.7-1.64,3.07,3.07,0,0,1,5.11,0A5.27,5.27,0,0,1,258,314,9.14,9.14,0,0,1,258.22,316.31Zm-1.44,0a6.6,6.6,0,0,0-.56-3.06,1.62,1.62,0,0,0-3,0,8.61,8.61,0,0,0,0,6.11,1.62,1.62,0,0,0,3,0A6.58,6.58,0,0,0,256.78,316.31Z"/><path class="cls-3" d="M265.28,320.65c0,.39-.2.58-.6.58h-6.13v-.49a1.14,1.14,0,0,1,.32-.76l3.21-3.41a6.88,6.88,0,0,0,1.05-1.37,2.72,2.72,0,0,0,.37-1.32,1.71,1.71,0,0,0-.44-1.22,1.57,1.57,0,0,0-1.19-.46,1.72,1.72,0,0,0-.68.13,1.87,1.87,0,0,0-.57.35,2,2,0,0,0-.43.55,2.63,2.63,0,0,0-.24.7.46.46,0,0,1-.2.34.6.6,0,0,1-.37.09l-.76-.05a4.12,4.12,0,0,1,.31-1.43,2.86,2.86,0,0,1,1.71-1.63,3.61,3.61,0,0,1,1.23-.21,3.52,3.52,0,0,1,1.25.21,2.71,2.71,0,0,1,1,.58,2.55,2.55,0,0,1,.62.89,3.07,3.07,0,0,1,.21,1.16,3.46,3.46,0,0,1-.45,1.67,7.76,7.76,0,0,1-1.28,1.71l-2.81,2.94a.35.35,0,0,1,.18-.05,2.91,2.91,0,0,1,.32,0l.31,0h4.1Z"/><path class="cls-3" d="M271.56,313a5.2,5.2,0,0,1,1.54.22,3.44,3.44,0,0,1,1.13.58,2.57,2.57,0,0,1,.7.85,2.29,2.29,0,0,1,.24,1,2.41,2.41,0,0,1-.19.93,2.39,2.39,0,0,1-.55.8,3.32,3.32,0,0,1-.91.59,4.43,4.43,0,0,1-1.23.33v1.32H277v.72a.39.39,0,0,1-.44.44H266.16v-.72a.39.39,0,0,1,.44-.44h4.22v-1.32a4.43,4.43,0,0,1-1.23-.33,3.12,3.12,0,0,1-.9-.59,2.31,2.31,0,0,1-.74-1.73,2.29,2.29,0,0,1,.24-1,2.46,2.46,0,0,1,.7-.85,3.26,3.26,0,0,1,1.13-.58A5.15,5.15,0,0,1,271.56,313Zm4.3-.79c0,.28-.15.42-.44.42h-8.17V312a.39.39,0,0,1,.44-.44h3.13v-.81a.49.49,0,0,1,.56-.56h.91v1.37h3.57Zm-4.3,1.93a2.54,2.54,0,0,0-1.6.44,1.38,1.38,0,0,0-.56,1.1,1.36,1.36,0,0,0,.56,1.11,2.48,2.48,0,0,0,1.6.45,2.52,2.52,0,0,0,1.6-.45,1.36,1.36,0,0,0,.56-1.11,1.38,1.38,0,0,0-.56-1.1A2.58,2.58,0,0,0,271.56,314.15Z"/><path class="cls-3" d="M278.55,321.74a.63.63,0,0,1-.65.44h-.8l3.79-11.12a.62.62,0,0,1,.64-.46h.82Z"/><path class="cls-3" d="M287.34,321.5a5.18,5.18,0,0,1-2-.37,4.65,4.65,0,0,1-1.58-1.05,5,5,0,0,1-1.06-1.64,6.22,6.22,0,0,1,0-4.28,4.89,4.89,0,0,1,1.06-1.64,4.49,4.49,0,0,1,1.58-1,5.18,5.18,0,0,1,2-.37,5,5,0,0,1,2.33.49,4.48,4.48,0,0,1,1.68,1.49l-.61.42a.56.56,0,0,1-.33.1.53.53,0,0,1-.4-.18,3.39,3.39,0,0,0-1.19-.88,3.75,3.75,0,0,0-1.48-.28,3.56,3.56,0,0,0-1.42.28,3.46,3.46,0,0,0-1.14.82,4,4,0,0,0-.75,1.28,5.21,5.21,0,0,0,0,3.31,4,4,0,0,0,.75,1.28,3.46,3.46,0,0,0,1.14.82,3.56,3.56,0,0,0,1.42.28,3.52,3.52,0,0,0,1.26-.23,3.36,3.36,0,0,0,1-.66,3.55,3.55,0,0,0,.73-1,4.47,4.47,0,0,0,.37-1.36h-2.79v-.56a.53.53,0,0,1,.6-.59h3.68v.47a5.58,5.58,0,0,1-.37,2.08,5,5,0,0,1-1,1.62,4.49,4.49,0,0,1-1.54,1.05A5,5,0,0,1,287.34,321.5Z"/><path class="cls-3" d="M293.5,314.59a.52.52,0,0,1,.58-.59h.79v1.19a2.19,2.19,0,0,1,.38-.6,2.38,2.38,0,0,1,.52-.43,2.56,2.56,0,0,1,.62-.26,2.3,2.3,0,0,1,.64-.09,3.1,3.1,0,0,1,.64.06,3.33,3.33,0,0,1,.44.1l-.2.84a.46.46,0,0,1-.18.27.51.51,0,0,1-.28.08l-.2,0-.24-.05a1.14,1.14,0,0,0-.28,0,2.13,2.13,0,0,0-.72.12,1.65,1.65,0,0,0-.59.35,1.48,1.48,0,0,0-.4.55,1.66,1.66,0,0,0-.15.72v3.86c0,.39-.2.58-.6.58h-.77Z"/><path class="cls-3" d="M304.09,320.26a3,3,0,0,1-1,.87,3.18,3.18,0,0,1-1.41.3,3.39,3.39,0,0,1-1.39-.28,3.14,3.14,0,0,1-1.12-.78,3.64,3.64,0,0,1-.75-1.21,4.22,4.22,0,0,1-.27-1.54,4.17,4.17,0,0,1,.27-1.53,3.64,3.64,0,0,1,.75-1.21,3.3,3.3,0,0,1,1.12-.79,3.56,3.56,0,0,1,1.39-.28,3.18,3.18,0,0,1,1.41.31,2.87,2.87,0,0,1,1,.87v-.4a.53.53,0,0,1,.6-.59h.78v6.65c0,.39-.2.58-.6.58h-.78Zm-2.28,0a2.08,2.08,0,0,0,1.64-.75,2.59,2.59,0,0,0,.47-.85,3.52,3.52,0,0,0,0-2.16,2.54,2.54,0,0,0-.47-.84,1.92,1.92,0,0,0-.71-.55,2.17,2.17,0,0,0-2.58.55,2.56,2.56,0,0,0-.48.84,3.73,3.73,0,0,0,0,2.16,2.61,2.61,0,0,0,.48.85,2.16,2.16,0,0,0,.72.55A2,2,0,0,0,301.81,320.3Z"/><path class="cls-3" d="M312,316.8a2,2,0,0,0-.44-1.34,1.58,1.58,0,0,0-1.24-.5,1.94,1.94,0,0,0-.78.15,1.51,1.51,0,0,0-.57.42,1.89,1.89,0,0,0-.49,1.24v3.88c0,.39-.2.58-.6.58h-.77v-6.64a.52.52,0,0,1,.58-.59h.79v1a2.57,2.57,0,0,1,1-.9,2.85,2.85,0,0,1,1.34-.32,2.68,2.68,0,0,1,1.09.22,2.29,2.29,0,0,1,.81.59,2.49,2.49,0,0,1,.51.92,3.76,3.76,0,0,1,.17,1.19v3.92c0,.39-.2.58-.6.58H312Z"/><path class="cls-3" d="M320.31,320.24a3.07,3.07,0,0,1-1,.87,2.87,2.87,0,0,1-1.4.32,3.21,3.21,0,0,1-1.36-.28,3,3,0,0,1-1.08-.78,3.72,3.72,0,0,1-.71-1.21,4.44,4.44,0,0,1-.25-1.54,4.39,4.39,0,0,1,.25-1.53,3.72,3.72,0,0,1,.71-1.21,3.15,3.15,0,0,1,1.08-.79,3.37,3.37,0,0,1,1.36-.28,3,3,0,0,1,1.4.32,3.22,3.22,0,0,1,1,.88V312a.53.53,0,0,1,.6-.59h.79v9.29c0,.39-.2.58-.6.58h-.79Zm-2.21.06a1.92,1.92,0,0,0,.9-.2,2.09,2.09,0,0,0,.7-.55,2.39,2.39,0,0,0,.45-.85,3.72,3.72,0,0,0,0-2.16,2.34,2.34,0,0,0-.45-.84,2,2,0,0,0-.7-.55,2.12,2.12,0,0,0-1.8,0,2.06,2.06,0,0,0-.7.55,2.71,2.71,0,0,0-.46.84,3.73,3.73,0,0,0,0,2.16,2.77,2.77,0,0,0,.46.85,2.19,2.19,0,0,0,.7.55A1.92,1.92,0,0,0,318.1,320.3Z"/><path class="cls-3" d="M326.64,312.06a.61.61,0,0,1,.69-.7h.72v4.55a1.45,1.45,0,0,1,.91-.27h4.4v-3.58a.62.62,0,0,1,.7-.7h.71v9.18a.61.61,0,0,1-.69.69h-.72v-4.69a1.51,1.51,0,0,1-.91.26h-4.4v3.74a.61.61,0,0,1-.7.69h-.71Z"/><path class="cls-3" d="M342.24,320.26a3,3,0,0,1-1,.87,3.19,3.19,0,0,1-1.42.3,3.42,3.42,0,0,1-1.39-.28,3.23,3.23,0,0,1-1.12-.78,3.78,3.78,0,0,1-.74-1.21,4,4,0,0,1-.28-1.54,4,4,0,0,1,.28-1.53,3.78,3.78,0,0,1,.74-1.21,3.4,3.4,0,0,1,1.12-.79,3.59,3.59,0,0,1,1.39-.28,3.19,3.19,0,0,1,1.42.31,2.84,2.84,0,0,1,1,.87v-.4a.53.53,0,0,1,.6-.59h.79v6.65c0,.39-.2.58-.6.58h-.79Zm-2.28,0a2,2,0,0,0,.93-.2,2.16,2.16,0,0,0,.72-.55,2.79,2.79,0,0,0,.47-.85,3.72,3.72,0,0,0,0-2.16,2.73,2.73,0,0,0-.47-.84,2.2,2.2,0,0,0-2.57-.55,2.17,2.17,0,0,0-.73.55,2.54,2.54,0,0,0-.47.84,3.52,3.52,0,0,0,0,2.16,2.59,2.59,0,0,0,.47.85,2.31,2.31,0,0,0,.73.55A2,2,0,0,0,340,320.3Z"/><path class="cls-3" d="M345.35,312a.52.52,0,0,1,.58-.59h.79v9.29c0,.39-.2.58-.6.58h-.77Z"/><path class="cls-3" d="M348.5,312a.52.52,0,0,1,.59-.59h.78v9.29c0,.39-.19.58-.6.58h-.77Z"/><path class="cls-3" d="M354.82,312.06a.61.61,0,0,1,.69-.7h.72v9a1.43,1.43,0,0,1,.91-.27h4v.56a.52.52,0,0,1-.59.58h-5.73Z"/><path class="cls-3" d="M365,321.43a3.84,3.84,0,0,1-1.49-.28,3.34,3.34,0,0,1-1.17-.78,3.68,3.68,0,0,1-.77-1.21,4.22,4.22,0,0,1-.27-1.54,4.17,4.17,0,0,1,.27-1.53,3.68,3.68,0,0,1,.77-1.21,3.51,3.51,0,0,1,1.17-.79,4.13,4.13,0,0,1,3,0,3.51,3.51,0,0,1,1.17.79,3.68,3.68,0,0,1,.77,1.21,4.17,4.17,0,0,1,.27,1.53,4.22,4.22,0,0,1-.27,1.54,3.68,3.68,0,0,1-.77,1.21,3.34,3.34,0,0,1-1.17.78A3.85,3.85,0,0,1,365,321.43Zm0-1.13a2,2,0,0,0,.93-.2,2.31,2.31,0,0,0,.73-.55,2.59,2.59,0,0,0,.47-.85,3.52,3.52,0,0,0,0-2.16,2.54,2.54,0,0,0-.47-.84,2.17,2.17,0,0,0-.73-.55,2.24,2.24,0,0,0-1.85,0,2.17,2.17,0,0,0-.73.55,2.75,2.75,0,0,0-.48.84,3.52,3.52,0,0,0,0,2.16,2.81,2.81,0,0,0,.48.85,2.31,2.31,0,0,0,.73.55A2,2,0,0,0,365,320.3Z"/><path class="cls-3" d="M373.83,321.43a3,3,0,0,1-1.42-.32,3,3,0,0,1-1-.89v.43c0,.39-.2.58-.6.58H370V312a.52.52,0,0,1,.59-.59h.79V315a3,3,0,0,1,1-.88,3.06,3.06,0,0,1,1.42-.32,3.21,3.21,0,0,1,2.44,1.07,3.7,3.7,0,0,1,.7,1.21,4.39,4.39,0,0,1,.25,1.53,4.44,4.44,0,0,1-.25,1.54,3.7,3.7,0,0,1-.7,1.21,3.18,3.18,0,0,1-1.08.78A3.21,3.21,0,0,1,373.83,321.43Zm-.24-1.13a1.92,1.92,0,0,0,.9-.2,2.19,2.19,0,0,0,.7-.55,2.75,2.75,0,0,0,.45-.85,3.52,3.52,0,0,0,0-2.16,2.7,2.7,0,0,0-.45-.84,2.06,2.06,0,0,0-.7-.55,2.13,2.13,0,0,0-1.8,0,2,2,0,0,0-.7.55,2.34,2.34,0,0,0-.45.84,3.73,3.73,0,0,0,0,2.16,2.39,2.39,0,0,0,.45.85,2.09,2.09,0,0,0,.7.55A1.92,1.92,0,0,0,373.59,320.3Z"/><path class="cls-3" d="M382.39,321.43a2.93,2.93,0,0,1-1.41-.32,3.05,3.05,0,0,1-1-.89v.43c0,.39-.2.58-.6.58h-.77V312a.52.52,0,0,1,.59-.59h.78V315a3,3,0,0,1,2.45-1.2,3.39,3.39,0,0,1,1.37.28,3.2,3.2,0,0,1,1.07.79,3.72,3.72,0,0,1,.71,1.21,4.39,4.39,0,0,1,.25,1.53,4.44,4.44,0,0,1-.25,1.54,3.72,3.72,0,0,1-.71,1.21,3,3,0,0,1-1.07.78A3.23,3.23,0,0,1,382.39,321.43Zm-.24-1.13a1.92,1.92,0,0,0,.9-.2,2.09,2.09,0,0,0,.7-.55,2.57,2.57,0,0,0,.46-.85,3.52,3.52,0,0,0,0-2.16,2.52,2.52,0,0,0-.46-.84,2,2,0,0,0-.7-.55,2,2,0,0,0-2.49.55,2.52,2.52,0,0,0-.46.84,3.73,3.73,0,0,0,0,2.16,2.57,2.57,0,0,0,.46.85,2.05,2.05,0,0,0,.69.55A1.92,1.92,0,0,0,382.15,320.3Z"/><path class="cls-3" d="M386.47,323.26a.6.6,0,0,1,.1-.35.44.44,0,0,1,.29-.18,3,3,0,0,0,1-.41,1.6,1.6,0,0,0,.64-.75l.24-.58-2.58-6.47a.48.48,0,0,1-.05-.23.23.23,0,0,1,0-.14c0-.1.16-.15.34-.15h.88l2.05,5.49a7.5,7.5,0,0,1,.28-.89l1.58-4.19a.55.55,0,0,1,.62-.41h1l-3,7.67a3.07,3.07,0,0,1-1.31,1.58,4,4,0,0,1-2.07.53Z"/><path class="cls-3" d="M401.68,321.39a.59.59,0,0,1-.66.67h-.75v-6.89h-.93a4.18,4.18,0,0,1-.34,1.35,3.39,3.39,0,0,1-.67,1,2.82,2.82,0,0,1-.92.6,2.74,2.74,0,0,1-1.06.2,2.7,2.7,0,0,1-1.13-.24,2.83,2.83,0,0,1-1-.7,3.23,3.23,0,0,1-.67-1.13,4.58,4.58,0,0,1-.25-1.55,4.64,4.64,0,0,1,.25-1.56,3.37,3.37,0,0,1,.67-1.14,2.93,2.93,0,0,1,1-.69,2.69,2.69,0,0,1,1.13-.23,2.78,2.78,0,0,1,1.94.76,3.08,3.08,0,0,1,.67.92,4,4,0,0,1,.36,1.27h.95v-2.74a.6.6,0,0,1,.68-.67h.73ZM398,314.68a3.28,3.28,0,0,0-.44-1.85,1.37,1.37,0,0,0-1.16-.63,1.36,1.36,0,0,0-1.15.63,4.13,4.13,0,0,0,0,3.71,1.36,1.36,0,0,0,1.15.63,1.37,1.37,0,0,0,1.16-.63A3.27,3.27,0,0,0,398,314.68Zm5.94,6.85a.58.58,0,0,1-.66.66h-.73V311.27a.58.58,0,0,1,.65-.67h.74Z"/><path class="cls-3" d="M412,318.94a.6.6,0,0,1-.46.24.71.71,0,0,1-.43-.17,11.85,11.85,0,0,1-1.41-1.34,9.49,9.49,0,0,1-1.12-1.51,10.41,10.41,0,0,1-1.17,1.72,9.92,9.92,0,0,1-1.43,1.4.69.69,0,0,1-.42.17.68.68,0,0,1-.47-.23l-.44-.42a9.06,9.06,0,0,0,2.32-2.59,6.11,6.11,0,0,0,.82-3.09v-1.58a.58.58,0,0,1,.66-.66h.81v2.24a5.45,5.45,0,0,0,.81,2.89,7.21,7.21,0,0,0,1,1.26,14.78,14.78,0,0,0,1.34,1.22Zm3,2.59a.59.59,0,0,1-.67.66h-.78v-7.42H410.9v-.72c0-.28.15-.42.44-.42h2.19v-2.36a.59.59,0,0,1,.66-.67H415Z"/><path class="cls-3" d="M425.86,318.89a.62.62,0,0,1-.47.24A.69.69,0,0,1,425,319a11.85,11.85,0,0,1-1.41-1.34,9.33,9.33,0,0,1-1.12-1.51,10.85,10.85,0,0,1-1.17,1.72,9.84,9.84,0,0,1-1.43,1.39.66.66,0,0,1-.43.19.69.69,0,0,1-.48-.24l-.42-.43a9.09,9.09,0,0,0,2.32-2.59,6,6,0,0,0,.82-3.08v-1.53a.58.58,0,0,1,.66-.66h.81v2.19a5.7,5.7,0,0,0,.2,1.52,5.58,5.58,0,0,0,.61,1.37,7.48,7.48,0,0,0,1,1.26,16.41,16.41,0,0,0,1.34,1.22ZM430.4,315a.38.38,0,0,1-.44.43h-1.5v6.1a.59.59,0,0,1-.67.66H427V311.27a.59.59,0,0,1,.66-.67h.79v3.68h1.94Z"/><path class="cls-3" d="M435.91,310.14a5.58,5.58,0,0,1,1.54.2,3.85,3.85,0,0,1,1.15.56,2.28,2.28,0,0,1,.7.82,2.17,2.17,0,0,1,.24,1,2.26,2.26,0,0,1-.25,1,2.3,2.3,0,0,1-.76.83v1.63h2.77v.69a.39.39,0,0,1-.44.44H430.51v-.69a.39.39,0,0,1,.44-.44h2.33V314.6a2.3,2.3,0,0,1-.76-.83,2.26,2.26,0,0,1-.25-1,2.17,2.17,0,0,1,.24-1,2.21,2.21,0,0,1,.71-.82,3.79,3.79,0,0,1,1.14-.56A5.6,5.6,0,0,1,435.91,310.14Zm3.63,10.28a2.14,2.14,0,0,1-.24,1,2.46,2.46,0,0,1-.7.82,3.42,3.42,0,0,1-1.15.55,6.07,6.07,0,0,1-3.09,0,3.36,3.36,0,0,1-1.14-.55,2.38,2.38,0,0,1-.71-.82,2.14,2.14,0,0,1-.24-1,2.17,2.17,0,0,1,.24-1,2.38,2.38,0,0,1,.71-.82,3.56,3.56,0,0,1,1.14-.55,6.07,6.07,0,0,1,3.09,0,3.62,3.62,0,0,1,1.15.55,2.46,2.46,0,0,1,.7.82A2.17,2.17,0,0,1,439.54,320.42Zm-1.45-7.7a1.24,1.24,0,0,0-.57-1,2.68,2.68,0,0,0-1.61-.42,2.71,2.71,0,0,0-1.62.42,1.21,1.21,0,0,0,0,2.05,2.71,2.71,0,0,0,1.62.42,2.68,2.68,0,0,0,1.61-.42A1.24,1.24,0,0,0,438.09,312.72Zm0,7.7a1.24,1.24,0,0,0-.57-1,2.68,2.68,0,0,0-1.61-.42,2.71,2.71,0,0,0-1.62.42,1.24,1.24,0,0,0-.57,1,1.21,1.21,0,0,0,.57,1,2.71,2.71,0,0,0,1.62.42,2.68,2.68,0,0,0,1.61-.42A1.21,1.21,0,0,0,438.09,320.42Zm-1-4.19v-1a4.54,4.54,0,0,1-.55.08,6.12,6.12,0,0,1-1.21,0,4.85,4.85,0,0,1-.55-.08v1Z"/><path class="cls-3" d="M450.89,311.8a6.94,6.94,0,0,1-.4,2.37,8.39,8.39,0,0,1-1.09,2.1,10.19,10.19,0,0,1-1.63,1.79,13.41,13.41,0,0,1-2,1.46.8.8,0,0,1-.4.12.7.7,0,0,1-.52-.28l-.42-.5a10.67,10.67,0,0,0,1.86-1.16,9.49,9.49,0,0,0,1.58-1.52,7.8,7.8,0,0,0,1.1-1.84,6,6,0,0,0,.46-2.11h-4.59v-.71a.4.4,0,0,1,.45-.45h5.63Zm4.88,3.75c0,.28-.15.42-.44.42h-1.51v5.56a.58.58,0,0,1-.66.66h-.79V311.27a.59.59,0,0,1,.67-.67h.78v4.23h1.95Z"/><path class="cls-3" d="M466.67,316.58a.39.39,0,0,1-.44.44H455.88v-.7a.38.38,0,0,1,.43-.44h10.36Zm-1.3-2.18a.39.39,0,0,1-.44.44h-7.56v-3.49a.59.59,0,0,1,.66-.67h.79v3h6.55Zm-.46,6a2.17,2.17,0,0,1-.24,1,2.31,2.31,0,0,1-.71.82,3.79,3.79,0,0,1-1.14.56,6.11,6.11,0,0,1-3.1,0,3.79,3.79,0,0,1-1.14-.56,2.31,2.31,0,0,1-.71-.82,2.22,2.22,0,0,1,0-2,2.31,2.31,0,0,1,.71-.82,3.57,3.57,0,0,1,1.14-.56,6.11,6.11,0,0,1,3.1,0,3.57,3.57,0,0,1,1.14.56,2.31,2.31,0,0,1,.71.82A2.15,2.15,0,0,1,464.91,320.41Zm-1.45,0a1.13,1.13,0,0,0-.15-.57,1.55,1.55,0,0,0-.43-.46,2.25,2.25,0,0,0-.68-.31,3.3,3.3,0,0,0-.93-.11,3.34,3.34,0,0,0-.93.11,2.37,2.37,0,0,0-.68.31,1.55,1.55,0,0,0-.43.46,1.12,1.12,0,0,0-.14.57,1.24,1.24,0,0,0,.57,1,3.3,3.3,0,0,0,3.22,0A1.25,1.25,0,0,0,463.46,320.41Z"/><rect class="cls-3" x="488.14" y="223.05" width="146.14" height="47" rx="23.5"/><path class="cls-2" d="M525.6,249.38a.7.7,0,0,1-.79.79h-5.95v4.12a1,1,0,0,1-1.18,1.18h-1.29v-5.3h-6.74V249a.7.7,0,0,1,.79-.79H525.6ZM511.89,240a1,1,0,0,1,1.18-1.18h10.29v6.09a1.39,1.39,0,0,1-1.57,1.57h-9.9Zm9,.7h-6.59v3.89h6.59Z"/><path class="cls-2" d="M534.61,240.15a.7.7,0,0,1-.79.79H532v2a10,10,0,0,0,.19,2.05,7.71,7.71,0,0,0,.57,1.78,8.27,8.27,0,0,0,1,1.62,14.14,14.14,0,0,0,1.48,1.58l-.65.63a1.17,1.17,0,0,1-.82.39,1,1,0,0,1-.71-.31,12.36,12.36,0,0,1-1.16-1.25,14.49,14.49,0,0,1-1-1.5,15.92,15.92,0,0,1-1.16,1.74,10.63,10.63,0,0,1-1.26,1.4,1,1,0,0,1-.74.31,1.26,1.26,0,0,1-.83-.35l-.68-.61a13.25,13.25,0,0,0,1.65-1.77,8.8,8.8,0,0,0,1-1.75,8,8,0,0,0,.53-1.87,15.16,15.16,0,0,0,.14-2.09v-2h-2.8v-1.1a.7.7,0,0,1,.78-.79h7.09Zm1.2-.59a1,1,0,0,1,1.2-1.17h1.15v15.7a1,1,0,0,1-1.17,1.18h-1.18V244.79h-2.54v-1.14a.7.7,0,0,1,.79-.79h1.75Zm3.37,0a1,1,0,0,1,1.18-1.17h1.18v15.9a1,1,0,0,1-1.18,1.18h-1.18Z"/><path class="cls-2" d="M553.89,240.72a.69.69,0,0,1-.78.79h-1.34a3.9,3.9,0,0,1,1,1.3,4,4,0,0,1,.38,1.78,4,4,0,0,1-.39,1.79,3.77,3.77,0,0,1-1,1.31,4.45,4.45,0,0,1-1.46.82,5.36,5.36,0,0,1-3.42,0,4.45,4.45,0,0,1-1.46-.82,3.77,3.77,0,0,1-1-1.31,4,4,0,0,1-.38-1.79,4,4,0,0,1,.37-1.78,3.9,3.9,0,0,1,1-1.3h-2.22v-1.06a.7.7,0,0,1,.79-.79h3.39v-1a.87.87,0,0,1,1-1h1.49v2h4.08Zm4.09,14a.7.7,0,0,1-.79.79H546.35v-4.22a1,1,0,0,1,1.18-1.18h1.26v3.47H558Zm-7.27-10.38a2.84,2.84,0,0,0-.6-2,2.1,2.1,0,0,0-3.08,0,3.45,3.45,0,0,0,0,3.89,2.1,2.1,0,0,0,3.08,0A2.82,2.82,0,0,0,550.71,244.3Zm9.43-.12a.7.7,0,0,1-.79.78h-1.67v5.13a1,1,0,0,1-1.18,1.18h-1.25V239.56a1,1,0,0,1,1.18-1.17h1.25V243h2.46Z"/><path class="cls-2" d="M574.18,244.32a5.9,5.9,0,0,1-.44,2.33,5,5,0,0,1-1.14,1.72,4.76,4.76,0,0,1-1.63,1,5.33,5.33,0,0,1-3.8,0,4.76,4.76,0,0,1-1.63-1,5,5,0,0,1-1.14-1.72,6.44,6.44,0,0,1,0-4.68,5,5,0,0,1,1.14-1.71,4.76,4.76,0,0,1,1.63-1,5.33,5.33,0,0,1,3.8,0,4.76,4.76,0,0,1,1.63,1,5,5,0,0,1,1.14,1.71A5.9,5.9,0,0,1,574.18,244.32Zm-2.44,0a4.08,4.08,0,0,0-.75-2.65,2.45,2.45,0,0,0-3.84,0,5.06,5.06,0,0,0,0,5.3,2.46,2.46,0,0,0,3.84,0A4.12,4.12,0,0,0,571.74,244.32Zm4.36-4.76a1,1,0,0,1,1.18-1.17h1.25v15.9a1,1,0,0,1-1.17,1.18H576.1Z"/><path class="cls-2" d="M596.83,247.63a.69.69,0,0,1-.78.79H580.89v-1.1a.7.7,0,0,1,.79-.79h3.2v-2.27a3.63,3.63,0,0,1-1.07-1.23,3.14,3.14,0,0,1-.37-1.5,3.09,3.09,0,0,1,.37-1.5,3.45,3.45,0,0,1,1.05-1.21,5.49,5.49,0,0,1,1.7-.82,9,9,0,0,1,4.61,0,5.72,5.72,0,0,1,1.7.82,3.45,3.45,0,0,1,1,1.21,3.19,3.19,0,0,1,.36,1.5,3.25,3.25,0,0,1-.36,1.5,3.74,3.74,0,0,1-1.07,1.23v2.27h4Zm-2.55,5.19a3.24,3.24,0,0,1-.36,1.49,3.48,3.48,0,0,1-1,1.22,5.48,5.48,0,0,1-1.7.81,8.72,8.72,0,0,1-4.61,0,5.27,5.27,0,0,1-1.7-.81,3.48,3.48,0,0,1-1.05-1.22,3.13,3.13,0,0,1-.37-1.49,3.09,3.09,0,0,1,.37-1.5,3.45,3.45,0,0,1,1.05-1.21,5.49,5.49,0,0,1,1.7-.82,9,9,0,0,1,4.61,0,5.72,5.72,0,0,1,1.7.82,3.45,3.45,0,0,1,1,1.21A3.19,3.19,0,0,1,594.28,252.82Zm-2.43-11.29a1.66,1.66,0,0,0-.79-1.39,3.74,3.74,0,0,0-2.2-.56,3.79,3.79,0,0,0-2.2.56,1.68,1.68,0,0,0-.78,1.39,1.65,1.65,0,0,0,.78,1.38,3.79,3.79,0,0,0,2.2.56,3.74,3.74,0,0,0,2.2-.56A1.63,1.63,0,0,0,591.85,241.53Zm0,11.29a1.66,1.66,0,0,0-.79-1.39,3.74,3.74,0,0,0-2.2-.56,3.79,3.79,0,0,0-2.2.56,1.68,1.68,0,0,0-.78,1.39,1.65,1.65,0,0,0,.78,1.38,3.71,3.71,0,0,0,2.2.56,3.67,3.67,0,0,0,2.2-.56A1.63,1.63,0,0,0,591.85,252.82Zm-1.48-6.29v-1.29a9.56,9.56,0,0,1-3,0v1.29Z"/><path class="cls-2" d="M597.82,245.61a.69.69,0,0,1,.78-.78h5.83c.25,0,.51,0,.77,0a13.48,13.48,0,0,0,.19-1.34c0-.43,0-.88,0-1.33v-1.61H599v-1.14a.7.7,0,0,1,.79-.79h8.09v3.34c0,.47,0,.92-.06,1.34a11.71,11.71,0,0,1-.21,1.35c.31,0,.62-.08.93-.14l.91-.17v1.06a.86.86,0,0,1-.79,1c-.62.1-1.29.19-2,.25s-1.43.11-2.18.14v1.91a.94.94,0,0,1-.29.68,1.2,1.2,0,0,1-.89.3H602v-2.85h-4.18Zm15.06,7.93v1.14a.7.7,0,0,1-.79.79h-11v-3.93a1,1,0,0,1,1.17-1.18h1.26v3.18Zm-2.73-14a1,1,0,0,1,1.18-1.17h1.25v12.09a1,1,0,0,1-1.18,1.18h-1.25v-2.08h-3.68v-1.14a.7.7,0,0,1,.79-.79h2.89Z"/></g></svg>