<svg xmlns="http://www.w3.org/2000/svg" viewBox="0 0 750 500"><defs><style>.cls-1{fill:#ba6fa9;}.cls-2{fill:#fff;}.cls-3{fill:none;stroke:#fff;stroke-miterlimit:10;opacity:0.25;}</style></defs><g id="레이어_12" data-name="레이어 12"><path class="cls-1" d="M678,346.51c.73,0,1.44.05,2.14.1V153.39c-.7.05-1.41.1-2.14.1-7.76,0-14-2.93-14-6.54H645.29c0,3.61-6.29,6.54-14,6.54s-14-2.93-14-6.54H598.51c0,3.61-6.29,6.54-14,6.54s-14.05-2.93-14.05-6.54H551.72c0,3.61-6.29,6.54-14.05,6.54s-14-2.93-14-6.54H504.94c0,3.61-6.29,6.54-14.05,6.54s-14.05-2.93-14.05-6.54H458.15c0,3.61-6.29,6.54-14,6.54s-14-2.93-14-6.54H411.37c0,3.61-6.29,6.54-14.05,6.54s-14.05-2.93-14.05-6.54H364.58c0,3.61-6.29,6.54-14.05,6.54s-14-2.93-14-6.54H317.8c0,3.61-6.29,6.54-14.05,6.54S289.7,150.56,289.7,147H271c0,3.61-6.29,6.54-14.05,6.54s-14-2.93-14-6.54H224.23c0,3.61-6.29,6.54-14,6.54s-14.05-2.93-14.05-6.54H177.44c0,3.61-6.29,6.54-14,6.54s-14.05-2.93-14.05-6.54H130.66c0,3.61-6.29,6.54-14,6.54s-14-2.93-14-6.54H83.87c0,3.61-6.29,6.54-14,6.54v193c7.75,0,14,2.92,14,6.54h18.69c0-3.62,6.29-6.54,14-6.54s14,2.92,14,6.54h18.69c0-3.62,6.29-6.54,14.05-6.54s14,2.92,14,6.54h18.69c0-3.62,6.29-6.54,14.05-6.54s14,2.92,14,6.54h18.69c0-3.62,6.29-6.54,14-6.54S271,349.43,271,353.05H289.7c0-3.62,6.29-6.54,14.05-6.54s14.05,2.92,14.05,6.54h18.69c0-3.62,6.29-6.54,14-6.54s14.05,2.92,14.05,6.54h18.69c0-3.62,6.29-6.54,14.05-6.54s14.05,2.92,14.05,6.54h18.69c0-3.62,6.29-6.54,14-6.54s14,2.92,14,6.54h18.69c0-3.62,6.29-6.54,14.05-6.54s14.05,2.92,14.05,6.54h18.68c0-3.62,6.29-6.54,14-6.54s14.05,2.92,14.05,6.54h18.69c0-3.62,6.29-6.54,14.05-6.54s14,2.92,14,6.54h18.68c0-3.62,6.29-6.54,14-6.54s14,2.92,14,6.54H664C664,349.43,670.27,346.51,678,346.51Z"/><path class="cls-2" d="M202.4,224.18a.72.72,0,0,1,.82-.82h1.34l3,8.42,2.8-7.79a.89.89,0,0,1,.34-.46.94.94,0,0,1,.57-.17h1.44v9.18a.61.61,0,0,1-.7.69h-.69V224.7a7.43,7.43,0,0,1-.15.74,4.27,4.27,0,0,1-.18.6l-2.31,6.37a.94.94,0,0,1-.94.69h-1.08L204.12,226a6.1,6.1,0,0,1-.19-.6c-.05-.23-.1-.48-.14-.74v7.84a.62.62,0,0,1-.71.69h-.69Z"/><path class="cls-2" d="M215.52,224.91a.88.88,0,0,1-.64-.24.91.91,0,0,1,0-1.25,1,1,0,0,1,1.29,0,.91.91,0,0,1,0,1.25A.88.88,0,0,1,215.52,224.91Zm-.69,1.8a.53.53,0,0,1,.59-.6h.78v6.54c0,.39-.2.58-.6.58h-.77Z"/><path class="cls-2" d="M220.64,233.44a4.88,4.88,0,0,1-1.73-.31,4.07,4.07,0,0,1-1.4-.89l.39-.5a.44.44,0,0,1,.38-.2.44.44,0,0,1,.28.1,4.14,4.14,0,0,0,.93.5,3.27,3.27,0,0,0,1.15.19,2.29,2.29,0,0,0,1.23-.27.87.87,0,0,0,.13-1.39,2.28,2.28,0,0,0-1-.41l-.91-.2c-.32-.06-.61-.12-.86-.19a2.25,2.25,0,0,1-1.17-.75,2,2,0,0,1,.46-2.74,3.47,3.47,0,0,1,2.09-.57,4.3,4.3,0,0,1,1.6.29,3.32,3.32,0,0,1,1.24.85l-.43.48a.45.45,0,0,1-.36.17.53.53,0,0,1-.29-.11,3.15,3.15,0,0,0-1.8-.57,2,2,0,0,0-1.06.26.86.86,0,0,0-.42.73.84.84,0,0,0,.13.46,1.14,1.14,0,0,0,.57.35,8.43,8.43,0,0,0,.87.26c.33.09.64.16.91.22a2.88,2.88,0,0,1,1.6.72,1.77,1.77,0,0,1,.48,1.26,2,2,0,0,1-.23,1,2.06,2.06,0,0,1-.64.71,3,3,0,0,1-1,.44A4.69,4.69,0,0,1,220.64,233.44Z"/><path class="cls-2" d="M227.49,233.44a4.88,4.88,0,0,1-1.73-.31,4,4,0,0,1-1.4-.89l.38-.5a.47.47,0,0,1,.39-.2.44.44,0,0,1,.28.1,3.94,3.94,0,0,0,.93.5,3.27,3.27,0,0,0,1.15.19,2.29,2.29,0,0,0,1.23-.27.87.87,0,0,0,.13-1.39,2.28,2.28,0,0,0-1-.41l-.91-.2c-.33-.06-.62-.12-.86-.19a2.25,2.25,0,0,1-1.17-.75,1.88,1.88,0,0,1-.37-1.2,1.84,1.84,0,0,1,.82-1.54,3.53,3.53,0,0,1,2.1-.57,4.3,4.3,0,0,1,1.6.29,3.32,3.32,0,0,1,1.24.85l-.43.48a.48.48,0,0,1-.36.17.5.5,0,0,1-.29-.11,3.15,3.15,0,0,0-1.8-.57,2,2,0,0,0-1.06.26.86.86,0,0,0-.42.73.77.77,0,0,0,.13.46,1.14,1.14,0,0,0,.57.35,7.16,7.16,0,0,0,.87.26c.33.09.63.16.91.22a2.88,2.88,0,0,1,1.6.72,1.77,1.77,0,0,1,.48,1.26,2,2,0,0,1-.23,1,2.06,2.06,0,0,1-.64.71,3.13,3.13,0,0,1-1,.44A4.69,4.69,0,0,1,227.49,233.44Z"/><path class="cls-2" d="M232.66,224.91a.88.88,0,0,1-.65-.24.91.91,0,0,1,0-1.25,1,1,0,0,1,1.29,0,.91.91,0,0,1,0,1.25A.88.88,0,0,1,232.66,224.91Zm-.7,1.8a.53.53,0,0,1,.59-.6h.79v6.54c0,.39-.2.58-.6.58H232Z"/><path class="cls-2" d="M238.46,233.44a3.84,3.84,0,0,1-1.49-.29,3.34,3.34,0,0,1-1.17-.78,3.68,3.68,0,0,1-.77-1.21,4.22,4.22,0,0,1-.27-1.54,4.17,4.17,0,0,1,.27-1.53,3.68,3.68,0,0,1,.77-1.21,3.51,3.51,0,0,1,1.17-.79,4.13,4.13,0,0,1,3,0,3.44,3.44,0,0,1,1.93,2,4,4,0,0,1,.28,1.53,4,4,0,0,1-.28,1.54,3.51,3.51,0,0,1-.76,1.21,3.34,3.34,0,0,1-1.17.78A3.86,3.86,0,0,1,238.46,233.44Zm0-1.14a2,2,0,0,0,.93-.2,2.17,2.17,0,0,0,.73-.55,2.59,2.59,0,0,0,.47-.85,3.31,3.31,0,0,0,.17-1.08,3.44,3.44,0,0,0-.17-1.08,2.65,2.65,0,0,0-.47-.84,2.17,2.17,0,0,0-.73-.55,2.24,2.24,0,0,0-1.85,0,2.17,2.17,0,0,0-.73.55,2.88,2.88,0,0,0-.48.84,3.44,3.44,0,0,0-.17,1.08,3.31,3.31,0,0,0,.17,1.08,2.81,2.81,0,0,0,.48.85,2.17,2.17,0,0,0,.73.55A2,2,0,0,0,238.46,232.3Z"/><path class="cls-2" d="M248.27,228.8a2,2,0,0,0-.44-1.34,1.58,1.58,0,0,0-1.24-.5,1.94,1.94,0,0,0-.78.15,1.51,1.51,0,0,0-.57.42,1.89,1.89,0,0,0-.49,1.24v3.88c0,.39-.2.58-.6.58h-.77v-6.64A.52.52,0,0,1,244,226h.78v1a2.57,2.57,0,0,1,1-.9,2.88,2.88,0,0,1,1.34-.32,2.68,2.68,0,0,1,1.09.22,2.29,2.29,0,0,1,.81.59,2.36,2.36,0,0,1,.51.92,3.76,3.76,0,0,1,.17,1.19v3.92a.52.52,0,0,1-.59.58h-.79Z"/><path class="cls-2" d="M258.87,233.5a5.18,5.18,0,0,1-2-.37,4.65,4.65,0,0,1-1.58-1,5,5,0,0,1-1.06-1.64,5.81,5.81,0,0,1-.38-2.13,5.88,5.88,0,0,1,.38-2.15,4.89,4.89,0,0,1,1.06-1.64,4.49,4.49,0,0,1,1.58-1,5.18,5.18,0,0,1,2-.37,4.23,4.23,0,0,1,3.84,2l-.6.39a.66.66,0,0,1-.36.13.49.49,0,0,1-.39-.21,3.12,3.12,0,0,0-1.08-.86,3.29,3.29,0,0,0-1.41-.28,3.74,3.74,0,0,0-1.42.28,3.35,3.35,0,0,0-1.14.83,3.88,3.88,0,0,0-.75,1.27,5.21,5.21,0,0,0,0,3.31,4,4,0,0,0,.75,1.28,3.32,3.32,0,0,0,1.14.82,3.56,3.56,0,0,0,1.42.28,3.31,3.31,0,0,0,1.44-.3,3.54,3.54,0,0,0,1.15-.91.5.5,0,0,1,.4-.19.68.68,0,0,1,.33.11l.61.39a5.35,5.35,0,0,1-1.7,1.55A4.54,4.54,0,0,1,258.87,233.5Z"/><path class="cls-2" d="M266.69,233.44a3.81,3.81,0,0,1-1.49-.29,3.34,3.34,0,0,1-1.17-.78,3.53,3.53,0,0,1-.77-1.21,4.22,4.22,0,0,1-.27-1.54,4.17,4.17,0,0,1,.27-1.53,3.49,3.49,0,0,1,1.94-2,4.1,4.1,0,0,1,3,0,3.45,3.45,0,0,1,1.18.79,3.51,3.51,0,0,1,.76,1.21,4,4,0,0,1,.28,1.53,4,4,0,0,1-.28,1.54,3.51,3.51,0,0,1-.76,1.21,3.29,3.29,0,0,1-1.18.78A3.81,3.81,0,0,1,266.69,233.44Zm0-1.14a2,2,0,0,0,.93-.2,2.17,2.17,0,0,0,.73-.55,2.59,2.59,0,0,0,.47-.85,3.31,3.31,0,0,0,.16-1.08,3.44,3.44,0,0,0-.16-1.08,2.65,2.65,0,0,0-.47-.84,2.17,2.17,0,0,0-.73-.55,2,2,0,0,0-.93-.2,2,2,0,0,0-.92.2,2.17,2.17,0,0,0-.73.55,2.88,2.88,0,0,0-.48.84,3.44,3.44,0,0,0-.17,1.08,3.31,3.31,0,0,0,.17,1.08,2.81,2.81,0,0,0,.48.85,2.17,2.17,0,0,0,.73.55A2,2,0,0,0,266.69,232.3Z"/><path class="cls-2" d="M280.23,228.67a2,2,0,0,0-.36-1.26,1.2,1.2,0,0,0-1-.45,1.39,1.39,0,0,0-.63.15,1.76,1.76,0,0,0-.5.4,1.79,1.79,0,0,0-.34.56,1.82,1.82,0,0,0-.12.65v3.93c0,.39-.2.58-.6.58h-.77v-4.56a2,2,0,0,0-.36-1.26,1.2,1.2,0,0,0-1-.45,1.32,1.32,0,0,0-.62.15,1.68,1.68,0,0,0-.51.4,2,2,0,0,0-.33.56,1.82,1.82,0,0,0-.12.65v3.93c0,.39-.2.58-.6.58h-.76v-6.64a.52.52,0,0,1,.58-.59H273v.89a3.09,3.09,0,0,1,.91-.79,2.34,2.34,0,0,1,1.15-.29,2.08,2.08,0,0,1,1.25.37,2.16,2.16,0,0,1,.76,1,3.16,3.16,0,0,1,1-1,2.44,2.44,0,0,1,1.31-.35,2.12,2.12,0,0,1,1,.21,2,2,0,0,1,.71.58,2.32,2.32,0,0,1,.44.89,3.92,3.92,0,0,1,.15,1.11v4.05c0,.39-.2.58-.6.58h-.77Z"/><path class="cls-2" d="M287.07,233.44a3.05,3.05,0,0,1-1.41-.32,3.2,3.2,0,0,1-1-.9v3.07c0,.39-.2.58-.6.58h-.77v-9.28a.52.52,0,0,1,.59-.59h.78v1a3,3,0,0,1,2.45-1.2,3.39,3.39,0,0,1,1.37.28,3.2,3.2,0,0,1,1.07.79,3.72,3.72,0,0,1,.71,1.21,4.39,4.39,0,0,1,.25,1.53,4.44,4.44,0,0,1-.25,1.54,3.72,3.72,0,0,1-.71,1.21,3,3,0,0,1-1.07.78A3.23,3.23,0,0,1,287.07,233.44Zm-.23-1.14a1.91,1.91,0,0,0,.89-.2,1.89,1.89,0,0,0,.7-.55,2.57,2.57,0,0,0,.46-.85,3.31,3.31,0,0,0,.17-1.08,3.44,3.44,0,0,0-.17-1.08,2.63,2.63,0,0,0-.46-.84,1.89,1.89,0,0,0-.7-.55,2.1,2.1,0,0,0-1.79,0,1.89,1.89,0,0,0-.7.55,2.63,2.63,0,0,0-.46.84,3.76,3.76,0,0,0-.16,1.08,3.6,3.6,0,0,0,.16,1.08,2.57,2.57,0,0,0,.46.85,1.89,1.89,0,0,0,.7.55A1.92,1.92,0,0,0,286.84,232.3Z"/><path class="cls-2" d="M291.82,224a.52.52,0,0,1,.58-.59h.79v9.29c0,.39-.2.58-.6.58h-.77Z"/><path class="cls-2" d="M298.05,233.44a3.6,3.6,0,0,1-1.44-.29,3.22,3.22,0,0,1-1.14-.78,3.78,3.78,0,0,1-.74-1.21,4.44,4.44,0,0,1-.26-1.54,4.38,4.38,0,0,1,.26-1.53,3.78,3.78,0,0,1,.74-1.21,3.38,3.38,0,0,1,1.14-.79,3.77,3.77,0,0,1,1.44-.28,3.53,3.53,0,0,1,1.44.29,3.08,3.08,0,0,1,1.11.79,3.53,3.53,0,0,1,.72,1.18,4.54,4.54,0,0,1,.24,1.5c0,.35-.2.52-.58.52h-5.09a3.5,3.5,0,0,0,.25.9,2.43,2.43,0,0,0,.46.7,2,2,0,0,0,.65.45,2,2,0,0,0,.8.16,3.45,3.45,0,0,0,1.16-.18,4,4,0,0,0,1-.52.41.41,0,0,1,.28-.1.47.47,0,0,1,.36.16l.41.46a4.88,4.88,0,0,1-1.4,1A4.25,4.25,0,0,1,298.05,233.44Zm-2.18-4a1.35,1.35,0,0,1,.44-.29,1.51,1.51,0,0,1,.53-.09h3.25a2,2,0,0,0-.17-.82,1.91,1.91,0,0,0-.44-.66,1.79,1.79,0,0,0-.64-.44,1.86,1.86,0,0,0-.79-.16,2,2,0,0,0-.84.18,2.1,2.1,0,0,0-.68.51,2.51,2.51,0,0,0-.46.78A2.86,2.86,0,0,0,295.87,229.41Z"/><path class="cls-2" d="M302.09,226.51a.45.45,0,0,1,.5-.51h.83v-1.68c0-.39.2-.58.6-.58h.79V226H307v.65a.45.45,0,0,1-.51.51h-1.7v4.22a1,1,0,0,0,.22.71.78.78,0,0,0,.6.23.86.86,0,0,0,.41-.1,3.55,3.55,0,0,0,.39-.2.6.6,0,0,1,.23-.06.43.43,0,0,1,.38.26l.28.49a3.38,3.38,0,0,1-.87.54,2.58,2.58,0,0,1-1,.19A2.22,2.22,0,0,1,304,233a1.92,1.92,0,0,1-.56-1.51v-4.28h-1.33Z"/><path class="cls-2" d="M311.29,233.44a3.6,3.6,0,0,1-1.44-.29,3.1,3.1,0,0,1-1.13-.78,3.46,3.46,0,0,1-.74-1.21,4.22,4.22,0,0,1-.27-1.54,4.17,4.17,0,0,1,.27-1.53,3.46,3.46,0,0,1,.74-1.21,3.25,3.25,0,0,1,1.13-.79,3.77,3.77,0,0,1,1.44-.28,3.53,3.53,0,0,1,1.44.29,3.21,3.21,0,0,1,1.12.79,3.68,3.68,0,0,1,.71,1.18,4.07,4.07,0,0,1,.24,1.5c0,.35-.19.52-.58.52h-5.08a3.13,3.13,0,0,0,.24.9,2.43,2.43,0,0,0,.46.7,2.05,2.05,0,0,0,.65.45,2,2,0,0,0,.8.16,3.45,3.45,0,0,0,1.16-.18,3.82,3.82,0,0,0,.95-.52.41.41,0,0,1,.28-.1.47.47,0,0,1,.36.16l.41.46a4.88,4.88,0,0,1-1.4,1A4.25,4.25,0,0,1,311.29,233.44Zm-2.18-4a1.35,1.35,0,0,1,.44-.29,1.55,1.55,0,0,1,.53-.09h3.25a2,2,0,0,0-.16-.82,2.24,2.24,0,0,0-.44-.66,2,2,0,0,0-.64-.44,1.94,1.94,0,0,0-.8-.16,2,2,0,0,0-.84.18,2.21,2.21,0,0,0-.68.51,2.51,2.51,0,0,0-.46.78A3.11,3.11,0,0,0,309.11,229.41Z"/><path class="cls-2" d="M321.49,232.24a3.26,3.26,0,0,1-1,.88,3,3,0,0,1-1.4.32,3.25,3.25,0,0,1-1.36-.29,3,3,0,0,1-1.08-.78,3.72,3.72,0,0,1-.71-1.21,4.44,4.44,0,0,1-.25-1.54,4.39,4.39,0,0,1,.25-1.53,3.72,3.72,0,0,1,.71-1.21,3.15,3.15,0,0,1,1.08-.79,3.41,3.41,0,0,1,1.36-.28,3,3,0,0,1,1.4.32,3.26,3.26,0,0,1,1,.88V224a.52.52,0,0,1,.6-.59h.78v9.29c0,.39-.2.58-.6.58h-.78Zm-2.22.06a1.92,1.92,0,0,0,.9-.2,2,2,0,0,0,.7-.55,2.57,2.57,0,0,0,.46-.85,3.6,3.6,0,0,0,.16-1.08,3.76,3.76,0,0,0-.16-1.08,2.63,2.63,0,0,0-.46-.84,2,2,0,0,0-.7-.55,2.1,2.1,0,0,0-1.79,0,1.89,1.89,0,0,0-.7.55,2.63,2.63,0,0,0-.46.84,3.18,3.18,0,0,0-.17,1.08,3.06,3.06,0,0,0,.17,1.08,2.57,2.57,0,0,0,.46.85,1.89,1.89,0,0,0,.7.55A1.91,1.91,0,0,0,319.27,232.3Z"/><path class="cls-2" d="M117.27,197.21a1.28,1.28,0,0,1-1.46,1.44h-9.87v-1a1.91,1.91,0,0,1,.2-.83,3,3,0,0,1,.5-.76l4.92-5.23a10.55,10.55,0,0,0,1.48-2,3.91,3.91,0,0,0,.53-1.9,2.3,2.3,0,0,0-.52-1.55,1.91,1.91,0,0,0-1.49-.59,2.39,2.39,0,0,0-1.65.61,3,3,0,0,0-.89,1.63,1.27,1.27,0,0,1-.52.81,1.39,1.39,0,0,1-.9.23l-1.55-.11a7.35,7.35,0,0,1,.53-2.59,5.28,5.28,0,0,1,1.21-1.79,4.55,4.55,0,0,1,1.7-1,6.33,6.33,0,0,1,2.07-.33,6.09,6.09,0,0,1,2.1.34,4.52,4.52,0,0,1,1.61.95,4.35,4.35,0,0,1,1,1.48,5,5,0,0,1,.37,1.93,5.73,5.73,0,0,1-.68,2.67,10.83,10.83,0,0,1-2,2.6l-4.1,4.21a1.84,1.84,0,0,1,.7-.23,4.52,4.52,0,0,1,.8-.09h5.82Z"/><path class="cls-2" d="M130.71,190.71a14.36,14.36,0,0,1-.42,3.65,7.9,7.9,0,0,1-1.2,2.65,5,5,0,0,1-1.86,1.62,5.6,5.6,0,0,1-4.84,0,5.08,5.08,0,0,1-1.85-1.62,8.1,8.1,0,0,1-1.19-2.65,15.71,15.71,0,0,1,0-7.3,8,8,0,0,1,1.19-2.64,5.38,5.38,0,0,1,6.69-1.62,5.13,5.13,0,0,1,1.86,1.62,7.85,7.85,0,0,1,1.2,2.64A14.31,14.31,0,0,1,130.71,190.71Zm-3.17,0a10.55,10.55,0,0,0-.73-4.39,2.23,2.23,0,0,0-2-1.51,2.2,2.2,0,0,0-2,1.51,13.66,13.66,0,0,0,0,8.81,2.2,2.2,0,0,0,2,1.51,2.23,2.23,0,0,0,2-1.51A10.61,10.61,0,0,0,127.54,190.71Z"/><path class="cls-2" d="M143.48,197.21a1.28,1.28,0,0,1-1.46,1.44h-9.87v-1a1.9,1.9,0,0,1,.19-.83,3.37,3.37,0,0,1,.51-.76l4.91-5.23a9.74,9.74,0,0,0,1.48-2,3.8,3.8,0,0,0,.53-1.9,2.25,2.25,0,0,0-.52-1.55,1.88,1.88,0,0,0-1.49-.59,2.38,2.38,0,0,0-1.64.61,2.92,2.92,0,0,0-.9,1.63,1.2,1.2,0,0,1-.52.81,1.36,1.36,0,0,1-.9.23l-1.54-.11a7.35,7.35,0,0,1,.53-2.59,5.41,5.41,0,0,1,1.2-1.79,4.59,4.59,0,0,1,1.71-1,6.31,6.31,0,0,1,2.06-.33,6.11,6.11,0,0,1,2.11.34,4.7,4.7,0,0,1,1.61.95,4.2,4.2,0,0,1,1,1.48,4.81,4.81,0,0,1,.37,1.93,5.71,5.71,0,0,1-.67,2.67,11.1,11.1,0,0,1-2,2.6l-4.11,4.21a1.9,1.9,0,0,1,.71-.23,4.42,4.42,0,0,1,.79-.09h5.83Z"/><path class="cls-2" d="M156.79,193.72a5.25,5.25,0,0,1-1.69,4,5.52,5.52,0,0,1-1.84,1.11,6.52,6.52,0,0,1-2.27.39,6.41,6.41,0,0,1-2.25-.39,5.45,5.45,0,0,1-1.82-1.09A5,5,0,0,1,145.7,196a5,5,0,0,1-.45-2.14,7.67,7.67,0,0,1,.44-2.51,15.88,15.88,0,0,1,1-2.32l3.14-5.73a1.28,1.28,0,0,1,.57-.58,2,2,0,0,1,1-.18h2.23l-3.24,6a2.79,2.79,0,0,1,1.22-.24,5.66,5.66,0,0,1,2.08.38,5.13,5.13,0,0,1,1.65,1.08,4.87,4.87,0,0,1,1.09,1.71A6.18,6.18,0,0,1,156.79,193.72Zm-3.24,0a3.6,3.6,0,0,0-.18-1.15,2.79,2.79,0,0,0-.51-.93,2.24,2.24,0,0,0-.8-.62,2.47,2.47,0,0,0-1.07-.22,2.36,2.36,0,0,0-1,.22,2.54,2.54,0,0,0-.8.62,2.64,2.64,0,0,0-.52.93,3.6,3.6,0,0,0-.18,1.15,3.49,3.49,0,0,0,.18,1.14,2.78,2.78,0,0,0,.52.94,2.54,2.54,0,0,0,.8.62,2.36,2.36,0,0,0,1,.22,2.47,2.47,0,0,0,1.07-.22,2.24,2.24,0,0,0,.8-.62,2.94,2.94,0,0,0,.51-.94A3.49,3.49,0,0,0,153.55,193.72Z"/><path class="cls-2" d="M171,199.08a8.46,8.46,0,0,1-3.24-.61,7.78,7.78,0,0,1-2.61-1.69,7.89,7.89,0,0,1-1.72-2.64,9.63,9.63,0,0,1,0-6.85,7.93,7.93,0,0,1,1.72-2.65,7.63,7.63,0,0,1,2.61-1.69,9.08,9.08,0,0,1,6.49,0,7.69,7.69,0,0,1,2.6,1.69,7.83,7.83,0,0,1,1.74,2.65,9.77,9.77,0,0,1,0,6.85,7.66,7.66,0,0,1-4.34,4.33A8.47,8.47,0,0,1,171,199.08Zm0-2.54a4.78,4.78,0,0,0,2-.42A4.44,4.44,0,0,0,174.6,195a5.43,5.43,0,0,0,1.05-1.84,7.74,7.74,0,0,0,0-4.79,5.43,5.43,0,0,0-1.05-1.84,4.44,4.44,0,0,0-1.58-1.17,4.78,4.78,0,0,0-2-.42,4.67,4.67,0,0,0-2,.42,4.56,4.56,0,0,0-1.59,1.17,5.62,5.62,0,0,0-1.06,1.84,7.74,7.74,0,0,0,0,4.79,5.62,5.62,0,0,0,1.06,1.84,4.56,4.56,0,0,0,1.59,1.17A4.67,4.67,0,0,0,171,196.54Z"/><path class="cls-2" d="M181.37,184.64a1.64,1.64,0,0,1,1.86-1.86H185l6.37,10a4.62,4.62,0,0,1,.47,1.06,11.66,11.66,0,0,1,.31,1.16V184.45a1.49,1.49,0,0,1,1.7-1.67h1.46v14a1.64,1.64,0,0,1-1.87,1.84h-1.73l-6.37-10a4.56,4.56,0,0,1-.48-1q-.18-.56-.33-1.17V197a1.47,1.47,0,0,1-1.67,1.65h-1.46Z"/><path class="cls-2" d="M198.37,184.45a1.47,1.47,0,0,1,1.67-1.67h1.46v13.76a2.28,2.28,0,0,1,1.4-.43h5.95v1.1a1.29,1.29,0,0,1-1.47,1.44h-9Z"/><path class="cls-2" d="M212.13,192.6l-5.19-8.51a1.43,1.43,0,0,1-.23-.72.75.75,0,0,1,0-.21c.07-.26.32-.38.76-.38h2.27l3.93,6.92,3.47-6.1a1.48,1.48,0,0,1,.62-.62,2,2,0,0,1,1-.2h2.48l-6,9.82V197a1.47,1.47,0,0,1-1.67,1.65h-1.46Z"/><path class="cls-2" d="M229.29,199.08a8.44,8.44,0,0,1-3.23-.61,7.59,7.59,0,0,1-2.61-1.69,7.74,7.74,0,0,1-1.72-2.64,9.63,9.63,0,0,1,0-6.85,7.78,7.78,0,0,1,1.72-2.65,7.45,7.45,0,0,1,2.61-1.69,9,9,0,0,1,6.48,0,7.56,7.56,0,0,1,4.34,4.34,9.63,9.63,0,0,1,0,6.85,7.62,7.62,0,0,1-1.73,2.64,7.78,7.78,0,0,1-2.61,1.69A8.43,8.43,0,0,1,229.29,199.08Zm0-2.54a4.75,4.75,0,0,0,2-.42,4.39,4.39,0,0,0,1.59-1.17,5.43,5.43,0,0,0,1.05-1.84,7.74,7.74,0,0,0,0-4.79,5.43,5.43,0,0,0-1.05-1.84,4.39,4.39,0,0,0-1.59-1.17,4.95,4.95,0,0,0-4,0,4.62,4.62,0,0,0-1.58,1.17,5.29,5.29,0,0,0-1.06,1.84,7.74,7.74,0,0,0,0,4.79,5.29,5.29,0,0,0,1.06,1.84,4.62,4.62,0,0,0,1.58,1.17A4.7,4.7,0,0,0,229.29,196.54Z"/><path class="cls-2" d="M239.64,184.64a1.65,1.65,0,0,1,1.87-1.86h1.73l6.37,10a4.64,4.64,0,0,1,.48,1.06c.12.38.22.77.31,1.16V184.45a1.48,1.48,0,0,1,1.69-1.67h1.46v14a1.63,1.63,0,0,1-1.86,1.84H250l-6.37-10a4.16,4.16,0,0,1-.47-1q-.18-.56-.33-1.17V197a1.47,1.47,0,0,1-1.68,1.65h-1.46Z"/><path class="cls-2" d="M256.64,184.64a1.65,1.65,0,0,1,1.87-1.86h9.08v1a1.28,1.28,0,0,1-1.46,1.44h-6.35v4.55a2.33,2.33,0,0,1,1.39-.42h6v1a1.27,1.27,0,0,1-1.46,1.43h-5.92v4.83a2.33,2.33,0,0,1,1.39-.42h6.63v1a1.28,1.28,0,0,1-1.46,1.44h-9.7Z"/><path class="cls-2" d="M274.64,184.64a1.64,1.64,0,0,1,1.86-1.86h8.66v1.1a1.28,1.28,0,0,1-1.46,1.44h-5.93v4.53a2.25,2.25,0,0,1,1.4-.43h5.35v1.1a1.27,1.27,0,0,1-1.46,1.42h-5.29V197a1.47,1.47,0,0,1-1.67,1.65h-1.46Z"/><path class="cls-2" d="M289.83,184.32a2.67,2.67,0,0,1,.77-1.14,1.93,1.93,0,0,1,1.29-.4h2.22l5.38,14.35a1.62,1.62,0,0,1,.12.57.75.75,0,0,1-.19.53,1.36,1.36,0,0,1-1.1.42h-1.44l-1.54-4.23a2.76,2.76,0,0,1-1.55.49H290l.55-1.61a1.48,1.48,0,0,1,1.5-1h2.59l-2.48-6.77a9.85,9.85,0,0,1-.18,1,7.74,7.74,0,0,1-.31,1L288,197.49a1.59,1.59,0,0,1-1.63,1.16h-1.92Z"/><path class="cls-2" d="M301.67,184.45a1.47,1.47,0,0,1,1.67-1.67h1.46V197a1.47,1.47,0,0,1-1.67,1.65h-1.46Z"/><path class="cls-2" d="M308,184.64a1.64,1.64,0,0,1,1.86-1.86h4.49a6.65,6.65,0,0,1,2.21.35,5.47,5.47,0,0,1,1.79,1,4.54,4.54,0,0,1,1.2,1.57,4.62,4.62,0,0,1,.45,2.06,4.45,4.45,0,0,1-.82,2.71,5,5,0,0,1-2.14,1.69l3.09,5.25a1.41,1.41,0,0,1,.23.66.79.79,0,0,1,0,.23q-.18.36-.81.36h-2.14l-3.43-6h-2.81V197a1.47,1.47,0,0,1-1.67,1.65H308Zm3.13,6a2.24,2.24,0,0,1,1.4-.42h1.27a5.69,5.69,0,0,0,1.18-.12,3.06,3.06,0,0,0,1-.4,2.42,2.42,0,0,0,.72-.74,2.26,2.26,0,0,0,.27-1.16,2.29,2.29,0,0,0-.27-1.16,2.35,2.35,0,0,0-.72-.75,3.08,3.08,0,0,0-1-.41,6.47,6.47,0,0,0-1.18-.11h-2.67Z"/><path class="cls-2" d="M211.18,244.2a2.9,2.9,0,0,1,.79-1.15,2,2,0,0,1,1.36-.42h2.43l8.65,22.23a1.65,1.65,0,0,1,.13.57.83.83,0,0,1-.16.52,1.29,1.29,0,0,1-1.06.41h-1.79l-2.6-6.79a3.83,3.83,0,0,1-2.14.64h-6.6l.61-1.82a1.5,1.5,0,0,1,.53-.69,1.59,1.59,0,0,1,1-.27h5.8l-4.48-11.75c-.07.42-.16.86-.27,1.29s-.27.88-.44,1.33l-6.47,16.91a1.65,1.65,0,0,1-1.66,1.15h-2.21Z"/><path class="cls-2" d="M228,244.3a1.47,1.47,0,0,1,1.66-1.67h1.73V264.7a1.48,1.48,0,0,1-1.7,1.66H228Z"/><path class="cls-2" d="M266.36,243.47a.93.93,0,0,1-1.06,1.05h-2.4V254h3.78v1.7a.94.94,0,0,1-1.06,1.06H258V262h11.21v1.73a.93.93,0,0,1-1.06,1.05H243.27V263a.93.93,0,0,1,1.06-1h10.15v-5.22H245.8v-1.7a.93.93,0,0,1,1.06-1.06h2.72v-9.48h-3.46v-1.69a.93.93,0,0,1,1.06-1.06h19.18ZM259.41,254v-9.48h-6.34V254Z"/><path class="cls-2" d="M295.36,256.66a.94.94,0,0,1-1.06,1.06h-7.05v4.57h11.21V264a.93.93,0,0,1-1,1.05H272.52v-1.73a.94.94,0,0,1,1.06-1.06h10.15v-4.57h-7.62V243.24a1.41,1.41,0,0,1,1.6-1.6h17.17v1.7a.94.94,0,0,1-1.06,1H279.6v3.91h15.12v1.57a.94.94,0,0,1-1.06,1.06H279.6v4h15.76Z"/><path class="cls-2" d="M315.08,259.19A1.18,1.18,0,0,1,314,260.5a26.37,26.37,0,0,1-3.31.47c-1.18.09-2.32.14-3.41.14h-4V243.37a1.41,1.41,0,0,1,1.61-1.57h1.82v16.52h1.57a35,35,0,0,0,6.82-.73Zm4.9,7.56a1.4,1.4,0,0,1-1.57,1.6h-1.79V251.41h-5.83v-1.73a.93.93,0,0,1,1.06-1.06h4.77v-6.21a1.41,1.41,0,0,1,1.6-1.6H320Zm6.25.32a1.42,1.42,0,0,1-1.61,1.6h-1.76V242.41a1.4,1.4,0,0,1,1.57-1.6h1.8Z"/><path class="cls-2" d="M346.74,242.73a12.57,12.57,0,0,1-.85,4.51,15,15,0,0,1-2.44,4.15,18,18,0,0,1-3.85,3.48,21.43,21.43,0,0,1-5.13,2.49,2.68,2.68,0,0,1-.86.16,1.48,1.48,0,0,1-1.35-.73l-.86-1.28a21.35,21.35,0,0,0,5.25-2.28,15.58,15.58,0,0,0,3.55-3h-7.84v-1.61a1,1,0,0,1,1.09-1.09H342a14.53,14.53,0,0,0,1.09-3.36H332.36v-1.63a1,1,0,0,1,1.09-1.09h13.29Zm9.19,25.68a1.56,1.56,0,0,1-1.41.9,2.06,2.06,0,0,1-.74-.13,17.38,17.38,0,0,1-2.18-.82,22.72,22.72,0,0,1-2.19-1.13,18.24,18.24,0,0,1-2-1.4,14.7,14.7,0,0,1-1.73-1.58,14.7,14.7,0,0,1-1.73,1.58,17,17,0,0,1-2,1.38,22.74,22.74,0,0,1-2.19,1.14,16.92,16.92,0,0,1-2.18.83,2,2,0,0,1-.73.13,1.56,1.56,0,0,1-1.41-.9l-.67-1.25a25.12,25.12,0,0,0,3.74-1.47,16.61,16.61,0,0,0,2.9-1.78,8.16,8.16,0,0,0,1.87-2,3.73,3.73,0,0,0,.68-2.08v-1.12a1.39,1.39,0,0,1,1.57-1.57h2v2.69a3.72,3.72,0,0,0,.67,2.08,8.36,8.36,0,0,0,1.87,2,17,17,0,0,0,2.9,1.78,24.83,24.83,0,0,0,3.75,1.47Zm-.77-10.69a1.41,1.41,0,0,1-1.6,1.57h-1.89V251h-5.51v-1.73c0-.68.35-1,1.06-1h4.45v-5.83a1.41,1.41,0,0,1,1.6-1.6h1.89Z"/><path class="cls-2" d="M147.05,240.23a9.65,9.65,0,1,0,9.65,9.65A9.65,9.65,0,0,0,147.05,240.23Z"/><path class="cls-2" d="M174.76,227.93H157.67l-3.62-6a1.32,1.32,0,0,0-1.13-.64H141.19a1.32,1.32,0,0,0-1.14.64l-3.62,6h-5.85v-1.31a2,2,0,0,0-2-2H122a2,2,0,0,0-2,2v1.31h-.81a4.71,4.71,0,0,0-4.71,4.71v34.47a4.7,4.7,0,0,0,4.71,4.71h55.51a4.71,4.71,0,0,0,4.71-4.71V232.64A4.71,4.71,0,0,0,174.76,227.93Zm-27.71,35.35a13.4,13.4,0,1,1,13.4-13.4A13.41,13.41,0,0,1,147.05,263.28Zm24.78-25.68h-6.11a1.78,1.78,0,1,1,0-3.55h6.11a1.78,1.78,0,1,1,0,3.55Z"/><rect class="cls-2" x="488.14" y="223.05" width="146.14" height="47" rx="23.5"/><path class="cls-1" d="M525.6,249.38a.7.7,0,0,1-.79.79h-5.95v4.12a1,1,0,0,1-1.18,1.18h-1.29v-5.3h-6.74V249a.7.7,0,0,1,.79-.79H525.6ZM511.89,240a1,1,0,0,1,1.18-1.18h10.29v6.09a1.39,1.39,0,0,1-1.57,1.57h-9.9Zm9,.7h-6.59v3.89h6.59Z"/><path class="cls-1" d="M534.61,240.15a.7.7,0,0,1-.79.79H532v2a10,10,0,0,0,.19,2.05,7.71,7.71,0,0,0,.57,1.78,8.27,8.27,0,0,0,1,1.62,14.14,14.14,0,0,0,1.48,1.58l-.65.63a1.17,1.17,0,0,1-.82.39,1,1,0,0,1-.71-.31,12.36,12.36,0,0,1-1.16-1.25,14.49,14.49,0,0,1-1-1.5,15.92,15.92,0,0,1-1.16,1.74,10.63,10.63,0,0,1-1.26,1.4,1,1,0,0,1-.74.31,1.26,1.26,0,0,1-.83-.35l-.68-.61a13.25,13.25,0,0,0,1.65-1.77,8.8,8.8,0,0,0,1-1.75,8,8,0,0,0,.53-1.87,15.16,15.16,0,0,0,.14-2.09v-2h-2.8v-1.1a.7.7,0,0,1,.78-.79h7.09Zm1.2-.59a1,1,0,0,1,1.2-1.17h1.15v15.7a1,1,0,0,1-1.17,1.18h-1.18V244.79h-2.54v-1.14a.7.7,0,0,1,.79-.79h1.75Zm3.37,0a1,1,0,0,1,1.18-1.17h1.18v15.9a1,1,0,0,1-1.18,1.18h-1.18Z"/><path class="cls-1" d="M553.89,240.72a.69.69,0,0,1-.78.79h-1.34a3.9,3.9,0,0,1,1,1.3,4,4,0,0,1,.38,1.78,4,4,0,0,1-.39,1.79,3.77,3.77,0,0,1-1,1.31,4.45,4.45,0,0,1-1.46.82,5.36,5.36,0,0,1-3.42,0,4.45,4.45,0,0,1-1.46-.82,3.77,3.77,0,0,1-1-1.31,4,4,0,0,1-.38-1.79,4,4,0,0,1,.37-1.78,3.9,3.9,0,0,1,1-1.3h-2.22v-1.06a.7.7,0,0,1,.79-.79h3.39v-1a.87.87,0,0,1,1-1h1.49v2h4.08Zm4.09,14a.7.7,0,0,1-.79.79H546.35v-4.22a1,1,0,0,1,1.18-1.18h1.26v3.47H558Zm-7.27-10.38a2.84,2.84,0,0,0-.6-2,2.1,2.1,0,0,0-3.08,0,3.45,3.45,0,0,0,0,3.89,2.1,2.1,0,0,0,3.08,0A2.82,2.82,0,0,0,550.71,244.3Zm9.43-.12a.7.7,0,0,1-.79.78h-1.67v5.13a1,1,0,0,1-1.18,1.18h-1.25V239.56a1,1,0,0,1,1.18-1.17h1.25V243h2.46Z"/><path class="cls-1" d="M574.18,244.32a5.9,5.9,0,0,1-.44,2.33,5,5,0,0,1-1.14,1.72,4.76,4.76,0,0,1-1.63,1,5.33,5.33,0,0,1-3.8,0,4.76,4.76,0,0,1-1.63-1,5,5,0,0,1-1.14-1.72,6.44,6.44,0,0,1,0-4.68,5,5,0,0,1,1.14-1.71,4.76,4.76,0,0,1,1.63-1,5.33,5.33,0,0,1,3.8,0,4.76,4.76,0,0,1,1.63,1,5,5,0,0,1,1.14,1.71A5.9,5.9,0,0,1,574.18,244.32Zm-2.44,0a4.08,4.08,0,0,0-.75-2.65,2.45,2.45,0,0,0-3.84,0,5.06,5.06,0,0,0,0,5.3,2.46,2.46,0,0,0,3.84,0A4.12,4.12,0,0,0,571.74,244.32Zm4.36-4.76a1,1,0,0,1,1.18-1.17h1.25v15.9a1,1,0,0,1-1.17,1.18H576.1Z"/><path class="cls-1" d="M596.83,247.63a.69.69,0,0,1-.78.79H580.89v-1.1a.7.7,0,0,1,.79-.79h3.2v-2.27a3.63,3.63,0,0,1-1.07-1.23,3.14,3.14,0,0,1-.37-1.5,3.09,3.09,0,0,1,.37-1.5,3.45,3.45,0,0,1,1.05-1.21,5.49,5.49,0,0,1,1.7-.82,9,9,0,0,1,4.61,0,5.72,5.72,0,0,1,1.7.82,3.45,3.45,0,0,1,1,1.21,3.19,3.19,0,0,1,.36,1.5,3.25,3.25,0,0,1-.36,1.5,3.74,3.74,0,0,1-1.07,1.23v2.27h4Zm-2.55,5.19a3.24,3.24,0,0,1-.36,1.49,3.48,3.48,0,0,1-1,1.22,5.48,5.48,0,0,1-1.7.81,8.72,8.72,0,0,1-4.61,0,5.27,5.27,0,0,1-1.7-.81,3.48,3.48,0,0,1-1.05-1.22,3.13,3.13,0,0,1-.37-1.49,3.09,3.09,0,0,1,.37-1.5,3.45,3.45,0,0,1,1.05-1.21,5.49,5.49,0,0,1,1.7-.82,9,9,0,0,1,4.61,0,5.72,5.72,0,0,1,1.7.82,3.45,3.45,0,0,1,1,1.21A3.19,3.19,0,0,1,594.28,252.82Zm-2.43-11.29a1.66,1.66,0,0,0-.79-1.39,3.74,3.74,0,0,0-2.2-.56,3.79,3.79,0,0,0-2.2.56,1.68,1.68,0,0,0-.78,1.39,1.65,1.65,0,0,0,.78,1.38,3.79,3.79,0,0,0,2.2.56,3.74,3.74,0,0,0,2.2-.56A1.63,1.63,0,0,0,591.85,241.53Zm0,11.29a1.66,1.66,0,0,0-.79-1.39,3.74,3.74,0,0,0-2.2-.56,3.79,3.79,0,0,0-2.2.56,1.68,1.68,0,0,0-.78,1.39,1.65,1.65,0,0,0,.78,1.38,3.71,3.71,0,0,0,2.2.56,3.67,3.67,0,0,0,2.2-.56A1.63,1.63,0,0,0,591.85,252.82Zm-1.48-6.29v-1.29a9.56,9.56,0,0,1-3,0v1.29Z"/><path class="cls-1" d="M597.82,245.61a.69.69,0,0,1,.78-.78h5.83c.25,0,.51,0,.77,0a13.48,13.48,0,0,0,.19-1.34c0-.43,0-.88,0-1.33v-1.61H599v-1.14a.7.7,0,0,1,.79-.79h8.09v3.34c0,.47,0,.92-.06,1.34a11.71,11.71,0,0,1-.21,1.35c.31,0,.62-.08.93-.14l.91-.17v1.06a.86.86,0,0,1-.79,1c-.62.1-1.29.19-2,.25s-1.43.11-2.18.14v1.91a.94.94,0,0,1-.29.68,1.2,1.2,0,0,1-.89.3H602v-2.85h-4.18Zm15.06,7.93v1.14a.7.7,0,0,1-.79.79h-11v-3.93a1,1,0,0,1,1.17-1.18h1.26v3.18Zm-2.73-14a1,1,0,0,1,1.18-1.17h1.25v12.09a1,1,0,0,1-1.18,1.18h-1.25v-2.08h-3.68v-1.14a.7.7,0,0,1,.79-.79h2.89Z"/><path class="cls-2" d="M111.39,312.06a.61.61,0,0,1,.69-.7h.72v9a1.43,1.43,0,0,1,.91-.27h4v.56c0,.39-.2.58-.6.58h-5.73Z"/><path class="cls-2" d="M121.41,321.43a3.61,3.61,0,0,1-1.45-.28,3.1,3.1,0,0,1-1.13-.78,3.61,3.61,0,0,1-.74-1.21,4.22,4.22,0,0,1-.27-1.54,4.17,4.17,0,0,1,.27-1.53,3.61,3.61,0,0,1,.74-1.21,3.25,3.25,0,0,1,1.13-.79,3.78,3.78,0,0,1,1.45-.28,3.6,3.6,0,0,1,1.44.29,3.26,3.26,0,0,1,1.11.79,3.51,3.51,0,0,1,.71,1.18,4.07,4.07,0,0,1,.24,1.5c0,.35-.19.52-.57.52h-5.09a3.14,3.14,0,0,0,.25.9,2.63,2.63,0,0,0,.45.7,2,2,0,0,0,.66.45,1.94,1.94,0,0,0,.8.16,3.49,3.49,0,0,0,1.16-.18,3.94,3.94,0,0,0,.94-.52.39.39,0,0,1,.28-.1.47.47,0,0,1,.36.16l.41.46a5,5,0,0,1-1.39,1A4.29,4.29,0,0,1,121.41,321.43Zm-2.19-4a1.46,1.46,0,0,1,.44-.29,1.61,1.61,0,0,1,.53-.1h3.26a2,2,0,0,0-.17-.81,2.06,2.06,0,0,0-.44-.66,2,2,0,0,0-1.43-.6,2,2,0,0,0-.84.18,2,2,0,0,0-.68.51,2.54,2.54,0,0,0-.47.78A3.41,3.41,0,0,0,119.22,317.41Z"/><path class="cls-2" d="M131.73,320.26a3,3,0,0,1-1,.87,3.19,3.19,0,0,1-1.42.3,3.42,3.42,0,0,1-1.39-.28,3.23,3.23,0,0,1-1.12-.78,3.78,3.78,0,0,1-.74-1.21,4,4,0,0,1-.28-1.54,4,4,0,0,1,.28-1.53,3.78,3.78,0,0,1,.74-1.21,3.4,3.4,0,0,1,1.12-.79,3.59,3.59,0,0,1,1.39-.28,3.19,3.19,0,0,1,1.42.31,2.84,2.84,0,0,1,1,.87v-.4a.53.53,0,0,1,.6-.59h.79v6.65c0,.39-.2.58-.6.58h-.79Zm-2.28,0a2,2,0,0,0,.93-.2,2.16,2.16,0,0,0,.72-.55,2.57,2.57,0,0,0,.46-.85,3.1,3.1,0,0,0,.17-1.08,3.14,3.14,0,0,0-.17-1.08,2.52,2.52,0,0,0-.46-.84,2.2,2.2,0,0,0-2.57-.55,2.17,2.17,0,0,0-.73.55,2.54,2.54,0,0,0-.47.84,3.4,3.4,0,0,0-.17,1.08,3.35,3.35,0,0,0,.17,1.08,2.59,2.59,0,0,0,.47.85,2.31,2.31,0,0,0,.73.55A2,2,0,0,0,129.45,320.3Z"/><path class="cls-2" d="M134.7,314.59a.52.52,0,0,1,.59-.59h.78v1.19a2.15,2.15,0,0,1,.91-1,2.49,2.49,0,0,1,.61-.26,2.41,2.41,0,0,1,.64-.09,3.2,3.2,0,0,1,.65.06,3.12,3.12,0,0,1,.43.1l-.2.84a.41.41,0,0,1-.17.27.51.51,0,0,1-.28.08l-.2,0-.24-.05a1.14,1.14,0,0,0-.28,0,2.19,2.19,0,0,0-.73.12,1.85,1.85,0,0,0-.59.35,1.59,1.59,0,0,0-.4.55,1.66,1.66,0,0,0-.15.72v3.86c0,.39-.2.58-.6.58h-.77Z"/><path class="cls-2" d="M144.85,316.8a1.92,1.92,0,0,0-.44-1.34,1.56,1.56,0,0,0-1.24-.5,1.94,1.94,0,0,0-.78.15,1.69,1.69,0,0,0-.57.42,2,2,0,0,0-.36.58,1.84,1.84,0,0,0-.12.66v3.88c0,.39-.2.58-.6.58H140v-6.64a.52.52,0,0,1,.59-.59h.79v1a2.43,2.43,0,0,1,1-.9,2.84,2.84,0,0,1,1.33-.32,2.73,2.73,0,0,1,1.1.22,2.29,2.29,0,0,1,.81.59,2.64,2.64,0,0,1,.51.92,4.07,4.07,0,0,1,.17,1.19v3.92c0,.39-.2.58-.6.58h-.79Z"/><path class="cls-2" d="M148.72,312.91a.88.88,0,0,1-.65-.24.91.91,0,0,1,0-1.25,1,1,0,0,1,1.29,0,.91.91,0,0,1,0,1.25A.88.88,0,0,1,148.72,312.91Zm-.7,1.8a.53.53,0,0,1,.59-.6h.79v6.54c0,.39-.2.58-.6.58H148Z"/><path class="cls-2" d="M156.08,316.8a1.92,1.92,0,0,0-.44-1.34,1.56,1.56,0,0,0-1.24-.5,1.86,1.86,0,0,0-.77.15,1.63,1.63,0,0,0-.58.42,2,2,0,0,0-.36.58,1.84,1.84,0,0,0-.12.66v3.88c0,.39-.2.58-.6.58h-.78v-6.64a.52.52,0,0,1,.59-.59h.79v1a2.43,2.43,0,0,1,1-.9,2.85,2.85,0,0,1,1.34-.32A2.72,2.72,0,0,1,156,314a2.29,2.29,0,0,1,.81.59,2.64,2.64,0,0,1,.51.92,4.07,4.07,0,0,1,.17,1.19v3.92c0,.39-.2.58-.6.58h-.79Z"/><path class="cls-2" d="M162,321.17a3.37,3.37,0,0,1-2.44-1,3.61,3.61,0,0,1-.7-1.17,4.18,4.18,0,0,1-.26-1.48,4.1,4.1,0,0,1,.26-1.48,3.46,3.46,0,0,1,.7-1.16,3.16,3.16,0,0,1,1.08-.76,3.41,3.41,0,0,1,1.36-.28,3.18,3.18,0,0,1,1.41.31,3.13,3.13,0,0,1,1,.85v-.38a.53.53,0,0,1,.6-.59h.79v7.17a3.3,3.3,0,0,1-.25,1.29,2.78,2.78,0,0,1-.71,1,3,3,0,0,1-1.12.62,4.83,4.83,0,0,1-1.47.21,4.43,4.43,0,0,1-1.92-.41,5.24,5.24,0,0,1-1.53-1.13l.41-.44a.56.56,0,0,1,.4-.19.41.41,0,0,1,.3.12,3.84,3.84,0,0,0,1,.66,3.28,3.28,0,0,0,1.3.26,2.3,2.3,0,0,0,1.57-.51,1.81,1.81,0,0,0,.59-1.46V320a2.93,2.93,0,0,1-1,.86A3.18,3.18,0,0,1,162,321.17Zm.23-1.13a2.2,2.2,0,0,0,.9-.19,2.13,2.13,0,0,0,.7-.53,2.49,2.49,0,0,0,.45-.8,3.09,3.09,0,0,0,.16-1,3.13,3.13,0,0,0-.16-1,2.6,2.6,0,0,0-.45-.8,2.13,2.13,0,0,0-.7-.53,2.34,2.34,0,0,0-1.8,0,2,2,0,0,0-.7.53,2.43,2.43,0,0,0-.46.8,3.13,3.13,0,0,0-.17,1,3.09,3.09,0,0,0,.17,1,2.33,2.33,0,0,0,.46.8,2,2,0,0,0,.7.53A2.2,2.2,0,0,0,162.24,320Z"/><path class="cls-2" d="M175.12,321.5a5.18,5.18,0,0,1-2-.37,4.65,4.65,0,0,1-2.64-2.69,6.22,6.22,0,0,1,0-4.28,4.72,4.72,0,0,1,1-1.64,4.62,4.62,0,0,1,1.59-1,5.18,5.18,0,0,1,2-.37,4.25,4.25,0,0,1,3.84,2l-.6.4a.65.65,0,0,1-.36.12.47.47,0,0,1-.39-.2,3.06,3.06,0,0,0-1.09-.86,3.24,3.24,0,0,0-1.4-.28,3.53,3.53,0,0,0-1.42.28,3.46,3.46,0,0,0-1.14.82,3.86,3.86,0,0,0-.75,1.28,5.21,5.21,0,0,0,0,3.31,3.86,3.86,0,0,0,.75,1.28,3.46,3.46,0,0,0,1.14.82,3.53,3.53,0,0,0,1.42.28,3.37,3.37,0,0,0,1.44-.3,3.5,3.5,0,0,0,1.14-.91.47.47,0,0,1,.4-.19.68.68,0,0,1,.34.11l.61.39a5.46,5.46,0,0,1-1.7,1.55A4.56,4.56,0,0,1,175.12,321.5Z"/><path class="cls-2" d="M182.82,321.43a3.64,3.64,0,0,1-1.45-.28,3.18,3.18,0,0,1-1.13-.78,3.78,3.78,0,0,1-.74-1.21,4.44,4.44,0,0,1-.26-1.54,4.38,4.38,0,0,1,.26-1.53,3.78,3.78,0,0,1,.74-1.21,3.34,3.34,0,0,1,1.13-.79,3.82,3.82,0,0,1,1.45-.28,3.6,3.6,0,0,1,1.44.29,3.26,3.26,0,0,1,1.11.79,3.36,3.36,0,0,1,.71,1.18,4.07,4.07,0,0,1,.24,1.5c0,.35-.19.52-.57.52h-5.09a3.5,3.5,0,0,0,.25.9,2.43,2.43,0,0,0,.46.7,1.85,1.85,0,0,0,.65.45,2,2,0,0,0,.8.16,3.45,3.45,0,0,0,1.16-.18,4,4,0,0,0,1-.52.36.36,0,0,1,.27-.1.44.44,0,0,1,.36.16l.42.46a5,5,0,0,1-1.4,1A4.29,4.29,0,0,1,182.82,321.43Zm-2.18-4a1.42,1.42,0,0,1,.43-.29,1.62,1.62,0,0,1,.54-.1h3.25a2,2,0,0,0-.17-.81,2.06,2.06,0,0,0-.44-.66,1.79,1.79,0,0,0-.64-.44,1.89,1.89,0,0,0-.79-.16,2,2,0,0,0-.84.18,2.1,2.1,0,0,0-.68.51,2.51,2.51,0,0,0-.46.78A2.86,2.86,0,0,0,180.64,317.41Z"/><path class="cls-2" d="M192.44,316.8a2,2,0,0,0-.44-1.34,1.58,1.58,0,0,0-1.24-.5,1.94,1.94,0,0,0-.78.15,1.51,1.51,0,0,0-.57.42,1.89,1.89,0,0,0-.49,1.24v3.88c0,.39-.2.58-.6.58h-.77v-6.64a.52.52,0,0,1,.59-.59h.78v1a2.57,2.57,0,0,1,1-.9,2.85,2.85,0,0,1,1.34-.32,2.68,2.68,0,0,1,1.09.22,2.29,2.29,0,0,1,.81.59,2.49,2.49,0,0,1,.51.92,3.76,3.76,0,0,1,.17,1.19v3.92c0,.39-.2.58-.6.58h-.78Z"/><path class="cls-2" d="M194.52,314.51a.44.44,0,0,1,.5-.51h.83v-1.68c0-.39.2-.58.6-.58h.78V314h2.22v.65a.45.45,0,0,1-.51.51h-1.71v4.22a1,1,0,0,0,.22.71.82.82,0,0,0,.61.23,1,1,0,0,0,.41-.1,3.55,3.55,0,0,0,.39-.2.56.56,0,0,1,.23-.06.43.43,0,0,1,.38.26l.28.49a3.38,3.38,0,0,1-.87.54,2.58,2.58,0,0,1-1,.18,2.21,2.21,0,0,1-1.5-.48,1.92,1.92,0,0,1-.56-1.51v-4.28h-1.33Z"/><path class="cls-2" d="M203.72,321.43a3.59,3.59,0,0,1-1.44-.28,3.22,3.22,0,0,1-1.14-.78,3.78,3.78,0,0,1-.74-1.21,4.44,4.44,0,0,1-.26-1.54,4.38,4.38,0,0,1,.26-1.53,3.78,3.78,0,0,1,.74-1.21,3.38,3.38,0,0,1,1.14-.79,3.77,3.77,0,0,1,1.44-.28,3.56,3.56,0,0,1,1.44.29,3.08,3.08,0,0,1,1.11.79,3.53,3.53,0,0,1,.72,1.18,4.29,4.29,0,0,1,.23,1.5c0,.35-.19.52-.57.52h-5.09a3.5,3.5,0,0,0,.25.9,2.43,2.43,0,0,0,.46.7,2,2,0,0,0,.65.45,2,2,0,0,0,.8.16,3.45,3.45,0,0,0,1.16-.18,4,4,0,0,0,1-.52.37.37,0,0,1,.28-.1.47.47,0,0,1,.36.16l.41.46a5,5,0,0,1-1.4,1A4.25,4.25,0,0,1,203.72,321.43Zm-2.18-4a1.35,1.35,0,0,1,.44-.29,1.51,1.51,0,0,1,.53-.1h3.25a2,2,0,0,0-.17-.81,1.91,1.91,0,0,0-.44-.66,1.79,1.79,0,0,0-.64-.44,1.86,1.86,0,0,0-.79-.16,2,2,0,0,0-.84.18,2.1,2.1,0,0,0-.68.51,2.51,2.51,0,0,0-.46.78A2.86,2.86,0,0,0,201.54,317.41Z"/><path class="cls-2" d="M208.45,314.59A.52.52,0,0,1,209,314h.78v1.19a2.15,2.15,0,0,1,.91-1,2.34,2.34,0,0,1,.61-.26,2.41,2.41,0,0,1,.64-.09,3.2,3.2,0,0,1,.65.06,3.12,3.12,0,0,1,.43.1l-.2.84a.41.41,0,0,1-.17.27.54.54,0,0,1-.28.08l-.2,0-.24-.05a1.14,1.14,0,0,0-.28,0,2.19,2.19,0,0,0-.73.12,1.85,1.85,0,0,0-.59.35,1.59,1.59,0,0,0-.4.55,1.66,1.66,0,0,0-.15.72v3.86c0,.39-.2.58-.6.58h-.77Z"/><path class="cls-2" d="M223.49,318.48a3.12,3.12,0,0,1-.24,1.22,2.75,2.75,0,0,1-.68,1,3.17,3.17,0,0,1-1.06.66,4,4,0,0,1-1.42.24,3.38,3.38,0,0,1-2.09-.65,4.24,4.24,0,0,1-1.32-1.68l.67-.3a.76.76,0,0,1,.27-.05.47.47,0,0,1,.44.24,2.81,2.81,0,0,0,.84.94,2,2,0,0,0,1.19.37,2.22,2.22,0,0,0,.85-.16,1.84,1.84,0,0,0,.61-.44,1.89,1.89,0,0,0,.38-.62,2.34,2.34,0,0,0,.12-.74,1.84,1.84,0,0,0-.18-.83,1.91,1.91,0,0,0-.48-.61,2.09,2.09,0,0,0-.67-.37,2.28,2.28,0,0,0-.77-.14H219v-.6a.48.48,0,0,1,.54-.54h.35a1.93,1.93,0,0,0,.69-.13,1.77,1.77,0,0,0,.56-.35,1.6,1.6,0,0,0,.51-1.2,1.47,1.47,0,0,0-.43-1.13,1.73,1.73,0,0,0-1.22-.4,1.68,1.68,0,0,0-1,.31,2.42,2.42,0,0,0-.75.88.52.52,0,0,1-.19.22.54.54,0,0,1-.25.06.83.83,0,0,1-.27-.06l-.66-.31a3.83,3.83,0,0,1,1.29-1.68,3.17,3.17,0,0,1,1.86-.56,3.81,3.81,0,0,1,1.32.21,3,3,0,0,1,1,.56,2.22,2.22,0,0,1,.59.83,2.7,2.7,0,0,1,.2,1,2.16,2.16,0,0,1-.1.66,2.42,2.42,0,0,1-.27.64,2.35,2.35,0,0,1-.49.56,2.61,2.61,0,0,1-.71.42,2.36,2.36,0,0,1,.8.38,2.85,2.85,0,0,1,.61.59,2.77,2.77,0,0,1,.39.74A2.57,2.57,0,0,1,223.49,318.48Z"/><path class="cls-2" d="M231,316.31a9.06,9.06,0,0,1-.26,2.26,4.81,4.81,0,0,1-.71,1.65,3,3,0,0,1-1.1,1,3.19,3.19,0,0,1-1.45.34,3.12,3.12,0,0,1-1.44-.34,3,3,0,0,1-1.11-1,5,5,0,0,1-.71-1.65,10.86,10.86,0,0,1,0-4.54,5,5,0,0,1,.71-1.64,3,3,0,0,1,1.11-1,3.12,3.12,0,0,1,1.44-.34,3.19,3.19,0,0,1,1.45.34,3,3,0,0,1,1.1,1,4.84,4.84,0,0,1,.71,1.64A9.11,9.11,0,0,1,231,316.31Zm-1.44,0a6.73,6.73,0,0,0-.56-3.06,1.62,1.62,0,0,0-3,0,8.47,8.47,0,0,0,0,6.11,1.62,1.62,0,0,0,3,0A6.71,6.71,0,0,0,229.54,316.31Z"/><path class="cls-2" d="M235.88,320.67a.62.62,0,0,1-.71.7h-.7V313l-1.19.84a.48.48,0,0,1-.29.1.44.44,0,0,1-.37-.2l-.52-.62,2.17-1.57a1,1,0,0,1,.37-.2,1.46,1.46,0,0,1,.44-.06h.8Z"/><path class="cls-2" d="M240.88,320.79a2.31,2.31,0,0,1-.07.5,1.86,1.86,0,0,1-.19.5l-.54,1.08a.48.48,0,0,1-.2.22.61.61,0,0,1-.3.08H239l.7-1.46a.87.87,0,0,1-.81-.88.93.93,0,0,1,.27-.69,1,1,0,0,1,.73-.28,1,1,0,0,1,.71.26A.86.86,0,0,1,240.88,320.79Z"/><path class="cls-2" d="M250.73,318.48a3.12,3.12,0,0,1-.24,1.22,2.75,2.75,0,0,1-.68,1,3.08,3.08,0,0,1-1.06.66,3.93,3.93,0,0,1-1.41.24,3.34,3.34,0,0,1-2.09-.65,4.24,4.24,0,0,1-1.32-1.68l.66-.3a.76.76,0,0,1,.27-.05.47.47,0,0,1,.44.24,2.81,2.81,0,0,0,.84.94,2,2,0,0,0,1.2.37,2.17,2.17,0,0,0,.84-.16,1.88,1.88,0,0,0,.62-.44,2,2,0,0,0,.37-.62,2.35,2.35,0,0,0,.13-.74,1.85,1.85,0,0,0-.19-.83,1.76,1.76,0,0,0-.47-.61,2.14,2.14,0,0,0-.68-.37,2.23,2.23,0,0,0-.77-.14h-.92v-.6a.48.48,0,0,1,.55-.54h.34a2,2,0,0,0,.7-.13,1.89,1.89,0,0,0,.56-.35,1.64,1.64,0,0,0,.5-1.2,1.47,1.47,0,0,0-.43-1.13,1.73,1.73,0,0,0-1.22-.4,1.68,1.68,0,0,0-1,.31,2.52,2.52,0,0,0-.75.88.46.46,0,0,1-.19.22.51.51,0,0,1-.25.06.73.73,0,0,1-.26-.06l-.67-.31a3.83,3.83,0,0,1,1.29-1.68,3.2,3.2,0,0,1,1.87-.56,3.79,3.79,0,0,1,1.31.21,2.83,2.83,0,0,1,1,.56,2.22,2.22,0,0,1,.59.83,2.7,2.7,0,0,1,.2,1,2.5,2.5,0,0,1-.09.66,2.44,2.44,0,0,1-.28.64,2.35,2.35,0,0,1-.49.56,2.61,2.61,0,0,1-.71.42,2.36,2.36,0,0,1,.8.38,2.85,2.85,0,0,1,.61.59,2.77,2.77,0,0,1,.39.74A2.32,2.32,0,0,1,250.73,318.48Z"/><path class="cls-2" d="M258.22,316.31a9.08,9.08,0,0,1-.25,2.26,5.23,5.23,0,0,1-.71,1.65,3.07,3.07,0,0,1-5.11,0,5,5,0,0,1-.7-1.65,10.43,10.43,0,0,1,0-4.54,5,5,0,0,1,.7-1.64,3.07,3.07,0,0,1,5.11,0A5.27,5.27,0,0,1,258,314,9.14,9.14,0,0,1,258.22,316.31Zm-1.44,0a6.6,6.6,0,0,0-.56-3.06,1.62,1.62,0,0,0-3,0,8.61,8.61,0,0,0,0,6.11,1.62,1.62,0,0,0,3,0A6.58,6.58,0,0,0,256.78,316.31Z"/><path class="cls-2" d="M265.28,320.65c0,.39-.2.58-.6.58h-6.13v-.49a1.14,1.14,0,0,1,.32-.76l3.21-3.41a6.88,6.88,0,0,0,1.05-1.37,2.72,2.72,0,0,0,.37-1.32,1.71,1.71,0,0,0-.44-1.22,1.57,1.57,0,0,0-1.19-.46,1.72,1.72,0,0,0-.68.13,1.87,1.87,0,0,0-.57.35,2,2,0,0,0-.43.55,2.63,2.63,0,0,0-.24.7.46.46,0,0,1-.2.34.62.62,0,0,1-.37.09l-.76-.05a4.12,4.12,0,0,1,.31-1.43,2.89,2.89,0,0,1,.7-1,2.79,2.79,0,0,1,1-.61,3.77,3.77,0,0,1,2.48,0,2.71,2.71,0,0,1,1,.58,2.48,2.48,0,0,1,.61.89,2.89,2.89,0,0,1,.22,1.16,3.46,3.46,0,0,1-.45,1.67,7.76,7.76,0,0,1-1.28,1.71l-2.82,2.94a.44.44,0,0,1,.19-.05,3,3,0,0,1,.31,0l.32,0h4.1Z"/><path class="cls-2" d="M271.56,313a5.09,5.09,0,0,1,1.53.22,3.4,3.4,0,0,1,1.14.58,2.57,2.57,0,0,1,.7.85,2.29,2.29,0,0,1,.24,1,2.41,2.41,0,0,1-.19.93,2.54,2.54,0,0,1-.55.8,3.32,3.32,0,0,1-.91.59,4.43,4.43,0,0,1-1.23.33v1.32H277v.72a.39.39,0,0,1-.44.44H266.16v-.72a.39.39,0,0,1,.44-.44h4.22v-1.32a4.43,4.43,0,0,1-1.23-.33,3.32,3.32,0,0,1-.91-.59,2.54,2.54,0,0,1-.55-.8,2.45,2.45,0,0,1,.05-2,2.7,2.7,0,0,1,.7-.85,3.4,3.4,0,0,1,1.14-.58A5.15,5.15,0,0,1,271.56,313Zm4.3-.79c0,.28-.15.42-.44.42h-8.17V312a.39.39,0,0,1,.44-.44h3.13v-.81a.49.49,0,0,1,.56-.56h.91v1.37h3.57Zm-4.3,1.93a2.54,2.54,0,0,0-1.6.44,1.35,1.35,0,0,0-.56,1.1,1.33,1.33,0,0,0,.56,1.11,3.05,3.05,0,0,0,3.19,0,1.33,1.33,0,0,0,.56-1.11,1.35,1.35,0,0,0-.56-1.1A2.53,2.53,0,0,0,271.56,314.15Z"/><path class="cls-2" d="M285.66,321.39a.59.59,0,0,1-.66.67h-.75v-6.89h-.93a4.18,4.18,0,0,1-.34,1.35,3.39,3.39,0,0,1-.67,1,2.82,2.82,0,0,1-.92.6,2.84,2.84,0,0,1-2.19,0,2.83,2.83,0,0,1-1-.7,3.23,3.23,0,0,1-.67-1.13,4.58,4.58,0,0,1-.25-1.55,4.64,4.64,0,0,1,.25-1.56,3.37,3.37,0,0,1,.67-1.14,2.93,2.93,0,0,1,1-.69,2.72,2.72,0,0,1,1.13-.23,2.78,2.78,0,0,1,1.94.76,3.08,3.08,0,0,1,.67.92,4.29,4.29,0,0,1,.37,1.27h.94v-2.74a.6.6,0,0,1,.68-.67h.73Zm-3.73-6.71a3.28,3.28,0,0,0-.44-1.85,1.37,1.37,0,0,0-2.31,0,4.13,4.13,0,0,0,0,3.71,1.37,1.37,0,0,0,2.31,0A3.27,3.27,0,0,0,281.93,314.68Zm5.94,6.85a.58.58,0,0,1-.66.66h-.73V311.27a.58.58,0,0,1,.65-.67h.74Z"/><path class="cls-2" d="M296,318.94a.6.6,0,0,1-.46.24.71.71,0,0,1-.43-.17,11.85,11.85,0,0,1-1.41-1.34,9.49,9.49,0,0,1-1.12-1.51,10.41,10.41,0,0,1-1.17,1.72,9.92,9.92,0,0,1-1.43,1.4.69.69,0,0,1-.42.17.68.68,0,0,1-.47-.23l-.44-.42a9.06,9.06,0,0,0,2.32-2.59,6.12,6.12,0,0,0,.83-3.09v-1.58a.58.58,0,0,1,.65-.66h.81v2.24A5.45,5.45,0,0,0,294,316a7.21,7.21,0,0,0,1,1.26,14.78,14.78,0,0,0,1.34,1.22Zm3,2.59a.59.59,0,0,1-.67.66h-.78v-7.42h-2.63v-.72c0-.28.15-.42.44-.42h2.19v-2.36a.59.59,0,0,1,.66-.67H299Z"/><path class="cls-2" d="M309.84,318.89a.62.62,0,0,1-.46.24A.69.69,0,0,1,309,319a11.85,11.85,0,0,1-1.41-1.34,9.33,9.33,0,0,1-1.12-1.51,10.85,10.85,0,0,1-1.17,1.72,9.84,9.84,0,0,1-1.43,1.39.66.66,0,0,1-.43.19.69.69,0,0,1-.48-.24l-.42-.43a8.94,8.94,0,0,0,2.32-2.59,6,6,0,0,0,.82-3.08v-1.53a.58.58,0,0,1,.66-.66h.81v2.19a5.7,5.7,0,0,0,.2,1.52,5.58,5.58,0,0,0,.61,1.37,8,8,0,0,0,1,1.26,16.41,16.41,0,0,0,1.34,1.22Zm4.55-3.89a.39.39,0,0,1-.45.43h-1.5v6.1a.59.59,0,0,1-.67.66H311V311.27a.59.59,0,0,1,.66-.67h.79v3.68h1.95Z"/><path class="cls-2" d="M319.89,310.14a5.58,5.58,0,0,1,1.54.2,3.74,3.74,0,0,1,1.15.56,2.28,2.28,0,0,1,.7.82,2.17,2.17,0,0,1,.24,1,2.26,2.26,0,0,1-.25,1,2.3,2.3,0,0,1-.76.83v1.63h2.77v.69a.39.39,0,0,1-.44.44H314.49v-.69a.39.39,0,0,1,.44-.44h2.33V314.6a2.3,2.3,0,0,1-.76-.83,2.26,2.26,0,0,1-.25-1,2.17,2.17,0,0,1,.24-1,2.31,2.31,0,0,1,.71-.82,3.79,3.79,0,0,1,1.14-.56A5.6,5.6,0,0,1,319.89,310.14Zm3.63,10.28a2.14,2.14,0,0,1-.24,1,2.46,2.46,0,0,1-.7.82,3.33,3.33,0,0,1-1.15.55,6.07,6.07,0,0,1-3.09,0,3.36,3.36,0,0,1-1.14-.55,2.49,2.49,0,0,1-.71-.82,2.14,2.14,0,0,1-.24-1,2.17,2.17,0,0,1,.24-1,2.49,2.49,0,0,1,.71-.82,3.56,3.56,0,0,1,1.14-.55,6.07,6.07,0,0,1,3.09,0,3.52,3.52,0,0,1,1.15.55,2.46,2.46,0,0,1,.7.82A2.17,2.17,0,0,1,323.52,320.42Zm-1.45-7.7a1.24,1.24,0,0,0-.57-1,2.68,2.68,0,0,0-1.61-.42,2.71,2.71,0,0,0-1.62.42,1.21,1.21,0,0,0,0,2.05,2.71,2.71,0,0,0,1.62.42,2.68,2.68,0,0,0,1.61-.42A1.24,1.24,0,0,0,322.07,312.72Zm0,7.7a1.24,1.24,0,0,0-.57-1,2.68,2.68,0,0,0-1.61-.42,2.71,2.71,0,0,0-1.62.42,1.24,1.24,0,0,0-.57,1,1.21,1.21,0,0,0,.57,1,2.71,2.71,0,0,0,1.62.42,2.68,2.68,0,0,0,1.61-.42A1.21,1.21,0,0,0,322.07,320.42Zm-1-4.19v-1a5,5,0,0,1-.56.08,6.12,6.12,0,0,1-1.21,0,4.85,4.85,0,0,1-.55-.08v1Z"/><path class="cls-2" d="M334.87,311.8a6.94,6.94,0,0,1-.4,2.37,8.39,8.39,0,0,1-1.09,2.1,9.82,9.82,0,0,1-1.63,1.79,13.41,13.41,0,0,1-2,1.46.8.8,0,0,1-.4.12.7.7,0,0,1-.52-.28l-.41-.5a11,11,0,0,0,1.85-1.16,9.49,9.49,0,0,0,1.58-1.52,7.8,7.8,0,0,0,1.1-1.84,6,6,0,0,0,.46-2.11h-4.59v-.71a.4.4,0,0,1,.45-.45h5.63Zm4.88,3.75c0,.28-.15.42-.44.42H337.8v5.56a.58.58,0,0,1-.66.66h-.79V311.27a.59.59,0,0,1,.67-.67h.78v4.23h1.95Z"/><path class="cls-2" d="M350.65,316.58a.39.39,0,0,1-.44.44H339.86v-.7a.39.39,0,0,1,.44-.44h10.35Zm-1.3-2.18a.39.39,0,0,1-.44.44h-7.56v-3.49a.59.59,0,0,1,.66-.67h.79v3h6.55Zm-.46,6a2.17,2.17,0,0,1-.24,1,2.31,2.31,0,0,1-.71.82,3.79,3.79,0,0,1-1.14.56,5.66,5.66,0,0,1-1.55.2,5.53,5.53,0,0,1-1.54-.2,3.74,3.74,0,0,1-1.15-.56,2.31,2.31,0,0,1-.71-.82,2.22,2.22,0,0,1,0-2,2.31,2.31,0,0,1,.71-.82,3.52,3.52,0,0,1,1.15-.56,5.53,5.53,0,0,1,1.54-.2,5.66,5.66,0,0,1,1.55.2,3.57,3.57,0,0,1,1.14.56,2.31,2.31,0,0,1,.71.82A2.15,2.15,0,0,1,348.89,320.41Zm-1.45,0a1.13,1.13,0,0,0-.15-.57,1.55,1.55,0,0,0-.43-.46,2.25,2.25,0,0,0-.68-.31,3.3,3.3,0,0,0-.93-.11,3.34,3.34,0,0,0-.93.11,2.37,2.37,0,0,0-.68.31,1.55,1.55,0,0,0-.43.46,1.12,1.12,0,0,0-.14.57,1.24,1.24,0,0,0,.57,1,3.3,3.3,0,0,0,3.22,0A1.25,1.25,0,0,0,347.44,320.41Z"/><line class="cls-3" x1="110.89" y1="298.17" x2="640.68" y2="298.17"/></g></svg>