<svg xmlns="http://www.w3.org/2000/svg" viewBox="0 0 750 500"><defs><style>.cls-1{fill:#ba6fa9;}.cls-2{fill:#fff;}.cls-3{fill:none;stroke:#fff;stroke-miterlimit:10;opacity:0.25;}</style></defs><g id="레이어_5" data-name="레이어 5"><path class="cls-1" d="M678.81,346.51c.74,0,1.45.05,2.15.1V153.39c-.7.05-1.41.1-2.15.1-7.75,0-14-2.93-14-6.54H646.08c0,3.61-6.29,6.54-14.05,6.54s-14-2.93-14-6.54H599.29c0,3.61-6.29,6.54-14,6.54s-14-2.93-14-6.54H552.51c0,3.61-6.29,6.54-14,6.54s-14.05-2.93-14.05-6.54H505.72c0,3.61-6.29,6.54-14,6.54s-14.05-2.93-14.05-6.54H458.94c0,3.61-6.29,6.54-14.05,6.54s-14.05-2.93-14.05-6.54H412.15c0,3.61-6.29,6.54-14,6.54s-14.05-2.93-14.05-6.54H365.37c0,3.61-6.29,6.54-14.05,6.54s-14.05-2.93-14.05-6.54H318.59c0,3.61-6.29,6.54-14,6.54s-14.05-2.93-14.05-6.54H271.8c0,3.61-6.29,6.54-14.05,6.54S243.7,150.56,243.7,147H225c0,3.61-6.29,6.54-14.05,6.54s-14.05-2.93-14.05-6.54H178.23c0,3.61-6.29,6.54-14,6.54s-14.05-2.93-14.05-6.54H131.45c0,3.61-6.29,6.54-14,6.54s-14.05-2.93-14.05-6.54H84.66c0,3.61-6.29,6.54-14,6.54v193c7.76,0,14,2.92,14,6.54h18.69c0-3.62,6.29-6.54,14.05-6.54s14,2.92,14,6.54h18.68c0-3.62,6.29-6.54,14.05-6.54s14,2.92,14,6.54h18.69c0-3.62,6.29-6.54,14.05-6.54S225,349.43,225,353.05H243.7c0-3.62,6.29-6.54,14.05-6.54s14.05,2.92,14.05,6.54h18.69c0-3.62,6.29-6.54,14.05-6.54s14,2.92,14,6.54h18.68c0-3.62,6.29-6.54,14.05-6.54s14.05,2.92,14.05,6.54h18.69c0-3.62,6.29-6.54,14.05-6.54s14,2.92,14,6.54h18.69c0-3.62,6.29-6.54,14.05-6.54s14.05,2.92,14.05,6.54h18.69c0-3.62,6.29-6.54,14.05-6.54s14,2.92,14,6.54h18.69c0-3.62,6.29-6.54,14.05-6.54s14,2.92,14,6.54H571.2c0-3.62,6.29-6.54,14-6.54s14,2.92,14,6.54H618c0-3.62,6.29-6.54,14-6.54s14.05,2.92,14.05,6.54h18.69C664.77,349.43,671.06,346.51,678.81,346.51Z"/><path class="cls-2" d="M114.33,185.66a1.91,1.91,0,0,1-1.14.72,1.47,1.47,0,0,1-1.31-.49l-.66-.61a6.29,6.29,0,0,1,3.65-3.18,5.39,5.39,0,0,1,1.69-.28,6.41,6.41,0,0,1,4.18,1.25,4.85,4.85,0,0,1,1.66,3.58,6.11,6.11,0,0,1-.59,2.94,15.82,15.82,0,0,1-1.87,2.95l-3.49,4.63h6.88v1a1.83,1.83,0,0,1-.55,1.33,1.88,1.88,0,0,1-1.4.55h-9.82v-.65a2.63,2.63,0,0,1,.33-1.31,9.38,9.38,0,0,1,.69-1l5-6.69a7.37,7.37,0,0,0,1.08-2,3.92,3.92,0,0,0,.3-1.79,2.28,2.28,0,0,0-.73-1.49,2.25,2.25,0,0,0-1.6-.6,3.07,3.07,0,0,0-1.21.26A2.85,2.85,0,0,0,114.33,185.66Z"/><path class="cls-2" d="M131.29,181.82a5.36,5.36,0,0,1,4.68,2.34q1.6,2.34,1.6,7.11c0,3.19-.53,5.56-1.59,7.13a5.86,5.86,0,0,1-9.39,0c-1.06-1.57-1.59-3.94-1.59-7.13s.53-5.55,1.6-7.11A5.33,5.33,0,0,1,131.29,181.82Zm0,16.22a2.11,2.11,0,0,0,1.4-.48,3.39,3.39,0,0,0,1-1.36,8.72,8.72,0,0,0,.53-2.13,23.42,23.42,0,0,0,.15-2.8,23.66,23.66,0,0,0-.15-2.8,8.72,8.72,0,0,0-.53-2.13,3.38,3.38,0,0,0-1-1.34,2.15,2.15,0,0,0-1.4-.46,2.11,2.11,0,0,0-1.38.46,3.22,3.22,0,0,0-.92,1.34,9.22,9.22,0,0,0-.52,2.13,21.48,21.48,0,0,0-.17,2.8,21.26,21.26,0,0,0,.17,2.8,9.22,9.22,0,0,0,.52,2.13,3.24,3.24,0,0,0,.92,1.36A2.07,2.07,0,0,0,131.27,198Z"/><path class="cls-2" d="M142.1,185.66a1.91,1.91,0,0,1-1.14.72,1.47,1.47,0,0,1-1.31-.49l-.66-.61a6.64,6.64,0,0,1,.89-1.34,6.53,6.53,0,0,1,1.25-1.1,6.42,6.42,0,0,1,1.51-.74,5.39,5.39,0,0,1,1.69-.28,6.39,6.39,0,0,1,4.18,1.25,4.82,4.82,0,0,1,1.66,3.58,6,6,0,0,1-.59,2.94,15.32,15.32,0,0,1-1.87,2.95l-3.49,4.63h6.88v1a1.79,1.79,0,0,1-.55,1.33,1.88,1.88,0,0,1-1.4.55h-9.82v-.65a2.63,2.63,0,0,1,.33-1.31,9.38,9.38,0,0,1,.69-1l5.06-6.69a8,8,0,0,0,1.08-2,4,4,0,0,0,.29-1.79,2.28,2.28,0,0,0-2.33-2.09,3.11,3.11,0,0,0-1.21.26A2.92,2.92,0,0,0,142.1,185.66Z"/><path class="cls-2" d="M158.28,189.06a5.32,5.32,0,0,1,1.29-.17,6,6,0,0,1,4.16,1.67,5.72,5.72,0,0,1,1.72,4.16,6,6,0,0,1-.49,2.48,5.88,5.88,0,0,1-1.36,1.91,6,6,0,0,1-2,1.22,7.16,7.16,0,0,1-2.47.42,7,7,0,0,1-2.54-.45,5.62,5.62,0,0,1-3.3-3.15,6.16,6.16,0,0,1-.46-2.43,6.88,6.88,0,0,1,.49-2.63,21.19,21.19,0,0,1,1.14-2.35l3.47-6.39a2.76,2.76,0,0,1,.88-1,2.27,2.27,0,0,1,1.28-.32h2.07ZM156,194.8a3.41,3.41,0,0,0,.26,1.34,3.09,3.09,0,0,0,.66,1,2.75,2.75,0,0,0,1,.65,3.3,3.3,0,0,0,1.22.22,3,3,0,0,0,1.25-.25,3.36,3.36,0,0,0,1-.69,3,3,0,0,0,.67-1,3.54,3.54,0,0,0,.23-1.27,3.48,3.48,0,0,0-.24-1.34,3.12,3.12,0,0,0-.69-1,3,3,0,0,0-1-.64,3.23,3.23,0,0,0-1.22-.23,3.13,3.13,0,0,0-1.29.25,2.73,2.73,0,0,0-1,.69,3,3,0,0,0-.64,1A3.68,3.68,0,0,0,156,194.8Z"/><path class="cls-2" d="M173.79,189.49a9.32,9.32,0,0,1,.48-3.09,6.13,6.13,0,0,1,1.4-2.33,6,6,0,0,1,2.28-1.46,9.77,9.77,0,0,1,6.23,0,6,6,0,0,1,2.28,1.46,6.13,6.13,0,0,1,1.4,2.33,10.19,10.19,0,0,1,0,6.18,6.21,6.21,0,0,1-1.4,2.33,6.09,6.09,0,0,1-2.28,1.46,9.77,9.77,0,0,1-6.23,0,6.09,6.09,0,0,1-2.28-1.46,6.21,6.21,0,0,1-1.4-2.33A9.36,9.36,0,0,1,173.79,189.49Zm11.37,0a7,7,0,0,0-.24-1.91,4.23,4.23,0,0,0-.74-1.45,3.54,3.54,0,0,0-1.27-.94,4.49,4.49,0,0,0-1.83-.34,4.58,4.58,0,0,0-1.86.34,3.58,3.58,0,0,0-1.28.94,3.92,3.92,0,0,0-.75,1.45,7,7,0,0,0-.24,1.91,5.26,5.26,0,0,0,1,3.35,3.78,3.78,0,0,0,3.15,1.24,3.71,3.71,0,0,0,3.1-1.24A5.26,5.26,0,0,0,185.16,189.49Z"/><path class="cls-2" d="M193.69,195.14a1.32,1.32,0,0,1-.44,1.05,1.51,1.51,0,0,1-1,.37h-1.69V183.79a1.35,1.35,0,0,1,.41-1,1.28,1.28,0,0,1,.94-.41H193l6.16,7.83.41.6a3.72,3.72,0,0,1,.31.67v-7.73a1.25,1.25,0,0,1,.45-1,1.43,1.43,0,0,1,1-.39H203v12.76a1.28,1.28,0,0,1-.41,1,1.34,1.34,0,0,1-1,.42h-.87l-6.31-7.94a5.31,5.31,0,0,1-.46-.74,2.92,2.92,0,0,1-.24-.78Z"/><path class="cls-2" d="M205.78,196.56V183.79a1.32,1.32,0,0,1,.42-1,1.34,1.34,0,0,1,1-.41H209v12.19a1.15,1.15,0,0,1,.73-.57,4,4,0,0,1,.95-.13H215v.89a1.73,1.73,0,0,1-.15.73,1.59,1.59,0,0,1-.4.55,2,2,0,0,1-.56.35,1.61,1.61,0,0,1-.65.13Z"/><path class="cls-2" d="M221.23,195.14a1.32,1.32,0,0,1-.43,1,1.49,1.49,0,0,1-1,.39h-1.52v-5.68l-4.38-7.15a.76.76,0,0,1-.15-.45.9.9,0,0,1,.11-.44,1,1,0,0,1,.32-.31,1,1,0,0,1,.46-.11h1.8l2.83,4.61a3.15,3.15,0,0,1,.27.59l.18.62,3-5.08a1.42,1.42,0,0,1,.58-.59,2.08,2.08,0,0,1,.88-.15h2.18l-5.06,8.44Z"/><path class="cls-2" d="M226.06,189.49a9.59,9.59,0,0,1,.47-3.09,6.26,6.26,0,0,1,1.4-2.33,6.09,6.09,0,0,1,2.29-1.46,9.74,9.74,0,0,1,6.22,0,6.09,6.09,0,0,1,2.29,1.46,6.26,6.26,0,0,1,1.4,2.33,10.39,10.39,0,0,1,0,6.18,6.34,6.34,0,0,1-1.4,2.33,6.21,6.21,0,0,1-2.29,1.46,9.74,9.74,0,0,1-6.22,0,6.21,6.21,0,0,1-2.29-1.46,6.34,6.34,0,0,1-1.4-2.33A9.64,9.64,0,0,1,226.06,189.49Zm11.37,0a6.65,6.65,0,0,0-.25-1.91,4.06,4.06,0,0,0-.74-1.45,3.38,3.38,0,0,0-1.27-.94,4.43,4.43,0,0,0-1.83-.34,4.5,4.5,0,0,0-1.85.34,3.5,3.5,0,0,0-1.28.94,3.92,3.92,0,0,0-.75,1.45,6.65,6.65,0,0,0-.25,1.91,5.2,5.2,0,0,0,1,3.35,3.75,3.75,0,0,0,3.14,1.24,3.7,3.7,0,0,0,3.1-1.24A5.2,5.2,0,0,0,237.43,189.49Z"/><path class="cls-2" d="M246,195.14a1.29,1.29,0,0,1-.45,1.05,1.49,1.49,0,0,1-1,.37h-1.7V183.79a1.32,1.32,0,0,1,.42-1,1.27,1.27,0,0,1,.94-.41h1.08l6.16,7.83c.14.2.27.4.4.6a3.76,3.76,0,0,1,.32.67v-7.73a1.27,1.27,0,0,1,.44-1,1.45,1.45,0,0,1,1-.39h1.69v12.76a1.32,1.32,0,0,1-.41,1,1.37,1.37,0,0,1-1,.42H253l-6.31-7.94a4.44,4.44,0,0,1-.45-.74,2.92,2.92,0,0,1-.24-.78Z"/><path class="cls-2" d="M265.45,196.56H258V183.79a1.44,1.44,0,0,1,1.38-1.37H267v1a1.5,1.5,0,0,1-.16.7,1.82,1.82,0,0,1-.95.89,1.72,1.72,0,0,1-.61.13h-4.12v3.62a1.13,1.13,0,0,1,.71-.59,3.38,3.38,0,0,1,.94-.13h3.68v.88a1.77,1.77,0,0,1-.48,1.26,1.62,1.62,0,0,1-1.28.52h-3.57v3.81a1.06,1.06,0,0,1,.71-.56,4.31,4.31,0,0,1,.94-.11h4.42v1a1.71,1.71,0,0,1-.51,1.28A1.78,1.78,0,0,1,265.45,196.56Z"/><path class="cls-2" d="M279.13,195.14a1.29,1.29,0,0,1-.45,1.05,1.46,1.46,0,0,1-1,.37H276V183.79a1.26,1.26,0,0,1,.43-1,1.31,1.31,0,0,1,.91-.39h7.49v1a1.79,1.79,0,0,1-.48,1.22,1.62,1.62,0,0,1-1.28.54h-3.89v3.45a1.26,1.26,0,0,1,.73-.57,3.13,3.13,0,0,1,.94-.15h3.49v1a1.81,1.81,0,0,1-.12.67,1.6,1.6,0,0,1-.38.55,2,2,0,0,1-.55.39,1.45,1.45,0,0,1-.66.15h-3.45Z"/><path class="cls-2" d="M295.83,196.56l-1.23-3.24h-4.55l.53-1.7a1.55,1.55,0,0,1,.5-.69,1.25,1.25,0,0,1,.79-.26h1.78l-1.5-4.31a3.26,3.26,0,0,1-.21-.83,3.64,3.64,0,0,1,0-.74l-3.67,10.46a1.82,1.82,0,0,1-1.86,1.31h-1.8l4.83-12.66a2,2,0,0,1,.84-1.13,2.41,2.41,0,0,1,1.32-.35h2.11L298.56,195a1.15,1.15,0,0,1-.13,1.15,1.12,1.12,0,0,1-.93.46Z"/><path class="cls-2" d="M303.22,195.12a1.43,1.43,0,0,1-1.42,1.44H300V183.79a1.29,1.29,0,0,1,.43-1,1.4,1.4,0,0,1,.95-.39h1.8Z"/><path class="cls-2" d="M314.63,196.56l-4.13-5.08h-1.27v3.62a1.46,1.46,0,0,1-.4,1,1.3,1.3,0,0,1-1,.43h-1.78V183.79a1.26,1.26,0,0,1,.43-1,1.44,1.44,0,0,1,1-.39h3.66a9.38,9.38,0,0,1,2.15.24,5.38,5.38,0,0,1,1.81.77,3.94,3.94,0,0,1,1.25,1.38,4.17,4.17,0,0,1,.47,2,4,4,0,0,1-.26,1.47,3.84,3.84,0,0,1-.72,1.2,4.59,4.59,0,0,1-1.09.91,4.17,4.17,0,0,1-1.38.53l3.77,4.32a.68.68,0,0,1,.16.4.75.75,0,0,1-.07.42.81.81,0,0,1-.31.33.87.87,0,0,1-.48.14Zm-1-9.68a1.62,1.62,0,0,0-.19-.81,1.47,1.47,0,0,0-.52-.56,2.48,2.48,0,0,0-.76-.31,4.43,4.43,0,0,0-.9-.09h-2v4.29a1.29,1.29,0,0,1,.52-.44,1.82,1.82,0,0,1,.68-.11h.92a2.52,2.52,0,0,0,1.71-.52A1.82,1.82,0,0,0,313.65,186.88Z"/><path class="cls-2" d="M213.79,234.14v-9.06a4.32,4.32,0,0,1-.14.7,7,7,0,0,1-.24.79L211,233.05a1.4,1.4,0,0,1-.47.66,1.19,1.19,0,0,1-.77.25h-1.33l-2.6-7.48a4.1,4.1,0,0,1-.19-.66c0-.22-.08-.45-.11-.71v8a.91.91,0,0,1-.32.73,1,1,0,0,1-.72.28h-1.05V224a.93.93,0,0,1,.32-.73,1,1,0,0,1,.69-.28h2.16l3,9a2.76,2.76,0,0,1,.22-1.2l2.39-6.86a1.55,1.55,0,0,1,.52-.77,1.8,1.8,0,0,1,.94-.2h2.14v10a1,1,0,0,1-.3.77,1,1,0,0,1-.74.3Z"/><path class="cls-2" d="M220.14,231a.89.89,0,0,1-.9.91h-1.1v-8a.81.81,0,0,1,.27-.62A.88.88,0,0,1,219,223h1.14Z"/><path class="cls-2" d="M223.57,225.27a.9.9,0,0,0,.12.48,1.47,1.47,0,0,0,.31.35,2.13,2.13,0,0,0,.44.26l.52.21,1,.44a7.53,7.53,0,0,1,.86.4,3,3,0,0,1,.68.52,2.1,2.1,0,0,1,.45.65,1.84,1.84,0,0,1,.17.83,2.44,2.44,0,0,1-1.14,2.11,3.29,3.29,0,0,1-1.12.47,6,6,0,0,1-1.27.13,4.45,4.45,0,0,1-.85-.12,7.06,7.06,0,0,1-.89-.28,4.65,4.65,0,0,1-.83-.43,3,3,0,0,1-.65-.55l.4-.69a.58.58,0,0,1,.5-.41.9.9,0,0,1,.67.2,4.23,4.23,0,0,0,.82.44,3,3,0,0,0,.84.21c1,0,1.51-.28,1.51-1a.75.75,0,0,0-.09-.37,1.32,1.32,0,0,0-.25-.28,1.71,1.71,0,0,0-.35-.21l-.4-.18-1.22-.49a5.28,5.28,0,0,1-.86-.42,3.14,3.14,0,0,1-.7-.53,2.38,2.38,0,0,1-.48-.69,2,2,0,0,1-.18-.87,2.62,2.62,0,0,1,.26-1.2,2.32,2.32,0,0,1,.7-.82,2.86,2.86,0,0,1,1-.48,4.29,4.29,0,0,1,1.2-.14,5.41,5.41,0,0,1,1.6.26,3.74,3.74,0,0,1,1.36.8l-.39.63a1,1,0,0,1-.49.43.85.85,0,0,1-.75-.08,2.11,2.11,0,0,0-.3-.16l-.36-.13a2.62,2.62,0,0,0-.38-.09,1.63,1.63,0,0,0-1.18.18A.73.73,0,0,0,223.57,225.27Z"/><path class="cls-2" d="M230.81,225.27a.9.9,0,0,0,.12.48,1.28,1.28,0,0,0,.31.35,1.89,1.89,0,0,0,.44.26l.51.21,1,.44a7.38,7.38,0,0,1,.85.4,3,3,0,0,1,.69.52,2.1,2.1,0,0,1,.45.65,2,2,0,0,1,.16.83,2.42,2.42,0,0,1-.32,1.27,2.71,2.71,0,0,1-.81.84,3.34,3.34,0,0,1-1.13.47,6,6,0,0,1-1.27.13A4.57,4.57,0,0,1,231,232a7.06,7.06,0,0,1-.89-.28,5,5,0,0,1-.83-.43,3.56,3.56,0,0,1-.65-.55l.4-.69a.61.61,0,0,1,.51-.41.88.88,0,0,1,.66.2,4.55,4.55,0,0,0,.82.44,3,3,0,0,0,.85.21q1.5.07,1.5-1a.75.75,0,0,0-.09-.37.94.94,0,0,0-.25-.28,1.63,1.63,0,0,0-.34-.21l-.41-.18-1.21-.49a5.83,5.83,0,0,1-.87-.42,3.39,3.39,0,0,1-.7-.53,2.38,2.38,0,0,1-.48-.69,2,2,0,0,1-.18-.87,2.62,2.62,0,0,1,.26-1.2,2.43,2.43,0,0,1,.7-.82,2.91,2.91,0,0,1,1-.48,4.27,4.27,0,0,1,1.19-.14,5.36,5.36,0,0,1,1.6.26,3.66,3.66,0,0,1,1.36.8l-.39.63a.91.91,0,0,1-.49.43.83.83,0,0,1-.74-.08,2.25,2.25,0,0,0-.31-.16l-.36-.13a2.49,2.49,0,0,0-.37-.09,1.48,1.48,0,0,0-.34,0,1.36,1.36,0,0,0-.85.22A.74.74,0,0,0,230.81,225.27Z"/><path class="cls-2" d="M238.45,231a.91.91,0,0,1-.26.65.86.86,0,0,1-.63.26h-1.11v-8a.79.79,0,0,1,.28-.62.88.88,0,0,1,.59-.24h1.13Z"/><path class="cls-2" d="M239.94,227.47a6,6,0,0,1,.3-1.95,4,4,0,0,1,.88-1.46,3.83,3.83,0,0,1,1.44-.92,5.47,5.47,0,0,1,2-.32,5.39,5.39,0,0,1,1.95.32,3.83,3.83,0,0,1,1.44.92,4,4,0,0,1,.88,1.46,6,6,0,0,1,.3,1.95,5.9,5.9,0,0,1-.3,1.94,4,4,0,0,1-.88,1.47,4,4,0,0,1-1.44.92,5.61,5.61,0,0,1-1.95.32,5.69,5.69,0,0,1-2-.32,4,4,0,0,1-1.44-.92,4,4,0,0,1-.88-1.47A5.9,5.9,0,0,1,239.94,227.47Zm7.16,0a4,4,0,0,0-.16-1.2,2.37,2.37,0,0,0-.46-.91,2.09,2.09,0,0,0-.8-.6,3.31,3.31,0,0,0-2.32,0,2.09,2.09,0,0,0-.8.6,2.27,2.27,0,0,0-.48.91,4.38,4.38,0,0,0-.15,1.2,3.31,3.31,0,0,0,.62,2.11,2.37,2.37,0,0,0,2,.78,2.34,2.34,0,0,0,1.95-.78A3.31,3.31,0,0,0,247.1,227.47Z"/><path class="cls-2" d="M252.53,231a.79.79,0,0,1-.28.66.91.91,0,0,1-.62.24h-1.07v-8a.83.83,0,0,1,.26-.6.78.78,0,0,1,.59-.26h.68L256,228c.09.12.17.25.25.38a1.81,1.81,0,0,1,.2.42v-4.87a.82.82,0,0,1,.28-.62.92.92,0,0,1,.61-.24h1.07v8a.89.89,0,0,1-.89.87h-.55l-4-5a2.53,2.53,0,0,1-.28-.47,1.76,1.76,0,0,1-.16-.49Z"/><path class="cls-2" d="M264.34,228.61a6.24,6.24,0,0,1,.44-2.39,6.13,6.13,0,0,1,1.22-1.9,5.63,5.63,0,0,1,4.1-1.68,5.32,5.32,0,0,1,1.18.16,5.77,5.77,0,0,1,1.15.39,5.2,5.2,0,0,1,1,.61,4.72,4.72,0,0,1,.85.82l-.6.64a1,1,0,0,1-.72.34,1.09,1.09,0,0,1-.78-.25,5.38,5.38,0,0,0-1-.53,2.87,2.87,0,0,0-1.1-.2,3.52,3.52,0,0,0-1.51.32,3.16,3.16,0,0,0-1.13.84,3.55,3.55,0,0,0-.7,1.25,5,5,0,0,0-.24,1.58,4.44,4.44,0,0,0,.28,1.64,3.66,3.66,0,0,0,.76,1.22,3.33,3.33,0,0,0,1.14.77,3.9,3.9,0,0,0,1.42.26,3.56,3.56,0,0,0,1.18-.19,2.75,2.75,0,0,0,.95-.54,1.19,1.19,0,0,1,.81-.39,1,1,0,0,1,.73.28l.58.6a4.58,4.58,0,0,1-.85,1,4.76,4.76,0,0,1-1,.69,4.81,4.81,0,0,1-1.17.42,5.46,5.46,0,0,1-1.2.14,6,6,0,0,1-2.35-.45,5.32,5.32,0,0,1-1.82-1.25,5.81,5.81,0,0,1-1.19-1.86A6.25,6.25,0,0,1,264.34,228.61Z"/><path class="cls-2" d="M275.19,227.47a6,6,0,0,1,.3-1.95,4,4,0,0,1,.88-1.46,3.83,3.83,0,0,1,1.44-.92,6.16,6.16,0,0,1,3.92,0,3.83,3.83,0,0,1,1.44.92,4,4,0,0,1,.88,1.46,6,6,0,0,1,.3,1.95,5.9,5.9,0,0,1-.3,1.94,4,4,0,0,1-.88,1.47,4,4,0,0,1-1.44.92,6.16,6.16,0,0,1-3.92,0,4,4,0,0,1-1.44-.92,4,4,0,0,1-.88-1.47A5.9,5.9,0,0,1,275.19,227.47Zm7.16,0a4,4,0,0,0-.16-1.2,2.37,2.37,0,0,0-.46-.91,2.09,2.09,0,0,0-.8-.6,3.31,3.31,0,0,0-2.32,0,2.2,2.2,0,0,0-.81.6,2.38,2.38,0,0,0-.47.91,4.38,4.38,0,0,0-.15,1.2,3.25,3.25,0,0,0,.62,2.11,2.87,2.87,0,0,0,3.93,0A3.31,3.31,0,0,0,282.35,227.47Z"/><path class="cls-2" d="M296,231a.86.86,0,0,1-.27.67.9.9,0,0,1-.61.25h-1v-6.27q-.06.18-.12.39a2.37,2.37,0,0,1-.15.4L292,231.1a1.12,1.12,0,0,1-.4.54,1,1,0,0,1-.58.16h-.94L288,226.63a2.48,2.48,0,0,1-.17-.48c0-.16-.07-.3-.1-.43V231a.79.79,0,0,1-.28.63,1,1,0,0,1-.65.25h-1v-8a.84.84,0,0,1,.26-.62.85.85,0,0,1,.61-.24h1.66l2.64,6.85a1.89,1.89,0,0,1,.06-.66,5.39,5.39,0,0,1,.18-.59l1.92-4.88a1,1,0,0,1,1.06-.72H296Z"/><path class="cls-2" d="M301,223a5.43,5.43,0,0,1,1.35.16,3,3,0,0,1,1.12.5,2.41,2.41,0,0,1,.77.9,2.77,2.77,0,0,1,.29,1.3,3.22,3.22,0,0,1-.26,1.35,2.57,2.57,0,0,1-.71.94,3.13,3.13,0,0,1-1.08.54,4.68,4.68,0,0,1-1.32.18h-1.31V231a.87.87,0,0,1-.26.62.92.92,0,0,1-.64.26h-1.1v-8a.81.81,0,0,1,.27-.62.88.88,0,0,1,.6-.24Zm1.54,2.93a1.26,1.26,0,0,0-.12-.57,1,1,0,0,0-.32-.39,1.3,1.3,0,0,0-.48-.21,2.25,2.25,0,0,0-.58-.07h-1.19v2.9a1,1,0,0,1,.43-.33,1.54,1.54,0,0,1,.52-.09h.41a1.47,1.47,0,0,0,1-.31A1.14,1.14,0,0,0,302.54,226Z"/><path class="cls-2" d="M305.62,231.92v-8a.8.8,0,0,1,.27-.6.81.81,0,0,1,.61-.26h1.12v7.67a.69.69,0,0,1,.46-.36,2.39,2.39,0,0,1,.59-.08h2.75v.56a1.15,1.15,0,0,1-.1.46,1,1,0,0,1-.25.35,1.86,1.86,0,0,1-.35.22,1.15,1.15,0,0,1-.41.08Z"/><path class="cls-2" d="M317.21,231.92h-4.66v-8a.89.89,0,0,1,.86-.86h4.79v.61a1.05,1.05,0,0,1-.1.44,1.28,1.28,0,0,1-.26.34,1.24,1.24,0,0,1-.34.22,1.08,1.08,0,0,1-.38.08h-2.6V227a.72.72,0,0,1,.45-.37,2,2,0,0,1,.59-.09h2.32v.56a1.15,1.15,0,0,1-.3.8,1.07,1.07,0,0,1-.81.32h-2.25v2.4a.66.66,0,0,1,.45-.35,2.33,2.33,0,0,1,.59-.08h2.78v.62a1.06,1.06,0,0,1-.32.8A1.1,1.1,0,0,1,317.21,231.92Z"/><path class="cls-2" d="M323.56,231a.83.83,0,0,1-.26.64.86.86,0,0,1-.63.26h-1.1v-7.16h-2.69v-.65a1.14,1.14,0,0,1,.07-.41,1,1,0,0,1,.23-.35,1,1,0,0,1,.34-.25A1.18,1.18,0,0,1,320,223h6.31v.62a1.16,1.16,0,0,1-.31.8,1.08,1.08,0,0,1-.8.32h-1.59Z"/><path class="cls-2" d="M332,231.92h-4.66v-8a.8.8,0,0,1,.27-.6.79.79,0,0,1,.6-.26H333v.61a1.05,1.05,0,0,1-.1.44,1.25,1.25,0,0,1-.25.34,1.29,1.29,0,0,1-.35.22,1.08,1.08,0,0,1-.38.08h-2.6V227a.72.72,0,0,1,.45-.37,2.06,2.06,0,0,1,.59-.09h2.32v.56a1.15,1.15,0,0,1-.3.8,1.07,1.07,0,0,1-.81.32h-2.25v2.4a.66.66,0,0,1,.45-.35,2.46,2.46,0,0,1,.59-.08h2.79v.62a1.09,1.09,0,0,1-.32.8A1.14,1.14,0,0,1,332,231.92Z"/><path class="cls-2" d="M334.26,231.92v-8a.79.79,0,0,1,.28-.62,1,1,0,0,1,.63-.24h2.18a6.18,6.18,0,0,1,1.95.3,4.74,4.74,0,0,1,1.58.86,4,4,0,0,1,1.05,1.39,4.42,4.42,0,0,1,.39,1.9,4.52,4.52,0,0,1-.39,1.93,3.86,3.86,0,0,1-1.05,1.4,4.51,4.51,0,0,1-1.56.84,6.44,6.44,0,0,1-1.89.28Zm3.24-7.21h-1.24v6a.78.78,0,0,1,.44-.41,1.76,1.76,0,0,1,.59-.08h.29a2.83,2.83,0,0,0,1.12-.21,2.49,2.49,0,0,0,1.43-1.44,3.1,3.1,0,0,0,.19-1.12,2.71,2.71,0,0,0-.74-2.06A2.88,2.88,0,0,0,337.5,224.71Z"/><path class="cls-2" d="M223.74,268.51l-2.92-7.11a3,3,0,0,1-.91.34,6.17,6.17,0,0,1-1,.08h-7.14l.93-2.82a2.54,2.54,0,0,1,.95-1.38,2.87,2.87,0,0,1,1.64-.41h3.94l-2.91-8.49a11.17,11.17,0,0,1-.4-1.38,3.79,3.79,0,0,1-.05-1.34L208,266.65a3.67,3.67,0,0,1-.86,1.38,2.47,2.47,0,0,1-1.7.48h-3.33l9.57-24.12a4.24,4.24,0,0,1,1.33-1.9,3.66,3.66,0,0,1,2.32-.69h3.24l9.67,24.34a1.74,1.74,0,0,1,.1,1,2,2,0,0,1-.36.74,1.74,1.74,0,0,1-.64.49,1.76,1.76,0,0,1-.76.18Z"/><path class="cls-2" d="M231.61,268.54V244.2a2.12,2.12,0,0,1,.21-.94,3,3,0,0,1,.53-.77,2,2,0,0,1,.75-.51,2.2,2.2,0,0,1,.85-.18h2.69v24.37a2.11,2.11,0,0,1-.22,1,2.43,2.43,0,0,1-.6.75,2.62,2.62,0,0,1-.8.48,2.31,2.31,0,0,1-.84.16Z"/><path class="cls-2" d="M268.79,257.36v5.45h12.27v1.47a1.43,1.43,0,0,1-.47,1.14,1.66,1.66,0,0,1-1.13.4H252v-1.47a1.42,1.42,0,0,1,.47-1.14,1.67,1.67,0,0,1,1.14-.4h10.53v-5.45H254.8v-1.44a1.39,1.39,0,0,1,.46-1.13,1.67,1.67,0,0,1,1.14-.4H259v-10h-3.61v-1.44a1.44,1.44,0,0,1,.48-1.15,1.64,1.64,0,0,1,1.12-.42h20.78v1.44a1.45,1.45,0,0,1-.48,1.16,1.68,1.68,0,0,1-1.12.41h-2.05v10h4.16v1.44a1.39,1.39,0,0,1-.46,1.13,1.67,1.67,0,0,1-1.14.4Zm.48-13h-5.83v10h5.83Z"/><path class="cls-2" d="M300.56,257.4v5.41h11.88v1.47a1.43,1.43,0,0,1-.46,1.14,1.67,1.67,0,0,1-1.14.4H283.43v-1.47a1.41,1.41,0,0,1,.46-1.14,1.67,1.67,0,0,1,1.14-.4H296V257.4h-8.62V244.11a2.5,2.5,0,0,1,.87-2,3.12,3.12,0,0,1,2.14-.76h18.35v1.41a1.52,1.52,0,0,1-.46,1.17,1.6,1.6,0,0,1-1.14.43H292v3.4h16.42v1.41a1.52,1.52,0,0,1-.46,1.17,1.65,1.65,0,0,1-1.14.43H292v3.62H309v1.4a1.49,1.49,0,0,1-.46,1.17,1.61,1.61,0,0,1-1.14.44Z"/><path class="cls-2" d="M339.69,262.81v-6.89a3.34,3.34,0,0,1,.67-2.22,2.59,2.59,0,0,1,2-.82h1.86v9.93h10.47v1.47a1.43,1.43,0,0,1-.46,1.14,1.67,1.67,0,0,1-1.14.4H325.7v-1.47a1.41,1.41,0,0,1,.46-1.14,1.67,1.67,0,0,1,1.14-.4h4.48v-6.89a3.34,3.34,0,0,1,.67-2.22,2.59,2.59,0,0,1,2-.82h1.86v9.93Zm11.11-7.27a3.62,3.62,0,0,1-.83,2.11,2.35,2.35,0,0,1-1.86.64H346c.17-1.41.31-2.93.42-4.58s.16-3.2.16-4.67v-4.93H329.06v-1.44a1.4,1.4,0,0,1,.48-1.14,1.67,1.67,0,0,1,1.12-.4h20.53v7.46q0,.76,0,1.71c0,.63-.05,1.27-.08,1.91s-.07,1.25-.12,1.84S350.87,255.13,350.8,255.54Z"/><path class="cls-2" d="M369.44,238.73v2.72h7.05v1.44A1.45,1.45,0,0,1,376,244a1.65,1.65,0,0,1-1.12.4h-2a2.36,2.36,0,0,1,.87.59,5,5,0,0,1,.67.9,4.81,4.81,0,0,1,.45,1,3.85,3.85,0,0,1,.16,1,4.82,4.82,0,0,1-1.52,3.59,8,8,0,0,1-4.12,2v2.34c.6,0,1.27,0,2,0s1.52-.08,2.32-.14,1.61-.16,2.42-.29,1.59-.29,2.34-.48V243a3.37,3.37,0,0,1,.67-2.24,2.47,2.47,0,0,1,2-.81h1.89v7.91h4.35v1.45a1.5,1.5,0,0,1-.45,1.09,1.55,1.55,0,0,1-1.12.44h-2.78v7.94a3.12,3.12,0,0,1-.73,2.23,2.58,2.58,0,0,1-2,.79h-1.85v-3.91a24.92,24.92,0,0,1-5.27.78q-2.86.15-6.45.15H356.7v-1.38a1.41,1.41,0,0,1,.48-1.14,1.73,1.73,0,0,1,1.12-.4h6.56v-2.37a7.52,7.52,0,0,1-4-2,4.87,4.87,0,0,1-1.49-3.62,3.68,3.68,0,0,1,.14-1,4.72,4.72,0,0,1,.42-1,4.51,4.51,0,0,1,.64-.91,2.12,2.12,0,0,1,.81-.61h-3.55V243a1.44,1.44,0,0,1,.45-1.12,1.53,1.53,0,0,1,1.09-.42h5.47v-.26a2.4,2.4,0,0,1,.66-1.82,2.43,2.43,0,0,1,1.78-.64Zm14.16,29.62a1.61,1.61,0,0,1-.42,1.17,1.51,1.51,0,0,1-1.12.43H361.88v-5.73q0-2.85,2.73-2.85h1.73V267H383.6ZM367.2,251a3.18,3.18,0,0,0,1.41-.3,3.51,3.51,0,0,0,1-.78,3.39,3.39,0,0,0,.66-1.09,3.58,3.58,0,0,0,.22-1.25,3.54,3.54,0,0,0-.22-1.25,3.14,3.14,0,0,0-1.72-1.81,3.45,3.45,0,0,0-1.39-.27,3,3,0,0,0-2.42,1,3.51,3.51,0,0,0-.85,2.34,3.87,3.87,0,0,0,.21,1.26,3.21,3.21,0,0,0,.63,1.11,3.16,3.16,0,0,0,1,.77A3.32,3.32,0,0,0,367.2,251Z"/><path class="cls-2" d="M409.85,251a1.42,1.42,0,0,1-.4,1.09,1.93,1.93,0,0,1-1,.51,13.45,13.45,0,0,1-1.34.2c-.6.06-1.26.11-2,.16l-2.21.13-2.07.09v2.88c0,2-.85,3-2.56,3h-2v-5.76h-7.75v-1.41a1.45,1.45,0,0,1,.45-1.12,1.51,1.51,0,0,1,1.08-.42h10.52q.8,0,1.56,0a30.75,30.75,0,0,0,.29-3.31c0-1,0-1.79,0-2.39v-1.34H390.71v-1.48a1.37,1.37,0,0,1,.46-1.12,1.76,1.76,0,0,1,1.14-.38H407v3.78c0,.6,0,1.14,0,1.65s-.06,1-.12,1.45-.11.94-.17,1.41-.14,1-.23,1.51c.56,0,1.12-.1,1.68-.18s1.13-.16,1.68-.27Zm6.25,15.89v1.41a1.5,1.5,0,0,1-1.54,1.56H393.81v-5.6a3.35,3.35,0,0,1,.64-2.21,2.46,2.46,0,0,1,2-.77h2v5.61Zm-5-24c0-2,.87-2.95,2.62-2.95h2v20.24a3.16,3.16,0,0,1-.71,2.21,2.52,2.52,0,0,1-2,.77h-1.95V258h-6.7V256.6A1.51,1.51,0,0,1,406,255h5.16Z"/><line class="cls-3" x1="111.68" y1="298.17" x2="641.47" y2="298.17"/><path class="cls-2" d="M147.05,240.23a9.65,9.65,0,1,0,9.65,9.65A9.65,9.65,0,0,0,147.05,240.23Z"/><path class="cls-2" d="M174.76,227.93H157.67l-3.62-6a1.32,1.32,0,0,0-1.13-.64H141.19a1.32,1.32,0,0,0-1.14.64l-3.62,6h-5.85v-1.31a2,2,0,0,0-2-2H122a2,2,0,0,0-2,2v1.31h-.81a4.71,4.71,0,0,0-4.71,4.71v34.47a4.7,4.7,0,0,0,4.71,4.71h55.51a4.71,4.71,0,0,0,4.71-4.71V232.64A4.71,4.71,0,0,0,174.76,227.93Zm-27.71,35.35a13.4,13.4,0,1,1,13.4-13.4A13.41,13.41,0,0,1,147.05,263.28Zm24.78-25.68h-6.11a1.78,1.78,0,1,1,0-3.55h6.11a1.78,1.78,0,1,1,0,3.55Z"/><path class="cls-2" d="M112.44,322.14V312a.93.93,0,0,1,.09-.42,1,1,0,0,1,.23-.32,1.16,1.16,0,0,1,.32-.2,1,1,0,0,1,.35-.06h1.1v9.82a.86.86,0,0,1,.51-.43,2.25,2.25,0,0,1,.68-.11h4.06V321a1.14,1.14,0,0,1-.32.79,1.08,1.08,0,0,1-.82.34Z"/><path class="cls-2" d="M120.68,322.14V312a.79.79,0,0,1,.08-.38,1.4,1.4,0,0,1,.22-.32,1,1,0,0,1,.31-.21,1,1,0,0,1,.37-.07h6.16v.82a1,1,0,0,1-.1.41,1.16,1.16,0,0,1-.24.34,1.41,1.41,0,0,1-.36.24,1,1,0,0,1-.41.09h-3.94V316a.85.85,0,0,1,.52-.41,2.61,2.61,0,0,1,.66-.09h3.47v.8a.94.94,0,0,1-.1.38,1.31,1.31,0,0,1-.24.34,1.88,1.88,0,0,1-.36.24,1,1,0,0,1-.42.09h-3.53v3.38a.91.91,0,0,1,.49-.42,2.27,2.27,0,0,1,.65-.1H128V321a1.08,1.08,0,0,1-.09.44,1.13,1.13,0,0,1-.24.36,1.37,1.37,0,0,1-.37.26,1.14,1.14,0,0,1-.46.09Z"/><path class="cls-2" d="M136.79,322.13l-1.21-3a1.09,1.09,0,0,1-.38.14,2.6,2.6,0,0,1-.4,0h-3l.38-1.17a1,1,0,0,1,.39-.57,1.22,1.22,0,0,1,.69-.17h1.64l-1.21-3.54a4.11,4.11,0,0,1-.17-.57,1.51,1.51,0,0,1,0-.56l-3.29,8.6a1.74,1.74,0,0,1-.36.57,1,1,0,0,1-.71.2h-1.38l4-10a1.76,1.76,0,0,1,.56-.8,1.5,1.5,0,0,1,1-.28h1.35l4,10.12a.72.72,0,0,1,0,.4.81.81,0,0,1-.15.31.63.63,0,0,1-.26.2.79.79,0,0,1-.32.08Z"/><path class="cls-2" d="M146.16,322.14l-3.3-4.29H141.5v3.24a1,1,0,0,1-1.07,1.05h-1V312a.9.9,0,0,1,.08-.4,1.4,1.4,0,0,1,.22-.32,1,1,0,0,1,.31-.21.92.92,0,0,1,.36-.07h2.82a7.32,7.32,0,0,1,1.65.18,4.27,4.27,0,0,1,1.39.6,3.15,3.15,0,0,1,1,1.06,3,3,0,0,1,.36,1.53,3.44,3.44,0,0,1-.19,1.18,2.71,2.71,0,0,1-.53.92,3.13,3.13,0,0,1-.82.67,4.62,4.62,0,0,1-1,.44l2.94,3.52a.58.58,0,0,1,.16.32.65.65,0,0,1-.06.33.52.52,0,0,1-.23.26.6.6,0,0,1-.37.11Zm-4.66-9.31v3.79a1,1,0,0,1,.52-.39,2.39,2.39,0,0,1,.66-.1h.66a2.59,2.59,0,0,0,1.57-.42,1.55,1.55,0,0,0,.57-1.27,1.35,1.35,0,0,0-.57-1.19,2.91,2.91,0,0,0-1.72-.42Z"/><path class="cls-2" d="M148.94,322.14V312a1,1,0,0,1,1-1h.85l5.05,6.87a3.41,3.41,0,0,1,.57,1.2V312a1,1,0,0,1,.3-.71,1,1,0,0,1,.68-.29h1.1v10.12a.86.86,0,0,1-.07.36,1.1,1.1,0,0,1-.2.31,1.12,1.12,0,0,1-.32.24,1,1,0,0,1-.41.09h-.84l-4.93-6.63a3.44,3.44,0,0,1-.68-1.39v7a.92.92,0,0,1-.3.7,1,1,0,0,1-.71.29Z"/><path class="cls-2" d="M160.59,322.14V312a1.06,1.06,0,0,1,.08-.4,1.4,1.4,0,0,1,.22-.32,1,1,0,0,1,.32-.21.87.87,0,0,1,.35-.07h1.12v10.13a.88.88,0,0,1-.09.41,1.31,1.31,0,0,1-.25.32,1.09,1.09,0,0,1-.33.19.92.92,0,0,1-.36.07Z"/><path class="cls-2" d="M164.78,322.14V312a1,1,0,0,1,1-1h.85l5,6.87a3.41,3.41,0,0,1,.57,1.2V312a1,1,0,0,1,.3-.71,1,1,0,0,1,.68-.29h1.1v10.12a.86.86,0,0,1-.07.36,1.1,1.1,0,0,1-.2.31,1.12,1.12,0,0,1-.32.24,1,1,0,0,1-.41.09h-.84l-4.93-6.63a3.44,3.44,0,0,1-.68-1.39v7a.92.92,0,0,1-.3.7,1,1,0,0,1-.71.29Z"/><path class="cls-2" d="M181.38,312.62a3.34,3.34,0,0,0-1.42.29,3.16,3.16,0,0,0-1.12.82,4,4,0,0,0-.73,1.25,4.76,4.76,0,0,0,0,3.16,3.82,3.82,0,0,0,.75,1.25,3.32,3.32,0,0,0,1.13.82,3.81,3.81,0,0,0,3.78-.5,3.36,3.36,0,0,0,1.09-2.25,1,1,0,0,1-.42.26,1.9,1.9,0,0,1-.46.07h-2v-.68a1.13,1.13,0,0,1,.33-.83,1.15,1.15,0,0,1,.85-.33H187c0,.15,0,.3,0,.45s0,.3,0,.45a5.24,5.24,0,0,1-.44,2.15,5.78,5.78,0,0,1-1.19,1.79,5.51,5.51,0,0,1-3.95,1.67,5.92,5.92,0,0,1-2.27-.43,5.44,5.44,0,0,1-3.08-3,6.18,6.18,0,0,1-.46-2.4,6.25,6.25,0,0,1,.45-2.4,5.66,5.66,0,0,1,3-3.13,5.49,5.49,0,0,1,2.21-.45,6.32,6.32,0,0,1,2.53.51,5.66,5.66,0,0,1,2,1.44l-.49.55a1.09,1.09,0,0,1-.73.49,1.12,1.12,0,0,1-.85-.27,5.2,5.2,0,0,0-1.23-.56A4.84,4.84,0,0,0,181.38,312.62Z"/><path class="cls-2" d="M191.27,316.61a6.43,6.43,0,0,1,.44-2.39,6.13,6.13,0,0,1,1.22-1.9,5.64,5.64,0,0,1,1.83-1.24,5.55,5.55,0,0,1,2.28-.44,5.4,5.4,0,0,1,1.18.16,5.9,5.9,0,0,1,1.14.39,5.59,5.59,0,0,1,1,.61,5,5,0,0,1,.84.82l-.6.64a1,1,0,0,1-.72.34,1.09,1.09,0,0,1-.78-.25,5.08,5.08,0,0,0-1-.53,2.82,2.82,0,0,0-1.09-.2,3.56,3.56,0,0,0-1.52.32,3.25,3.25,0,0,0-1.13.84,3.72,3.72,0,0,0-.7,1.25,5,5,0,0,0-.24,1.58,4.66,4.66,0,0,0,.28,1.64,3.66,3.66,0,0,0,.76,1.22,3.33,3.33,0,0,0,1.14.77,3.9,3.9,0,0,0,1.42.26,3.52,3.52,0,0,0,1.18-.19,2.75,2.75,0,0,0,1-.54,1.19,1.19,0,0,1,.81-.39,1.07,1.07,0,0,1,.74.28l.57.6a4.58,4.58,0,0,1-.85.95,4.76,4.76,0,0,1-1,.69,4.89,4.89,0,0,1-1.16.42,5.62,5.62,0,0,1-1.21.14,6,6,0,0,1-2.35-.45,5.42,5.42,0,0,1-1.82-1.25,5.81,5.81,0,0,1-1.19-1.86A6.25,6.25,0,0,1,191.27,316.61Z"/><path class="cls-2" d="M202.32,322.14V312a.79.79,0,0,1,.09-.38,1.4,1.4,0,0,1,.22-.32,1,1,0,0,1,.31-.21,1,1,0,0,1,.37-.07h6.16v.82a1,1,0,0,1-.1.41,1.16,1.16,0,0,1-.24.34,1.41,1.41,0,0,1-.36.24,1,1,0,0,1-.41.09h-3.94V316a.85.85,0,0,1,.52-.41,2.61,2.61,0,0,1,.66-.09h3.46v.8a.92.92,0,0,1-.09.38,1.31,1.31,0,0,1-.24.34,1.88,1.88,0,0,1-.36.24,1,1,0,0,1-.42.09h-3.53v3.38a.87.87,0,0,1,.49-.42,2.27,2.27,0,0,1,.65-.1h4.12V321a1.08,1.08,0,0,1-.09.44,1.13,1.13,0,0,1-.24.36,1.37,1.37,0,0,1-.37.26,1.14,1.14,0,0,1-.46.09Z"/><path class="cls-2" d="M210.68,322.14V312a1,1,0,0,1,.3-.74,1,1,0,0,1,.68-.28h.86l5,6.87a3.28,3.28,0,0,1,.58,1.2V312a1,1,0,0,1,1-1h1.11v10.12a.86.86,0,0,1-.08.36.92.92,0,0,1-.2.31,1,1,0,0,1-.32.24.93.93,0,0,1-.4.09h-.84l-4.93-6.63a3.32,3.32,0,0,1-.68-1.39v7a.9.9,0,0,1-.31.7,1,1,0,0,1-.7.29Z"/><path class="cls-2" d="M221.15,312.83v-.68a1.33,1.33,0,0,1,.08-.45,1.11,1.11,0,0,1,.25-.36,1.1,1.1,0,0,1,.35-.24,1,1,0,0,1,.42-.08h8.29v.7a1.15,1.15,0,0,1-.33.78,2.25,2.25,0,0,1-.36.24.93.93,0,0,1-.4.09h-2.59v8.31a1,1,0,0,1-.08.38,1.21,1.21,0,0,1-.22.32,1,1,0,0,1-.32.22.94.94,0,0,1-.36.08h-1.1v-9.31Z"/><path class="cls-2" d="M231.45,322.14V312a.79.79,0,0,1,.08-.38,1.4,1.4,0,0,1,.22-.32,1,1,0,0,1,.31-.21,1,1,0,0,1,.37-.07h6.16v.82a.86.86,0,0,1-.1.41,1.16,1.16,0,0,1-.24.34,1.41,1.41,0,0,1-.36.24,1,1,0,0,1-.41.09h-3.94V316a.85.85,0,0,1,.52-.41,2.61,2.61,0,0,1,.66-.09h3.47v.8a.94.94,0,0,1-.1.38,1.31,1.31,0,0,1-.24.34,1.88,1.88,0,0,1-.36.24,1,1,0,0,1-.42.09h-3.53v3.38a.91.91,0,0,1,.49-.42,2.27,2.27,0,0,1,.65-.1h4.12V321a1.08,1.08,0,0,1-.09.44,1.13,1.13,0,0,1-.24.36,1.37,1.37,0,0,1-.37.26,1.14,1.14,0,0,1-.46.09Z"/><path class="cls-2" d="M246.55,322.14l-3.3-4.29h-1.36v3.24a1,1,0,0,1-1.07,1.05h-1V312a1.06,1.06,0,0,1,.08-.4,1.81,1.81,0,0,1,.22-.32,1,1,0,0,1,.32-.21.87.87,0,0,1,.35-.07h2.83a7.45,7.45,0,0,1,1.65.18,4.31,4.31,0,0,1,1.38.6,3.15,3.15,0,0,1,1,1.06,3,3,0,0,1,.36,1.53,3.44,3.44,0,0,1-.19,1.18,2.71,2.71,0,0,1-.53.92,3,3,0,0,1-.82.67,4.25,4.25,0,0,1-1,.44l3,3.52a.5.5,0,0,1,.15.32.64.64,0,0,1-.05.33.6.6,0,0,1-.24.26.58.58,0,0,1-.37.11Zm-4.66-9.31v3.79a1.07,1.07,0,0,1,.53-.39,2.28,2.28,0,0,1,.66-.1h.65a2.57,2.57,0,0,0,1.57-.42,1.55,1.55,0,0,0,.57-1.27,1.36,1.36,0,0,0-.56-1.19,2.94,2.94,0,0,0-1.73-.42Z"/><path class="cls-2" d="M254.09,320a2.92,2.92,0,0,0,.72.53,2.28,2.28,0,0,0,1.08.3,1.82,1.82,0,0,0,1.41-.56,1.73,1.73,0,0,0,.39-.6,1.85,1.85,0,0,0,.13-.7,1.82,1.82,0,0,0-.55-1.43,2.12,2.12,0,0,0-1.46-.5h-1.28v-.77a.85.85,0,0,1,.34-.73,1.25,1.25,0,0,1,.73-.24h.24a1.54,1.54,0,0,0,.6-.13,1.74,1.74,0,0,0,.5-.33,1.71,1.71,0,0,0,.32-.5,1.56,1.56,0,0,0,.12-.62,1.31,1.31,0,0,0-.4-1,1.48,1.48,0,0,0-1.08-.36,1.72,1.72,0,0,0-.83.2,2.22,2.22,0,0,0-.59.48,1.55,1.55,0,0,1-.87.46.94.94,0,0,1-.86-.35l-.3-.29A3.86,3.86,0,0,1,253,312a3.75,3.75,0,0,1,.78-.7,3.9,3.9,0,0,1,2.2-.66,4,4,0,0,1,1.51.24,3.35,3.35,0,0,1,1.12.66,2.63,2.63,0,0,1,.68,1,2.91,2.91,0,0,1,.23,1.17,3.06,3.06,0,0,1-.09.74,2.75,2.75,0,0,1-.27.69,3.06,3.06,0,0,1-.44.58,2.44,2.44,0,0,1-.57.43,3.18,3.18,0,0,1,.7.47,3,3,0,0,1,.57.66,3.76,3.76,0,0,1,.38.81,3,3,0,0,1,.14.91,3.66,3.66,0,0,1-.28,1.44,3.28,3.28,0,0,1-.79,1.16,3.46,3.46,0,0,1-1.26.76,4.37,4.37,0,0,1-1.66.22,4.72,4.72,0,0,1-2.37-.7,4.38,4.38,0,0,1-1.52-1.6l.28-.31a1.14,1.14,0,0,1,.44-.27,1.25,1.25,0,0,1,.93.06A1.21,1.21,0,0,1,254.09,320Z"/><path class="cls-2" d="M272.58,316.12v.59a.58.58,0,0,1-.65.65H260.51v-.59a.58.58,0,0,1,.66-.65Zm-6.9-5.16v-.13a.94.94,0,0,1,1-1h.9V311h3.74v.6a.59.59,0,0,1-.19.48.66.66,0,0,1-.46.16h-3a2.18,2.18,0,0,0,.65.85,6.4,6.4,0,0,0,1.1.74,9.23,9.23,0,0,0,1.27.6,8.84,8.84,0,0,0,1.23.38l-.27.47a.64.64,0,0,1-.4.34,1.22,1.22,0,0,1-.57,0,8.11,8.11,0,0,1-1-.3,9.42,9.42,0,0,1-1.1-.48,8.75,8.75,0,0,1-1.07-.62,5.12,5.12,0,0,1-.85-.7,3.67,3.67,0,0,1-.87.78,8.18,8.18,0,0,1-1.08.62,8.86,8.86,0,0,1-1.13.45,9,9,0,0,1-1,.27q-.8.15-1.05-.3l-.33-.55a12.86,12.86,0,0,0,1.24-.38,9.77,9.77,0,0,0,1.32-.58,6.31,6.31,0,0,0,1.13-.74,2.31,2.31,0,0,0,.68-.86H262v-.6a.58.58,0,0,1,.19-.46.61.61,0,0,1,.45-.18Zm-3.05,9.78a2.58,2.58,0,0,1,.25-1.08,2.61,2.61,0,0,1,.76-.91,3.9,3.9,0,0,1,1.24-.63,6.51,6.51,0,0,1,3.43,0,3.9,3.9,0,0,1,1.24.63,2.78,2.78,0,0,1,.74.91,2.44,2.44,0,0,1,.25,1.08,2.5,2.5,0,0,1-.25,1.11,2.92,2.92,0,0,1-.74.92,3.9,3.9,0,0,1-1.24.63,6.51,6.51,0,0,1-3.43,0,3.9,3.9,0,0,1-1.24-.63,2.73,2.73,0,0,1-.76-.92A2.65,2.65,0,0,1,262.63,320.74Zm1.92,0a1.63,1.63,0,0,0,.55,1.21,2,2,0,0,0,.64.38,2.54,2.54,0,0,0,.86.14,2.48,2.48,0,0,0,.85-.14,1.77,1.77,0,0,0,.64-.37,1.81,1.81,0,0,0,.4-.55,1.7,1.7,0,0,0,0-1.35,1.65,1.65,0,0,0-.4-.54,2.13,2.13,0,0,0-.64-.38,2.48,2.48,0,0,0-.85-.14,2.54,2.54,0,0,0-.86.14,2,2,0,0,0-.64.38,1.44,1.44,0,0,0-.41.54A1.72,1.72,0,0,0,264.55,320.76Z"/><path class="cls-2" d="M273.29,314.48a4.54,4.54,0,0,1,.24-1.5,3.47,3.47,0,0,1,.69-1.18,3,3,0,0,1,1.1-.78,4,4,0,0,1,2.82,0,3,3,0,0,1,1.05.65,3.34,3.34,0,0,1,.71,1,4.38,4.38,0,0,1,.36,1.29H281V311.5c0-.82.37-1.23,1.12-1.23h.68V321.2a1.28,1.28,0,0,1-.3.91,1,1,0,0,1-.81.32H281v-7.27h-.79a4,4,0,0,1-.37,1.25,3.31,3.31,0,0,1-.72,1,3.17,3.17,0,0,1-1,.63,4.13,4.13,0,0,1-2.8-.05,3.13,3.13,0,0,1-1.1-.79,3.37,3.37,0,0,1-.69-1.18A4.54,4.54,0,0,1,273.29,314.48Zm5.14,0a3.6,3.6,0,0,0-.44-1.91,1.34,1.34,0,0,0-1.2-.7,1.36,1.36,0,0,0-1.2.7,4.37,4.37,0,0,0,0,3.82,1.36,1.36,0,0,0,1.2.7,1.34,1.34,0,0,0,1.2-.7A3.58,3.58,0,0,0,278.43,314.48Zm5.3-3c0-.82.38-1.23,1.12-1.23h.71v11.22a1.35,1.35,0,0,1-.29.92,1,1,0,0,1-.79.32h-.75Z"/><path class="cls-2" d="M294,319a.85.85,0,0,1-.57.27,1,1,0,0,1-.64-.18,10.86,10.86,0,0,1-1.43-1.19,7.23,7.23,0,0,1-1.18-1.49,5.92,5.92,0,0,1-.52.83,7.48,7.48,0,0,1-.68.83c-.25.26-.51.51-.77.74a6.16,6.16,0,0,1-.78.59,1,1,0,0,1-.62.15,1,1,0,0,1-.59-.28l-.45-.43a12.47,12.47,0,0,0,1.36-1.12,7.15,7.15,0,0,0,1.1-1.31,7,7,0,0,0,.72-1.54,5.76,5.76,0,0,0,.27-1.8v-1.13a1.38,1.38,0,0,1,.29-.93,1.09,1.09,0,0,1,.85-.34h.78v2.3a6.07,6.07,0,0,0,.2,1.63A5.08,5.08,0,0,0,292,316a6.78,6.78,0,0,0,1,1.29,10.76,10.76,0,0,0,1.46,1.2Zm3.11,2.47a1.42,1.42,0,0,1-.29.93,1,1,0,0,1-.83.33h-.8v-7.9H292.7v-.59a.58.58,0,0,1,.19-.47.69.69,0,0,1,.46-.17h1.87v-2.06a1.38,1.38,0,0,1,.28-.93,1,1,0,0,1,.84-.34h.8Z"/><path class="cls-2" d="M310.08,319a.85.85,0,0,1-.57.27,1,1,0,0,1-.64-.18,10.8,10.8,0,0,1-1.42-1.19,7,7,0,0,1-1.19-1.49,5,5,0,0,1-.51.83,8.93,8.93,0,0,1-.69.83c-.25.26-.5.51-.77.74a6.1,6.1,0,0,1-.77.59,1.05,1.05,0,0,1-.63.15,1,1,0,0,1-.59-.28l-.45-.43a13.62,13.62,0,0,0,1.37-1.12,7.51,7.51,0,0,0,1.09-1.31,6.19,6.19,0,0,0,.72-1.54,5.76,5.76,0,0,0,.27-1.8v-1.13a1.38,1.38,0,0,1,.29-.93,1.1,1.1,0,0,1,.86-.34h.77v2.3a6.5,6.5,0,0,0,.2,1.63A5.39,5.39,0,0,0,308,316a7.2,7.2,0,0,0,1,1.29,11.41,11.41,0,0,0,1.46,1.2Zm3-3.52v6.21a1,1,0,0,1-.29.77,1.11,1.11,0,0,1-.79.27h-.84V311.3a1.05,1.05,0,0,1,.28-.78,1.13,1.13,0,0,1,.8-.28h.84v4h2v.59a.58.58,0,0,1-.66.65Z"/><path class="cls-2" d="M326.8,316.11v.58a.58.58,0,0,1-.65.66H314.73v-.59a.58.58,0,0,1,.66-.65h2.22v-1.87a2.5,2.5,0,0,1-.71-1.77,2.55,2.55,0,0,1,.29-1.19,2.84,2.84,0,0,1,.8-.93,3.93,3.93,0,0,1,1.23-.61,5.83,5.83,0,0,1,3.1,0,4.16,4.16,0,0,1,1.23.61,2.8,2.8,0,0,1,.79.93,2.44,2.44,0,0,1,.29,1.19,2.51,2.51,0,0,1-.18.95,2.64,2.64,0,0,1-.51.81v1.88Zm-10,4.63a2.57,2.57,0,0,1,.24-1.08,2.63,2.63,0,0,1,.73-.92,4,4,0,0,1,1.23-.64,5.22,5.22,0,0,1,1.73-.25,5.41,5.41,0,0,1,1.74.25,3.8,3.8,0,0,1,1.22.64,2.63,2.63,0,0,1,.73.92,2.57,2.57,0,0,1,0,2.17,2.64,2.64,0,0,1-.73.95,3.63,3.63,0,0,1-1.22.66,5.7,5.7,0,0,1-1.74.25,5.61,5.61,0,0,1-1.74-.25,3.79,3.79,0,0,1-1.23-.66,2.73,2.73,0,0,1-.72-.95A2.58,2.58,0,0,1,316.84,320.74Zm1.92,0a1.67,1.67,0,0,0,.52,1.27,2.06,2.06,0,0,0,1.49.51,2,2,0,0,0,1.48-.51,1.68,1.68,0,0,0,.53-1.27,1.7,1.7,0,0,0-.53-1.28,2.07,2.07,0,0,0-1.48-.5,2.1,2.1,0,0,0-1.49.5A1.7,1.7,0,0,0,318.76,320.76Zm4-8.29a1.73,1.73,0,0,0-.54-1.31,2.27,2.27,0,0,0-2.84,0,1.73,1.73,0,0,0-.54,1.31,1.9,1.9,0,0,0,.14.73,1.56,1.56,0,0,0,.4.55,1.83,1.83,0,0,0,.62.37,2.24,2.24,0,0,0,.8.13,2.28,2.28,0,0,0,.8-.13,1.93,1.93,0,0,0,.62-.37,1.69,1.69,0,0,0,.4-.55A1.9,1.9,0,0,0,322.73,312.47Zm-2,2.92a4.79,4.79,0,0,1-1.27-.14v.86h2.55v-.86A4.88,4.88,0,0,1,320.77,315.39Z"/><path class="cls-2" d="M338.17,310.7l0,1.12a7,7,0,0,1-.44,2.38,8.73,8.73,0,0,1-1.16,2.17,10.52,10.52,0,0,1-1.76,1.84,11.09,11.09,0,0,1-2.22,1.4,1.19,1.19,0,0,1-.6.11.8.8,0,0,1-.52-.22l-.56-.57a16.39,16.39,0,0,0,2-1.24,9.29,9.29,0,0,0,1.66-1.52,6.82,6.82,0,0,0,1.11-1.9,6.16,6.16,0,0,0,.41-2.33h-4.62v-.59a.62.62,0,0,1,.19-.48.71.71,0,0,1,.47-.17Zm1.61,12V311.51a1.38,1.38,0,0,1,.28-.93,1,1,0,0,1,.84-.34h.8v4.15h2V315a.62.62,0,0,1-.19.48.7.7,0,0,1-.46.16H341.7v5.83a1.47,1.47,0,0,1-.28.93,1,1,0,0,1-.84.33Z"/><path class="cls-2" d="M343.38,317v-.59a.57.57,0,0,1,.65-.65h11.41v.58a.58.58,0,0,1-.65.66Zm1.53-2.26V311.4a1.38,1.38,0,0,1,.28-.93,1.07,1.07,0,0,1,.85-.33h.77v3.32h7.37V314a.59.59,0,0,1-.19.48.6.6,0,0,1-.45.17Zm.54,6a2.49,2.49,0,0,1,.26-1.09,2.82,2.82,0,0,1,.75-.95,4,4,0,0,1,1.24-.66,6,6,0,0,1,3.5,0,4,4,0,0,1,1.25.66,2.73,2.73,0,0,1,.76.95,2.48,2.48,0,0,1,.25,1.09,2.53,2.53,0,0,1-.25,1.11,2.76,2.76,0,0,1-.76,1,3.82,3.82,0,0,1-1.25.68,6.25,6.25,0,0,1-3.5,0,3.82,3.82,0,0,1-1.25-.68,2.62,2.62,0,0,1-.75-1A2.68,2.68,0,0,1,345.45,320.7Zm1.92,0a1.8,1.8,0,0,0,.15.73,1.84,1.84,0,0,0,1.07,1,2.32,2.32,0,0,0,.86.14,2.41,2.41,0,0,0,.87-.14A1.85,1.85,0,0,0,351,322a1.57,1.57,0,0,0,.42-.58,1.8,1.8,0,0,0,.15-.73,1.71,1.71,0,0,0-.15-.71,1.53,1.53,0,0,0-.42-.59,1.85,1.85,0,0,0-.65-.39,2.41,2.41,0,0,0-.87-.14,2.32,2.32,0,0,0-.86.14,1.85,1.85,0,0,0-.65.39,1.77,1.77,0,0,0-.42.59A1.71,1.71,0,0,0,347.37,320.71Z"/><rect class="cls-2" x="531.38" y="223.05" width="103.89" height="47" rx="23.5"/></g></svg>