<svg xmlns="http://www.w3.org/2000/svg" viewBox="0 0 750 500"><defs><style>.cls-1{fill:#7fc3ab;}.cls-2{fill:#fff;}.cls-3{fill:none;stroke:#fff;stroke-miterlimit:10;opacity:0.25;}</style></defs><g id="레이어_12" data-name="레이어 12"><path class="cls-1" d="M678,346.51c.73,0,1.44.05,2.14.1V153.39c-.7.05-1.41.1-2.14.1-7.76,0-14-2.93-14-6.54H645.29c0,3.61-6.29,6.54-14,6.54s-14-2.93-14-6.54H598.51c0,3.61-6.29,6.54-14,6.54s-14.05-2.93-14.05-6.54H551.72c0,3.61-6.29,6.54-14.05,6.54s-14-2.93-14-6.54H504.94c0,3.61-6.29,6.54-14.05,6.54s-14.05-2.93-14.05-6.54H458.15c0,3.61-6.29,6.54-14,6.54s-14-2.93-14-6.54H411.37c0,3.61-6.29,6.54-14.05,6.54s-14.05-2.93-14.05-6.54H364.58c0,3.61-6.29,6.54-14.05,6.54s-14-2.93-14-6.54H317.8c0,3.61-6.29,6.54-14.05,6.54S289.7,150.56,289.7,147H271c0,3.61-6.29,6.54-14.05,6.54s-14-2.93-14-6.54H224.23c0,3.61-6.29,6.54-14,6.54s-14.05-2.93-14.05-6.54H177.44c0,3.61-6.29,6.54-14,6.54s-14.05-2.93-14.05-6.54H130.66c0,3.61-6.29,6.54-14,6.54s-14-2.93-14-6.54H83.87c0,3.61-6.29,6.54-14,6.54v193c7.75,0,14,2.92,14,6.54h18.69c0-3.62,6.29-6.54,14-6.54s14,2.92,14,6.54h18.69c0-3.62,6.29-6.54,14.05-6.54s14,2.92,14,6.54h18.69c0-3.62,6.29-6.54,14.05-6.54s14,2.92,14,6.54h18.69c0-3.62,6.29-6.54,14-6.54S271,349.43,271,353.05H289.7c0-3.62,6.29-6.54,14.05-6.54s14.05,2.92,14.05,6.54h18.69c0-3.62,6.29-6.54,14-6.54s14.05,2.92,14.05,6.54h18.69c0-3.62,6.29-6.54,14.05-6.54s14.05,2.92,14.05,6.54h18.69c0-3.62,6.29-6.54,14-6.54s14,2.92,14,6.54h18.69c0-3.62,6.29-6.54,14.05-6.54s14.05,2.92,14.05,6.54h18.68c0-3.62,6.29-6.54,14-6.54s14.05,2.92,14.05,6.54h18.69c0-3.62,6.29-6.54,14.05-6.54s14,2.92,14,6.54h18.68c0-3.62,6.29-6.54,14-6.54s14,2.92,14,6.54H664C664,349.43,670.27,346.51,678,346.51Z"/><path class="cls-2" d="M202.4,224.18a.72.72,0,0,1,.82-.82h1.34l3,8.42,2.8-7.79a.89.89,0,0,1,.34-.46.94.94,0,0,1,.57-.17h1.44v9.18a.61.61,0,0,1-.7.69h-.69V224.7a7.43,7.43,0,0,1-.15.74,4.27,4.27,0,0,1-.18.6l-2.31,6.37a.94.94,0,0,1-.94.69h-1.08L204.12,226a6.1,6.1,0,0,1-.19-.6c-.05-.23-.1-.48-.14-.74v7.84a.62.62,0,0,1-.71.69h-.69Z"/><path class="cls-2" d="M215.52,224.91a.88.88,0,0,1-.64-.24.91.91,0,0,1,0-1.25,1,1,0,0,1,1.29,0,.91.91,0,0,1,0,1.25A.88.88,0,0,1,215.52,224.91Zm-.69,1.8a.53.53,0,0,1,.59-.6h.78v6.54c0,.39-.2.58-.6.58h-.77Z"/><path class="cls-2" d="M220.64,233.44a4.88,4.88,0,0,1-1.73-.31,4.07,4.07,0,0,1-1.4-.89l.39-.5a.44.44,0,0,1,.38-.2.44.44,0,0,1,.28.1,4.14,4.14,0,0,0,.93.5,3.27,3.27,0,0,0,1.15.19,2.29,2.29,0,0,0,1.23-.27.87.87,0,0,0,.13-1.39,2.28,2.28,0,0,0-1-.41l-.91-.2c-.32-.06-.61-.12-.86-.19a2.25,2.25,0,0,1-1.17-.75,2,2,0,0,1,.46-2.74,3.47,3.47,0,0,1,2.09-.57,4.3,4.3,0,0,1,1.6.29,3.32,3.32,0,0,1,1.24.85l-.43.48a.45.45,0,0,1-.36.17.53.53,0,0,1-.29-.11,3.15,3.15,0,0,0-1.8-.57,2,2,0,0,0-1.06.26.86.86,0,0,0-.42.73.84.84,0,0,0,.13.46,1.14,1.14,0,0,0,.57.35,8.43,8.43,0,0,0,.87.26c.33.09.64.16.91.22a2.88,2.88,0,0,1,1.6.72,1.77,1.77,0,0,1,.48,1.26,2,2,0,0,1-.23,1,2.06,2.06,0,0,1-.64.71,3,3,0,0,1-1,.44A4.69,4.69,0,0,1,220.64,233.44Z"/><path class="cls-2" d="M227.49,233.44a4.88,4.88,0,0,1-1.73-.31,4,4,0,0,1-1.4-.89l.38-.5a.47.47,0,0,1,.39-.2.44.44,0,0,1,.28.1,3.94,3.94,0,0,0,.93.5,3.27,3.27,0,0,0,1.15.19,2.29,2.29,0,0,0,1.23-.27.87.87,0,0,0,.13-1.39,2.28,2.28,0,0,0-1-.41l-.91-.2c-.33-.06-.62-.12-.86-.19a2.25,2.25,0,0,1-1.17-.75,1.88,1.88,0,0,1-.37-1.2,1.84,1.84,0,0,1,.82-1.54,3.53,3.53,0,0,1,2.1-.57,4.3,4.3,0,0,1,1.6.29,3.32,3.32,0,0,1,1.24.85l-.43.48a.48.48,0,0,1-.36.17.5.5,0,0,1-.29-.11,3.15,3.15,0,0,0-1.8-.57,2,2,0,0,0-1.06.26.86.86,0,0,0-.42.73.77.77,0,0,0,.13.46,1.14,1.14,0,0,0,.57.35,7.16,7.16,0,0,0,.87.26c.33.09.63.16.91.22a2.88,2.88,0,0,1,1.6.72,1.77,1.77,0,0,1,.48,1.26,2,2,0,0,1-.23,1,2.06,2.06,0,0,1-.64.71,3.13,3.13,0,0,1-1,.44A4.69,4.69,0,0,1,227.49,233.44Z"/><path class="cls-2" d="M232.66,224.91a.88.88,0,0,1-.65-.24.91.91,0,0,1,0-1.25,1,1,0,0,1,1.29,0,.91.91,0,0,1,0,1.25A.88.88,0,0,1,232.66,224.91Zm-.7,1.8a.53.53,0,0,1,.59-.6h.79v6.54c0,.39-.2.58-.6.58H232Z"/><path class="cls-2" d="M238.46,233.44a3.84,3.84,0,0,1-1.49-.29,3.34,3.34,0,0,1-1.17-.78,3.68,3.68,0,0,1-.77-1.21,4.22,4.22,0,0,1-.27-1.54,4.17,4.17,0,0,1,.27-1.53,3.68,3.68,0,0,1,.77-1.21,3.51,3.51,0,0,1,1.17-.79,4.13,4.13,0,0,1,3,0,3.44,3.44,0,0,1,1.93,2,4,4,0,0,1,.28,1.53,4,4,0,0,1-.28,1.54,3.51,3.51,0,0,1-.76,1.21,3.34,3.34,0,0,1-1.17.78A3.86,3.86,0,0,1,238.46,233.44Zm0-1.14a2,2,0,0,0,.93-.2,2.17,2.17,0,0,0,.73-.55,2.59,2.59,0,0,0,.47-.85,3.31,3.31,0,0,0,.17-1.08,3.44,3.44,0,0,0-.17-1.08,2.65,2.65,0,0,0-.47-.84,2.17,2.17,0,0,0-.73-.55,2.24,2.24,0,0,0-1.85,0,2.17,2.17,0,0,0-.73.55,2.88,2.88,0,0,0-.48.84,3.44,3.44,0,0,0-.17,1.08,3.31,3.31,0,0,0,.17,1.08,2.81,2.81,0,0,0,.48.85,2.17,2.17,0,0,0,.73.55A2,2,0,0,0,238.46,232.3Z"/><path class="cls-2" d="M248.27,228.8a2,2,0,0,0-.44-1.34,1.58,1.58,0,0,0-1.24-.5,1.94,1.94,0,0,0-.78.15,1.51,1.51,0,0,0-.57.42,1.89,1.89,0,0,0-.49,1.24v3.88c0,.39-.2.58-.6.58h-.77v-6.64A.52.52,0,0,1,244,226h.78v1a2.57,2.57,0,0,1,1-.9,2.88,2.88,0,0,1,1.34-.32,2.68,2.68,0,0,1,1.09.22,2.29,2.29,0,0,1,.81.59,2.36,2.36,0,0,1,.51.92,3.76,3.76,0,0,1,.17,1.19v3.92a.52.52,0,0,1-.59.58h-.79Z"/><path class="cls-2" d="M258.87,233.5a5.18,5.18,0,0,1-2-.37,4.65,4.65,0,0,1-1.58-1,5,5,0,0,1-1.06-1.64,5.81,5.81,0,0,1-.38-2.13,5.88,5.88,0,0,1,.38-2.15,4.89,4.89,0,0,1,1.06-1.64,4.49,4.49,0,0,1,1.58-1,5.18,5.18,0,0,1,2-.37,4.23,4.23,0,0,1,3.84,2l-.6.39a.66.66,0,0,1-.36.13.49.49,0,0,1-.39-.21,3.12,3.12,0,0,0-1.08-.86,3.29,3.29,0,0,0-1.41-.28,3.74,3.74,0,0,0-1.42.28,3.35,3.35,0,0,0-1.14.83,3.88,3.88,0,0,0-.75,1.27,5.21,5.21,0,0,0,0,3.31,4,4,0,0,0,.75,1.28,3.32,3.32,0,0,0,1.14.82,3.56,3.56,0,0,0,1.42.28,3.31,3.31,0,0,0,1.44-.3,3.54,3.54,0,0,0,1.15-.91.5.5,0,0,1,.4-.19.68.68,0,0,1,.33.11l.61.39a5.35,5.35,0,0,1-1.7,1.55A4.54,4.54,0,0,1,258.87,233.5Z"/><path class="cls-2" d="M266.69,233.44a3.81,3.81,0,0,1-1.49-.29,3.34,3.34,0,0,1-1.17-.78,3.53,3.53,0,0,1-.77-1.21,4.22,4.22,0,0,1-.27-1.54,4.17,4.17,0,0,1,.27-1.53,3.49,3.49,0,0,1,1.94-2,4.1,4.1,0,0,1,3,0,3.45,3.45,0,0,1,1.18.79,3.51,3.51,0,0,1,.76,1.21,4,4,0,0,1,.28,1.53,4,4,0,0,1-.28,1.54,3.51,3.51,0,0,1-.76,1.21,3.29,3.29,0,0,1-1.18.78A3.81,3.81,0,0,1,266.69,233.44Zm0-1.14a2,2,0,0,0,.93-.2,2.17,2.17,0,0,0,.73-.55,2.59,2.59,0,0,0,.47-.85,3.31,3.31,0,0,0,.16-1.08,3.44,3.44,0,0,0-.16-1.08,2.65,2.65,0,0,0-.47-.84,2.17,2.17,0,0,0-.73-.55,2,2,0,0,0-.93-.2,2,2,0,0,0-.92.2,2.17,2.17,0,0,0-.73.55,2.88,2.88,0,0,0-.48.84,3.44,3.44,0,0,0-.17,1.08,3.31,3.31,0,0,0,.17,1.08,2.81,2.81,0,0,0,.48.85,2.17,2.17,0,0,0,.73.55A2,2,0,0,0,266.69,232.3Z"/><path class="cls-2" d="M280.23,228.67a2,2,0,0,0-.36-1.26,1.2,1.2,0,0,0-1-.45,1.39,1.39,0,0,0-.63.15,1.76,1.76,0,0,0-.5.4,1.79,1.79,0,0,0-.34.56,1.82,1.82,0,0,0-.12.65v3.93c0,.39-.2.58-.6.58h-.77v-4.56a2,2,0,0,0-.36-1.26,1.2,1.2,0,0,0-1-.45,1.32,1.32,0,0,0-.62.15,1.68,1.68,0,0,0-.51.4,2,2,0,0,0-.33.56,1.82,1.82,0,0,0-.12.65v3.93c0,.39-.2.58-.6.58h-.76v-6.64a.52.52,0,0,1,.58-.59H273v.89a3.09,3.09,0,0,1,.91-.79,2.34,2.34,0,0,1,1.15-.29,2.08,2.08,0,0,1,1.25.37,2.16,2.16,0,0,1,.76,1,3.16,3.16,0,0,1,1-1,2.44,2.44,0,0,1,1.31-.35,2.12,2.12,0,0,1,1,.21,2,2,0,0,1,.71.58,2.32,2.32,0,0,1,.44.89,3.92,3.92,0,0,1,.15,1.11v4.05c0,.39-.2.58-.6.58h-.77Z"/><path class="cls-2" d="M287.07,233.44a3.05,3.05,0,0,1-1.41-.32,3.2,3.2,0,0,1-1-.9v3.07c0,.39-.2.58-.6.58h-.77v-9.28a.52.52,0,0,1,.59-.59h.78v1a3,3,0,0,1,2.45-1.2,3.39,3.39,0,0,1,1.37.28,3.2,3.2,0,0,1,1.07.79,3.72,3.72,0,0,1,.71,1.21,4.39,4.39,0,0,1,.25,1.53,4.44,4.44,0,0,1-.25,1.54,3.72,3.72,0,0,1-.71,1.21,3,3,0,0,1-1.07.78A3.23,3.23,0,0,1,287.07,233.44Zm-.23-1.14a1.91,1.91,0,0,0,.89-.2,1.89,1.89,0,0,0,.7-.55,2.57,2.57,0,0,0,.46-.85,3.31,3.31,0,0,0,.17-1.08,3.44,3.44,0,0,0-.17-1.08,2.63,2.63,0,0,0-.46-.84,1.89,1.89,0,0,0-.7-.55,2.1,2.1,0,0,0-1.79,0,1.89,1.89,0,0,0-.7.55,2.63,2.63,0,0,0-.46.84,3.76,3.76,0,0,0-.16,1.08,3.6,3.6,0,0,0,.16,1.08,2.57,2.57,0,0,0,.46.85,1.89,1.89,0,0,0,.7.55A1.92,1.92,0,0,0,286.84,232.3Z"/><path class="cls-2" d="M291.82,224a.52.52,0,0,1,.58-.59h.79v9.29c0,.39-.2.58-.6.58h-.77Z"/><path class="cls-2" d="M298.05,233.44a3.6,3.6,0,0,1-1.44-.29,3.22,3.22,0,0,1-1.14-.78,3.78,3.78,0,0,1-.74-1.21,4.44,4.44,0,0,1-.26-1.54,4.38,4.38,0,0,1,.26-1.53,3.78,3.78,0,0,1,.74-1.21,3.38,3.38,0,0,1,1.14-.79,3.77,3.77,0,0,1,1.44-.28,3.53,3.53,0,0,1,1.44.29,3.08,3.08,0,0,1,1.11.79,3.53,3.53,0,0,1,.72,1.18,4.54,4.54,0,0,1,.24,1.5c0,.35-.2.52-.58.52h-5.09a3.5,3.5,0,0,0,.25.9,2.43,2.43,0,0,0,.46.7,2,2,0,0,0,.65.45,2,2,0,0,0,.8.16,3.45,3.45,0,0,0,1.16-.18,4,4,0,0,0,1-.52.41.41,0,0,1,.28-.1.47.47,0,0,1,.36.16l.41.46a4.88,4.88,0,0,1-1.4,1A4.25,4.25,0,0,1,298.05,233.44Zm-2.18-4a1.35,1.35,0,0,1,.44-.29,1.51,1.51,0,0,1,.53-.09h3.25a2,2,0,0,0-.17-.82,1.91,1.91,0,0,0-.44-.66,1.79,1.79,0,0,0-.64-.44,1.86,1.86,0,0,0-.79-.16,2,2,0,0,0-.84.18,2.1,2.1,0,0,0-.68.51,2.51,2.51,0,0,0-.46.78A2.86,2.86,0,0,0,295.87,229.41Z"/><path class="cls-2" d="M302.09,226.51a.45.45,0,0,1,.5-.51h.83v-1.68c0-.39.2-.58.6-.58h.79V226H307v.65a.45.45,0,0,1-.51.51h-1.7v4.22a1,1,0,0,0,.22.71.78.78,0,0,0,.6.23.86.86,0,0,0,.41-.1,3.55,3.55,0,0,0,.39-.2.6.6,0,0,1,.23-.06.43.43,0,0,1,.38.26l.28.49a3.38,3.38,0,0,1-.87.54,2.58,2.58,0,0,1-1,.19A2.22,2.22,0,0,1,304,233a1.92,1.92,0,0,1-.56-1.51v-4.28h-1.33Z"/><path class="cls-2" d="M311.29,233.44a3.6,3.6,0,0,1-1.44-.29,3.1,3.1,0,0,1-1.13-.78,3.46,3.46,0,0,1-.74-1.21,4.22,4.22,0,0,1-.27-1.54,4.17,4.17,0,0,1,.27-1.53,3.46,3.46,0,0,1,.74-1.21,3.25,3.25,0,0,1,1.13-.79,3.77,3.77,0,0,1,1.44-.28,3.53,3.53,0,0,1,1.44.29,3.21,3.21,0,0,1,1.12.79,3.68,3.68,0,0,1,.71,1.18,4.07,4.07,0,0,1,.24,1.5c0,.35-.19.52-.58.52h-5.08a3.13,3.13,0,0,0,.24.9,2.43,2.43,0,0,0,.46.7,2.05,2.05,0,0,0,.65.45,2,2,0,0,0,.8.16,3.45,3.45,0,0,0,1.16-.18,3.82,3.82,0,0,0,.95-.52.41.41,0,0,1,.28-.1.47.47,0,0,1,.36.16l.41.46a4.88,4.88,0,0,1-1.4,1A4.25,4.25,0,0,1,311.29,233.44Zm-2.18-4a1.35,1.35,0,0,1,.44-.29,1.55,1.55,0,0,1,.53-.09h3.25a2,2,0,0,0-.16-.82,2.24,2.24,0,0,0-.44-.66,2,2,0,0,0-.64-.44,1.94,1.94,0,0,0-.8-.16,2,2,0,0,0-.84.18,2.21,2.21,0,0,0-.68.51,2.51,2.51,0,0,0-.46.78A3.11,3.11,0,0,0,309.11,229.41Z"/><path class="cls-2" d="M321.49,232.24a3.26,3.26,0,0,1-1,.88,3,3,0,0,1-1.4.32,3.25,3.25,0,0,1-1.36-.29,3,3,0,0,1-1.08-.78,3.72,3.72,0,0,1-.71-1.21,4.44,4.44,0,0,1-.25-1.54,4.39,4.39,0,0,1,.25-1.53,3.72,3.72,0,0,1,.71-1.21,3.15,3.15,0,0,1,1.08-.79,3.41,3.41,0,0,1,1.36-.28,3,3,0,0,1,1.4.32,3.26,3.26,0,0,1,1,.88V224a.52.52,0,0,1,.6-.59h.78v9.29c0,.39-.2.58-.6.58h-.78Zm-2.22.06a1.92,1.92,0,0,0,.9-.2,2,2,0,0,0,.7-.55,2.57,2.57,0,0,0,.46-.85,3.6,3.6,0,0,0,.16-1.08,3.76,3.76,0,0,0-.16-1.08,2.63,2.63,0,0,0-.46-.84,2,2,0,0,0-.7-.55,2.1,2.1,0,0,0-1.79,0,1.89,1.89,0,0,0-.7.55,2.63,2.63,0,0,0-.46.84,3.18,3.18,0,0,0-.17,1.08,3.06,3.06,0,0,0,.17,1.08,2.57,2.57,0,0,0,.46.85,1.89,1.89,0,0,0,.7.55A1.91,1.91,0,0,0,319.27,232.3Z"/><line class="cls-3" x1="110.89" y1="298.17" x2="640.68" y2="298.17"/><rect class="cls-2" x="108.84" y="236.2" width="13.81" height="28.35" rx="5.29"/><rect class="cls-2" x="168.9" y="225.08" width="13.81" height="23.36" rx="6.9" transform="translate(-105.23 147.41) rotate(-35.77)"/><path class="cls-2" d="M125.57,240v20.84l23.13,10.6a5.44,5.44,0,0,0,4,0c.91-.31,1.47-.52,1.8-.66a.31.31,0,0,0,0-.56l-3.23-1.68a1.78,1.78,0,0,1-.93-2,1.12,1.12,0,0,1,.91-.86,1.8,1.8,0,0,1,1.18.2l7.91,4.39a2.25,2.25,0,0,0,2.44-.56,1.63,1.63,0,0,0,.43-1.23,1.69,1.69,0,0,0-.9-1.33l-10.48-5.67a1.63,1.63,0,0,1-.06-1.78,1.42,1.42,0,0,1,1.64-.37l11.77,6.25s1.85.71,2.87-.58a1.77,1.77,0,0,0,.25-1.67,2.9,2.9,0,0,0-1.32-1.66l-11.4-6.87a1.5,1.5,0,0,1-.73-1.49,1.19,1.19,0,0,1,.22-.52,1.24,1.24,0,0,1,.68-.39,1.89,1.89,0,0,1,1.41.23l11.62,6.91s2.92,1.25,4.11-.14.58-3.54-.2-3.91-18.64-11.79-18.64-11.79-4.31-2.4-7.7,1.11a55.46,55.46,0,0,0-4.87,5.59,5.27,5.27,0,0,1-6.9-.41c-3.33-3.21-1.11-12.88-1.11-12.88Z"/><path class="cls-2" d="M138.44,235.54a3.74,3.74,0,0,0-2.39,2.63,20.69,20.69,0,0,0-.79,6.09c.33,2.54.7,4.06,2.26,4.52s3.54-2.14,4.36-3,3.94-5.76,8.3-5.59,7.6,2.22,13,6,9.86,6.57,9.86,6.57l2.22-2.42L162.4,233.87a3.28,3.28,0,0,0-2.32-1.24c-3.1-.25-10.32-.71-13.19.12C144.43,233.46,140.68,234.75,138.44,235.54Z"/><path class="cls-2" d="M111.39,312.06a.61.61,0,0,1,.69-.7h.72v9a1.43,1.43,0,0,1,.91-.27h4v.56c0,.39-.2.58-.6.58h-5.73Z"/><path class="cls-2" d="M121.41,321.43a3.61,3.61,0,0,1-1.45-.28,3.1,3.1,0,0,1-1.13-.78,3.61,3.61,0,0,1-.74-1.21,4.22,4.22,0,0,1-.27-1.54,4.17,4.17,0,0,1,.27-1.53,3.61,3.61,0,0,1,.74-1.21,3.25,3.25,0,0,1,1.13-.79,3.78,3.78,0,0,1,1.45-.28,3.6,3.6,0,0,1,1.44.29,3.26,3.26,0,0,1,1.11.79,3.51,3.51,0,0,1,.71,1.18,4.07,4.07,0,0,1,.24,1.5c0,.35-.19.52-.57.52h-5.09a3.14,3.14,0,0,0,.25.9,2.63,2.63,0,0,0,.45.7,2,2,0,0,0,.66.45,1.94,1.94,0,0,0,.8.16,3.49,3.49,0,0,0,1.16-.18,3.94,3.94,0,0,0,.94-.52.39.39,0,0,1,.28-.1.47.47,0,0,1,.36.16l.41.46a5,5,0,0,1-1.39,1A4.29,4.29,0,0,1,121.41,321.43Zm-2.19-4a1.46,1.46,0,0,1,.44-.29,1.61,1.61,0,0,1,.53-.1h3.26a2,2,0,0,0-.17-.81,2.06,2.06,0,0,0-.44-.66,2,2,0,0,0-1.43-.6,2,2,0,0,0-.84.18,2,2,0,0,0-.68.51,2.54,2.54,0,0,0-.47.78A3.41,3.41,0,0,0,119.22,317.41Z"/><path class="cls-2" d="M131.73,320.26a3,3,0,0,1-1,.87,3.19,3.19,0,0,1-1.42.3,3.42,3.42,0,0,1-1.39-.28,3.23,3.23,0,0,1-1.12-.78,3.78,3.78,0,0,1-.74-1.21,4,4,0,0,1-.28-1.54,4,4,0,0,1,.28-1.53,3.78,3.78,0,0,1,.74-1.21,3.4,3.4,0,0,1,1.12-.79,3.59,3.59,0,0,1,1.39-.28,3.19,3.19,0,0,1,1.42.31,2.84,2.84,0,0,1,1,.87v-.4a.53.53,0,0,1,.6-.59h.79v6.65c0,.39-.2.58-.6.58h-.79Zm-2.28,0a2,2,0,0,0,.93-.2,2.16,2.16,0,0,0,.72-.55,2.57,2.57,0,0,0,.46-.85,3.1,3.1,0,0,0,.17-1.08,3.14,3.14,0,0,0-.17-1.08,2.52,2.52,0,0,0-.46-.84,2.2,2.2,0,0,0-2.57-.55,2.17,2.17,0,0,0-.73.55,2.54,2.54,0,0,0-.47.84,3.4,3.4,0,0,0-.17,1.08,3.35,3.35,0,0,0,.17,1.08,2.59,2.59,0,0,0,.47.85,2.31,2.31,0,0,0,.73.55A2,2,0,0,0,129.45,320.3Z"/><path class="cls-2" d="M134.7,314.59a.52.52,0,0,1,.59-.59h.78v1.19a2.15,2.15,0,0,1,.91-1,2.49,2.49,0,0,1,.61-.26,2.41,2.41,0,0,1,.64-.09,3.2,3.2,0,0,1,.65.06,3.12,3.12,0,0,1,.43.1l-.2.84a.41.41,0,0,1-.17.27.51.51,0,0,1-.28.08l-.2,0-.24-.05a1.14,1.14,0,0,0-.28,0,2.19,2.19,0,0,0-.73.12,1.85,1.85,0,0,0-.59.35,1.59,1.59,0,0,0-.4.55,1.66,1.66,0,0,0-.15.72v3.86c0,.39-.2.58-.6.58h-.77Z"/><path class="cls-2" d="M144.85,316.8a1.92,1.92,0,0,0-.44-1.34,1.56,1.56,0,0,0-1.24-.5,1.94,1.94,0,0,0-.78.15,1.69,1.69,0,0,0-.57.42,2,2,0,0,0-.36.58,1.84,1.84,0,0,0-.12.66v3.88c0,.39-.2.58-.6.58H140v-6.64a.52.52,0,0,1,.59-.59h.79v1a2.43,2.43,0,0,1,1-.9,2.84,2.84,0,0,1,1.33-.32,2.73,2.73,0,0,1,1.1.22,2.29,2.29,0,0,1,.81.59,2.64,2.64,0,0,1,.51.92,4.07,4.07,0,0,1,.17,1.19v3.92c0,.39-.2.58-.6.58h-.79Z"/><path class="cls-2" d="M148.72,312.91a.88.88,0,0,1-.65-.24.91.91,0,0,1,0-1.25,1,1,0,0,1,1.29,0,.91.91,0,0,1,0,1.25A.88.88,0,0,1,148.72,312.91Zm-.7,1.8a.53.53,0,0,1,.59-.6h.79v6.54c0,.39-.2.58-.6.58H148Z"/><path class="cls-2" d="M156.08,316.8a1.92,1.92,0,0,0-.44-1.34,1.56,1.56,0,0,0-1.24-.5,1.86,1.86,0,0,0-.77.15,1.63,1.63,0,0,0-.58.42,2,2,0,0,0-.36.58,1.84,1.84,0,0,0-.12.66v3.88c0,.39-.2.58-.6.58h-.78v-6.64a.52.52,0,0,1,.59-.59h.79v1a2.43,2.43,0,0,1,1-.9,2.85,2.85,0,0,1,1.34-.32A2.72,2.72,0,0,1,156,314a2.29,2.29,0,0,1,.81.59,2.64,2.64,0,0,1,.51.92,4.07,4.07,0,0,1,.17,1.19v3.92c0,.39-.2.58-.6.58h-.79Z"/><path class="cls-2" d="M162,321.17a3.37,3.37,0,0,1-2.44-1,3.61,3.61,0,0,1-.7-1.17,4.18,4.18,0,0,1-.26-1.48,4.1,4.1,0,0,1,.26-1.48,3.46,3.46,0,0,1,.7-1.16,3.16,3.16,0,0,1,1.08-.76,3.41,3.41,0,0,1,1.36-.28,3.18,3.18,0,0,1,1.41.31,3.13,3.13,0,0,1,1,.85v-.38a.53.53,0,0,1,.6-.59h.79v7.17a3.3,3.3,0,0,1-.25,1.29,2.78,2.78,0,0,1-.71,1,3,3,0,0,1-1.12.62,4.83,4.83,0,0,1-1.47.21,4.43,4.43,0,0,1-1.92-.41,5.24,5.24,0,0,1-1.53-1.13l.41-.44a.56.56,0,0,1,.4-.19.41.41,0,0,1,.3.12,3.84,3.84,0,0,0,1,.66,3.28,3.28,0,0,0,1.3.26,2.3,2.3,0,0,0,1.57-.51,1.81,1.81,0,0,0,.59-1.46V320a2.93,2.93,0,0,1-1,.86A3.18,3.18,0,0,1,162,321.17Zm.23-1.13a2.2,2.2,0,0,0,.9-.19,2.13,2.13,0,0,0,.7-.53,2.49,2.49,0,0,0,.45-.8,3.09,3.09,0,0,0,.16-1,3.13,3.13,0,0,0-.16-1,2.6,2.6,0,0,0-.45-.8,2.13,2.13,0,0,0-.7-.53,2.34,2.34,0,0,0-1.8,0,2,2,0,0,0-.7.53,2.43,2.43,0,0,0-.46.8,3.13,3.13,0,0,0-.17,1,3.09,3.09,0,0,0,.17,1,2.33,2.33,0,0,0,.46.8,2,2,0,0,0,.7.53A2.2,2.2,0,0,0,162.24,320Z"/><path class="cls-2" d="M175.12,321.5a5.18,5.18,0,0,1-2-.37,4.65,4.65,0,0,1-2.64-2.69,6.22,6.22,0,0,1,0-4.28,4.72,4.72,0,0,1,1-1.64,4.62,4.62,0,0,1,1.59-1,5.18,5.18,0,0,1,2-.37,4.25,4.25,0,0,1,3.84,2l-.6.4a.65.65,0,0,1-.36.12.47.47,0,0,1-.39-.2,3.06,3.06,0,0,0-1.09-.86,3.24,3.24,0,0,0-1.4-.28,3.53,3.53,0,0,0-1.42.28,3.46,3.46,0,0,0-1.14.82,3.86,3.86,0,0,0-.75,1.28,5.21,5.21,0,0,0,0,3.31,3.86,3.86,0,0,0,.75,1.28,3.46,3.46,0,0,0,1.14.82,3.53,3.53,0,0,0,1.42.28,3.37,3.37,0,0,0,1.44-.3,3.5,3.5,0,0,0,1.14-.91.47.47,0,0,1,.4-.19.68.68,0,0,1,.34.11l.61.39a5.46,5.46,0,0,1-1.7,1.55A4.56,4.56,0,0,1,175.12,321.5Z"/><path class="cls-2" d="M182.82,321.43a3.64,3.64,0,0,1-1.45-.28,3.18,3.18,0,0,1-1.13-.78,3.78,3.78,0,0,1-.74-1.21,4.44,4.44,0,0,1-.26-1.54,4.38,4.38,0,0,1,.26-1.53,3.78,3.78,0,0,1,.74-1.21,3.34,3.34,0,0,1,1.13-.79,3.82,3.82,0,0,1,1.45-.28,3.6,3.6,0,0,1,1.44.29,3.26,3.26,0,0,1,1.11.79,3.36,3.36,0,0,1,.71,1.18,4.07,4.07,0,0,1,.24,1.5c0,.35-.19.52-.57.52h-5.09a3.5,3.5,0,0,0,.25.9,2.43,2.43,0,0,0,.46.7,1.85,1.85,0,0,0,.65.45,2,2,0,0,0,.8.16,3.45,3.45,0,0,0,1.16-.18,4,4,0,0,0,1-.52.36.36,0,0,1,.27-.1.44.44,0,0,1,.36.16l.42.46a5,5,0,0,1-1.4,1A4.29,4.29,0,0,1,182.82,321.43Zm-2.18-4a1.42,1.42,0,0,1,.43-.29,1.62,1.62,0,0,1,.54-.1h3.25a2,2,0,0,0-.17-.81,2.06,2.06,0,0,0-.44-.66,1.79,1.79,0,0,0-.64-.44,1.89,1.89,0,0,0-.79-.16,2,2,0,0,0-.84.18,2.1,2.1,0,0,0-.68.51,2.51,2.51,0,0,0-.46.78A2.86,2.86,0,0,0,180.64,317.41Z"/><path class="cls-2" d="M192.44,316.8a2,2,0,0,0-.44-1.34,1.58,1.58,0,0,0-1.24-.5,1.94,1.94,0,0,0-.78.15,1.51,1.51,0,0,0-.57.42,1.89,1.89,0,0,0-.49,1.24v3.88c0,.39-.2.58-.6.58h-.77v-6.64a.52.52,0,0,1,.59-.59h.78v1a2.57,2.57,0,0,1,1-.9,2.85,2.85,0,0,1,1.34-.32,2.68,2.68,0,0,1,1.09.22,2.29,2.29,0,0,1,.81.59,2.49,2.49,0,0,1,.51.92,3.76,3.76,0,0,1,.17,1.19v3.92c0,.39-.2.58-.6.58h-.78Z"/><path class="cls-2" d="M194.52,314.51a.44.44,0,0,1,.5-.51h.83v-1.68c0-.39.2-.58.6-.58h.78V314h2.22v.65a.45.45,0,0,1-.51.51h-1.71v4.22a1,1,0,0,0,.22.71.82.82,0,0,0,.61.23,1,1,0,0,0,.41-.1,3.55,3.55,0,0,0,.39-.2.56.56,0,0,1,.23-.06.43.43,0,0,1,.38.26l.28.49a3.38,3.38,0,0,1-.87.54,2.58,2.58,0,0,1-1,.18,2.21,2.21,0,0,1-1.5-.48,1.92,1.92,0,0,1-.56-1.51v-4.28h-1.33Z"/><path class="cls-2" d="M203.72,321.43a3.59,3.59,0,0,1-1.44-.28,3.22,3.22,0,0,1-1.14-.78,3.78,3.78,0,0,1-.74-1.21,4.44,4.44,0,0,1-.26-1.54,4.38,4.38,0,0,1,.26-1.53,3.78,3.78,0,0,1,.74-1.21,3.38,3.38,0,0,1,1.14-.79,3.77,3.77,0,0,1,1.44-.28,3.56,3.56,0,0,1,1.44.29,3.08,3.08,0,0,1,1.11.79,3.53,3.53,0,0,1,.72,1.18,4.29,4.29,0,0,1,.23,1.5c0,.35-.19.52-.57.52h-5.09a3.5,3.5,0,0,0,.25.9,2.43,2.43,0,0,0,.46.7,2,2,0,0,0,.65.45,2,2,0,0,0,.8.16,3.45,3.45,0,0,0,1.16-.18,4,4,0,0,0,1-.52.37.37,0,0,1,.28-.1.47.47,0,0,1,.36.16l.41.46a5,5,0,0,1-1.4,1A4.25,4.25,0,0,1,203.72,321.43Zm-2.18-4a1.35,1.35,0,0,1,.44-.29,1.51,1.51,0,0,1,.53-.1h3.25a2,2,0,0,0-.17-.81,1.91,1.91,0,0,0-.44-.66,1.79,1.79,0,0,0-.64-.44,1.86,1.86,0,0,0-.79-.16,2,2,0,0,0-.84.18,2.1,2.1,0,0,0-.68.51,2.51,2.51,0,0,0-.46.78A2.86,2.86,0,0,0,201.54,317.41Z"/><path class="cls-2" d="M208.45,314.59A.52.52,0,0,1,209,314h.78v1.19a2.15,2.15,0,0,1,.91-1,2.34,2.34,0,0,1,.61-.26,2.41,2.41,0,0,1,.64-.09,3.2,3.2,0,0,1,.65.06,3.12,3.12,0,0,1,.43.1l-.2.84a.41.41,0,0,1-.17.27.54.54,0,0,1-.28.08l-.2,0-.24-.05a1.14,1.14,0,0,0-.28,0,2.19,2.19,0,0,0-.73.12,1.85,1.85,0,0,0-.59.35,1.59,1.59,0,0,0-.4.55,1.66,1.66,0,0,0-.15.72v3.86c0,.39-.2.58-.6.58h-.77Z"/><path class="cls-2" d="M223.22,320.65a.52.52,0,0,1-.59.58H216.5v-.49a1.09,1.09,0,0,1,.32-.76l3.21-3.41a7.18,7.18,0,0,0,1-1.37,2.62,2.62,0,0,0,.37-1.32,1.7,1.7,0,0,0-.43-1.22,1.6,1.6,0,0,0-1.2-.46,1.67,1.67,0,0,0-.67.13,1.83,1.83,0,0,0-1,.9,2.08,2.08,0,0,0-.24.7.5.5,0,0,1-.21.34.59.59,0,0,1-.37.09l-.76-.05a4.12,4.12,0,0,1,.31-1.43,3,3,0,0,1,.7-1,3,3,0,0,1,1-.61,3.8,3.8,0,0,1,2.49,0,2.9,2.9,0,0,1,1,.58,2.62,2.62,0,0,1,.61.89,3.07,3.07,0,0,1,.21,1.16,3.56,3.56,0,0,1-.44,1.67,7.83,7.83,0,0,1-1.29,1.71l-2.81,2.94a.44.44,0,0,1,.19-.05,2.72,2.72,0,0,1,.31,0l.31,0h4.1Z"/><path class="cls-2" d="M231,316.31a9.06,9.06,0,0,1-.26,2.26,4.81,4.81,0,0,1-.71,1.65,3,3,0,0,1-1.1,1,3.19,3.19,0,0,1-1.45.34,3.12,3.12,0,0,1-1.44-.34,3,3,0,0,1-1.11-1,5,5,0,0,1-.71-1.65,10.86,10.86,0,0,1,0-4.54,5,5,0,0,1,.71-1.64,3,3,0,0,1,1.11-1,3.12,3.12,0,0,1,1.44-.34,3.19,3.19,0,0,1,1.45.34,3,3,0,0,1,1.1,1,4.84,4.84,0,0,1,.71,1.64A9.11,9.11,0,0,1,231,316.31Zm-1.44,0a6.73,6.73,0,0,0-.56-3.06,1.62,1.62,0,0,0-3,0,8.47,8.47,0,0,0,0,6.11,1.62,1.62,0,0,0,3,0A6.71,6.71,0,0,0,229.54,316.31Z"/><path class="cls-2" d="M238,320.65c0,.39-.2.58-.6.58h-6.13v-.49a1.14,1.14,0,0,1,.32-.76l3.21-3.41a7.73,7.73,0,0,0,1-1.37,2.71,2.71,0,0,0,.36-1.32,1.7,1.7,0,0,0-.43-1.22,1.59,1.59,0,0,0-1.19-.46,1.72,1.72,0,0,0-.68.13,1.75,1.75,0,0,0-.57.35,1.81,1.81,0,0,0-.43.55,2.08,2.08,0,0,0-.24.7.5.5,0,0,1-.21.34.57.57,0,0,1-.36.09l-.76-.05a4.12,4.12,0,0,1,.3-1.43,3.18,3.18,0,0,1,.7-1,2.92,2.92,0,0,1,1-.61,3.77,3.77,0,0,1,2.48,0,2.9,2.9,0,0,1,1,.58,2.48,2.48,0,0,1,.61.89,3.07,3.07,0,0,1,.22,1.16,3.46,3.46,0,0,1-.45,1.67,7.83,7.83,0,0,1-1.29,1.71l-2.81,2.94a.44.44,0,0,1,.19-.05,3,3,0,0,1,.31,0l.31,0H238Z"/><path class="cls-2" d="M240.88,320.79a2.31,2.31,0,0,1-.07.5,1.86,1.86,0,0,1-.19.5l-.54,1.08a.48.48,0,0,1-.2.22.61.61,0,0,1-.3.08H239l.7-1.46a.87.87,0,0,1-.81-.88.93.93,0,0,1,.27-.69,1,1,0,0,1,.73-.28,1,1,0,0,1,.71.26A.86.86,0,0,1,240.88,320.79Z"/><path class="cls-2" d="M250.47,320.65c0,.39-.2.58-.6.58h-6.13v-.49a1.14,1.14,0,0,1,.32-.76l3.21-3.41a7.73,7.73,0,0,0,1-1.37,2.71,2.71,0,0,0,.36-1.32,1.7,1.7,0,0,0-.43-1.22,1.59,1.59,0,0,0-1.19-.46,1.72,1.72,0,0,0-.68.13,1.65,1.65,0,0,0-.57.35,1.81,1.81,0,0,0-.43.55,2.08,2.08,0,0,0-.24.7.5.5,0,0,1-.21.34.57.57,0,0,1-.36.09l-.76-.05a3.91,3.91,0,0,1,.3-1.43,3,3,0,0,1,.7-1,3,3,0,0,1,1-.61,3.63,3.63,0,0,1,1.24-.21,3.52,3.52,0,0,1,1.25.21,2.9,2.9,0,0,1,1,.58,2.62,2.62,0,0,1,.61.89,3.07,3.07,0,0,1,.21,1.16,3.45,3.45,0,0,1-.44,1.67,7.83,7.83,0,0,1-1.29,1.71l-2.81,2.94a.44.44,0,0,1,.19-.05,3,3,0,0,1,.31,0l.31,0h4.11Z"/><path class="cls-2" d="M258.22,316.31a9.08,9.08,0,0,1-.25,2.26,5.23,5.23,0,0,1-.71,1.65,3.07,3.07,0,0,1-5.11,0,5,5,0,0,1-.7-1.65,10.43,10.43,0,0,1,0-4.54,5,5,0,0,1,.7-1.64,3.07,3.07,0,0,1,5.11,0A5.27,5.27,0,0,1,258,314,9.14,9.14,0,0,1,258.22,316.31Zm-1.44,0a6.6,6.6,0,0,0-.56-3.06,1.62,1.62,0,0,0-3,0,8.61,8.61,0,0,0,0,6.11,1.62,1.62,0,0,0,3,0A6.58,6.58,0,0,0,256.78,316.31Z"/><path class="cls-2" d="M265.55,318.48a3.12,3.12,0,0,1-.24,1.22,2.89,2.89,0,0,1-.68,1,3.12,3.12,0,0,1-1.07.66,3.93,3.93,0,0,1-1.41.24,3.36,3.36,0,0,1-2.09-.65,4.24,4.24,0,0,1-1.32-1.68l.67-.3a.71.71,0,0,1,.26-.05.46.46,0,0,1,.44.24,2.81,2.81,0,0,0,.84.94,2.08,2.08,0,0,0,1.2.37,2.26,2.26,0,0,0,.85-.16,2,2,0,0,0,.61-.44,1.86,1.86,0,0,0,.37-.62,2.1,2.1,0,0,0,.13-.74,1.84,1.84,0,0,0-.18-.83,1.91,1.91,0,0,0-.48-.61,2.2,2.2,0,0,0-.67-.37,2.29,2.29,0,0,0-.78-.14h-.92v-.6a.48.48,0,0,1,.55-.54H262a2,2,0,0,0,.69-.13,1.89,1.89,0,0,0,.56-.35,1.58,1.58,0,0,0,.37-.54,1.59,1.59,0,0,0,.14-.66,1.48,1.48,0,0,0-.44-1.13,1.71,1.71,0,0,0-1.22-.4,1.68,1.68,0,0,0-1,.31,2.63,2.63,0,0,0-.75.88.44.44,0,0,1-.18.22.57.57,0,0,1-.25.06.78.78,0,0,1-.27-.06l-.67-.31a3.78,3.78,0,0,1,1.3-1.68,3.17,3.17,0,0,1,1.86-.56,3.75,3.75,0,0,1,1.31.21,2.83,2.83,0,0,1,1,.56,2.22,2.22,0,0,1,.59.83,2.52,2.52,0,0,1,.2,1,2.5,2.5,0,0,1-.09.66,2.15,2.15,0,0,1-.28.64,2,2,0,0,1-.49.56,2.47,2.47,0,0,1-.71.42,2.36,2.36,0,0,1,.8.38,2.64,2.64,0,0,1,.61.59,3.12,3.12,0,0,1,.4.74A2.57,2.57,0,0,1,265.55,318.48Z"/><path class="cls-2" d="M268.12,320.79a1.82,1.82,0,0,1-.07.5,1.85,1.85,0,0,1-.18.5l-.55,1.08a.48.48,0,0,1-.2.22.6.6,0,0,1-.29.08h-.59l.71-1.46a.89.89,0,0,1-.59-.28.86.86,0,0,1-.23-.6.9.9,0,0,1,.28-.69.94.94,0,0,1,.72-.28,1,1,0,0,1,.72.26A.89.89,0,0,1,268.12,320.79Z"/><path class="cls-2" d="M277.71,320.65c0,.39-.2.58-.6.58H271v-.49a1.14,1.14,0,0,1,.32-.76l3.21-3.41a7.28,7.28,0,0,0,1.05-1.37,2.72,2.72,0,0,0,.37-1.32,1.71,1.71,0,0,0-.44-1.22,1.57,1.57,0,0,0-1.19-.46,1.72,1.72,0,0,0-.68.13,1.87,1.87,0,0,0-.57.35,2,2,0,0,0-.43.55,2.63,2.63,0,0,0-.24.7.49.49,0,0,1-.2.34.62.62,0,0,1-.37.09l-.76-.05a4.12,4.12,0,0,1,.31-1.43,2.89,2.89,0,0,1,.7-1,2.79,2.79,0,0,1,1-.61,3.77,3.77,0,0,1,2.48,0,2.71,2.71,0,0,1,1,.58,2.48,2.48,0,0,1,.61.89,2.89,2.89,0,0,1,.22,1.16,3.46,3.46,0,0,1-.45,1.67,7.76,7.76,0,0,1-1.28,1.71l-2.82,2.94a.44.44,0,0,1,.19-.05,3,3,0,0,1,.31,0l.32,0h4.1Z"/><path class="cls-2" d="M285.46,316.31a9.08,9.08,0,0,1-.25,2.26,5.23,5.23,0,0,1-.71,1.65,3.07,3.07,0,0,1-5.11,0,5,5,0,0,1-.7-1.65,10.43,10.43,0,0,1,0-4.54,5,5,0,0,1,.7-1.64,3.07,3.07,0,0,1,5.11,0,5.27,5.27,0,0,1,.71,1.64A9.14,9.14,0,0,1,285.46,316.31Zm-1.44,0a6.75,6.75,0,0,0-.55-3.06,1.63,1.63,0,0,0-3,0,8.61,8.61,0,0,0,0,6.11,1.63,1.63,0,0,0,3,0A6.73,6.73,0,0,0,284,316.31Z"/><path class="cls-2" d="M293.19,318.68q0,.57-.6.57h-.87v1.42a.61.61,0,0,1-.69.7h-.7v-2.12h-4.8v-.37a1.36,1.36,0,0,1,0-.2.5.5,0,0,1,.09-.2l3.9-6.69a1.21,1.21,0,0,1,.36-.41.94.94,0,0,1,.52-.14h1.3v6.86h1.47Zm-2.86-.58v-5.23l-3.11,5.23Z"/><path class="cls-2" d="M298.8,313a5.15,5.15,0,0,1,1.54.22,3.44,3.44,0,0,1,1.13.58,2.57,2.57,0,0,1,.7.85,2.29,2.29,0,0,1,.24,1,2.24,2.24,0,0,1-.19.93,2.39,2.39,0,0,1-.55.8,3.32,3.32,0,0,1-.91.59,4.43,4.43,0,0,1-1.23.33v1.32h4.66v.72a.39.39,0,0,1-.44.44H293.4v-.72a.39.39,0,0,1,.44-.44h4.22v-1.32a4.43,4.43,0,0,1-1.23-.33,3.12,3.12,0,0,1-.9-.59,2.31,2.31,0,0,1-.74-1.73,2.29,2.29,0,0,1,.24-1,2.46,2.46,0,0,1,.7-.85,3.26,3.26,0,0,1,1.13-.58A5.15,5.15,0,0,1,298.8,313Zm4.3-.79c0,.28-.15.42-.44.42h-8.17V312a.39.39,0,0,1,.44-.44h3.13v-.81a.49.49,0,0,1,.56-.56h.91v1.37h3.57Zm-4.3,1.93a2.54,2.54,0,0,0-1.6.44,1.38,1.38,0,0,0-.56,1.1,1.36,1.36,0,0,0,.56,1.11,2.48,2.48,0,0,0,1.6.45,2.52,2.52,0,0,0,1.6-.45,1.36,1.36,0,0,0,.56-1.11,1.38,1.38,0,0,0-.56-1.1A2.58,2.58,0,0,0,298.8,314.15Z"/><path class="cls-2" d="M312.91,321.39a.59.59,0,0,1-.67.67h-.75v-6.89h-.93a3.94,3.94,0,0,1-.34,1.35,3.39,3.39,0,0,1-.67,1,2.88,2.88,0,0,1-.91.6,2.81,2.81,0,0,1-1.06.2,2.78,2.78,0,0,1-1.14-.24,2.83,2.83,0,0,1-1-.7,3.39,3.39,0,0,1-.67-1.13,4.59,4.59,0,0,1-.24-1.55,4.65,4.65,0,0,1,.24-1.56,3.54,3.54,0,0,1,.67-1.14,2.93,2.93,0,0,1,1-.69,2.77,2.77,0,0,1,1.14-.23,2.81,2.81,0,0,1,1,.19,2.86,2.86,0,0,1,.9.57,3.08,3.08,0,0,1,.67.92,4,4,0,0,1,.37,1.27h.94v-2.74a.6.6,0,0,1,.68-.67h.74Zm-3.73-6.71a3.2,3.2,0,0,0-.45-1.85,1.36,1.36,0,0,0-1.15-.63,1.37,1.37,0,0,0-1.16.63,4.13,4.13,0,0,0,0,3.71,1.37,1.37,0,0,0,1.16.63,1.36,1.36,0,0,0,1.15-.63A3.19,3.19,0,0,0,309.18,314.68Zm5.94,6.85a.59.59,0,0,1-.67.66h-.73V311.27a.59.59,0,0,1,.65-.67h.75Z"/><path class="cls-2" d="M323.22,318.94a.64.64,0,0,1-.47.24.74.74,0,0,1-.43-.17,13.61,13.61,0,0,1-1.41-1.34,10.14,10.14,0,0,1-1.12-1.51,10.46,10.46,0,0,1-2.59,3.12.74.74,0,0,1-.43.17.68.68,0,0,1-.47-.23l-.44-.42a9.06,9.06,0,0,0,2.32-2.59,6.12,6.12,0,0,0,.83-3.09v-1.58a.58.58,0,0,1,.65-.66h.81v2.24a5.44,5.44,0,0,0,.21,1.53,5.87,5.87,0,0,0,.6,1.36,7.21,7.21,0,0,0,1,1.26,13.71,13.71,0,0,0,1.35,1.22Zm3,2.59a.59.59,0,0,1-.67.66h-.78v-7.42h-2.63v-.72c0-.28.15-.42.44-.42h2.19v-2.36a.59.59,0,0,1,.66-.67h.79Z"/><path class="cls-2" d="M337.08,318.89a.6.6,0,0,1-.46.24.71.71,0,0,1-.43-.17,11.85,11.85,0,0,1-1.41-1.34,10,10,0,0,1-1.12-1.51,10.85,10.85,0,0,1-1.17,1.72,9.84,9.84,0,0,1-1.43,1.39.66.66,0,0,1-.42.19.69.69,0,0,1-.48-.24l-.43-.43a8.94,8.94,0,0,0,2.32-2.59,6,6,0,0,0,.82-3.08v-1.53a.58.58,0,0,1,.66-.66h.81v2.19a5.32,5.32,0,0,0,.21,1.52,5.54,5.54,0,0,0,.6,1.37,8,8,0,0,0,1,1.26,16.41,16.41,0,0,0,1.34,1.22Zm4.55-3.89a.39.39,0,0,1-.44.43h-1.51v6.1a.58.58,0,0,1-.66.66h-.79V311.27a.59.59,0,0,1,.67-.67h.78v3.68h1.95Z"/><path class="cls-2" d="M347.13,310.14a5.53,5.53,0,0,1,1.54.2,3.74,3.74,0,0,1,1.15.56,2.31,2.31,0,0,1,.71.82,2.17,2.17,0,0,1,.24,1,2.27,2.27,0,0,1-.26,1,2.3,2.3,0,0,1-.76.83v1.63h2.77v.69a.39.39,0,0,1-.44.44H341.73v-.69a.39.39,0,0,1,.44-.44h2.33V314.6a2.26,2.26,0,0,1-1-1.88,2.17,2.17,0,0,1,.24-1,2.31,2.31,0,0,1,.71-.82,3.79,3.79,0,0,1,1.14-.56A5.66,5.66,0,0,1,347.13,310.14Zm3.64,10.28a2.14,2.14,0,0,1-.24,1,2.49,2.49,0,0,1-.71.82,3.33,3.33,0,0,1-1.15.55,5.18,5.18,0,0,1-1.54.2,5.3,5.3,0,0,1-1.55-.2,3.36,3.36,0,0,1-1.14-.55,2.49,2.49,0,0,1-.71-.82,2.14,2.14,0,0,1-.24-1,2.17,2.17,0,0,1,.24-1,2.49,2.49,0,0,1,.71-.82,3.56,3.56,0,0,1,1.14-.55,5.66,5.66,0,0,1,1.55-.2,5.53,5.53,0,0,1,1.54.2,3.52,3.52,0,0,1,1.15.55,2.49,2.49,0,0,1,.71.82A2.17,2.17,0,0,1,350.77,320.42Zm-1.46-7.7a1.24,1.24,0,0,0-.57-1,3.3,3.3,0,0,0-3.22,0,1.2,1.2,0,0,0,0,2.05,3.3,3.3,0,0,0,3.22,0A1.24,1.24,0,0,0,349.31,312.72Zm0,7.7a1.24,1.24,0,0,0-.57-1,3.3,3.3,0,0,0-3.22,0,1.25,1.25,0,0,0-.58,1,1.22,1.22,0,0,0,.58,1,3.3,3.3,0,0,0,3.22,0A1.21,1.21,0,0,0,349.31,320.42Zm-1-4.19v-1a4.72,4.72,0,0,1-.56.08,5.74,5.74,0,0,1-.6,0,5.93,5.93,0,0,1-.61,0,4.85,4.85,0,0,1-.55-.08v1Z"/><path class="cls-2" d="M362.12,311.8a7.19,7.19,0,0,1-.4,2.37,8.42,8.42,0,0,1-1.1,2.1,9.82,9.82,0,0,1-1.63,1.79,12.92,12.92,0,0,1-2,1.46.77.77,0,0,1-.4.12.7.7,0,0,1-.52-.28l-.41-.5a10.67,10.67,0,0,0,1.86-1.16,9.42,9.42,0,0,0,1.57-1.52,7.19,7.19,0,0,0,1.1-1.84,5.79,5.79,0,0,0,.46-2.11H356v-.71a.4.4,0,0,1,.45-.45h5.64Zm4.87,3.75c0,.28-.14.42-.44.42h-1.5v5.56a.59.59,0,0,1-.67.66h-.78V311.27a.59.59,0,0,1,.66-.67h.79v4.23H367Z"/><path class="cls-2" d="M377.89,316.58a.39.39,0,0,1-.44.44H367.1v-.7a.39.39,0,0,1,.44-.44h10.35Zm-1.29-2.18a.39.39,0,0,1-.44.44h-7.57v-3.49a.59.59,0,0,1,.67-.67H370v3h6.56Zm-.47,6a2.17,2.17,0,0,1-.24,1,2.21,2.21,0,0,1-.71.82,3.79,3.79,0,0,1-1.14.56,6.07,6.07,0,0,1-3.09,0,3.85,3.85,0,0,1-1.15-.56,2.28,2.28,0,0,1-.7-.82,2.22,2.22,0,0,1,0-2,2.28,2.28,0,0,1,.7-.82A3.63,3.63,0,0,1,371,318a6.07,6.07,0,0,1,3.09,0,3.57,3.57,0,0,1,1.14.56,2.21,2.21,0,0,1,.71.82A2.15,2.15,0,0,1,376.13,320.41Zm-1.45,0a1.13,1.13,0,0,0-.15-.57,1.64,1.64,0,0,0-.42-.46,2.44,2.44,0,0,0-.69-.31,3.94,3.94,0,0,0-1.85,0,2.44,2.44,0,0,0-.69.31,1.5,1.5,0,0,0-.42.46,1.13,1.13,0,0,0-.15.57,1.24,1.24,0,0,0,.57,1,2.68,2.68,0,0,0,1.61.42,2.71,2.71,0,0,0,1.62-.42A1.24,1.24,0,0,0,374.68,320.41Z"/><path class="cls-2" d="M219.43,244.14a.92.92,0,0,1-1.06,1H202.68v-1.6a.94.94,0,0,1,1.06-1.06h5.63V241a1.19,1.19,0,0,1,1.35-1.34h2.17v2.81h6.54Zm-.9,7.2a4.23,4.23,0,0,1-.62,2.28,5.74,5.74,0,0,1-1.65,1.68,8.2,8.2,0,0,1-2.36,1.06,10.84,10.84,0,0,1-5.54,0A8.14,8.14,0,0,1,206,255.3a5.74,5.74,0,0,1-1.65-1.68,4.48,4.48,0,0,1,0-4.55,5.74,5.74,0,0,1,1.65-1.68,8.14,8.14,0,0,1,2.35-1.06,10.55,10.55,0,0,1,5.54,0,8.2,8.2,0,0,1,2.36,1.06,5.74,5.74,0,0,1,1.65,1.68A4.22,4.22,0,0,1,218.53,251.34Zm-7.4-2.65a5.28,5.28,0,0,0-2.78.68,2.29,2.29,0,0,0,0,3.94,5.19,5.19,0,0,0,2.78.69,5.25,5.25,0,0,0,2.79-.69,2.29,2.29,0,0,0,0-3.94A5.34,5.34,0,0,0,211.13,248.69Zm14.77,17.86a1.86,1.86,0,0,1-2.09,2.12H207.45v-8.58a1.42,1.42,0,0,1,1.6-1.61H225.9Zm-3.49-5.31H210.94v4.67h11.47Zm7.52-12a.92.92,0,0,1-1.06,1h-3v5.06a1.42,1.42,0,0,1-1.61,1.6h-1.88V242.41a1.41,1.41,0,0,1,1.6-1.6h1.89v6.75h4Z"/><path class="cls-2" d="M251.48,266.75a1.42,1.42,0,0,1-1.6,1.6h-1.66V253.94h-3.56a24.36,24.36,0,0,1-1.47,4.34,18.51,18.51,0,0,1-2.34,3.85,1.27,1.27,0,0,1-1.06.49,2.21,2.21,0,0,1-1-.29l-1.15-.71a20.42,20.42,0,0,0,2.3-3.78,23.63,23.63,0,0,0,1.49-4.13,30.22,30.22,0,0,0,.8-4.4,43.58,43.58,0,0,0,.24-4.6H240a35.94,35.94,0,0,1-.32,4.28,29.54,29.54,0,0,1-.87,4.18,24.34,24.34,0,0,1-1.5,4,20.87,20.87,0,0,1-2.28,3.69,1.18,1.18,0,0,1-1,.52,1.94,1.94,0,0,1-1-.32l-1.16-.71a19.94,19.94,0,0,0,2.36-3.68,22.57,22.57,0,0,0,1.5-3.92,27.23,27.23,0,0,0,.8-4,34,34,0,0,0,.24-4H233.1V243a1,1,0,0,1,1.09-1.09h11.53v1.76c0,1.28,0,2.54-.11,3.78s-.21,2.46-.4,3.68h3v-8.74a1.41,1.41,0,0,1,1.6-1.6h1.66Zm5.22.32a1.42,1.42,0,0,1-1.6,1.6h-1.7V242.41a1.42,1.42,0,0,1,1.61-1.6h1.69Z"/><path class="cls-2" d="M277.74,245.13a.94.94,0,0,1-1.06,1.06H261v-1.7a.94.94,0,0,1,1.06-1.06h5.7v-2.24a1.19,1.19,0,0,1,1.35-1.34h2.17v3.58h6.44Zm-8.2,2.18a8.48,8.48,0,0,1,2.89.49,7.75,7.75,0,0,1,2.46,1.46,7,7,0,0,1,1.73,2.36,8.25,8.25,0,0,1,0,6.37,6.94,6.94,0,0,1-1.73,2.35,7.57,7.57,0,0,1-2.46,1.46,8.68,8.68,0,0,1-5.75,0,7.46,7.46,0,0,1-2.48-1.46,6.81,6.81,0,0,1-1.73-2.35,8.25,8.25,0,0,1,0-6.37,6.85,6.85,0,0,1,1.73-2.36,7.63,7.63,0,0,1,2.48-1.46A8.47,8.47,0,0,1,269.54,247.31Zm4.23,7.49a6,6,0,0,0-.32-2,4,4,0,0,0-.9-1.48,4.13,4.13,0,0,0-1.34-.91,4.49,4.49,0,0,0-3.33,0,4.29,4.29,0,0,0-1.35.91,4.12,4.12,0,0,0-.89,1.48,5.77,5.77,0,0,0-.32,2,5.92,5.92,0,0,0,.32,2.05,3.86,3.86,0,0,0,2.24,2.4,4.49,4.49,0,0,0,3.33,0,3.84,3.84,0,0,0,1.34-.91,3.89,3.89,0,0,0,.9-1.49A6.17,6.17,0,0,0,273.77,254.8Zm14.89-1.92a.93.93,0,0,1-1.06,1H284v13.16a1.42,1.42,0,0,1-1.61,1.6H280.5V242.41a1.41,1.41,0,0,1,1.6-1.6H284v10.34h4.67Z"/><path class="cls-2" d="M316.46,256.82a.92.92,0,0,1-1.06,1H290.52v-1.72a.92.92,0,0,1,1.05-1h24.89Zm-2.92-5.92a.93.93,0,0,1-1.05,1H293.91V242.6a1.42,1.42,0,0,1,1.6-1.6h1.89v8.17h16.14Zm0,16.71a.93.93,0,0,1-1.05,1.06H293.91v-7a1.42,1.42,0,0,1,1.6-1.6h1.89v5.79h16.14Z"/><path class="cls-2" d="M343.52,245.13a.94.94,0,0,1-1.06,1.06H326.8v-1.7a.94.94,0,0,1,1.06-1.06h5.7v-2.24a1.18,1.18,0,0,1,1.34-1.34h2.18v3.58h6.44Zm-8.2,2.18a8.46,8.46,0,0,1,2.88.49,7.8,7.8,0,0,1,2.47,1.46,7,7,0,0,1,1.72,2.36,8.13,8.13,0,0,1,0,6.37,6.91,6.91,0,0,1-1.72,2.35,7.62,7.62,0,0,1-2.47,1.46,8.68,8.68,0,0,1-5.75,0,7.56,7.56,0,0,1-2.48-1.46,6.94,6.94,0,0,1-1.73-2.35,8.25,8.25,0,0,1,0-6.37,7,7,0,0,1,1.73-2.36,7.74,7.74,0,0,1,2.48-1.46A8.53,8.53,0,0,1,335.32,247.31Zm4.22,7.49a5.77,5.77,0,0,0-.32-2,4.12,4.12,0,0,0-.89-1.48,4.18,4.18,0,0,0-1.35-.91,4.31,4.31,0,0,0-1.66-.32,4.36,4.36,0,0,0-1.67.32,4.13,4.13,0,0,0-1.34.91,4,4,0,0,0-.9,1.48,6,6,0,0,0-.32,2,6.17,6.17,0,0,0,.32,2.05,3.89,3.89,0,0,0,.9,1.49,3.84,3.84,0,0,0,1.34.91,4.18,4.18,0,0,0,1.67.32,4.13,4.13,0,0,0,1.66-.32,3.88,3.88,0,0,0,1.35-.91,4,4,0,0,0,.89-1.49A5.92,5.92,0,0,0,339.54,254.8Zm14.9-1.92a.93.93,0,0,1-1.06,1h-3.62v13.16a1.42,1.42,0,0,1-1.6,1.6h-1.89V242.41a1.41,1.41,0,0,1,1.6-1.6h1.89v10.34h4.68Z"/><path class="cls-2" d="M382.23,263.7a.93.93,0,0,1-1.05,1.06H356.29V263a.93.93,0,0,1,1.06-1h8.17v-7.72a1.38,1.38,0,0,1,1.56-1.57h2V262h13.19ZM378.52,249c0,.66,0,1.34,0,2s-.05,1.4-.11,2.09-.11,1.34-.17,2-.14,1.2-.23,1.71a1.43,1.43,0,0,1-1.63,1.28h-1.95q.32-2.18.48-4.35c.1-1.46.16-2.82.16-4.1v-5.1H359.69v-1.69a1,1,0,0,1,1.09-1.09h17.74Z"/><path class="cls-2" d="M401.16,243.15a.93.93,0,0,1-1.06,1h-4.58v.9a5.27,5.27,0,0,0,.53,2.35,7.82,7.82,0,0,0,1.44,2,14.07,14.07,0,0,0,2.19,1.81c.86.58,1.78,1.15,2.76,1.73l-.83,1.12a1.63,1.63,0,0,1-1.25.7,2.1,2.1,0,0,1-.93-.25,20.17,20.17,0,0,1-2.9-1.91,17.06,17.06,0,0,1-2.64-2.61,19.31,19.31,0,0,1-2.64,3.11,17.3,17.3,0,0,1-3,2.3,1.93,1.93,0,0,1-1.06.36,1.67,1.67,0,0,1-1.18-.61l-.93-1a20.26,20.26,0,0,0,5.08-4.3A7.57,7.57,0,0,0,392,245.1v-.9h-5.8v-1.66a.93.93,0,0,1,1.06-1.06h13.93Zm7.33,23.4a1.86,1.86,0,0,1-2.08,2.12H390.05V258.1a1.4,1.4,0,0,1,1.6-1.57h1.89v3.52H405v-2.21a1.18,1.18,0,0,1,1.35-1.31h2.14ZM405,266v-3.3H393.54V266Zm7.53-18a.93.93,0,0,1-1.06,1h-3v4.71a1.42,1.42,0,0,1-1.6,1.6H405V242.41a1.41,1.41,0,0,1,1.6-1.6h1.89v5.47h4Z"/><path class="cls-2" d="M423,241.58a8.63,8.63,0,0,1,3.09.57,7.77,7.77,0,0,1,2.64,1.72,8.28,8.28,0,0,1,1.84,2.78,10.78,10.78,0,0,1,0,7.59,8.43,8.43,0,0,1-1.84,2.79,7.6,7.6,0,0,1-2.64,1.71,8.52,8.52,0,0,1-6.18,0,7.55,7.55,0,0,1-2.65-1.71,8.58,8.58,0,0,1-1.84-2.79,10.78,10.78,0,0,1,0-7.59,8.43,8.43,0,0,1,1.84-2.78,7.72,7.72,0,0,1,2.65-1.72A8.55,8.55,0,0,1,423,241.58Zm4.77,8.87a6.79,6.79,0,0,0-1.35-4.55,4.52,4.52,0,0,0-6.85,0,6.79,6.79,0,0,0-1.35,4.55,8.78,8.78,0,0,0,.36,2.62,5.46,5.46,0,0,0,1,1.94,4.26,4.26,0,0,0,1.52,1.19,4.85,4.85,0,0,0,3.81,0,4.17,4.17,0,0,0,1.52-1.19,5.64,5.64,0,0,0,1-1.94A9.13,9.13,0,0,0,427.77,250.45Zm10.57,16.62a1.42,1.42,0,0,1-1.61,1.6h-1.89V242.41a1.42,1.42,0,0,1,1.61-1.6h1.89Z"/><rect class="cls-2" x="499.29" y="223.05" width="135" height="47" rx="23.5"/><path class="cls-1" d="M524.47,239.84a.7.7,0,0,1,.79-.79h8.34v1.18a10.34,10.34,0,0,1-.59,3.53,12.77,12.77,0,0,1-1.62,3.08,14.88,14.88,0,0,1-2.37,2.59,20.73,20.73,0,0,1-2.86,2.09,1.16,1.16,0,0,1-.7.22,1.24,1.24,0,0,1-.93-.49l-.64-.79a14.33,14.33,0,0,0,1.59-.91,18.24,18.24,0,0,0,1.52-1.14,13.86,13.86,0,0,0,2.56-2.88h-5.09v-1.06a.7.7,0,0,1,.79-.78h5.26a8.59,8.59,0,0,0,.57-2.75h-6.62Zm11.35-.28a1,1,0,0,1,1.18-1.17h1.26v15.9a1,1,0,0,1-1.18,1.18h-1.26Z"/><path class="cls-1" d="M541.11,239.56a.69.69,0,0,1,.78-.78h6.6v.78a8.1,8.1,0,0,1-.39,2.52,8.55,8.55,0,0,1-1.14,2.23,9.15,9.15,0,0,1-1.83,1.85,11,11,0,0,1-2.45,1.4,1.81,1.81,0,0,1-.67.13,1.08,1.08,0,0,1-1-.47l-.53-.71a13.87,13.87,0,0,0,2.42-1.28,8.37,8.37,0,0,0,1.64-1.43h-3.47v-1.06a.69.69,0,0,1,.78-.78h3.81a5.77,5.77,0,0,0,.33-1.3h-4.92Zm2.84,9.65a1,1,0,0,1,1.18-1.18h1.26v2h7v-1a.86.86,0,0,1,1-1h1.45v5.87a1.39,1.39,0,0,1-1.57,1.57H544Zm9.39,4.41v-1.8h-7v1.8Zm2.43-7.38a1,1,0,0,1-1.17,1.18h-1.18v-3.77h-1.65v2.59a1,1,0,0,1-1.18,1.18h-1.18v-7.86a1,1,0,0,1,1.18-1.17h1.18v3.33h1.65v-2.16a1,1,0,0,1,1.18-1.17h1.17Z"/><path class="cls-1" d="M577,252.33a.69.69,0,0,1-.79.78H561.07V252a.7.7,0,0,1,.79-.78h2.73v-4.36a1,1,0,0,1,1.18-1.18H567v5.54h1.56v-4.36a1,1,0,0,1,1.17-1.18H571v5.54h6Zm-2.24-8.92c0,.83,0,1.66-.08,2.5s-.12,1.54-.19,2.12a1.07,1.07,0,0,1-1.22,1H572c.12-.91.21-1.8.28-2.68s.1-1.72.1-2.51v-2.9h-9.23v-1.14a.7.7,0,0,1,.78-.79h10.88Z"/><path class="cls-1" d="M594.63,244.43a.69.69,0,0,1-.78.79h-1.67v5.26a1,1,0,0,1-1.18,1.18h-1.26v-2.59a31.22,31.22,0,0,1-3.46.56c-1.2.12-2.47.18-3.8.18h-4.87v-1.14a.69.69,0,0,1,.78-.78h3.89v-1.28a5.65,5.65,0,0,1-1.3-.41,3.67,3.67,0,0,1-1.05-.71,3.15,3.15,0,0,1-.69-1,3,3,0,0,1-.26-1.26,2.75,2.75,0,0,1,.26-1.23,2.54,2.54,0,0,1,.7-.89h-1.8v-1.07a.69.69,0,0,1,.78-.78h3.36v-.69a.87.87,0,0,1,1-1h1.5v1.67h4v1.06a.7.7,0,0,1-.78.79h-.93a2.57,2.57,0,0,1,.71.89,2.76,2.76,0,0,1,.25,1.23,3,3,0,0,1-.25,1.26,3,3,0,0,1-.7,1,3.49,3.49,0,0,1-1,.71,5.81,5.81,0,0,1-1.3.41v1.26q1.29-.06,2.55-.21a13.75,13.75,0,0,0,2.43-.48v-7.62a1,1,0,0,1,1.18-1.17h1.26v4.9h2.45Zm-2.16,9.11v1.14a.69.69,0,0,1-.78.79h-11v-3.63a1,1,0,0,1,1.18-1.18h1.26v2.88ZM585.62,243a1.69,1.69,0,0,0-.59-1.38,2.62,2.62,0,0,0-3,0,1.91,1.91,0,0,0,0,2.76,2.57,2.57,0,0,0,3,0A1.69,1.69,0,0,0,585.62,243Z"/><path class="cls-1" d="M594.93,245.61a.69.69,0,0,1,.78-.78h5.83c.25,0,.51,0,.77,0a13.48,13.48,0,0,0,.19-1.34c0-.43,0-.88,0-1.33v-1.61H596.1v-1.14a.7.7,0,0,1,.79-.79H605v3.34c0,.47,0,.92-.06,1.34a11.71,11.71,0,0,1-.21,1.35c.31,0,.62-.08.93-.14l.91-.17v1.06a.85.85,0,0,1-.78,1c-.63.1-1.3.19-2,.25s-1.43.11-2.18.14v1.91a.94.94,0,0,1-.29.68,1.2,1.2,0,0,1-.89.3h-1.29v-2.85h-4.18ZM610,253.54v1.14a.7.7,0,0,1-.79.79h-11v-3.93a1,1,0,0,1,1.17-1.18h1.26v3.18Zm-2.73-14a1,1,0,0,1,1.18-1.17h1.25v12.09a1,1,0,0,1-1.18,1.18h-1.25v-2.08h-3.67v-1.14a.7.7,0,0,1,.78-.79h2.89Z"/><path class="cls-2" d="M117.27,197.21a1.28,1.28,0,0,1-1.46,1.44h-9.87v-1a1.91,1.91,0,0,1,.2-.83,3,3,0,0,1,.5-.76l4.92-5.23a10.55,10.55,0,0,0,1.48-2,3.91,3.91,0,0,0,.53-1.9,2.3,2.3,0,0,0-.52-1.55,1.91,1.91,0,0,0-1.49-.59,2.39,2.39,0,0,0-1.65.61,3,3,0,0,0-.89,1.63,1.27,1.27,0,0,1-.52.81,1.39,1.39,0,0,1-.9.23l-1.55-.11a7.35,7.35,0,0,1,.53-2.59,5.28,5.28,0,0,1,1.21-1.79,4.55,4.55,0,0,1,1.7-1,6.33,6.33,0,0,1,2.07-.33,6.09,6.09,0,0,1,2.1.34,4.52,4.52,0,0,1,1.61.95,4.35,4.35,0,0,1,1,1.48,5,5,0,0,1,.37,1.93,5.73,5.73,0,0,1-.68,2.67,10.83,10.83,0,0,1-2,2.6l-4.1,4.21a1.84,1.84,0,0,1,.7-.23,4.52,4.52,0,0,1,.8-.09h5.82Z"/><path class="cls-2" d="M130.71,190.71a14.36,14.36,0,0,1-.42,3.65,7.9,7.9,0,0,1-1.2,2.65,5,5,0,0,1-1.86,1.62,5.6,5.6,0,0,1-4.84,0,5.08,5.08,0,0,1-1.85-1.62,8.1,8.1,0,0,1-1.19-2.65,15.71,15.71,0,0,1,0-7.3,8,8,0,0,1,1.19-2.64,5.38,5.38,0,0,1,6.69-1.62,5.13,5.13,0,0,1,1.86,1.62,7.85,7.85,0,0,1,1.2,2.64A14.31,14.31,0,0,1,130.71,190.71Zm-3.17,0a10.55,10.55,0,0,0-.73-4.39,2.23,2.23,0,0,0-2-1.51,2.2,2.2,0,0,0-2,1.51,13.66,13.66,0,0,0,0,8.81,2.2,2.2,0,0,0,2,1.51,2.23,2.23,0,0,0,2-1.51A10.61,10.61,0,0,0,127.54,190.71Z"/><path class="cls-2" d="M143.48,197.21a1.28,1.28,0,0,1-1.46,1.44h-9.87v-1a1.9,1.9,0,0,1,.19-.83,3.37,3.37,0,0,1,.51-.76l4.91-5.23a9.74,9.74,0,0,0,1.48-2,3.8,3.8,0,0,0,.53-1.9,2.25,2.25,0,0,0-.52-1.55,1.88,1.88,0,0,0-1.49-.59,2.38,2.38,0,0,0-1.64.61,2.92,2.92,0,0,0-.9,1.63,1.2,1.2,0,0,1-.52.81,1.36,1.36,0,0,1-.9.23l-1.54-.11a7.35,7.35,0,0,1,.53-2.59,5.41,5.41,0,0,1,1.2-1.79,4.59,4.59,0,0,1,1.71-1,6.31,6.31,0,0,1,2.06-.33,6.11,6.11,0,0,1,2.11.34,4.7,4.7,0,0,1,1.61.95,4.2,4.2,0,0,1,1,1.48,4.81,4.81,0,0,1,.37,1.93,5.71,5.71,0,0,1-.67,2.67,11.1,11.1,0,0,1-2,2.6l-4.11,4.21a1.9,1.9,0,0,1,.71-.23,4.42,4.42,0,0,1,.79-.09h5.83Z"/><path class="cls-2" d="M156.79,193.72a5.25,5.25,0,0,1-1.69,4,5.52,5.52,0,0,1-1.84,1.11,6.52,6.52,0,0,1-2.27.39,6.41,6.41,0,0,1-2.25-.39,5.45,5.45,0,0,1-1.82-1.09A5,5,0,0,1,145.7,196a5,5,0,0,1-.45-2.14,7.67,7.67,0,0,1,.44-2.51,15.88,15.88,0,0,1,1-2.32l3.14-5.73a1.28,1.28,0,0,1,.57-.58,2,2,0,0,1,1-.18h2.23l-3.24,6a2.79,2.79,0,0,1,1.22-.24,5.66,5.66,0,0,1,2.08.38,5.13,5.13,0,0,1,1.65,1.08,4.87,4.87,0,0,1,1.09,1.71A6.18,6.18,0,0,1,156.79,193.72Zm-3.24,0a3.6,3.6,0,0,0-.18-1.15,2.79,2.79,0,0,0-.51-.93,2.24,2.24,0,0,0-.8-.62,2.47,2.47,0,0,0-1.07-.22,2.36,2.36,0,0,0-1,.22,2.54,2.54,0,0,0-.8.62,2.64,2.64,0,0,0-.52.93,3.6,3.6,0,0,0-.18,1.15,3.49,3.49,0,0,0,.18,1.14,2.78,2.78,0,0,0,.52.94,2.54,2.54,0,0,0,.8.62,2.36,2.36,0,0,0,1,.22,2.47,2.47,0,0,0,1.07-.22,2.24,2.24,0,0,0,.8-.62,2.94,2.94,0,0,0,.51-.94A3.49,3.49,0,0,0,153.55,193.72Z"/><path class="cls-2" d="M171,199.08a8.46,8.46,0,0,1-3.24-.61,7.78,7.78,0,0,1-2.61-1.69,7.89,7.89,0,0,1-1.72-2.64,9.63,9.63,0,0,1,0-6.85,7.93,7.93,0,0,1,1.72-2.65,7.63,7.63,0,0,1,2.61-1.69,9.08,9.08,0,0,1,6.49,0,7.69,7.69,0,0,1,2.6,1.69,7.83,7.83,0,0,1,1.74,2.65,9.77,9.77,0,0,1,0,6.85,7.66,7.66,0,0,1-4.34,4.33A8.47,8.47,0,0,1,171,199.08Zm0-2.54a4.78,4.78,0,0,0,2-.42A4.44,4.44,0,0,0,174.6,195a5.43,5.43,0,0,0,1.05-1.84,7.74,7.74,0,0,0,0-4.79,5.43,5.43,0,0,0-1.05-1.84,4.44,4.44,0,0,0-1.58-1.17,4.78,4.78,0,0,0-2-.42,4.67,4.67,0,0,0-2,.42,4.56,4.56,0,0,0-1.59,1.17,5.62,5.62,0,0,0-1.06,1.84,7.74,7.74,0,0,0,0,4.79,5.62,5.62,0,0,0,1.06,1.84,4.56,4.56,0,0,0,1.59,1.17A4.67,4.67,0,0,0,171,196.54Z"/><path class="cls-2" d="M181.37,184.64a1.64,1.64,0,0,1,1.86-1.86H185l6.37,10a4.62,4.62,0,0,1,.47,1.06,11.66,11.66,0,0,1,.31,1.16V184.45a1.49,1.49,0,0,1,1.7-1.67h1.46v14a1.64,1.64,0,0,1-1.87,1.84h-1.73l-6.37-10a4.56,4.56,0,0,1-.48-1q-.18-.56-.33-1.17V197a1.47,1.47,0,0,1-1.67,1.65h-1.46Z"/><path class="cls-2" d="M198.37,184.45a1.47,1.47,0,0,1,1.67-1.67h1.46v13.76a2.28,2.28,0,0,1,1.4-.43h5.95v1.1a1.29,1.29,0,0,1-1.47,1.44h-9Z"/><path class="cls-2" d="M212.13,192.6l-5.19-8.51a1.43,1.43,0,0,1-.23-.72.75.75,0,0,1,0-.21c.07-.26.32-.38.76-.38h2.27l3.93,6.92,3.47-6.1a1.48,1.48,0,0,1,.62-.62,2,2,0,0,1,1-.2h2.48l-6,9.82V197a1.47,1.47,0,0,1-1.67,1.65h-1.46Z"/><path class="cls-2" d="M229.29,199.08a8.44,8.44,0,0,1-3.23-.61,7.59,7.59,0,0,1-2.61-1.69,7.74,7.74,0,0,1-1.72-2.64,9.63,9.63,0,0,1,0-6.85,7.78,7.78,0,0,1,1.72-2.65,7.45,7.45,0,0,1,2.61-1.69,9,9,0,0,1,6.48,0,7.56,7.56,0,0,1,4.34,4.34,9.63,9.63,0,0,1,0,6.85,7.62,7.62,0,0,1-1.73,2.64,7.78,7.78,0,0,1-2.61,1.69A8.43,8.43,0,0,1,229.29,199.08Zm0-2.54a4.75,4.75,0,0,0,2-.42,4.39,4.39,0,0,0,1.59-1.17,5.43,5.43,0,0,0,1.05-1.84,7.74,7.74,0,0,0,0-4.79,5.43,5.43,0,0,0-1.05-1.84,4.39,4.39,0,0,0-1.59-1.17,4.95,4.95,0,0,0-4,0,4.62,4.62,0,0,0-1.58,1.17,5.29,5.29,0,0,0-1.06,1.84,7.74,7.74,0,0,0,0,4.79,5.29,5.29,0,0,0,1.06,1.84,4.62,4.62,0,0,0,1.58,1.17A4.7,4.7,0,0,0,229.29,196.54Z"/><path class="cls-2" d="M239.64,184.64a1.65,1.65,0,0,1,1.87-1.86h1.73l6.37,10a4.64,4.64,0,0,1,.48,1.06c.12.38.22.77.31,1.16V184.45a1.48,1.48,0,0,1,1.69-1.67h1.46v14a1.63,1.63,0,0,1-1.86,1.84H250l-6.37-10a4.16,4.16,0,0,1-.47-1q-.18-.56-.33-1.17V197a1.47,1.47,0,0,1-1.68,1.65h-1.46Z"/><path class="cls-2" d="M256.64,184.64a1.65,1.65,0,0,1,1.87-1.86h9.08v1a1.28,1.28,0,0,1-1.46,1.44h-6.35v4.55a2.33,2.33,0,0,1,1.39-.42h6v1a1.27,1.27,0,0,1-1.46,1.43h-5.92v4.83a2.33,2.33,0,0,1,1.39-.42h6.63v1a1.28,1.28,0,0,1-1.46,1.44h-9.7Z"/><path class="cls-2" d="M274.64,184.64a1.64,1.64,0,0,1,1.86-1.86h8.66v1.1a1.28,1.28,0,0,1-1.46,1.44h-5.93v4.53a2.25,2.25,0,0,1,1.4-.43h5.35v1.1a1.27,1.27,0,0,1-1.46,1.42h-5.29V197a1.47,1.47,0,0,1-1.67,1.65h-1.46Z"/><path class="cls-2" d="M289.83,184.32a2.67,2.67,0,0,1,.77-1.14,1.93,1.93,0,0,1,1.29-.4h2.22l5.38,14.35a1.62,1.62,0,0,1,.12.57.75.75,0,0,1-.19.53,1.36,1.36,0,0,1-1.1.42h-1.44l-1.54-4.23a2.76,2.76,0,0,1-1.55.49H290l.55-1.61a1.48,1.48,0,0,1,1.5-1h2.59l-2.48-6.77a9.85,9.85,0,0,1-.18,1,7.74,7.74,0,0,1-.31,1L288,197.49a1.59,1.59,0,0,1-1.63,1.16h-1.92Z"/><path class="cls-2" d="M301.67,184.45a1.47,1.47,0,0,1,1.67-1.67h1.46V197a1.47,1.47,0,0,1-1.67,1.65h-1.46Z"/><path class="cls-2" d="M308,184.64a1.64,1.64,0,0,1,1.86-1.86h4.49a6.65,6.65,0,0,1,2.21.35,5.47,5.47,0,0,1,1.79,1,4.54,4.54,0,0,1,1.2,1.57,4.62,4.62,0,0,1,.45,2.06,4.45,4.45,0,0,1-.82,2.71,5,5,0,0,1-2.14,1.69l3.09,5.25a1.41,1.41,0,0,1,.23.66.79.79,0,0,1,0,.23q-.18.36-.81.36h-2.14l-3.43-6h-2.81V197a1.47,1.47,0,0,1-1.67,1.65H308Zm3.13,6a2.24,2.24,0,0,1,1.4-.42h1.27a5.69,5.69,0,0,0,1.18-.12,3.06,3.06,0,0,0,1-.4,2.42,2.42,0,0,0,.72-.74,2.26,2.26,0,0,0,.27-1.16,2.29,2.29,0,0,0-.27-1.16,2.35,2.35,0,0,0-.72-.75,3.08,3.08,0,0,0-1-.41,6.47,6.47,0,0,0-1.18-.11h-2.67Z"/></g></svg>