<svg xmlns="http://www.w3.org/2000/svg" viewBox="0 0 750 500"><defs><style>.cls-1,.cls-10{fill:#7fc3ab;}.cls-2{font-size:21.17px;letter-spacing:-0.01em;}.cls-12,.cls-2,.cls-6,.cls-9{fill:#fff;}.cls-10,.cls-12,.cls-2,.cls-6{font-family:CJONLYONENEWtitleBold, CJ ONLYONE NEW title;}.cls-3{letter-spacing:-0.09em;}.cls-4{letter-spacing:-0.06em;}.cls-5{letter-spacing:-0.03em;}.cls-12,.cls-6{font-size:13.32px;}.cls-6{letter-spacing:0em;}.cls-7{letter-spacing:0.01em;}.cls-8{letter-spacing:-0.01em;}.cls-10{font-size:19.64px;letter-spacing:-0.05em;}.cls-11{fill:none;stroke:#fff;stroke-miterlimit:10;opacity:0.25;}.cls-12{letter-spacing:-0.05em;}.cls-13{letter-spacing:-0.04em;}.cls-14{letter-spacing:-0.05em;}.cls-15{opacity:0.36;}</style></defs><g id="레이어_1" data-name="레이어 1"><path class="cls-1" d="M678,346.51c.73,0,1.44.05,2.14.1V153.39c-.7.05-1.41.1-2.14.1-7.76,0-14-2.93-14-6.54H645.29c0,3.61-6.29,6.54-14,6.54s-14-2.93-14-6.54H598.51c0,3.61-6.29,6.54-14,6.54s-14.05-2.93-14.05-6.54H551.72c0,3.61-6.29,6.54-14.05,6.54s-14-2.93-14-6.54H504.94c0,3.61-6.29,6.54-14.05,6.54s-14.05-2.93-14.05-6.54H458.15c0,3.61-6.29,6.54-14,6.54s-14-2.93-14-6.54H411.37c0,3.61-6.29,6.54-14.05,6.54s-14.05-2.93-14.05-6.54H364.58c0,3.61-6.29,6.54-14.05,6.54s-14-2.93-14-6.54H317.8c0,3.61-6.29,6.54-14.05,6.54S289.7,150.56,289.7,147H271c0,3.61-6.29,6.54-14.05,6.54s-14-2.93-14-6.54H224.23c0,3.61-6.29,6.54-14,6.54s-14.05-2.93-14.05-6.54H177.44c0,3.61-6.29,6.54-14,6.54s-14.05-2.93-14.05-6.54H130.66c0,3.61-6.29,6.54-14,6.54s-14-2.93-14-6.54H83.87c0,3.61-6.29,6.54-14,6.54v193c7.75,0,14,2.92,14,6.54h18.69c0-3.62,6.29-6.54,14-6.54s14,2.92,14,6.54h18.69c0-3.62,6.29-6.54,14.05-6.54s14,2.92,14,6.54h18.69c0-3.62,6.29-6.54,14.05-6.54s14,2.92,14,6.54h18.69c0-3.62,6.29-6.54,14-6.54S271,349.43,271,353.05H289.7c0-3.62,6.29-6.54,14.05-6.54s14.05,2.92,14.05,6.54h18.69c0-3.62,6.29-6.54,14-6.54s14.05,2.92,14.05,6.54h18.69c0-3.62,6.29-6.54,14.05-6.54s14.05,2.92,14.05,6.54h18.69c0-3.62,6.29-6.54,14-6.54s14,2.92,14,6.54h18.69c0-3.62,6.29-6.54,14.05-6.54s14.05,2.92,14.05,6.54h18.68c0-3.62,6.29-6.54,14-6.54s14.05,2.92,14.05,6.54h18.69c0-3.62,6.29-6.54,14.05-6.54s14,2.92,14,6.54h18.68c0-3.62,6.29-6.54,14-6.54s14,2.92,14,6.54H664C664,349.43,670.27,346.51,678,346.51Z"/><text class="cls-2" transform="translate(109.54 198.65)">2026 on<tspan class="cls-3" x="93.94" y="0">l</tspan><tspan class="cls-4" x="103.2" y="0">y</tspan><tspan x="114.8" y="0">one </tspan><tspan class="cls-5" x="164.12" y="0">f</tspan><tspan x="174.21" y="0">air</tspan></text><text class="cls-6" transform="translate(201.27 233.23)">Mission Compl<tspan class="cls-7" x="109.54" y="0">e</tspan><tspan class="cls-8" x="116.62" y="0">ted</tspan></text><rect class="cls-9" x="499.29" y="223.05" width="135" height="47" rx="23.5"/><text class="cls-10" transform="translate(518.29 254.05)">키캡 교환권</text><line class="cls-11" x1="110.89" y1="298.17" x2="640.68" y2="298.17"/><rect class="cls-9" x="108.84" y="236.2" width="13.81" height="28.35" rx="5.29"/><rect class="cls-9" x="168.9" y="225.08" width="13.81" height="23.36" rx="6.9" transform="translate(-105.23 147.41) rotate(-35.77)"/><path class="cls-9" d="M125.57,240v20.84l23.13,10.6a5.44,5.44,0,0,0,4,0c.91-.31,1.47-.52,1.8-.66a.31.31,0,0,0,0-.56l-3.23-1.68a1.78,1.78,0,0,1-.93-2,1.12,1.12,0,0,1,.91-.86,1.8,1.8,0,0,1,1.18.2l7.91,4.39a2.25,2.25,0,0,0,2.44-.56,1.63,1.63,0,0,0,.43-1.23,1.69,1.69,0,0,0-.9-1.33l-10.48-5.67a1.63,1.63,0,0,1-.06-1.78,1.42,1.42,0,0,1,1.64-.37l11.77,6.25s1.85.71,2.87-.58a1.77,1.77,0,0,0,.25-1.67,2.9,2.9,0,0,0-1.32-1.66l-11.4-6.87a1.5,1.5,0,0,1-.73-1.49,1.19,1.19,0,0,1,.22-.52,1.24,1.24,0,0,1,.68-.39,1.89,1.89,0,0,1,1.41.23l11.62,6.91s2.92,1.25,4.11-.14.58-3.54-.2-3.91-18.64-11.79-18.64-11.79-4.31-2.4-7.7,1.11a55.46,55.46,0,0,0-4.87,5.59,5.27,5.27,0,0,1-6.9-.41c-3.33-3.21-1.11-12.88-1.11-12.88Z"/><path class="cls-9" d="M138.44,235.54a3.74,3.74,0,0,0-2.39,2.63,20.69,20.69,0,0,0-.79,6.09c.33,2.54.7,4.06,2.26,4.52s3.54-2.14,4.36-3,3.94-5.76,8.3-5.59,7.6,2.22,13,6,9.86,6.57,9.86,6.57l2.22-2.42L162.4,233.87a3.28,3.28,0,0,0-2.32-1.24c-3.1-.25-10.32-.71-13.19.12C144.43,233.46,140.68,234.75,138.44,235.54Z"/><text class="cls-12" transform="translate(110.27 321.23)">L<tspan class="cls-13" x="8.23" y="0">E</tspan><tspan class="cls-14" x="16.72" y="0">ARNING CENTER 201호에서 사용 가능</tspan></text><path class="cls-9" d="M217.47,244.62a4.12,4.12,0,0,1,1,.83,5.27,5.27,0,0,1,.76,1.14,7,7,0,0,1,.48,1.31,5.82,5.82,0,0,1,.17,1.36,6.47,6.47,0,0,1-2.45,5.25,7.83,7.83,0,0,1-2.67,1.41,11.34,11.34,0,0,1-6.53,0,7.88,7.88,0,0,1-2.68-1.41,6.85,6.85,0,0,1-1.79-2.24,6.6,6.6,0,0,1-.66-3,6.39,6.39,0,0,1,.16-1.36,5.86,5.86,0,0,1,.48-1.31,6.12,6.12,0,0,1,.76-1.14,3.63,3.63,0,0,1,1-.83h-3.52v-1.38a1.55,1.55,0,0,1,.45-1.17,1.58,1.58,0,0,1,1.12-.43h5.8v-.77a2.52,2.52,0,0,1,.49-1.65,1.89,1.89,0,0,1,1.52-.59h2.6v3H221V243a1.55,1.55,0,0,1-.45,1.17,1.58,1.58,0,0,1-1.12.43Zm10.8,13.48v9.1a2.5,2.5,0,0,1-.88,1.95,3.15,3.15,0,0,1-2.13.77h-18v-9.1a2.47,2.47,0,0,1,.86-1.95,3.13,3.13,0,0,1,2.15-.77Zm-20.6-9a5.52,5.52,0,0,0,.29,1.8,4.76,4.76,0,0,0,.79,1.44,3.78,3.78,0,0,0,1.18,1,3.45,3.45,0,0,0,3,0,3.75,3.75,0,0,0,1.2-1,4.74,4.74,0,0,0,.78-1.44,5.27,5.27,0,0,0,.29-1.8,5.41,5.41,0,0,0-.29-1.81,4.57,4.57,0,0,0-.78-1.45,3.5,3.5,0,0,0-1.2-1,3.37,3.37,0,0,0-3,0,3.52,3.52,0,0,0-1.18,1,4.59,4.59,0,0,0-.79,1.45A5.67,5.67,0,0,0,207.67,249.13Zm16,17.81v-5.86H211.81v5.86Zm4.8-17.1V254a2.47,2.47,0,0,1-.77,1.86,2.62,2.62,0,0,1-1.89.73h-2V243a3.41,3.41,0,0,1,.67-2.25,2.5,2.5,0,0,1,2-.8h1.92v6.92h4.29v1.44a1.48,1.48,0,0,1-.45,1.09,1.52,1.52,0,0,1-1.12.45Z"/><path class="cls-9" d="M243.67,262.36a1.72,1.72,0,0,1-1.23.59,2.24,2.24,0,0,1-1.4-.37l-1.41-.92a17.66,17.66,0,0,0,2.92-4.2,26,26,0,0,0,1.81-4.67,28.55,28.55,0,0,0,.88-4.58,25.65,25.65,0,0,0,.13-3.91h-2.76a34.16,34.16,0,0,1-.37,4.18,23.48,23.48,0,0,1-1,4.08,20.42,20.42,0,0,1-1.83,4,21.77,21.77,0,0,1-2.88,3.76,1.63,1.63,0,0,1-1.25.53,2.44,2.44,0,0,1-1.44-.43l-1.15-.81a15,15,0,0,0,2.62-3.37,23.42,23.42,0,0,0,1.84-4,24.7,24.7,0,0,0,1.06-4.14,17.85,17.85,0,0,0,.27-3.74h-4.29v-1.38a1.49,1.49,0,0,1,.45-1.15,1.57,1.57,0,0,1,1.12-.42h13.64a33.9,33.9,0,0,1,0,4.39c-.09,1.45-.25,2.91-.49,4.39h2.76V243c0-2,.9-2.94,2.69-2.94h1.63v26.26a3.17,3.17,0,0,1-.7,2.21,2.52,2.52,0,0,1-2,.76h-1.66V253.11h-3.4a28.82,28.82,0,0,1-1.84,5A17.58,17.58,0,0,1,243.67,262.36ZM258.34,243c0-2,.89-2.94,2.69-2.94h1.69v27a3.2,3.2,0,0,1-.69,2.21,2.43,2.43,0,0,1-1.9.77h-1.79Z"/><path class="cls-9" d="M276.72,238.5v4.1h7.55l0,1.38a1.56,1.56,0,0,1-.5,1.14,1.67,1.67,0,0,1-1.1.4h-2.66a6.55,6.55,0,0,1,2.42,2.4,9.31,9.31,0,0,1,.27,7.68,8.25,8.25,0,0,1-1.94,2.71,8.42,8.42,0,0,1-2.88,1.74,10.58,10.58,0,0,1-7.08,0,8.55,8.55,0,0,1-2.88-1.73,8,8,0,0,1-1.94-2.69,9.36,9.36,0,0,1,.27-7.7,6.58,6.58,0,0,1,2.42-2.41h-4.32v-1.41a1.52,1.52,0,0,1,.49-1.14,1.63,1.63,0,0,1,1.11-.4h6.12l0-1.86a2.39,2.39,0,0,1,.48-1.66,1.82,1.82,0,0,1,1.54-.58Zm-2.34,19.41a3.52,3.52,0,0,0,2-.58,4.72,4.72,0,0,0,1.41-1.47,7.17,7.17,0,0,0,.81-2,8.47,8.47,0,0,0,.27-2.07,10,10,0,0,0-.28-2.46,5.85,5.85,0,0,0-.87-1.94,4.24,4.24,0,0,0-1.42-1.28,4,4,0,0,0-1.94-.46,4.13,4.13,0,0,0-1.95.44,4,4,0,0,0-1.41,1.27,5.62,5.62,0,0,0-.87,2,10.22,10.22,0,0,0-.29,2.48,8.35,8.35,0,0,0,.28,2.12,7,7,0,0,0,.81,2,4.84,4.84,0,0,0,1.41,1.44A3.67,3.67,0,0,0,274.38,257.91Zm12,12V243a3.41,3.41,0,0,1,.67-2.25,2.5,2.5,0,0,1,2-.8H291v10.25h4.83v1.41a1.43,1.43,0,0,1-.46,1.14,1.68,1.68,0,0,1-1.11.4H291v13.7a3.37,3.37,0,0,1-.68,2.24,2.45,2.45,0,0,1-2,.8Z"/><path class="cls-9" d="M296.6,258.39V257a1.39,1.39,0,0,1,1.57-1.57h27.45v1.41a1.39,1.39,0,0,1-1.57,1.57Zm3.69-6v-9.7a3.37,3.37,0,0,1,.68-2.24,2.56,2.56,0,0,1,2-.8h1.86v9.77h18v1.4a1.53,1.53,0,0,1-.44,1.16,1.59,1.59,0,0,1-1.09.41Zm.16,11.31a3.34,3.34,0,0,1,.68-2.23,2.58,2.58,0,0,1,2-.78h1.89v6.08h18v1.41a1.54,1.54,0,0,1-.43,1.14,1.66,1.66,0,0,1-1.2.43h-21Z"/><path class="cls-9" d="M348,238.5v4.1h7.55l0,1.38a1.52,1.52,0,0,1-.5,1.14,1.67,1.67,0,0,1-1.1.4H351.3a6.55,6.55,0,0,1,2.42,2.4,8.24,8.24,0,0,1,1,4.19,8.4,8.4,0,0,1-.7,3.49,8.25,8.25,0,0,1-1.94,2.71,8.42,8.42,0,0,1-2.88,1.74,10.58,10.58,0,0,1-7.08,0,8.55,8.55,0,0,1-2.88-1.73,8,8,0,0,1-1.94-2.69,9.36,9.36,0,0,1,.27-7.7,6.58,6.58,0,0,1,2.42-2.41h-4.32v-1.41a1.52,1.52,0,0,1,.5-1.14,1.59,1.59,0,0,1,1.1-.4h6.12l0-1.86a2.34,2.34,0,0,1,.49-1.66,1.8,1.8,0,0,1,1.53-.58Zm-2.34,19.41a3.52,3.52,0,0,0,2-.58,4.72,4.72,0,0,0,1.41-1.47,7.17,7.17,0,0,0,.81-2,8.47,8.47,0,0,0,.27-2.07,10,10,0,0,0-.28-2.46,5.66,5.66,0,0,0-.87-1.94,4.24,4.24,0,0,0-1.42-1.28,4,4,0,0,0-1.94-.46,4.13,4.13,0,0,0-1.95.44,4,4,0,0,0-1.41,1.27,5.81,5.81,0,0,0-.87,2,10.22,10.22,0,0,0-.29,2.48,8.83,8.83,0,0,0,.28,2.12,7,7,0,0,0,.81,2,4.84,4.84,0,0,0,1.41,1.44A3.67,3.67,0,0,0,345.63,257.91Zm12,12V243a3.41,3.41,0,0,1,.67-2.25,2.5,2.5,0,0,1,2-.8h1.92v10.25h4.83v1.41a1.43,1.43,0,0,1-.46,1.14,1.68,1.68,0,0,1-1.11.4h-3.26v13.7a3.42,3.42,0,0,1-.67,2.24,2.47,2.47,0,0,1-2,.8Z"/><path class="cls-9" d="M378.42,254.51a3.34,3.34,0,0,1,.67-2.22,2.62,2.62,0,0,1,2-.82H383v11.34h13.84v1.47a1.43,1.43,0,0,1-.47,1.14,1.66,1.66,0,0,1-1.13.4H367.85v-1.47a1.42,1.42,0,0,1,.47-1.14,1.67,1.67,0,0,1,1.14-.4h9Zm14.54,1a3.68,3.68,0,0,1-.83,2.11,2.36,2.36,0,0,1-1.86.64h-2.11c.17-1.41.31-2.93.41-4.58s.16-3.2.16-4.67v-4.93H371.22v-1.44a1.4,1.4,0,0,1,.48-1.14,1.67,1.67,0,0,1,1.12-.4h20.53v7.46c0,.51,0,1.08,0,1.71s0,1.27-.08,1.91-.07,1.25-.11,1.84S393,255.13,393,255.54Z"/><path class="cls-9" d="M414.7,255.15a17,17,0,0,1-1.56-.92c-.56-.37-1.1-.77-1.64-1.2a20.27,20.27,0,0,1-1.53-1.41,12.56,12.56,0,0,1-1.29-1.52,11.09,11.09,0,0,1-1.26,1.82,18.6,18.6,0,0,1-1.68,1.76,20.39,20.39,0,0,1-1.81,1.51,12.06,12.06,0,0,1-1.68,1.05,2.19,2.19,0,0,1-1.35.26,1.72,1.72,0,0,1-1-.48l-1.32-1.25a29.14,29.14,0,0,0,3-2.06,15.85,15.85,0,0,0,2.4-2.37,11.23,11.23,0,0,0,1.63-2.7,7.48,7.48,0,0,0,.61-3v-1h-6.37v-1.44a1.45,1.45,0,0,1,.45-1.12,1.53,1.53,0,0,1,1.09-.42H417v1.44a1.45,1.45,0,0,1-.45,1.12,1.53,1.53,0,0,1-1.08.42h-4.78v.93a5.9,5.9,0,0,0,.63,2.65,10.34,10.34,0,0,0,1.66,2.44,15.38,15.38,0,0,0,2.39,2.13,22,22,0,0,0,2.82,1.74l-1.09,1.32a1.56,1.56,0,0,1-1.2.52A2.31,2.31,0,0,1,414.7,255.15Zm-6.62,6.09h12.29v-1.09a2.54,2.54,0,0,1,.74-1.94,2.73,2.73,0,0,1,1.95-.69H425v8.78a3.12,3.12,0,0,1-.35,1.46,4.12,4.12,0,0,1-.9,1.13,4,4,0,0,1-1.26.75,3.87,3.87,0,0,1-1.43.28H403.5V260.6a3.34,3.34,0,0,1,.7-2.26,2.57,2.57,0,0,1,2.05-.82h1.83Zm12.29,3H408.08v2.72h12.29Zm4.9-15.44v4.81a2.43,2.43,0,0,1-.77,1.85,2.63,2.63,0,0,1-1.89.74h-1.95V243a3.47,3.47,0,0,1,.67-2.25,2.5,2.5,0,0,1,2-.8h1.92v5.86h4.29v1.44a1.46,1.46,0,0,1-.45,1.09,1.5,1.5,0,0,1-1.12.45Z"/><path class="cls-9" d="M430.27,250.29a10.49,10.49,0,0,1,.64-3.69,8.9,8.9,0,0,1,1.87-3,9,9,0,0,1,3-2.08,11.22,11.22,0,0,1,8.17,0,8.78,8.78,0,0,1,4.88,5.12,10.93,10.93,0,0,1,0,7.37,9,9,0,0,1-1.87,3,8.86,8.86,0,0,1-3,2.08,11.22,11.22,0,0,1-8.17,0,8.78,8.78,0,0,1-4.88-5.12A10.43,10.43,0,0,1,430.27,250.29Zm14.6,0a9.94,9.94,0,0,0-.35-2.66,7.41,7.41,0,0,0-1-2.18A4.85,4.85,0,0,0,442,244a4.23,4.23,0,0,0-4.17,0,4.88,4.88,0,0,0-1.57,1.47,7.66,7.66,0,0,0-1,2.18,10.28,10.28,0,0,0,0,5.32,7.59,7.59,0,0,0,1,2.17,5,5,0,0,0,1.57,1.48,4.3,4.3,0,0,0,4.17,0,5,5,0,0,0,1.56-1.48,7.35,7.35,0,0,0,1-2.17A10,10,0,0,0,444.87,250.29Zm7.75,19.59V243a3.41,3.41,0,0,1,.67-2.25,2.5,2.5,0,0,1,2-.8h1.92v27c0,2-.9,2.94-2.69,2.94Z"/></g></svg>