<svg xmlns="http://www.w3.org/2000/svg" viewBox="0 0 750 500"><defs><style>.cls-1{fill:#ef886d;}.cls-2{fill:#fff;}.cls-3{fill:none;stroke:#fff;stroke-miterlimit:10;opacity:0.25;}</style></defs><g id="레이어_5" data-name="레이어 5"><path class="cls-1" d="M678,346.51c.73,0,1.44.05,2.14.1V153.39c-.7.05-1.41.1-2.14.1-7.76,0-14-2.93-14-6.54H645.29c0,3.61-6.29,6.54-14,6.54s-14-2.93-14-6.54H598.51c0,3.61-6.29,6.54-14,6.54s-14.05-2.93-14.05-6.54H551.72c0,3.61-6.29,6.54-14.05,6.54s-14-2.93-14-6.54H504.94c0,3.61-6.29,6.54-14.05,6.54s-14.05-2.93-14.05-6.54H458.15c0,3.61-6.29,6.54-14,6.54s-14-2.93-14-6.54H411.37c0,3.61-6.29,6.54-14.05,6.54s-14.05-2.93-14.05-6.54H364.58c0,3.61-6.29,6.54-14.05,6.54s-14-2.93-14-6.54H317.8c0,3.61-6.29,6.54-14.05,6.54S289.7,150.56,289.7,147H271c0,3.61-6.29,6.54-14.05,6.54s-14-2.93-14-6.54H224.23c0,3.61-6.29,6.54-14,6.54s-14.05-2.93-14.05-6.54H177.44c0,3.61-6.29,6.54-14,6.54s-14.05-2.93-14.05-6.54H130.66c0,3.61-6.29,6.54-14,6.54s-14-2.93-14-6.54H83.87c0,3.61-6.29,6.54-14,6.54v193c7.75,0,14,2.92,14,6.54h18.69c0-3.62,6.29-6.54,14-6.54s14,2.92,14,6.54h18.69c0-3.62,6.29-6.54,14.05-6.54s14,2.92,14,6.54h18.69c0-3.62,6.29-6.54,14.05-6.54s14,2.92,14,6.54h18.69c0-3.62,6.29-6.54,14-6.54S271,349.43,271,353.05H289.7c0-3.62,6.29-6.54,14.05-6.54s14.05,2.92,14.05,6.54h18.69c0-3.62,6.29-6.54,14-6.54s14.05,2.92,14.05,6.54h18.69c0-3.62,6.29-6.54,14.05-6.54s14.05,2.92,14.05,6.54h18.69c0-3.62,6.29-6.54,14-6.54s14,2.92,14,6.54h18.69c0-3.62,6.29-6.54,14.05-6.54s14.05,2.92,14.05,6.54h18.68c0-3.62,6.29-6.54,14-6.54s14.05,2.92,14.05,6.54h18.69c0-3.62,6.29-6.54,14.05-6.54s14,2.92,14,6.54h18.68c0-3.62,6.29-6.54,14-6.54s14,2.92,14,6.54H664C664,349.43,670.27,346.51,678,346.51Z"/><path class="cls-2" d="M113.55,185.66a2,2,0,0,1-1.15.72,1.47,1.47,0,0,1-1.31-.49l-.66-.62a6.31,6.31,0,0,1,2.14-2.43,6.3,6.3,0,0,1,1.52-.74,5.29,5.29,0,0,1,1.68-.28,6.39,6.39,0,0,1,4.18,1.25,4.82,4.82,0,0,1,1.66,3.58,6,6,0,0,1-.59,2.94,15.63,15.63,0,0,1-1.87,2.95l-3.49,4.63h6.88v1a1.8,1.8,0,0,1-.55,1.33,1.88,1.88,0,0,1-1.4.55h-9.82v-.65a2.63,2.63,0,0,1,.33-1.31,9.38,9.38,0,0,1,.69-1l5.06-6.69a8,8,0,0,0,1.08-2,4,4,0,0,0,.29-1.79,2.3,2.3,0,0,0-2.33-2.1,3.13,3.13,0,0,0-1.21.27A2.82,2.82,0,0,0,113.55,185.66Z"/><path class="cls-2" d="M130.5,181.82a5.32,5.32,0,0,1,4.68,2.34q1.6,2.34,1.61,7.11c0,3.19-.54,5.56-1.6,7.13a5.86,5.86,0,0,1-9.39,0c-1.06-1.57-1.59-3.94-1.59-7.13s.54-5.55,1.6-7.11A5.32,5.32,0,0,1,130.5,181.82Zm0,16.22a2.15,2.15,0,0,0,1.41-.48,3.47,3.47,0,0,0,1-1.36,8.28,8.28,0,0,0,.53-2.13,23.27,23.27,0,0,0,.16-2.8,23.53,23.53,0,0,0-.16-2.8,8.28,8.28,0,0,0-.53-2.13,3.46,3.46,0,0,0-1-1.34,2.2,2.2,0,0,0-1.41-.47,2.12,2.12,0,0,0-1.38.47,3.32,3.32,0,0,0-.92,1.34,9.77,9.77,0,0,0-.52,2.13,21.48,21.48,0,0,0-.17,2.8,21.26,21.26,0,0,0,.17,2.8,9.77,9.77,0,0,0,.52,2.13,3.33,3.33,0,0,0,.92,1.36A2.07,2.07,0,0,0,130.48,198Z"/><path class="cls-2" d="M141.32,185.66a1.9,1.9,0,0,1-1.15.72,1.48,1.48,0,0,1-1.31-.49l-.65-.62a5.84,5.84,0,0,1,.89-1.33,6.19,6.19,0,0,1,1.24-1.1,6.3,6.3,0,0,1,1.52-.74,5.29,5.29,0,0,1,1.68-.28,6.39,6.39,0,0,1,4.18,1.25,4.82,4.82,0,0,1,1.66,3.58,6,6,0,0,1-.59,2.94,15.55,15.55,0,0,1-1.86,2.95l-3.5,4.63h6.88v1a1.8,1.8,0,0,1-.55,1.33,1.86,1.86,0,0,1-1.39.55h-9.83v-.65a2.63,2.63,0,0,1,.33-1.31,9.38,9.38,0,0,1,.69-1l5.06-6.69a7.37,7.37,0,0,0,1.08-2,4.21,4.21,0,0,0,.3-1.79,2.3,2.3,0,0,0-2.33-2.1,3.18,3.18,0,0,0-1.22.27A2.82,2.82,0,0,0,141.32,185.66Z"/><path class="cls-2" d="M157.49,189.06a5.32,5.32,0,0,1,1.29-.17,5.88,5.88,0,0,1,2.29.45,5.82,5.82,0,0,1,1.87,1.22,5.78,5.78,0,0,1,1.73,4.16,6,6,0,0,1-.5,2.48,5.69,5.69,0,0,1-1.36,1.91,6,6,0,0,1-2,1.22,7.14,7.14,0,0,1-2.46.42,7,7,0,0,1-2.54-.45,5.73,5.73,0,0,1-2-1.24,5.91,5.91,0,0,1-1.31-1.91,6.16,6.16,0,0,1-.46-2.43,6.7,6.7,0,0,1,.5-2.63,23,23,0,0,1,1.13-2.35l3.47-6.39a3,3,0,0,1,.88-1,2.27,2.27,0,0,1,1.28-.33h2.07Zm-2.29,5.74a3.41,3.41,0,0,0,.26,1.34,3.11,3.11,0,0,0,.67,1,2.76,2.76,0,0,0,1,.65,3.32,3.32,0,0,0,1.23.22,3,3,0,0,0,1.25-.25,3.31,3.31,0,0,0,1-.69,3,3,0,0,0,.67-1,3.54,3.54,0,0,0,.23-1.27,3.45,3.45,0,0,0-.24-1.34,2.84,2.84,0,0,0-.69-1,3,3,0,0,0-1-.64,3.22,3.22,0,0,0-1.21-.23,3.13,3.13,0,0,0-1.29.25,3,3,0,0,0-1,.68,3.17,3.17,0,0,0-.63,1A3.42,3.42,0,0,0,155.2,194.8Z"/><path class="cls-2" d="M173,189.49a9.29,9.29,0,0,1,.47-3.09,6.26,6.26,0,0,1,1.4-2.33,6,6,0,0,1,2.29-1.46,9.74,9.74,0,0,1,6.22,0,5.89,5.89,0,0,1,3.68,3.79,10.19,10.19,0,0,1,0,6.18,5.89,5.89,0,0,1-3.68,3.79,9.74,9.74,0,0,1-6.22,0,6.13,6.13,0,0,1-2.29-1.46,6.34,6.34,0,0,1-1.4-2.33A9.37,9.37,0,0,1,173,189.49Zm11.36,0a7,7,0,0,0-.24-1.91,4,4,0,0,0-.74-1.45,3.46,3.46,0,0,0-1.27-.94,5.15,5.15,0,0,0-3.68,0,3.53,3.53,0,0,0-1.29.94,4.16,4.16,0,0,0-.75,1.45,7,7,0,0,0-.24,1.91,5.26,5.26,0,0,0,1,3.35,3.78,3.78,0,0,0,3.15,1.24,3.71,3.71,0,0,0,3.1-1.24A5.2,5.2,0,0,0,184.37,189.49Z"/><path class="cls-2" d="M192.9,195.14a1.28,1.28,0,0,1-.44,1.05,1.56,1.56,0,0,1-1,.37h-1.7V183.79a1.35,1.35,0,0,1,.41-1,1.29,1.29,0,0,1,.95-.41h1.08l6.16,7.83.4.6a4.6,4.6,0,0,1,.32.67v-7.73a1.24,1.24,0,0,1,.44-1,1.45,1.45,0,0,1,1-.39h1.7v12.76a1.29,1.29,0,0,1-.42,1,1.34,1.34,0,0,1-1,.42h-.87l-6.31-7.94a4.44,4.44,0,0,1-.45-.74,3.37,3.37,0,0,1-.25-.78Z"/><path class="cls-2" d="M205,196.56V183.79a1.29,1.29,0,0,1,.43-1,1.32,1.32,0,0,1,1-.41h1.78v12.19a1.13,1.13,0,0,1,.73-.57,3.43,3.43,0,0,1,.94-.13h4.36v.89a1.73,1.73,0,0,1-.15.73,1.59,1.59,0,0,1-.4.55,2,2,0,0,1-.56.35,1.61,1.61,0,0,1-.65.13Z"/><path class="cls-2" d="M220.44,195.14a1.32,1.32,0,0,1-.43,1,1.49,1.49,0,0,1-1,.39h-1.52v-5.68l-4.38-7.15a.77.77,0,0,1-.15-.46.8.8,0,0,1,.12-.43.84.84,0,0,1,.31-.31,1,1,0,0,1,.46-.11h1.8l2.84,4.61a2.72,2.72,0,0,1,.26.58l.18.63,3-5.08a1.44,1.44,0,0,1,.59-.59,2,2,0,0,1,.87-.15h2.18l-5.06,8.44Z"/><path class="cls-2" d="M225.27,189.49a9.28,9.28,0,0,1,.48-3.09,6.24,6.24,0,0,1,1.39-2.33,6.09,6.09,0,0,1,2.29-1.46,9.74,9.74,0,0,1,6.22,0,6,6,0,0,1,2.29,1.46,6.13,6.13,0,0,1,1.4,2.33,10.39,10.39,0,0,1,0,6.18,6.21,6.21,0,0,1-1.4,2.33,6.13,6.13,0,0,1-2.29,1.46,9.74,9.74,0,0,1-6.22,0,6.21,6.21,0,0,1-2.29-1.46,6.32,6.32,0,0,1-1.39-2.33A9.36,9.36,0,0,1,225.27,189.49Zm11.37,0a7,7,0,0,0-.24-1.91,4,4,0,0,0-.75-1.45,3.42,3.42,0,0,0-1.26-.94,5.18,5.18,0,0,0-3.69,0,3.58,3.58,0,0,0-1.28.94,3.85,3.85,0,0,0-.75,1.45,7,7,0,0,0-.24,1.91,5.2,5.2,0,0,0,1,3.35,3.76,3.76,0,0,0,3.14,1.24,3.7,3.7,0,0,0,3.1-1.24A5.2,5.2,0,0,0,236.64,189.49Z"/><path class="cls-2" d="M245.17,195.14a1.29,1.29,0,0,1-.45,1.05,1.52,1.52,0,0,1-1,.37H242V183.79a1.31,1.31,0,0,1,.41-1,1.27,1.27,0,0,1,.94-.41h1.08l6.16,7.83c.14.2.28.4.4.6a3.18,3.18,0,0,1,.32.67v-7.73a1.25,1.25,0,0,1,.45-1,1.43,1.43,0,0,1,1-.39h1.69v12.76a1.32,1.32,0,0,1-.41,1,1.37,1.37,0,0,1-1,.42h-.86l-6.31-7.94a3.92,3.92,0,0,1-.46-.74,2.92,2.92,0,0,1-.24-.78Z"/><path class="cls-2" d="M264.67,196.56h-7.41V183.79a1.32,1.32,0,0,1,.42-1,1.31,1.31,0,0,1,.95-.41h7.6v1a1.5,1.5,0,0,1-.16.7,1.81,1.81,0,0,1-.4.54,2,2,0,0,1-.55.35,1.66,1.66,0,0,1-.6.13h-4.13v3.62a1.13,1.13,0,0,1,.71-.59A3.43,3.43,0,0,1,262,188h3.68v.88a1.8,1.8,0,0,1-.47,1.26,1.65,1.65,0,0,1-1.28.52h-3.58v3.81a1.06,1.06,0,0,1,.71-.56,3.83,3.83,0,0,1,.94-.11h4.42v1a1.7,1.7,0,0,1-.5,1.28A1.78,1.78,0,0,1,264.67,196.56Z"/><path class="cls-2" d="M278.34,195.14a1.29,1.29,0,0,1-.45,1.05,1.51,1.51,0,0,1-1,.37h-1.76V183.79a1.29,1.29,0,0,1,.43-1,1.31,1.31,0,0,1,.91-.39H284v1a1.83,1.83,0,0,1-.47,1.22,1.64,1.64,0,0,1-1.29.54h-3.89v3.45a1.26,1.26,0,0,1,.73-.57,3.13,3.13,0,0,1,.94-.15h3.5v1a1.82,1.82,0,0,1-.13.67,1.72,1.72,0,0,1-.37.55,2.12,2.12,0,0,1-.55.39,1.53,1.53,0,0,1-.67.15h-3.45Z"/><path class="cls-2" d="M295,196.56l-1.23-3.24h-4.55l.53-1.7a1.55,1.55,0,0,1,.5-.69,1.25,1.25,0,0,1,.79-.26h1.78l-1.5-4.32a3.05,3.05,0,0,1-.2-.82,3.64,3.64,0,0,1,0-.74l-3.66,10.46a1.83,1.83,0,0,1-1.87,1.31h-1.8l4.83-12.66a2.05,2.05,0,0,1,.85-1.13,2.4,2.4,0,0,1,1.31-.35H293L297.77,195a1.15,1.15,0,0,1-.12,1.15,1.12,1.12,0,0,1-.94.46Z"/><path class="cls-2" d="M302.43,195.12a1.39,1.39,0,0,1-.41,1,1.37,1.37,0,0,1-1,.42h-1.76V183.79a1.27,1.27,0,0,1,.44-1,1.38,1.38,0,0,1,.94-.39h1.8Z"/><path class="cls-2" d="M313.84,196.56l-4.13-5.08h-1.27v3.62a1.42,1.42,0,0,1-.4,1,1.3,1.3,0,0,1-1,.43h-1.77V183.79a1.29,1.29,0,0,1,.42-1,1.44,1.44,0,0,1,1-.39h3.66a9.45,9.45,0,0,1,2.15.24,5.56,5.56,0,0,1,1.81.77,3.89,3.89,0,0,1,1.71,3.41,4,4,0,0,1-.25,1.47,3.84,3.84,0,0,1-.72,1.2,4.8,4.8,0,0,1-1.09.91,4.31,4.31,0,0,1-1.39.53l3.77,4.32a.69.69,0,0,1,.17.4.76.76,0,0,1-.08.42.78.78,0,0,1-.3.33.91.91,0,0,1-.49.14Zm-1-9.68a1.73,1.73,0,0,0-.19-.81,1.55,1.55,0,0,0-.52-.56,2.31,2.31,0,0,0-.77-.31,4.36,4.36,0,0,0-.9-.09h-2.05v4.29A1.29,1.29,0,0,1,309,189a1.92,1.92,0,0,1,.69-.11h.91a2.48,2.48,0,0,0,1.71-.52A1.81,1.81,0,0,0,312.87,186.88Z"/><path class="cls-2" d="M213,234.14v-9.06c0,.21-.08.44-.14.69s-.15.53-.25.8l-2.41,6.48a1.34,1.34,0,0,1-.47.66,1.24,1.24,0,0,1-.77.24h-1.33l-2.6-7.47a5.46,5.46,0,0,1-.19-.66,6.75,6.75,0,0,1-.1-.71v8a.94.94,0,0,1-.32.73,1.07,1.07,0,0,1-.72.28h-1.05V224a.92.92,0,0,1,.31-.73,1,1,0,0,1,.7-.28h2.16l3,9a2.05,2.05,0,0,1,0-.65,3,3,0,0,1,.17-.55l2.4-6.86a1.48,1.48,0,0,1,.51-.77,1.71,1.71,0,0,1,.94-.2h2.14v10a1,1,0,0,1-.3.77,1,1,0,0,1-.73.3Z"/><path class="cls-2" d="M219.35,231a.91.91,0,0,1-.26.65.89.89,0,0,1-.63.26h-1.11v-8a.81.81,0,0,1,.27-.62.9.9,0,0,1,.6-.24h1.13Z"/><path class="cls-2" d="M222.78,225.27a1,1,0,0,0,.12.48,1.32,1.32,0,0,0,.32.35,1.89,1.89,0,0,0,.44.26l.51.21,1,.44a7.38,7.38,0,0,1,.85.4,3,3,0,0,1,.68.52,1.94,1.94,0,0,1,.62,1.48,2.42,2.42,0,0,1-.32,1.27,2.71,2.71,0,0,1-.81.84,3.34,3.34,0,0,1-1.13.47,6,6,0,0,1-1.27.13A4.57,4.57,0,0,1,223,232a9.18,9.18,0,0,1-.89-.28,5,5,0,0,1-.83-.43,3.25,3.25,0,0,1-.65-.55l.4-.69a.6.6,0,0,1,.51-.41.88.88,0,0,1,.66.2,4.23,4.23,0,0,0,.82.44,3,3,0,0,0,.85.21c1,0,1.5-.28,1.5-1a.75.75,0,0,0-.09-.37,1,1,0,0,0-.25-.28,1.94,1.94,0,0,0-.34-.21l-.41-.18L223,228a5.83,5.83,0,0,1-.87-.42,3.39,3.39,0,0,1-.7-.53,2.38,2.38,0,0,1-.48-.69,2,2,0,0,1-.18-.88,2.58,2.58,0,0,1,.26-1.19,2.43,2.43,0,0,1,.7-.82,2.86,2.86,0,0,1,1-.48,4,4,0,0,1,1.2-.14,5.36,5.36,0,0,1,1.6.26,3.66,3.66,0,0,1,1.36.8l-.39.63a.86.86,0,0,1-.49.42.77.77,0,0,1-.74-.08l-.31-.15-.36-.13-.37-.09a1.48,1.48,0,0,0-.34,0,1.36,1.36,0,0,0-.85.22A.75.75,0,0,0,222.78,225.27Z"/><path class="cls-2" d="M230,225.27a1,1,0,0,0,.12.48,1.28,1.28,0,0,0,.31.35,2.13,2.13,0,0,0,.44.26l.51.21,1,.44a6.66,6.66,0,0,1,.85.4,2.84,2.84,0,0,1,.69.52,2.1,2.1,0,0,1,.45.65,2,2,0,0,1,.17.83,2.52,2.52,0,0,1-.33,1.27,2.71,2.71,0,0,1-.81.84,3.26,3.26,0,0,1-1.13.47,6,6,0,0,1-1.26.13,4.67,4.67,0,0,1-.86-.12,9.18,9.18,0,0,1-.89-.28,4.56,4.56,0,0,1-.82-.43,3.32,3.32,0,0,1-.66-.55l.4-.69a.61.61,0,0,1,.51-.41.88.88,0,0,1,.66.2,4.55,4.55,0,0,0,.82.44,3,3,0,0,0,.85.21c1,0,1.51-.28,1.51-1a.76.76,0,0,0-.1-.37.92.92,0,0,0-.24-.28,2,2,0,0,0-.35-.21l-.41-.18-1.21-.49a5.83,5.83,0,0,1-.87-.42,3.32,3.32,0,0,1-.69-.53,2.38,2.38,0,0,1-.48-.69,2,2,0,0,1-.18-.88,2.46,2.46,0,0,1,.26-1.19,2.22,2.22,0,0,1,.7-.82,2.86,2.86,0,0,1,1-.48,4,4,0,0,1,1.2-.14,5.41,5.41,0,0,1,1.6.26,3.7,3.7,0,0,1,1.35.8l-.38.63a.89.89,0,0,1-.49.42.79.79,0,0,1-.75-.08l-.31-.15a3,3,0,0,0-.36-.13,2.49,2.49,0,0,0-.37-.09,1.4,1.4,0,0,0-.33,0,1.37,1.37,0,0,0-.86.22A.74.74,0,0,0,230,225.27Z"/><path class="cls-2" d="M237.66,231a.89.89,0,0,1-.89.91h-1.1v-8a.81.81,0,0,1,.27-.62.88.88,0,0,1,.59-.24h1.13Z"/><path class="cls-2" d="M239.16,227.47a6,6,0,0,1,.3-1.95,3.83,3.83,0,0,1,.88-1.46,3.72,3.72,0,0,1,1.43-.92,5.5,5.5,0,0,1,2-.32,5.39,5.39,0,0,1,1.95.32,3.74,3.74,0,0,1,2.32,2.38,6,6,0,0,1,.3,1.95,5.9,5.9,0,0,1-.3,1.94,3.88,3.88,0,0,1-.88,1.47,4,4,0,0,1-1.44.92,5.61,5.61,0,0,1-1.95.32,5.73,5.73,0,0,1-2-.32,3.84,3.84,0,0,1-1.43-.92,3.88,3.88,0,0,1-.88-1.47A5.9,5.9,0,0,1,239.16,227.47Zm7.15,0a4.38,4.38,0,0,0-.15-1.2,2.51,2.51,0,0,0-.47-.92,2.09,2.09,0,0,0-.8-.59,2.88,2.88,0,0,0-1.15-.21,3,3,0,0,0-1.17.21,2.17,2.17,0,0,0-.8.59,2.51,2.51,0,0,0-.47.92,4,4,0,0,0-.16,1.2,3.33,3.33,0,0,0,.62,2.11,2.37,2.37,0,0,0,2,.78,2.33,2.33,0,0,0,1.95-.78A3.33,3.33,0,0,0,246.31,227.47Z"/><path class="cls-2" d="M251.75,231a.82.82,0,0,1-.28.66,1,1,0,0,1-.63.24h-1.07v-8a.83.83,0,0,1,.26-.6.8.8,0,0,1,.6-.26h.68l3.87,4.93c.09.12.18.25.26.38a2,2,0,0,1,.2.42v-4.87a.79.79,0,0,1,.28-.62.91.91,0,0,1,.61-.24h1.06v8a.83.83,0,0,1-.26.61.86.86,0,0,1-.63.26h-.54l-4-5a2.53,2.53,0,0,1-.28-.47,1.46,1.46,0,0,1-.15-.49Z"/><path class="cls-2" d="M263.55,228.61a6.24,6.24,0,0,1,.45-2.39,5.83,5.83,0,0,1,1.21-1.9,5.49,5.49,0,0,1,1.83-1.24,5.55,5.55,0,0,1,2.28-.44,5.4,5.4,0,0,1,1.18.16,5.9,5.9,0,0,1,1.14.39,5.59,5.59,0,0,1,1,.61,4.66,4.66,0,0,1,.84.82l-.6.63a1,1,0,0,1-.72.35,1.14,1.14,0,0,1-.78-.25,5.08,5.08,0,0,0-1-.53,2.82,2.82,0,0,0-1.09-.2,3.64,3.64,0,0,0-1.51.31,3.45,3.45,0,0,0-1.14.84A3.87,3.87,0,0,0,266,227a4.94,4.94,0,0,0-.24,1.58,4.66,4.66,0,0,0,.28,1.64,3.66,3.66,0,0,0,.76,1.22,3.33,3.33,0,0,0,1.14.77,3.9,3.9,0,0,0,1.42.26,3.62,3.62,0,0,0,1.19-.19,2.79,2.79,0,0,0,.94-.54,1.19,1.19,0,0,1,.81-.39,1,1,0,0,1,.74.28l.57.6a4.58,4.58,0,0,1-.85,1,4.76,4.76,0,0,1-1,.69,4.89,4.89,0,0,1-1.16.42,5.62,5.62,0,0,1-1.21.14A6,6,0,0,1,267,234a5.37,5.37,0,0,1-1.83-1.25A5.81,5.81,0,0,1,264,230.9,6.25,6.25,0,0,1,263.55,228.61Z"/><path class="cls-2" d="M274.41,227.47a6,6,0,0,1,.3-1.95,3.83,3.83,0,0,1,.88-1.46,3.72,3.72,0,0,1,1.43-.92,5.5,5.5,0,0,1,2-.32,5.39,5.39,0,0,1,1.95.32,3.74,3.74,0,0,1,2.32,2.38,6,6,0,0,1,.3,1.95,5.9,5.9,0,0,1-.3,1.94,3.88,3.88,0,0,1-.88,1.47,4,4,0,0,1-1.44.92,5.61,5.61,0,0,1-1.95.32,5.73,5.73,0,0,1-2-.32,3.84,3.84,0,0,1-1.43-.92,3.88,3.88,0,0,1-.88-1.47A5.9,5.9,0,0,1,274.41,227.47Zm7.15,0a4.38,4.38,0,0,0-.15-1.2,2.67,2.67,0,0,0-.47-.92,2.09,2.09,0,0,0-.8-.59,2.88,2.88,0,0,0-1.15-.21,3,3,0,0,0-1.17.21,2.17,2.17,0,0,0-.8.59,2.52,2.52,0,0,0-.48.92,4.38,4.38,0,0,0-.15,1.2,3.33,3.33,0,0,0,.62,2.11,2.37,2.37,0,0,0,2,.78,2.33,2.33,0,0,0,1.95-.78A3.33,3.33,0,0,0,281.56,227.47Z"/><path class="cls-2" d="M295.23,231a.87.87,0,0,1-.27.67.9.9,0,0,1-.61.25h-1v-6.27c0,.12-.07.25-.11.39a2.38,2.38,0,0,1-.16.4l-1.82,4.66a1.12,1.12,0,0,1-.4.54,1,1,0,0,1-.57.16h-.95l-2.08-5.17a1.94,1.94,0,0,1-.16-.48c0-.16-.08-.3-.11-.43V231a.83.83,0,0,1-.27.63,1,1,0,0,1-.66.25h-1v-8a.84.84,0,0,1,.26-.62.89.89,0,0,1,.61-.24h1.66l2.64,6.84a1.93,1.93,0,0,1,.06-.66,5.89,5.89,0,0,1,.18-.58l1.92-4.88a1,1,0,0,1,1.07-.72h1.81Z"/><path class="cls-2" d="M300.21,223a5.43,5.43,0,0,1,1.35.16,3.14,3.14,0,0,1,1.13.5,2.47,2.47,0,0,1,.76.9,2.74,2.74,0,0,1,.29,1.3,3.22,3.22,0,0,1-.26,1.35,2.57,2.57,0,0,1-.71.94,3.08,3.08,0,0,1-1.07.54,4.8,4.8,0,0,1-1.33.18h-1.31V231a.83.83,0,0,1-.26.62.9.9,0,0,1-.64.26h-1.09v-8a.8.8,0,0,1,.26-.62.88.88,0,0,1,.6-.24Zm1.55,2.93a1.31,1.31,0,0,0-.12-.58,1,1,0,0,0-.33-.38,1.3,1.3,0,0,0-.48-.21,2.2,2.2,0,0,0-.58-.07h-1.19v2.9a1,1,0,0,1,.44-.33,1.44,1.44,0,0,1,.51-.09h.41a1.46,1.46,0,0,0,1-.31A1.14,1.14,0,0,0,301.76,226Z"/><path class="cls-2" d="M304.83,231.92v-8a.8.8,0,0,1,.27-.6.83.83,0,0,1,.61-.26h1.12v7.67a.72.72,0,0,1,.46-.36,2.46,2.46,0,0,1,.59-.08h2.75v.56a1,1,0,0,1-.1.46,1,1,0,0,1-.25.35,1.38,1.38,0,0,1-.35.22,1.15,1.15,0,0,1-.41.08Z"/><path class="cls-2" d="M316.42,231.92h-4.66v-8a.8.8,0,0,1,.27-.6.79.79,0,0,1,.6-.26h4.78v.61a1.05,1.05,0,0,1-.1.44,1.25,1.25,0,0,1-.25.34,1.29,1.29,0,0,1-.35.22,1.08,1.08,0,0,1-.38.08h-2.6V227a.72.72,0,0,1,.45-.37,2,2,0,0,1,.59-.09h2.32v.56a1.15,1.15,0,0,1-.3.8,1.07,1.07,0,0,1-.81.32h-2.25v2.4a.66.66,0,0,1,.45-.35,2.39,2.39,0,0,1,.59-.08h2.79v.62a1.06,1.06,0,0,1-.33.8A1.1,1.1,0,0,1,316.42,231.92Z"/><path class="cls-2" d="M322.78,231a.87.87,0,0,1-.26.64.9.9,0,0,1-.64.26h-1.1v-7.16h-2.69v-.65a1.14,1.14,0,0,1,.07-.41,1.12,1.12,0,0,1,.23-.35,1,1,0,0,1,.34-.25,1.23,1.23,0,0,1,.44-.08h6.3v.62a1.12,1.12,0,0,1-.31.8,1.06,1.06,0,0,1-.8.32h-1.58Z"/><path class="cls-2" d="M331.2,231.92h-4.67v-8a.8.8,0,0,1,.27-.6.82.82,0,0,1,.6-.26h4.78v.61a.92.92,0,0,1-.1.44,1.07,1.07,0,0,1-.25.34,1.15,1.15,0,0,1-.35.22,1,1,0,0,1-.38.08h-2.59V227a.68.68,0,0,1,.44-.37,2.06,2.06,0,0,1,.59-.09h2.32v.56a1.15,1.15,0,0,1-.3.8,1.06,1.06,0,0,1-.8.32h-2.25v2.4a.63.63,0,0,1,.44-.35,2.46,2.46,0,0,1,.59-.08h2.79v.62a1.09,1.09,0,0,1-.32.8A1.12,1.12,0,0,1,331.2,231.92Z"/><path class="cls-2" d="M333.47,231.92v-8a.82.82,0,0,1,.28-.62,1,1,0,0,1,.63-.24h2.18a6.13,6.13,0,0,1,1.95.3,4.74,4.74,0,0,1,1.58.86,4.05,4.05,0,0,1,1.06,1.39,4.42,4.42,0,0,1,.38,1.9,4.56,4.56,0,0,1-.38,1.93,4.1,4.1,0,0,1-1,1.4,4.69,4.69,0,0,1-1.56.84,6.56,6.56,0,0,1-1.9.28Zm3.24-7.21h-1.24v6a.81.81,0,0,1,.44-.41,1.79,1.79,0,0,1,.59-.08h.29a2.92,2.92,0,0,0,1.13-.21,2.69,2.69,0,0,0,.86-.57,2.45,2.45,0,0,0,.56-.88,3,3,0,0,0,.2-1.11,2.75,2.75,0,0,0-.74-2.06A2.92,2.92,0,0,0,336.71,224.71Z"/><path class="cls-2" d="M111.66,322.14V312a.93.93,0,0,1,.08-.42,1.24,1.24,0,0,1,.23-.32,1,1,0,0,1,.32-.2,1.12,1.12,0,0,1,.35-.06h1.11v9.81a.83.83,0,0,1,.5-.42,2.25,2.25,0,0,1,.68-.11H119V321a1.11,1.11,0,0,1-.33.79,1.08,1.08,0,0,1-.82.34Z"/><path class="cls-2" d="M119.89,322.14V312a.92.92,0,0,1,.08-.38,1.4,1.4,0,0,1,.22-.32,1,1,0,0,1,.32-.21.92.92,0,0,1,.36-.07H127v.82a.86.86,0,0,1-.1.41,1.16,1.16,0,0,1-.24.34,1.13,1.13,0,0,1-.36.24,1,1,0,0,1-.41.09H122V316a.84.84,0,0,1,.53-.41,2.5,2.5,0,0,1,.66-.09h3.46v.8a.84.84,0,0,1-.09.37,1.25,1.25,0,0,1-.25.34,1.21,1.21,0,0,1-.35.24.94.94,0,0,1-.43.1H122v3.38a.91.91,0,0,1,.49-.42,2,2,0,0,1,.66-.1h4.11V321a1.08,1.08,0,0,1-.09.44.88.88,0,0,1-.24.36,1.37,1.37,0,0,1-.37.26,1.14,1.14,0,0,1-.46.09Z"/><path class="cls-2" d="M136,322.13l-1.21-3a1.26,1.26,0,0,1-.38.14,2.73,2.73,0,0,1-.41,0h-3l.39-1.17a1,1,0,0,1,.39-.57,1.16,1.16,0,0,1,.68-.18h1.64l-1.21-3.53a4.11,4.11,0,0,1-.17-.57,1.76,1.76,0,0,1,0-.56l-3.29,8.59a1.44,1.44,0,0,1-.36.58,1,1,0,0,1-.7.2H127l4-10a1.76,1.76,0,0,1,.56-.8,1.5,1.5,0,0,1,1-.28h1.35l4,10.12a.64.64,0,0,1,0,.4.68.68,0,0,1-.14.31.85.85,0,0,1-.59.28Z"/><path class="cls-2" d="M145.37,322.14l-3.3-4.29h-1.36v3.24a1,1,0,0,1-1.07,1.05h-1V312a1,1,0,0,1,.08-.4,1.81,1.81,0,0,1,.22-.32,1,1,0,0,1,.32-.21.87.87,0,0,1,.35-.07h2.83a7.45,7.45,0,0,1,1.65.18,4.31,4.31,0,0,1,1.38.6,3.21,3.21,0,0,1,1,1.05,3.1,3.1,0,0,1,.36,1.54,3.44,3.44,0,0,1-.19,1.18,2.71,2.71,0,0,1-.53.92,3,3,0,0,1-.82.67,4.25,4.25,0,0,1-1,.44l2.95,3.51a.56.56,0,0,1,.15.32.59.59,0,0,1-.29.6.65.65,0,0,1-.37.11Zm-4.66-9.31v3.79a1.07,1.07,0,0,1,.53-.39,2.28,2.28,0,0,1,.66-.1h.65a2.57,2.57,0,0,0,1.57-.42,1.55,1.55,0,0,0,.57-1.27,1.35,1.35,0,0,0-.56-1.19,2.94,2.94,0,0,0-1.73-.42Z"/><path class="cls-2" d="M148.16,322.14V312a1,1,0,0,1,.3-.74,1,1,0,0,1,.68-.28H150l5,6.87a3.28,3.28,0,0,1,.58,1.2V312a.94.94,0,0,1,.3-.71.91.91,0,0,1,.67-.29h1.1v10.12a.86.86,0,0,1-.07.36.92.92,0,0,1-.2.31,1,1,0,0,1-.32.24.93.93,0,0,1-.4.09h-.84l-4.93-6.63a3.32,3.32,0,0,1-.68-1.39v7a.9.9,0,0,1-.31.7,1,1,0,0,1-.7.29Z"/><path class="cls-2" d="M159.8,322.14V312a.87.87,0,0,1,.09-.4,1.14,1.14,0,0,1,.22-.32.85.85,0,0,1,.31-.21.91.91,0,0,1,.35-.07h1.12v10.13a.88.88,0,0,1-.09.41,1.13,1.13,0,0,1-.58.51.91.91,0,0,1-.35.07Z"/><path class="cls-2" d="M164,322.14V312a1,1,0,0,1,.3-.74A1,1,0,0,1,165,311h.85l5,6.87a3.28,3.28,0,0,1,.58,1.2V312a.94.94,0,0,1,.3-.71.91.91,0,0,1,.67-.29h1.1v10.12a.86.86,0,0,1-.07.36.92.92,0,0,1-.2.31,1,1,0,0,1-.32.24.93.93,0,0,1-.4.09h-.84l-4.93-6.63a3.32,3.32,0,0,1-.68-1.39v7a.9.9,0,0,1-.31.7,1,1,0,0,1-.7.29Z"/><path class="cls-2" d="M180.6,312.62a3.36,3.36,0,0,0-1.43.29,3.16,3.16,0,0,0-1.12.82,4.07,4.07,0,0,0-.73,1.25,4.76,4.76,0,0,0,0,3.16,4.2,4.2,0,0,0,.75,1.25,3.42,3.42,0,0,0,1.13.82,3.6,3.6,0,0,0,1.44.29,3.54,3.54,0,0,0,2.34-.79,3.31,3.31,0,0,0,1.09-2.25.93.93,0,0,1-.42.26,1.82,1.82,0,0,1-.46.06h-2v-.68a1.12,1.12,0,0,1,.33-.82,1.16,1.16,0,0,1,.85-.33h3.85c0,.15,0,.3,0,.45s0,.3,0,.45a5.4,5.4,0,0,1-.44,2.15,6,6,0,0,1-1.19,1.79,5.48,5.48,0,0,1-1.78,1.22,5.3,5.3,0,0,1-2.17.45,6,6,0,0,1-2.28-.43,5.69,5.69,0,0,1-1.84-1.18,5.38,5.38,0,0,1-1.24-1.84,6.18,6.18,0,0,1-.45-2.4,6.45,6.45,0,0,1,.44-2.4,5.76,5.76,0,0,1,1.22-1.89,5.51,5.51,0,0,1,1.81-1.24,5.45,5.45,0,0,1,2.2-.45,6.32,6.32,0,0,1,2.53.51,5.66,5.66,0,0,1,2,1.44l-.49.55a1,1,0,0,1-1.57.22,5.09,5.09,0,0,0-1.24-.56A4.36,4.36,0,0,0,180.6,312.62Z"/><path class="cls-2" d="M190.48,316.61a6.24,6.24,0,0,1,.45-2.39,5.69,5.69,0,0,1,1.22-1.9,5.35,5.35,0,0,1,1.82-1.24,5.55,5.55,0,0,1,2.28-.44,5.4,5.4,0,0,1,1.18.16,5.9,5.9,0,0,1,1.14.39,5.59,5.59,0,0,1,1,.61,4.66,4.66,0,0,1,.84.82l-.59.63a1,1,0,0,1-.72.35,1.15,1.15,0,0,1-.79-.25,5.08,5.08,0,0,0-1-.53,2.82,2.82,0,0,0-1.09-.2,3.64,3.64,0,0,0-1.51.31,3.45,3.45,0,0,0-1.14.84,3.87,3.87,0,0,0-.7,1.26,5.24,5.24,0,0,0-.23,1.58,4.66,4.66,0,0,0,.27,1.64,3.66,3.66,0,0,0,.76,1.22,3.33,3.33,0,0,0,1.14.77,3.93,3.93,0,0,0,1.42.26,3.62,3.62,0,0,0,1.19-.19,2.7,2.7,0,0,0,.94-.54,1.19,1.19,0,0,1,.81-.39,1,1,0,0,1,.74.28l.57.6a5.08,5.08,0,0,1-3,2.06,5.62,5.62,0,0,1-1.21.14,6,6,0,0,1-2.34-.45,5.46,5.46,0,0,1-1.83-1.25,5.78,5.78,0,0,1-1.18-1.86A6.06,6.06,0,0,1,190.48,316.61Z"/><path class="cls-2" d="M201.54,322.14V312a.92.92,0,0,1,.08-.38,1.4,1.4,0,0,1,.22-.32,1,1,0,0,1,.32-.21.92.92,0,0,1,.36-.07h6.16v.82a.86.86,0,0,1-.1.41,1.16,1.16,0,0,1-.24.34,1.13,1.13,0,0,1-.36.24,1,1,0,0,1-.41.09h-3.94V316a.85.85,0,0,1,.52-.41,2.61,2.61,0,0,1,.66-.09h3.47v.8a.74.74,0,0,1-.1.37,1,1,0,0,1-.24.34,1.21,1.21,0,0,1-.35.24.94.94,0,0,1-.43.1h-3.53v3.38a.91.91,0,0,1,.49-.42,2,2,0,0,1,.65-.1h4.12V321a1.08,1.08,0,0,1-.09.44,1,1,0,0,1-.24.36,1.37,1.37,0,0,1-.37.26,1.14,1.14,0,0,1-.46.09Z"/><path class="cls-2" d="M209.89,322.14V312a.92.92,0,0,1,.31-.74,1,1,0,0,1,.68-.28h.85l5.05,6.87a3.41,3.41,0,0,1,.57,1.2V312a.94.94,0,0,1,.3-.71.91.91,0,0,1,.67-.29h1.11v10.12a.86.86,0,0,1-.08.36.79.79,0,0,1-.2.31,1.07,1.07,0,0,1-.31.24,1,1,0,0,1-.41.09h-.84l-4.93-6.63a3.44,3.44,0,0,1-.68-1.39v7a.92.92,0,0,1-.3.7,1,1,0,0,1-.71.29Z"/><path class="cls-2" d="M220.36,312.83v-.68a1.13,1.13,0,0,1,.09-.45,1.26,1.26,0,0,1,.24-.36,1,1,0,0,1,.36-.24,1,1,0,0,1,.42-.08h8.28v.7a1.25,1.25,0,0,1-.08.42,1,1,0,0,1-.25.36,2.16,2.16,0,0,1-.35.24,1,1,0,0,1-.41.09h-2.58v8.31a.85.85,0,0,1-.09.38,1.21,1.21,0,0,1-.22.32,1,1,0,0,1-.31.22,1,1,0,0,1-.37.08H224v-9.31Z"/><path class="cls-2" d="M230.66,322.14V312a.92.92,0,0,1,.08-.38,1.81,1.81,0,0,1,.22-.32,1,1,0,0,1,.32-.21.92.92,0,0,1,.36-.07h6.16v.82a1,1,0,0,1-.09.41,1.42,1.42,0,0,1-.25.34,1.13,1.13,0,0,1-.36.24,1,1,0,0,1-.41.09h-3.94V316a.84.84,0,0,1,.53-.41,2.5,2.5,0,0,1,.66-.09h3.46v.8a.84.84,0,0,1-.09.37,1.25,1.25,0,0,1-.25.34,1.21,1.21,0,0,1-.35.24.94.94,0,0,1-.43.1h-3.53v3.38a.91.91,0,0,1,.49-.42,2,2,0,0,1,.66-.1H238V321a1.27,1.27,0,0,1-.08.44,1,1,0,0,1-.25.36,1.37,1.37,0,0,1-.37.26,1.11,1.11,0,0,1-.46.09Z"/><path class="cls-2" d="M245.77,322.14l-3.31-4.29H241.1v3.24a1,1,0,0,1-.3.74,1,1,0,0,1-.76.31h-1V312a.87.87,0,0,1,.09-.4,1.14,1.14,0,0,1,.22-.32,1,1,0,0,1,.31-.21A.91.91,0,0,1,240,311h2.83a7.38,7.38,0,0,1,1.65.18,4.37,4.37,0,0,1,1.39.6,3.3,3.3,0,0,1,1,1.05,3.1,3.1,0,0,1,.36,1.54,3.7,3.7,0,0,1-.18,1.18,2.73,2.73,0,0,1-.54.92,3.08,3.08,0,0,1-.81.67,4.62,4.62,0,0,1-1,.44l2.94,3.51a.56.56,0,0,1,.15.32.57.57,0,0,1,0,.34.71.71,0,0,1-.23.26.68.68,0,0,1-.38.11Zm-4.67-9.31v3.79a1.07,1.07,0,0,1,.53-.39,2.39,2.39,0,0,1,.66-.1h.65a2.55,2.55,0,0,0,1.57-.42,1.53,1.53,0,0,0,.58-1.27,1.36,1.36,0,0,0-.57-1.19,2.94,2.94,0,0,0-1.73-.42Z"/><path class="cls-2" d="M253.54,313.05a1.18,1.18,0,0,1-.71.46.93.93,0,0,1-.83-.31l-.41-.38a3.24,3.24,0,0,1,.56-.84,3.76,3.76,0,0,1,1.73-1.16,3.23,3.23,0,0,1,1.06-.18,4,4,0,0,1,2.63.79,3,3,0,0,1,1.05,2.25,3.77,3.77,0,0,1-.37,1.85,9.66,9.66,0,0,1-1.18,1.85l-2.19,2.92h4.33V321a1.14,1.14,0,0,1-.35.83,1.19,1.19,0,0,1-.88.35H251.8v-.41a1.59,1.59,0,0,1,.21-.82,4.18,4.18,0,0,1,.43-.66l3.18-4.21a4.62,4.62,0,0,0,.68-1.25,2.6,2.6,0,0,0,.19-1.12,1.44,1.44,0,0,0-1.47-1.32,1.84,1.84,0,0,0-.76.17A1.92,1.92,0,0,0,253.54,313.05Z"/><path class="cls-2" d="M263.68,310.64a3.35,3.35,0,0,1,2.95,1.48,10.42,10.42,0,0,1,0,8.95,3.69,3.69,0,0,1-5.91,0,8.14,8.14,0,0,1-1-4.49,8,8,0,0,1,1-4.46A3.34,3.34,0,0,1,263.68,310.64Zm0,10.21a1.37,1.37,0,0,0,.89-.3,2.15,2.15,0,0,0,.59-.86,5.13,5.13,0,0,0,.34-1.34,15.54,15.54,0,0,0,0-3.52,5,5,0,0,0-.34-1.34,2.11,2.11,0,0,0-.59-.85,1.42,1.42,0,0,0-.89-.29,1.36,1.36,0,0,0-.87.29,2.1,2.1,0,0,0-.58.85,6,6,0,0,0-.32,1.34,14.13,14.13,0,0,0,0,3.52,6.14,6.14,0,0,0,.32,1.34,2.14,2.14,0,0,0,.58.86A1.31,1.31,0,0,0,263.67,320.85Z"/><path class="cls-2" d="M271.57,322.29V313l-.68.63a.89.89,0,0,1-.63.22.77.77,0,0,1-.57-.3l-.48-.58,2.08-1.81a1.43,1.43,0,0,1,1-.36h1.38v10.55a.8.8,0,0,1-.1.41,1,1,0,0,1-.24.31,1.08,1.08,0,0,1-.34.2,1.07,1.07,0,0,1-.35.06Z"/><path class="cls-2" d="M281.2,311.18c0-.71.31-1.06.93-1.06h1v1.48h3.93v.59a.62.62,0,0,1-.2.47.63.63,0,0,1-.45.18h-1.62a2.18,2.18,0,0,1,1.09,1,3.12,3.12,0,0,1,.35,1.46,2.26,2.26,0,0,1-.22,1,3.06,3.06,0,0,1-.64.86,3.89,3.89,0,0,1-1,.66,4.84,4.84,0,0,1-1.27.39v1.59h5.11v.61a.59.59,0,0,1-.2.47.68.68,0,0,1-.47.17h-11.4v-.61a.59.59,0,0,1,.19-.48.71.71,0,0,1,.47-.16h4.39v-1.59a4.55,4.55,0,0,1-1.28-.37,3.39,3.39,0,0,1-1-.64,2.85,2.85,0,0,1-.63-.85,2.57,2.57,0,0,1-.22-1,2.61,2.61,0,0,1,.39-1.49,2.45,2.45,0,0,1,1.09-1h-2.3v-.58a.62.62,0,0,1,.19-.48.65.65,0,0,1,.46-.18h3.29Zm1,5.92A2.41,2.41,0,0,0,283,317a1.8,1.8,0,0,0,.67-.43,1.91,1.91,0,0,0,.44-.67,2.3,2.3,0,0,0,.16-.88,2.32,2.32,0,0,0-.15-.84,2,2,0,0,0-.43-.66A1.86,1.86,0,0,0,283,313a2.5,2.5,0,0,0-1.76,0,1.9,1.9,0,0,0-.69.44,2,2,0,0,0-.44.66,2.32,2.32,0,0,0-.15.84,2.3,2.3,0,0,0,.16.88,2.08,2.08,0,0,0,.45.67,1.84,1.84,0,0,0,.68.43A2.41,2.41,0,0,0,282.16,317.1Z"/><path class="cls-2" d="M288.11,314.48a4.54,4.54,0,0,1,.24-1.5,3.25,3.25,0,0,1,.7-1.18,3,3,0,0,1,1.1-.78,4,4,0,0,1,2.82,0,3.15,3.15,0,0,1,1,.65,3.34,3.34,0,0,1,.71,1,4.09,4.09,0,0,1,.35,1.29h.77V311.5c0-.82.38-1.23,1.12-1.23h.68v10.92a1.29,1.29,0,0,1-.29.92,1,1,0,0,1-.81.32h-.7v-7.27h-.78a4.22,4.22,0,0,1-.37,1.25,3.45,3.45,0,0,1-.72,1,3.22,3.22,0,0,1-1,.63,3.66,3.66,0,0,1-1.32.22,3.6,3.6,0,0,1-1.47-.28,3,3,0,0,1-1.1-.78,3.25,3.25,0,0,1-.7-1.18A4.54,4.54,0,0,1,288.11,314.48Zm5.15,0a3.6,3.6,0,0,0-.44-1.91,1.36,1.36,0,0,0-1.2-.7,1.34,1.34,0,0,0-1.2.7,4.37,4.37,0,0,0,0,3.82,1.34,1.34,0,0,0,1.2.7,1.36,1.36,0,0,0,1.2-.7A3.58,3.58,0,0,0,293.26,314.48Zm5.3-3c0-.82.37-1.23,1.12-1.23h.7v11.22a1.35,1.35,0,0,1-.28.92,1,1,0,0,1-.79.32h-.75Z"/><path class="cls-2" d="M308.86,319a.86.86,0,0,1-.58.27,1,1,0,0,1-.64-.18,11.49,11.49,0,0,1-1.42-1.19,7.28,7.28,0,0,1-1.19-1.49,5,5,0,0,1-.51.83,9.62,9.62,0,0,1-1.46,1.57,6.34,6.34,0,0,1-.77.59,1,1,0,0,1-.63.15.93.93,0,0,1-.58-.28l-.46-.43a12.59,12.59,0,0,0,1.37-1.12,7.09,7.09,0,0,0,1.09-1.31,6.59,6.59,0,0,0,.73-1.54,5.76,5.76,0,0,0,.26-1.8v-1.13a1.33,1.33,0,0,1,.3-.93,1,1,0,0,1,.85-.34H306v2.29a6.52,6.52,0,0,0,.2,1.64,5.42,5.42,0,0,0,.62,1.42,6.78,6.78,0,0,0,1,1.29,10.76,10.76,0,0,0,1.46,1.2Zm3.1,2.46a1.42,1.42,0,0,1-.28.94,1,1,0,0,1-.84.33H310v-7.9h-2.52v-.59a.59.59,0,0,1,.2-.47.69.69,0,0,1,.46-.17H310v-2.06a1.43,1.43,0,0,1,.28-.93,1,1,0,0,1,.84-.34h.8Z"/><path class="cls-2" d="M324.91,319a.85.85,0,0,1-.57.27,1,1,0,0,1-.64-.18,10.86,10.86,0,0,1-1.43-1.19,7.23,7.23,0,0,1-1.18-1.49,5.92,5.92,0,0,1-.52.83,8.81,8.81,0,0,1-.68.83c-.25.26-.51.51-.78.74a6.34,6.34,0,0,1-.77.59,1,1,0,0,1-.62.15,1,1,0,0,1-.59-.28l-.45-.43a13.5,13.5,0,0,0,1.36-1.12,7.09,7.09,0,0,0,1.09-1.31,6.59,6.59,0,0,0,.73-1.54,5.76,5.76,0,0,0,.27-1.8v-1.13a1.33,1.33,0,0,1,.29-.93,1,1,0,0,1,.85-.34h.78v2.29a6.53,6.53,0,0,0,.19,1.64,5.42,5.42,0,0,0,.62,1.42,6.78,6.78,0,0,0,1,1.29,10.76,10.76,0,0,0,1.46,1.2Zm3-3.52v6.21a1,1,0,0,1-.29.77,1.1,1.1,0,0,1-.79.27H326V311.3a1.06,1.06,0,0,1,.29-.78,1.1,1.1,0,0,1,.79-.28h.84v4h2v.59a.57.57,0,0,1-.65.65Z"/><path class="cls-2" d="M341.63,316.11v.58a.57.57,0,0,1-.65.65H329.56v-.58a.57.57,0,0,1,.65-.65h2.23v-1.87a2.5,2.5,0,0,1-.71-1.77,2.55,2.55,0,0,1,.29-1.19,2.72,2.72,0,0,1,.8-.93,4,4,0,0,1,1.22-.61,5.48,5.48,0,0,1,1.55-.22,5.55,5.55,0,0,1,1.56.22,4,4,0,0,1,1.22.61,2.84,2.84,0,0,1,.8.93,2.55,2.55,0,0,1,.29,1.19,2.53,2.53,0,0,1-.7,1.76v1.88Zm-10,4.63a2.57,2.57,0,0,1,.24-1.08,2.67,2.67,0,0,1,.74-.92,3.8,3.8,0,0,1,1.22-.64,6.15,6.15,0,0,1,3.47,0,4,4,0,0,1,1.23.64,2.72,2.72,0,0,1,.72.92,2.57,2.57,0,0,1,.24,1.08,2.62,2.62,0,0,1-.24,1.09,2.73,2.73,0,0,1-.72.95,4,4,0,0,1-1.23.66,5.61,5.61,0,0,1-1.74.25,5.7,5.7,0,0,1-1.74-.25,3.82,3.82,0,0,1-1.22-.66,2.76,2.76,0,0,1-.73-.95A2.62,2.62,0,0,1,331.66,320.74Zm1.92,0a1.69,1.69,0,0,0,.53,1.28,2,2,0,0,0,1.48.51,2.06,2.06,0,0,0,1.49-.51,1.82,1.82,0,0,0,0-2.55,2.1,2.1,0,0,0-1.49-.5,2.07,2.07,0,0,0-1.48.5A1.7,1.7,0,0,0,333.58,320.75Zm4-8.28a1.73,1.73,0,0,0-.54-1.31,2,2,0,0,0-1.42-.5,2,2,0,0,0-1.41.5,1.69,1.69,0,0,0-.54,1.31,1.81,1.81,0,0,0,.13.72,1.54,1.54,0,0,0,.41.56,1.78,1.78,0,0,0,.61.37,2.28,2.28,0,0,0,.8.13,2.24,2.24,0,0,0,.8-.13,1.83,1.83,0,0,0,.62-.37,1.41,1.41,0,0,0,.4-.56A1.65,1.65,0,0,0,337.55,312.47Zm-2,2.92a4.76,4.76,0,0,1-1.26-.14v.86h2.54v-.86A4.82,4.82,0,0,1,335.59,315.39Z"/><path class="cls-2" d="M353,310.7v1.12a7.21,7.21,0,0,1-.44,2.38,9,9,0,0,1-1.17,2.17,9.8,9.8,0,0,1-1.76,1.83,10.63,10.63,0,0,1-2.21,1.41,1.19,1.19,0,0,1-.6.11.76.76,0,0,1-.52-.22l-.56-.57a16.27,16.27,0,0,0,2-1.24,9,9,0,0,0,1.66-1.52,6.61,6.61,0,0,0,1.12-1.9,6.36,6.36,0,0,0,.41-2.33H346.3v-.59a.63.63,0,0,1,.2-.48.65.65,0,0,1,.47-.17Zm1.61,12V311.51a1.43,1.43,0,0,1,.28-.93,1,1,0,0,1,.84-.34h.8v4.15h2V315a.6.6,0,0,1-.19.48.68.68,0,0,1-.46.16h-1.36v5.82a1.42,1.42,0,0,1-.28.94,1,1,0,0,1-.84.33Z"/><path class="cls-2" d="M358.2,316.94v-.58a.57.57,0,0,1,.65-.65h11.42v.58a.57.57,0,0,1-.65.65Zm1.53-2.25V311.4a1.38,1.38,0,0,1,.29-.93,1,1,0,0,1,.84-.33h.78v3.31H369V314a.62.62,0,0,1-.18.48.64.64,0,0,1-.46.17Zm.55,6a2.48,2.48,0,0,1,.25-1.09,2.82,2.82,0,0,1,.75-.95,4.1,4.1,0,0,1,1.25-.66,5.4,5.4,0,0,1,1.74-.26A5.53,5.53,0,0,1,366,318a4,4,0,0,1,1.25.66,2.82,2.82,0,0,1,.75.95,2.48,2.48,0,0,1,.25,1.09,2.57,2.57,0,0,1-.25,1.11,2.85,2.85,0,0,1-.75,1,3.82,3.82,0,0,1-1.25.68,5.84,5.84,0,0,1-1.76.25,5.77,5.77,0,0,1-1.75-.25,3.82,3.82,0,0,1-1.25-.68,2.85,2.85,0,0,1-.75-1A2.71,2.71,0,0,1,360.28,320.7Zm1.92,0a1.89,1.89,0,0,0,.14.72,1.77,1.77,0,0,0,.42.59,1.81,1.81,0,0,0,.66.39,2.3,2.3,0,0,0,.85.14,2.37,2.37,0,0,0,.87-.14,1.81,1.81,0,0,0,.66-.39,1.77,1.77,0,0,0,.42-.59,1.78,1.78,0,0,0,0-1.43,1.77,1.77,0,0,0-.42-.59,1.81,1.81,0,0,0-.66-.39,2.37,2.37,0,0,0-.87-.14,2.3,2.3,0,0,0-.85.14,1.81,1.81,0,0,0-.66.39,1.77,1.77,0,0,0-.42.59A1.87,1.87,0,0,0,362.2,320.71Z"/><path class="cls-2" d="M219.59,257a12.27,12.27,0,0,1-1.72-1.07c-.58-.44-1.15-.92-1.71-1.43s-1.08-1-1.58-1.6a16.81,16.81,0,0,1-1.33-1.64,11.38,11.38,0,0,1-1.38,2,25.88,25.88,0,0,1-1.83,1.94,21.34,21.34,0,0,1-1.92,1.63,10.92,10.92,0,0,1-1.66,1.07,2.28,2.28,0,0,1-1.35.28,1.71,1.71,0,0,1-1.05-.47l-1.16-1.18a26.37,26.37,0,0,0,2.89-2.18,19.89,19.89,0,0,0,2.51-2.61,13.08,13.08,0,0,0,1.78-3,8.32,8.32,0,0,0,.67-3.24v-1.82h-6.41v-1.44a1.44,1.44,0,0,1,.45-1.12,1.53,1.53,0,0,1,1.09-.42h15.89v1.44a1.45,1.45,0,0,1-.45,1.12,1.55,1.55,0,0,1-1.09.42h-4.87v1.82a6.68,6.68,0,0,0,.61,2.71,11.93,11.93,0,0,0,1.65,2.71,16.44,16.44,0,0,0,2.46,2.48,18.46,18.46,0,0,0,3.06,2L222,256.66a1.66,1.66,0,0,1-1.2.51A2.4,2.4,0,0,1,219.59,257Zm10.18,10v1.41a1.5,1.5,0,0,1-1.54,1.56H208.67V262a3.35,3.35,0,0,1,.64-2.21,2.43,2.43,0,0,1,2-.77h2v7.85Zm-4.9-24.28a2.58,2.58,0,0,1,.74-1.87,2.49,2.49,0,0,1,1.86-.75h2v19.21a2.56,2.56,0,0,1-.73,1.87,2.48,2.48,0,0,1-1.86.76h-2Z"/><path class="cls-2" d="M249.59,255.38a16.91,16.91,0,0,1-3.1-2,15.39,15.39,0,0,1-2.72-2.82,9.67,9.67,0,0,1-1.29,1.75,18.16,18.16,0,0,1-1.73,1.66,22.1,22.1,0,0,1-1.87,1.43,17.62,17.62,0,0,1-1.68,1,2.19,2.19,0,0,1-1.35.26,1.87,1.87,0,0,1-1-.48L233.55,255a28.42,28.42,0,0,0,3-2.08,16.22,16.22,0,0,0,2.48-2.41,11.26,11.26,0,0,0,1.66-2.76,7.85,7.85,0,0,0,.61-3.09v-1h-6.44v-1.44a1.44,1.44,0,0,1,.45-1.12,1.53,1.53,0,0,1,1.09-.42h16.08v1.44a1.45,1.45,0,0,1-.45,1.12,1.53,1.53,0,0,1-1.09.42h-5v1a7.43,7.43,0,0,0,.56,2.85,9.72,9.72,0,0,0,1.56,2.53,14.55,14.55,0,0,0,2.3,2.19,20.53,20.53,0,0,0,2.82,1.81L252,255.09a2.11,2.11,0,0,1-1.24.5A2.23,2.23,0,0,1,249.59,255.38Zm-8.13,8.84a6.56,6.56,0,0,1,.75-3.16,7.27,7.27,0,0,1,2-2.37,9.48,9.48,0,0,1,3-1.49,13.93,13.93,0,0,1,7.47,0,9.53,9.53,0,0,1,3,1.49,7.1,7.1,0,0,1,2.07,2.37,7.07,7.07,0,0,1,0,6.34,7.27,7.27,0,0,1-2.07,2.39,9.35,9.35,0,0,1-3,1.5,13.67,13.67,0,0,1-7.47,0,9.3,9.3,0,0,1-3-1.5,7.44,7.44,0,0,1-2-2.39A6.61,6.61,0,0,1,241.46,264.22Zm14.57,0a5.15,5.15,0,0,0-.34-1.86,4.37,4.37,0,0,0-1-1.57,4.85,4.85,0,0,0-1.58-1.07,5.63,5.63,0,0,0-4.17,0,4.5,4.5,0,0,0-2.54,2.64,5.15,5.15,0,0,0-.34,1.86,5.23,5.23,0,0,0,.34,1.89,4.58,4.58,0,0,0,1,1.58,4.86,4.86,0,0,0,1.57,1.09,5,5,0,0,0,2.06.4,5.19,5.19,0,0,0,2.09-.4,4.9,4.9,0,0,0,1.58-1.09,4.58,4.58,0,0,0,1-1.58A5.23,5.23,0,0,0,256,264.22Zm.13-7.82v-7.2h-5.54v-1.54a1.45,1.45,0,0,1,.45-1.12,1.51,1.51,0,0,1,1.08-.42h4V243a3.39,3.39,0,0,1,.67-2.25,2.5,2.5,0,0,1,2-.8h1.95v13.42a3.37,3.37,0,0,1-.67,2.24,2.47,2.47,0,0,1-2,.8Z"/><path class="cls-2" d="M284,254.58a1.78,1.78,0,0,1-1.24.69,2.66,2.66,0,0,1-1.61-.31,13.48,13.48,0,0,1-1.57-.91,15.66,15.66,0,0,1-1.59-1.19,19.34,19.34,0,0,1-1.49-1.37,13.16,13.16,0,0,1-1.25-1.49,10.47,10.47,0,0,1-1.28,1.86,20,20,0,0,1-1.63,1.69,20.82,20.82,0,0,1-1.75,1.46,15.92,15.92,0,0,1-1.65,1.11,2.89,2.89,0,0,1-1.53.41A1.85,1.85,0,0,1,266,256l-1.12-1.22a30.1,30.1,0,0,0,3-2.08,16.46,16.46,0,0,0,2.45-2.41,11.2,11.2,0,0,0,1.67-2.72,7.89,7.89,0,0,0,.6-3.07v-1.15a3.3,3.3,0,0,1,.71-2.25,2.51,2.51,0,0,1,2-.8h1.93v3.27a7.8,7.8,0,0,0,.57,3,10.1,10.1,0,0,0,1.59,2.61,14.23,14.23,0,0,0,2.41,2.28,26.49,26.49,0,0,0,3.05,2Zm-11.05,9.57a6.59,6.59,0,0,1,.73-3.12,7.58,7.58,0,0,1,2-2.39,9.6,9.6,0,0,1,3-1.53,12.82,12.82,0,0,1,7.43,0,9.82,9.82,0,0,1,3,1.53,7.36,7.36,0,0,1,2,2.39,6.59,6.59,0,0,1,.74,3.12,6.67,6.67,0,0,1-.74,3.14,7.36,7.36,0,0,1-2,2.42,9.64,9.64,0,0,1-3,1.55,12.82,12.82,0,0,1-7.43,0,9.41,9.41,0,0,1-3-1.54,7.34,7.34,0,0,1-2-2.41A6.78,6.78,0,0,1,272.94,264.15Zm14.38,0a5.13,5.13,0,0,0-.37-1.92,4.83,4.83,0,0,0-1-1.55,4.58,4.58,0,0,0-1.54-1,5.65,5.65,0,0,0-4,0,4.58,4.58,0,0,0-1.54,1,4.78,4.78,0,0,0-1,1.55,5.32,5.32,0,0,0-.35,1.92,5.42,5.42,0,0,0,.35,2,4.62,4.62,0,0,0,1,1.55,5,5,0,0,0,1.55,1,4.86,4.86,0,0,0,2,.38,4.92,4.92,0,0,0,2-.38,4.76,4.76,0,0,0,1.54-1,5,5,0,0,0,1-1.55A5.22,5.22,0,0,0,287.32,264.15Zm.28-19.34v-2.24a2.56,2.56,0,0,1,.74-1.87,2.47,2.47,0,0,1,1.86-.76h2v13.71a2.56,2.56,0,0,1-.74,1.87,2.5,2.5,0,0,1-1.86.76h-2v-8.49h-6.18v-1.38a1.61,1.61,0,0,1,.42-1.15,1.42,1.42,0,0,1,1.09-.45Z"/><path class="cls-2" d="M308,247.85a7.93,7.93,0,0,1,.66-3.25,7.45,7.45,0,0,1,1.84-2.56,8.36,8.36,0,0,1,2.85-1.66,10.8,10.8,0,0,1,3.68-.6,10.12,10.12,0,0,1,3.54.61,8.66,8.66,0,0,1,2.79,1.68,7.56,7.56,0,0,1,1.81,2.55,8.13,8.13,0,0,1,.64,3.23,8.23,8.23,0,0,1-.64,3.25,7.45,7.45,0,0,1-1.81,2.57,8.66,8.66,0,0,1-2.79,1.68A10.12,10.12,0,0,1,317,256a10.8,10.8,0,0,1-3.68-.61,8.74,8.74,0,0,1-2.85-1.68,7.39,7.39,0,0,1-1.84-2.57A7.9,7.9,0,0,1,308,247.85Zm14.64,21.91a9.53,9.53,0,0,1-1.22-.76,14.79,14.79,0,0,1-1.23-1,11.84,11.84,0,0,1-1.12-1.12,9.4,9.4,0,0,1-.92-1.17,7.32,7.32,0,0,1-.8,1.16,13,13,0,0,1-1,1.08c-.37.34-.74.66-1.12,1a10.16,10.16,0,0,1-1.09.72,2.88,2.88,0,0,1-1.46.46,2,2,0,0,1-1.26-.59l-1.13-1.06a17,17,0,0,0,4.15-3.26,5.67,5.67,0,0,0,1.43-3.85,2.9,2.9,0,0,1,.72-2.11,2.66,2.66,0,0,1,2-.74h1.86v2.82a5.6,5.6,0,0,0,.81,3,7.5,7.5,0,0,0,2.2,2.22,6.9,6.9,0,0,0,2.08-2.21,5.73,5.73,0,0,0,.83-3,3,3,0,0,1,.7-2.11,2.64,2.64,0,0,1,2-.74h1.89v2.82a4.19,4.19,0,0,0,.48,1.91,8.21,8.21,0,0,0,1.28,1.81,13.36,13.36,0,0,0,1.84,1.63,25,25,0,0,0,2.16,1.41l-1,1.25a1.57,1.57,0,0,1-1.22.59,2.72,2.72,0,0,1-1.53-.37,13.77,13.77,0,0,1-2.26-1.65,14.58,14.58,0,0,1-2.1-2.22,10.61,10.61,0,0,1-2.08,2.43,12.07,12.07,0,0,1-2.37,1.67,2,2,0,0,1-.72.2A1.48,1.48,0,0,1,322.61,269.76Zm-10-21.91a7.07,7.07,0,0,0,.31,2.15,5.27,5.27,0,0,0,.85,1.71,3.71,3.71,0,0,0,1.34,1.12,3.89,3.89,0,0,0,1.79.4,3.94,3.94,0,0,0,1.8-.4,3.71,3.71,0,0,0,1.34-1.12,5.48,5.48,0,0,0,.85-1.71,7.4,7.4,0,0,0,.3-2.15,7.69,7.69,0,0,0-.28-2.14A5.12,5.12,0,0,0,320,244a4,4,0,0,0-1.36-1.1,4,4,0,0,0-4.95,1.1,4.94,4.94,0,0,0-.85,1.7A7.69,7.69,0,0,0,312.58,247.85Zm17.33-5.22a2.57,2.57,0,0,1,.73-1.87,2.49,2.49,0,0,1,1.86-.75h2v14a2.6,2.6,0,0,1-.74,1.88,2.49,2.49,0,0,1-1.85.75h-2Z"/><path class="cls-2" d="M340.12,242.76a1.49,1.49,0,0,1,.47-1.14,1.58,1.58,0,0,1,1.1-.43H353a29.73,29.73,0,0,1-.87,8.26h3.62V243c0-2,.9-2.94,2.69-2.94h1.63v26.26a3.17,3.17,0,0,1-.7,2.21,2.52,2.52,0,0,1-1.95.76h-1.67V252.43h-4.61a19.65,19.65,0,0,1-8.55,10,2.73,2.73,0,0,1-1.38.4,1.67,1.67,0,0,1-1.28-.53l-1.12-1.12a23.24,23.24,0,0,0,7.48-7.72,18.35,18.35,0,0,0,2.22-9.25h-8.39Zm22.23.19c0-2,.89-2.94,2.69-2.94h1.69v27a3.25,3.25,0,0,1-.68,2.21,2.45,2.45,0,0,1-1.91.77h-1.79Z"/><rect class="cls-2" x="499.29" y="223.05" width="135" height="47" rx="23.5"/><path class="cls-1" d="M529.8,238.52l0,1.65a10.59,10.59,0,0,1-.65,3.52,12.79,12.79,0,0,1-1.72,3.19,15,15,0,0,1-2.59,2.71,15.86,15.86,0,0,1-3.27,2.07,1.71,1.71,0,0,1-.88.16,1.16,1.16,0,0,1-.77-.32l-.77-.84a23,23,0,0,0,3.83-2.51,10.4,10.4,0,0,0,2.71-3.28h-5.73V244a.91.91,0,0,1,.28-.71,1,1,0,0,1,.7-.25h5.48c.1-.42.19-.85.25-1.29a8.87,8.87,0,0,0,.1-1.4h-6.81v-.86a.89.89,0,0,1,.28-.71,1,1,0,0,1,.7-.26Zm2.71,17.69V239.72a2,2,0,0,1,.41-1.37,1.49,1.49,0,0,1,1.23-.49h1.18v16.55q0,1.8-1.65,1.8Z"/><path class="cls-1" d="M543.07,241.53q.07-.45.12-.81c0-.23,0-.44,0-.61h-5.15v-.88a.88.88,0,0,1,.28-.69.92.92,0,0,1,.66-.25H546a10.37,10.37,0,0,1-.36,3.43,9.35,9.35,0,0,1-1.28,2.72,8.68,8.68,0,0,1-2,2,11.1,11.1,0,0,1-2.43,1.34,2.37,2.37,0,0,1-1,.17,1.31,1.31,0,0,1-.9-.42l-.41-.57a9.81,9.81,0,0,0,4.75-3.64h-4.08v-.84a1,1,0,0,1,.26-.71.93.93,0,0,1,.68-.27Zm.45,9.48h7.7v-.73a1.53,1.53,0,0,1,.45-1.18,1.69,1.69,0,0,1,1.2-.43H554V254a1.92,1.92,0,0,1-.22.89,2.43,2.43,0,0,1-1.33,1.16,2.43,2.43,0,0,1-.87.16h-10.9v-5.67a2.12,2.12,0,0,1,.43-1.39,1.59,1.59,0,0,1,1.26-.5h1.12Zm7.7,1.83h-7.7v1.57h7.7ZM554.3,246a2,2,0,0,1-.42,1.35,1.49,1.49,0,0,1-1.17.46h-1.1v-4.48h-1.47V246a2,2,0,0,1-.43,1.35,1.56,1.56,0,0,1-1.2.46h-1v-8.15c0-1.2.54-1.8,1.63-1.8h1v3.65h1.47v-1.85a1.91,1.91,0,0,1,.42-1.34,1.52,1.52,0,0,1,1.19-.46h1.08Z"/><path class="cls-1" d="M569.81,251.88v-4.23a2,2,0,0,1,.42-1.36,1.56,1.56,0,0,1,1.23-.5h1.14v6.09H579v.9a.88.88,0,0,1-.28.7,1,1,0,0,1-.7.24H561.23v-.9a.88.88,0,0,1,.29-.7,1,1,0,0,1,.69-.24H565v-4.23a2,2,0,0,1,.42-1.36,1.56,1.56,0,0,1,1.23-.5h1.14v6.09Zm6.82-4.46a2.27,2.27,0,0,1-.51,1.29,1.46,1.46,0,0,1-1.14.4h-1.3c.11-.87.19-1.8.26-2.81s.1-2,.1-2.87v-3H563.29v-.89a.83.83,0,0,1,.3-.69,1,1,0,0,1,.69-.25h12.58v4.58c0,.31,0,.66,0,1.05s0,.77-.05,1.17,0,.76-.07,1.12A8.94,8.94,0,0,1,576.63,247.42Z"/><path class="cls-1" d="M587.07,237.11v1.67h4.32v.88a.9.9,0,0,1-.27.7,1,1,0,0,1-.69.24h-1.22a1.38,1.38,0,0,1,.53.37,2.58,2.58,0,0,1,.42.55,3.32,3.32,0,0,1,.27.64,2.05,2.05,0,0,1,.1.62,2.94,2.94,0,0,1-.93,2.2,5,5,0,0,1-2.53,1.22v1.43l1.24,0c.46,0,.93,0,1.42-.08s1-.1,1.49-.18,1-.18,1.43-.3v-7.3a2.07,2.07,0,0,1,.41-1.37,1.53,1.53,0,0,1,1.24-.49h1.16v4.84h2.67v.89a.91.91,0,0,1-.28.67.93.93,0,0,1-.68.27h-1.71v4.87a2,2,0,0,1-.44,1.37,1.6,1.6,0,0,1-1.23.48h-1.14v-2.4a15.77,15.77,0,0,1-3.23.48q-1.75.09-4,.09h-6.2v-.84a.86.86,0,0,1,.29-.7,1.08,1.08,0,0,1,.69-.25h4V246.2a4.65,4.65,0,0,1-2.45-1.2,3,3,0,0,1-.91-2.22,2.8,2.8,0,0,1,.34-1.24,2.8,2.8,0,0,1,.39-.56,1.48,1.48,0,0,1,.5-.38H580v-.88a.9.9,0,0,1,.27-.69.93.93,0,0,1,.67-.25h3.36v-.16a1.37,1.37,0,0,1,1.49-1.51Zm8.68,18.16a1,1,0,0,1-.25.72.9.9,0,0,1-.69.26H582.44v-3.51c0-1.17.56-1.75,1.67-1.75h1.06v3.44h10.58Zm-10-10.62a1.82,1.82,0,0,0,.86-.19,2,2,0,0,0,.64-.48,1.9,1.9,0,0,0,.4-.67,2.18,2.18,0,0,0,.14-.76,2.28,2.28,0,0,0-.14-.77,1.86,1.86,0,0,0-.4-.66,1.89,1.89,0,0,0-.65-.45,2.11,2.11,0,0,0-.85-.16,1.82,1.82,0,0,0-1.48.61,2.1,2.1,0,0,0-.52,1.43,2.53,2.53,0,0,0,.12.77,2.08,2.08,0,0,0,.39.68,1.92,1.92,0,0,0,.62.47A2,2,0,0,0,585.7,244.65Z"/><path class="cls-1" d="M610.87,244.65a.9.9,0,0,1-.24.67,1.33,1.33,0,0,1-.64.31c-.19,0-.46.08-.83.12s-.77.07-1.21.1l-1.35.08-1.27,0v1.77c0,1.23-.52,1.85-1.57,1.85h-1.21v-3.54h-4.76v-.86a.91.91,0,0,1,.28-.69.93.93,0,0,1,.67-.25h6.45l.95,0q.15-1.12.18-2c0-.6,0-1.09,0-1.46v-.82h-7.21V239a.81.81,0,0,1,.28-.68,1.06,1.06,0,0,1,.7-.24h9v2.32c0,.36,0,.7,0,1a8.44,8.44,0,0,1-.07.89c0,.29-.06.58-.1.87s-.09.59-.14.92c.34,0,.68-.06,1-.11s.69-.1,1-.17Zm3.83,9.74v.86a.94.94,0,0,1-.27.7.93.93,0,0,1-.67.26H601v-3.43a2,2,0,0,1,.4-1.36,1.49,1.49,0,0,1,1.21-.47h1.22v3.44Zm-3-14.73c0-1.2.53-1.8,1.61-1.8h1.21v12.4a1.93,1.93,0,0,1-.43,1.36,1.57,1.57,0,0,1-1.2.47h-1.19v-3.18h-4.11v-.84a.91.91,0,0,1,.28-.7.9.9,0,0,1,.66-.27h3.17Z"/><line class="cls-3" x1="110.89" y1="298.17" x2="640.68" y2="298.17"/><path class="cls-2" d="M138.16,232.46a1.63,1.63,0,0,1,1.53-1.09h0a1.63,1.63,0,0,1,1.54,1.11l6.51,19.25,4.49-13.55a1.66,1.66,0,0,1,1.47-1.12,1.6,1.6,0,0,1,1.57,1l3.17,7.28.1-.21a1.62,1.62,0,0,1,1.47-.93h13.87c5.57-10.87,3.17-16.39,3.17-16.39a15.27,15.27,0,0,0-14.73-10.37c-11.65,0-14.73,12.73-14.73,12.73s-2.24-12.73-14.73-12.73h-.37a15,15,0,0,0-14,19.11,42.18,42.18,0,0,0,3.72,8.8h11.4Z"/><path class="cls-2" d="M159.87,250a1.64,1.64,0,0,1-1.47.94h0a1.61,1.61,0,0,1-1.46-1L154,243.23l-4.69,14.13a1.65,1.65,0,0,1-1.54,1.12h0a1.62,1.62,0,0,1-1.54-1.11L139.67,238l-3.32,9.49a1.61,1.61,0,0,1-1.53,1.09H124.19c8.87,14,23.41,25.62,23.41,25.62,12.77-10.78,20.19-19.71,24.46-26.77h-11Z"/><path class="cls-2" d="M112.45,245.33a1.63,1.63,0,0,0,0,3.25h11.74c-.68-1.07-1.32-2.15-1.93-3.25Z"/><path class="cls-2" d="M183.87,244.18h-10c-.53,1-1.15,2.12-1.83,3.25h11.81a1.63,1.63,0,1,0,0-3.25Z"/></g></svg>